# This file uses centimeters as units for non-parametric coordinates.

mtllib props_foundry_chute_closed_beveltip_1.mtl
v -2.838215 -2.838215 -19.479120
v 0.000000 -3.578510 -19.479120
v 2.838215 -2.838215 -19.479120
v -2.838215 -2.838215 16.548552
v 0.000000 -3.578510 16.548552
v 2.838215 -2.838215 16.548552
v -3.578510 0.000000 16.548552
v 3.578510 0.000000 16.548552
v -2.838215 2.838215 16.548552
v 0.000000 3.578510 16.548552
v 2.838215 2.838215 16.548552
v -2.838215 2.838215 -15.374693
v 0.000000 3.578510 -15.374693
v 2.838215 2.838215 -15.374693
v -3.578510 0.000000 -16.548552
v 3.578510 0.000000 -16.548552
v -2.392500 -2.392501 16.548552
v 0.000000 -3.013843 16.548552
v -3.013844 0.000001 16.548552
v 2.392498 -2.392501 16.548552
v 3.013844 0.000001 16.548552
v 0.000000 3.013841 16.548552
v -2.392500 2.392504 16.548552
v 2.392498 2.392504 16.548552
v -2.392500 2.392504 -15.374693
v 0.000000 3.013841 -15.374693
v -3.013844 0.000001 -16.548552
v 2.392498 2.392504 -15.374693
v 3.013844 0.000001 -16.548552
v 0.000000 -3.013843 -19.479120
v -2.392500 -2.392501 -19.479120
v 2.392498 -2.392501 -19.479120
vt 0.929002 0.125167
vt 0.995382 0.125167
vt 0.530720 0.125166
vt 0.464341 0.988777
vt 0.928998 0.988778
vt 0.530721 0.988777
vt 0.796238 0.988777
vt 0.729859 0.988777
vt 0.663480 0.988777
vt 0.729861 0.214706
vt 0.796242 0.214706
vt 0.663481 0.214706
vt 0.597100 0.190082
vt 0.464341 0.125166
vt 0.995378 0.988778
vt 0.597101 0.988777
vt 0.285639 0.214706
vt 0.285638 0.988777
vt 0.229683 0.214706
vt 0.862622 0.190083
vt 0.173728 0.214706
vt 0.862618 0.988777
vt 0.173728 0.988777
vt 0.229683 0.988777
vt 0.663000 0.045727
vt 0.729380 0.028414
vt 0.729380 0.041620
vt 0.673425 0.056152
vt 0.795760 0.045727
vt 0.785336 0.056152
vt 0.645686 0.112107
vt 0.658893 0.112107
vt 0.813074 0.112107
vt 0.799868 0.112107
vt 0.663000 0.178487
vt 0.673425 0.168063
vt 0.795760 0.178487
vt 0.785336 0.168063
vt 0.729380 0.195801
vt 0.729380 0.182595
vt 0.169553 0.048015
vt 0.235933 0.030701
vt 0.235933 0.043907
vt 0.179978 0.058439
vt 0.302313 0.048015
vt 0.291889 0.058439
vt 0.152239 0.114395
vt 0.165446 0.114395
vt 0.319627 0.114395
vt 0.306421 0.114395
vt 0.169553 0.180775
vt 0.179978 0.170350
vt 0.302313 0.180775
vt 0.291889 0.170350
vt 0.235933 0.198089
vt 0.235933 0.184882
vt 0.061816 0.988777
vt 0.453505 0.988777
vt 0.397549 0.988778
vt 0.005861 0.125166
vt 0.061816 0.125166
vt 0.397551 0.125166
vt 0.117772 0.988777
vt 0.005861 0.988777
vt 0.453506 0.125166
vt 0.117772 0.190083
vt 0.341595 0.190082
vt 0.341594 0.988777
vn 0.000000 -1.000000 0.000000
vn 0.000000 -1.000000 0.000000
vn -0.252387 -0.967626 0.000000
vn -0.252387 -0.967626 0.000000
vn 0.252387 -0.967626 0.000000
vn 0.252387 -0.967626 0.000000
vn 0.000000 1.000000 0.000000
vn 0.000000 1.000000 0.000000
vn -0.252387 0.967626 0.000000
vn -0.252387 0.967626 0.000000
vn 0.252387 0.967626 0.000000
vn 0.252387 0.967626 0.000000
vn 1.000000 -0.000000 0.000000
vn 0.967626 0.252387 0.000000
vn 0.967626 0.252387 0.000000
vn 1.000000 -0.000000 0.000000
vn 0.967626 -0.252387 0.000000
vn 0.967626 -0.252387 0.000000
vn -1.000000 0.000000 0.000000
vn -1.000000 0.000000 0.000000
vn -0.967626 0.252387 0.000000
vn -0.967626 0.252387 0.000000
vn -0.967626 -0.252387 0.000000
vn -0.967626 -0.252387 0.000000
vn 0.000001 0.000000 1.000000
vn 0.000000 0.000000 1.000000
vn 0.000000 0.000000 1.000000
vn 0.000001 0.000000 1.000000
vn -0.000001 0.000000 1.000000
vn -0.000001 0.000000 1.000000
vn -0.000001 0.000000 1.000000
vn -0.000001 0.000000 1.000000
vn 0.000000 0.000000 1.000000
vn 0.000000 0.000000 1.000000
vn -0.000000 0.000000 1.000000
vn -0.000002 0.000000 1.000000
vn -0.000002 0.000000 1.000000
vn -0.000000 0.000000 1.000000
vn 0.000001 0.000000 1.000000
vn 0.000001 0.000000 1.000000
vn 0.083056 0.188281 -0.978597
vn 0.000000 0.000000 -1.000000
vn 0.000000 0.000000 -1.000000
vn 0.083056 0.188281 -0.978597
vn -0.071296 0.548237 -0.833278
vn -0.071296 0.548237 -0.833278
vn -0.083055 0.188281 -0.978597
vn -0.083055 0.188281 -0.978597
vn 0.071297 0.548237 -0.833278
vn 0.071297 0.548237 -0.833278
vn -0.000000 0.000000 -1.000000
vn -0.163160 0.369865 -0.914647
vn -0.163160 0.369865 -0.914647
vn -0.000000 0.000000 -1.000000
vn 0.163160 0.369865 -0.914647
vn 0.163160 0.369865 -0.914647
vn 0.967892 0.251366 0.000000
vn 0.967892 0.251366 0.000000
vn 0.967892 0.251366 0.000000
vn 0.967892 0.251366 0.000000
vn 0.251364 -0.967893 0.000000
vn 0.251364 -0.967893 0.000000
vn 0.251364 -0.967893 0.000000
vn 0.251364 -0.967893 0.000000
vn 0.967892 -0.251366 0.000000
vn 0.967892 -0.251366 0.000000
vn 0.967892 -0.251366 0.000000
vn 0.967892 -0.251366 0.000000
vn -0.251364 -0.967893 0.000000
vn -0.251364 -0.967893 0.000000
vn -0.251364 -0.967893 0.000000
vn -0.251364 -0.967893 0.000000
vn -0.967892 -0.251367 0.000000
vn -0.967892 -0.251367 0.000000
vn -0.967892 -0.251367 0.000000
vn -0.967892 -0.251367 0.000000
vn 0.251366 0.967892 0.000000
vn 0.251366 0.967892 0.000000
vn 0.251366 0.967892 0.000000
vn 0.251366 0.967892 0.000000
vn -0.967892 0.251367 0.000000
vn -0.967892 0.251367 0.000000
vn -0.967892 0.251367 0.000000
vn -0.967892 0.251367 0.000000
vn -0.251366 0.967892 0.000000
vn -0.251366 0.967892 0.000000
vn -0.251366 0.967892 0.000000
vn -0.251366 0.967892 0.000000
usemtl lambert3SG
f 2/2/1 5/15/2 4/5/3 1/1/4
f 6/6/5 5/4/2 2/14/1 3/3/6
f 10/8/7 13/10/8 12/11/9 9/7/10
f 14/12/11 13/10/8 10/8/7 11/9/12
f 16/13/13 14/12/14 11/9/15 8/16/16
f 6/6/17 3/3/18 16/13/13 8/16/16
f 15/20/19 7/22/20 9/7/21 12/11/22
f 1/1/23 4/5/24 7/22/20 15/20/19
f 4/25/25 5/26/26 18/27/27 17/28/28
f 7/31/29 4/25/25 17/28/28 19/32/30
f 5/26/26 6/29/31 20/30/32 18/27/27
f 6/29/31 8/33/33 21/34/34 20/30/32
f 10/39/35 9/35/36 23/36/37 22/40/38
f 9/35/36 7/31/29 19/32/30 23/36/37
f 8/33/33 11/37/39 24/38/40 21/34/34
f 11/37/39 10/39/35 22/40/38 24/38/40
f 12/41/41 13/42/42 26/43/43 25/44/44
f 15/47/45 12/41/41 25/44/44 27/48/46
f 13/42/42 14/45/47 28/46/48 26/43/43
f 14/45/47 16/49/49 29/50/50 28/46/48
f 2/55/51 1/51/52 31/52/53 30/56/54
f 1/51/52 15/47/45 27/48/46 31/52/53
f 16/49/49 3/53/55 32/54/56 29/50/50
f 3/53/55 2/55/51 30/56/54 32/54/56
f 19/63/57 17/57/58 31/61/59 27/66/60
f 22/24/61 23/23/62 25/21/63 26/19/64
f 23/23/65 19/63/66 27/66/67 25/21/68
f 24/18/69 22/24/70 26/19/71 28/17/72
f 24/18/73 28/17/74 29/67/75 21/68/76
f 18/64/77 30/60/78 31/61/79 17/57/80
f 21/68/81 29/67/82 32/62/83 20/59/84
f 20/59/85 32/62/86 30/65/87 18/58/88
