# This file uses centimeters as units for non-parametric coordinates.

mtllib props_foundry_chute_open_beveltip_1.mtl
v -1.250326 -3.018403 -15.526861
v 1.243357 -3.001580 -15.493607
v 3.018556 -1.250342 -13.445311
v -1.250326 -3.018554 15.522003
v 1.243357 -3.001729 15.522003
v 3.018556 -1.250325 15.522003
v -3.001730 -1.243358 15.522003
v 3.001731 0.154080 15.522004
v -3.018554 0.161048 15.522004
v -3.018554 0.160897 -12.690291
v -3.001730 -1.243375 -13.437582
v 3.001731 0.153930 -12.701247
v -1.045597 -2.524298 15.522002
v 1.038839 -2.507981 15.522003
v -2.507982 -1.038839 15.522003
v 2.524297 -1.045599 15.522002
v 2.507981 0.161049 15.522003
v -2.524297 0.161048 15.522003
v -2.524297 0.160897 -12.690292
v -2.507982 -1.038877 -13.182432
v 2.507981 0.160898 -12.690292
v 1.038839 -2.507879 -14.923920
v -1.045597 -2.524194 -14.934110
v 2.524297 -1.045635 -13.192067
vt 0.286529 0.004647
vt 0.286619 0.995543
vt 0.206377 0.995543
vt 0.206287 0.004647
vt 0.366488 0.995543
vt 0.366453 0.070368
vt 0.411425 0.086799
vt 0.411418 0.995543
vt 0.126406 0.070368
vt 0.126442 0.995543
vt 0.081283 0.995543
vt 0.081290 0.086799
vt 0.741385 0.995543
vt 0.804761 0.995543
vt 0.867846 0.995543
vt 0.678364 0.995543
vt 0.641930 0.995543
vt 0.904270 0.995543
vt 0.904263 0.078583
vt 0.867879 0.062153
vt 0.804846 0.004647
vt 0.741470 0.004647
vt 0.678397 0.062153
vt 0.641922 0.078583
vt 0.478701 0.837287
vt 0.558117 0.838346
vt 0.551499 0.854029
vt 0.485117 0.853072
vt 0.614287 0.894499
vt 0.598503 0.900916
vt 0.422548 0.893457
vt 0.438231 0.900073
vt 0.613456 0.939224
vt 0.597729 0.939342
vt 0.421718 0.938181
vt 0.437459 0.938284
vt 0.612800 0.143958
vt 0.613040 0.209183
vt 0.597300 0.209031
vt 0.597032 0.153304
vt 0.557392 0.060984
vt 0.550770 0.083873
vt 0.477970 0.061001
vt 0.484380 0.083992
vt 0.421064 0.141791
vt 0.436763 0.151450
vt 0.421306 0.207014
vt 0.437030 0.207489
vt 0.627485 0.995543
vt 0.627478 0.078583
vt 0.918815 0.995543
vt 0.918807 0.078583
vn 0.382673 -0.923884 -0.000003
vn 0.382673 -0.923884 -0.000003
vn 0.006747 -0.999977 -0.000005
vn 0.006747 -0.999977 -0.000005
vn 0.702303 -0.711878 -0.000002
vn 0.702303 -0.711878 -0.000002
vn 0.999928 0.011980 -0.000000
vn 0.999928 0.011980 -0.000000
vn 0.999928 0.011980 -0.000000
vn 0.999928 0.011980 -0.000000
vn -0.922871 -0.385110 -0.000001
vn -0.922871 -0.385110 -0.000001
vn -0.999928 -0.011979 0.000000
vn -0.999928 -0.011979 0.000000
vn -0.711845 -0.702337 -0.000002
vn -0.711845 -0.702337 -0.000002
vn 0.000001 0.000001 1.000000
vn 0.000000 0.000001 1.000000
vn 0.000000 0.000001 1.000000
vn 0.000001 0.000001 1.000000
vn 0.000001 0.000000 1.000000
vn 0.000001 0.000000 1.000000
vn -0.000001 0.000000 1.000000
vn -0.000001 0.000000 1.000000
vn -0.000003 -0.000001 1.000000
vn -0.000003 -0.000001 1.000000
vn 0.000000 -0.000000 1.000000
vn 0.000000 -0.000000 1.000000
vn 0.078819 0.612146 -0.786807
vn 0.142273 0.426870 -0.893051
vn 0.142273 0.426870 -0.893051
vn 0.078819 0.612146 -0.786807
vn 0.000000 0.762082 -0.647481
vn 0.006041 0.764530 -0.644559
vn 0.006041 0.764530 -0.644559
vn 0.000000 0.762082 -0.647481
vn -0.147951 0.424395 -0.893308
vn -0.076182 0.608398 -0.789967
vn -0.076182 0.608398 -0.789967
vn -0.147951 0.424395 -0.893308
vn 0.712603 0.701567 0.000001
vn 0.712603 0.701567 0.000001
vn 0.712603 0.701567 0.000001
vn 0.712603 0.701567 0.000001
vn 0.999908 0.013596 -0.000000
vn 0.999908 0.013596 -0.000000
vn 0.999908 0.013596 -0.000000
vn 0.999908 0.013596 -0.000000
vn -0.007827 0.999969 0.000003
vn -0.007827 0.999969 0.000003
vn -0.007827 0.999969 0.000003
vn -0.007827 0.999969 0.000003
vn -0.999909 -0.013521 0.000000
vn -0.999909 -0.013521 0.000000
vn -0.999909 -0.013521 0.000000
vn -0.999909 -0.013521 0.000000
vn -0.701534 0.712636 0.000001
vn -0.701534 0.712636 0.000001
vn -0.701534 0.712636 0.000001
vn -0.701534 0.712636 0.000001
vn 0.014112 0.999901 -0.000005
vn 0.014112 0.999901 -0.000005
vn 0.014112 0.999901 -0.000005
vn 0.014112 0.999901 -0.000005
vn -0.000000 1.000000 -0.000005
vn -0.000000 1.000000 -0.000005
vn -0.000000 1.000000 -0.000005
vn -0.000000 1.000000 -0.000005
usemtl lambert3SG
f 2/1/1 5/2/2 4/3/3 1/4/4
f 6/5/5 5/2/2 2/1/1 3/6/6
f 6/5/7 3/6/8 12/7/9 8/8/10
f 11/9/11 7/10/12 9/11/13 10/12/14
f 1/4/15 4/3/16 7/10/12 11/9/11
f 4/25/17 5/26/18 14/27/19 13/28/20
f 7/31/21 4/25/17 13/28/20 15/32/22
f 5/26/18 6/29/23 16/30/24 14/27/19
f 6/29/23 8/33/25 17/34/26 16/30/24
f 9/35/27 7/31/21 15/32/22 18/36/28
f 11/37/29 10/38/30 19/39/31 20/40/32
f 2/43/33 1/41/34 23/42/35 22/44/36
f 1/41/34 11/37/29 20/40/32 23/42/35
f 12/47/37 3/45/38 24/46/39 21/48/40
f 3/45/38 2/43/33 22/44/36 24/46/39
f 15/15/41 13/14/42 23/21/43 20/20/44
f 18/18/45 15/15/46 20/20/47 19/19/48
f 14/13/49 22/22/50 23/21/51 13/14/52
f 21/24/53 24/23/54 16/16/55 17/17/56
f 16/16/57 24/23/58 22/22/59 14/13/60
f 8/49/61 12/50/62 21/24/63 17/17/64
f 10/52/65 9/51/66 18/18/67 19/19/68
