# This file uses centimeters as units for non-parametric coordinates.

v -1.594452 -2.315323 2.263178
v -0.056961 -2.879122 2.422232
v 2.523289 -2.688825 0.893316
v -3.177761 -1.240129 2.155096
v 0.014973 -1.336372 3.573454
v 3.183876 0.147359 1.593946
v -1.821762 2.031369 1.690737
v -0.056961 2.045575 2.422232
v 1.707840 2.031369 1.690737
v -2.553253 2.045575 -0.074060
v -0.056961 3.035028 -0.074060
v 1.658970 2.363974 -0.452215
v -1.641197 1.611946 -1.240229
v 0.368687 1.077184 -1.241056
v 1.653378 1.394737 -2.146498
v -2.472763 0.451547 -2.823061
v -0.056961 -0.416774 -3.573454
v 2.012196 0.673616 -3.061377
v -1.821762 -2.864916 -1.838861
v -0.056961 -2.879122 -2.570356
v 1.707840 -2.864916 -1.838861
v -2.553253 -2.879122 -0.074060
v 0.055798 -3.035028 0.738043
v 2.153000 -2.715002 -0.834742
v 3.556351 1.218985 -0.982893
v -3.556351 -0.416774 -0.074060
vt 0.296470 0.409458
vt 0.365355 0.476642
vt 0.261464 0.537331
vt 0.200204 0.345570
vt 0.313822 0.266915
vt 0.405489 0.389194
vt 0.097889 0.485599
vt 0.066728 0.382020
vt 0.194640 0.220411
vt 0.386407 0.171681
vt 0.490854 0.187327
vt 0.069723 0.271501
vt 0.210184 0.042681
vt 0.557527 0.040881
vt 0.524181 0.416555
vt 0.642616 0.537115
vt 0.399515 0.584688
vt 0.563392 0.159076
vt 0.547985 0.317526
vt 0.758793 0.426370
vt 0.724113 0.176662
vt 0.534878 0.252599
vt 0.732019 0.287715
vt 0.733167 0.988759
vt 0.785172 0.594890
vt 0.638421 0.678349
vt 0.540937 0.745443
vt 0.768399 0.019193
vt 0.716298 0.734340
vt 0.668697 0.839676
vt 0.492803 0.833014
vt 0.517258 0.934173
vt 0.804090 0.821712
vt 0.829596 0.747353
vt 0.896382 0.731432
vt 0.976673 0.838684
vt 0.017408 0.199663
vt 0.073177 0.080075
vt 0.800511 0.933565
vt 0.927623 0.968976
vn -0.335358 -0.509387 0.792502
vn 0.125612 -0.509989 0.850960
vn 0.072773 -0.100998 0.992222
vn -0.388897 -0.121579 0.913224
vn 0.559461 -0.400479 0.725685
vn 0.511039 -0.059150 0.857520
vn 0.008578 0.312541 0.949865
vn -0.377164 0.286635 0.880675
vn 0.392997 0.290237 0.872534
vn -0.263822 0.927791 0.263822
vn 0.001155 0.962171 0.272442
vn -0.087685 0.957277 -0.275558
vn -0.194928 0.941406 -0.275241
vn 0.266050 0.927786 0.261591
vn 0.023846 0.961861 -0.272499
vn -0.147981 0.672574 -0.725083
vn -0.068428 0.676817 -0.732964
vn -0.226586 0.664020 -0.712556
vn 0.152194 0.794685 -0.587633
vn -0.119550 0.810963 -0.572754
vn -0.077456 0.297550 -0.951559
vn -0.146398 0.296716 -0.943678
vn -0.382407 0.766961 -0.515301
vn -0.003618 0.296862 -0.954914
vn 0.000061 -0.365869 -0.930666
vn -0.377076 -0.338899 -0.861952
vn 0.377189 -0.338807 -0.861939
vn -0.038133 -0.998545 -0.038133
vn 0.022766 -0.999423 -0.025214
vn -0.008674 -0.998569 0.052767
vn -0.128572 -0.987611 0.089962
vn 0.083577 -0.996427 -0.012197
vn 0.109965 -0.993820 0.015181
vn -0.040617 -0.990448 0.131770
vn -0.215835 -0.952277 0.215835
vn 0.136193 -0.989769 0.042536
vn 0.916031 -0.288449 -0.278718
vn 0.834465 -0.277978 -0.475812
vn 0.741385 0.325640 -0.586777
vn 0.919492 0.304662 -0.248428
vn 0.955819 -0.285764 -0.068913
vn 0.963900 0.242894 0.109086
vn 0.362626 0.803778 -0.471639
vn 0.563809 0.817276 -0.119073
vn 0.671987 0.695957 0.253135
vn -0.857749 -0.314741 -0.406453
vn -0.875240 -0.471136 -0.109480
vn -0.997725 0.009526 -0.066743
vn -0.903481 0.123647 -0.410408
vn -0.793865 -0.574312 0.199861
vn -0.948399 -0.109587 0.297540
vn -0.872022 0.489413 -0.007235
vn -0.773673 0.538012 -0.334624
vn -0.866411 0.382467 0.321016
s 1
f 1/1/1 2/2/2 5/3/3 4/4/4
f 2/2/2 3/15/5 6/16/6 5/17/3
f 4/4/4 5/3/3 8/7/7 7/8/8
f 5/17/3 6/16/6 9/26/9 8/27/7
s 2
f 7/31/10 8/27/11 11/30/12 10/32/13
f 8/27/11 9/26/14 12/29/15 11/30/12
f 10/24/13 11/30/12 14/33/16 13/39/17
f 11/30/12 12/29/15 15/34/18 14/33/16
s 3
f 13/39/19 14/33/20 17/36/21 16/40/22
f 14/33/20 15/34/23 18/35/24 17/36/21
f 16/28/22 17/21/21 20/18/25 19/14/26
f 17/21/21 18/23/24 21/22/27 20/18/25
s 4
f 19/10/28 20/11/29 23/6/30 22/5/31
f 20/11/29 21/22/32 24/19/33 23/6/30
f 22/5/31 23/6/30 2/2/34 1/1/35
f 23/6/30 24/19/33 3/15/36 2/2/34
s 5
f 24/19/37 21/22/38 18/23/39 25/20/40
f 3/15/41 24/19/37 25/20/40 6/16/42
f 25/25/40 18/35/39 15/34/43 12/29/44
f 6/16/42 25/25/40 12/29/44 9/26/45
s 6
f 19/10/46 22/5/47 26/9/48 16/13/49
f 22/5/47 1/1/50 4/4/51 26/9/48
f 16/38/49 26/9/48 10/12/52 13/37/53
f 26/9/48 4/4/51 7/8/54 10/12/52
