# This file uses centimeters as units for non-parametric coordinates.

v -12.321038 9.007517 1.126019
v -12.321038 9.937734 1.119748
v -12.321038 10.599928 0.466412
v -12.321038 8.354183 0.463807
v -12.321038 9.473918 -0.000003
v -12.321038 10.593657 -0.463813
v -12.321038 8.347912 -0.466411
v -12.321038 9.010104 -1.119747
v -12.321038 9.940322 -1.126018
v -9.576546 9.937734 1.119748
v -9.576546 9.007520 1.126019
v -9.576546 8.354183 0.465111
v -9.576546 8.347912 -0.466411
v -9.576546 9.010104 -1.119747
v -9.576546 9.940322 -1.126018
v -9.576546 10.593657 -0.463813
v -9.576546 10.599928 0.466412
v -11.822289 9.937734 1.119748
v -11.822289 9.007520 1.126019
v -11.822289 8.354183 0.463807
v -11.822289 8.347912 -0.466411
v -11.822289 9.010104 -1.119747
v -11.822289 9.940322 -1.126018
v -11.822289 10.593657 -0.463813
v -11.822289 10.599928 0.466412
v -14.040886 -10.599929 1.126019
v -12.935067 -10.599929 1.119748
v -12.147850 -10.599929 0.466412
v -11.168953 8.354183 1.126019
v -10.238747 8.354183 1.119748
v -11.166375 8.354183 -1.119747
v -10.236168 8.354183 -1.126018
v -14.825036 -10.599929 -0.466411
v -14.037804 -10.599929 -1.119747
v -12.931984 -10.599929 -1.126018
v -14.817559 -10.599929 0.463807
v -13.486443 -10.599929 -0.000003
v -12.155312 -10.599929 -0.463813
v 9.576545 9.937734 1.119748
v 9.576545 9.007520 1.126019
v 9.576545 10.599928 0.466412
v 12.321037 9.007517 1.126019
v 12.321037 9.937734 1.119748
v 12.321037 9.473918 -0.000003
v 12.321037 8.354183 0.463807
v 12.321037 10.599928 0.466412
v 12.321037 10.593657 -0.463813
v 12.321037 9.010104 -1.119747
v 12.321037 8.347912 -0.466411
v 12.321037 9.940322 -1.126018
v 9.576545 8.347912 -0.466411
v 9.576545 9.010104 -1.119747
v 9.576545 9.940322 -1.126018
v 9.576545 10.593657 -0.463813
v 9.576545 8.354183 0.465111
v 11.822288 9.007520 1.126019
v 11.822288 9.937734 1.119748
v 11.822288 8.354183 0.463807
v 11.822288 8.347912 -0.466411
v 11.822288 9.010104 -1.119747
v 11.822288 9.940322 -1.126018
v 11.822288 10.593657 -0.463813
v 11.822288 10.599928 0.466412
v 12.935066 -10.599929 1.119748
v 10.238746 8.354183 1.119748
v 11.168953 8.354183 1.126019
v 14.040885 -10.599929 1.126019
v 12.147850 -10.599929 0.466412
v 11.166374 8.354183 -1.119747
v 14.037803 -10.599929 -1.119747
v 14.825035 -10.599929 -0.466411
v 12.931984 -10.599929 -1.126018
v 10.236167 8.354183 -1.126018
v 13.486442 -10.599929 -0.000003
v 14.817558 -10.599929 0.463807
v 12.155311 -10.599929 -0.463813
vt 0.573448 0.866237
vt 0.536954 0.866237
vt 0.536954 0.114825
vt 0.573448 0.114825
vt 0.536954 0.954342
vt 0.573448 0.954342
vt 0.500860 0.866237
vt 0.500860 0.114825
vt 0.536954 0.026720
vt 0.573448 0.026720
vt 0.611216 0.866237
vt 0.611216 0.114825
vt 0.500835 0.954342
vt 0.611216 0.954342
vt 0.573448 0.973908
vt 0.536954 0.973908
vt 0.500834 0.026720
vt 0.536954 0.007154
vt 0.573448 0.007154
vt 0.611216 0.026720
vt 0.500835 0.973908
vt 0.611216 0.973908
vt 0.500834 0.007154
vt 0.611216 0.007154
vt 0.749919 0.930784
vt 0.749673 0.967278
vt 0.705743 0.949082
vt 0.723939 0.905153
vt 0.724042 0.993258
vt 0.687547 0.993011
vt 0.661813 0.930886
vt 0.687445 0.904907
vt 0.661567 0.967380
vt 0.748779 0.873054
vt 0.464332 0.866237
vt 0.464332 0.114825
vt 0.709157 0.868514
vt 0.428221 0.866237
vt 0.428221 0.114825
vt 0.428221 0.026720
vt 0.464332 0.026720
vt 0.464332 0.954342
vt 0.428221 0.954342
vt 0.464332 0.007154
vt 0.428221 0.007154
vt 0.464332 0.973908
vt 0.428221 0.973908
vt 0.682205 0.891050
vt 0.769668 0.901668
vt 0.950879 0.862622
vt 0.666927 0.862417
vt 0.391727 0.866237
vt 0.987364 0.115373
vt 0.950879 0.114583
vt 0.391727 0.954342
vt 0.391727 0.114825
vt 0.827145 0.127876
vt 0.790548 0.127865
vt 0.391727 0.973908
vt 0.355616 0.954342
vt 0.355616 0.866237
vt 0.355616 0.114825
vt 0.391727 0.026720
vt 0.790548 0.874651
vt 0.355616 0.973908
vt 0.355616 0.026720
vt 0.827145 0.874887
vt 0.391727 0.007154
vt 0.355616 0.007154
vt 0.768657 0.077534
vt 0.799419 0.015060
vt 0.647711 0.866237
vt 0.647711 0.954342
vt 0.768949 0.041039
vt 0.647711 0.114825
vt 0.647711 0.973908
vt 0.799540 0.103165
vt 0.842924 0.103411
vt 0.647711 0.026720
vt 0.842803 0.015306
vt 0.647711 0.007154
vt 0.096048 0.117686
vt 0.094365 0.868570
vt 0.054740 0.864050
vt 0.053057 0.111857
vt 0.136649 0.870411
vt 0.136649 0.123400
vt 0.333354 0.858869
vt 0.012917 0.110208
vt 0.115775 0.896684
vt 0.028167 0.887341
vt 0.909054 0.868477
vt 0.869429 0.872995
vt 0.213333 0.117645
vt 0.256319 0.111789
vt 0.254637 0.863988
vt 0.215015 0.868529
vt 0.296869 0.110020
vt 0.296869 0.857841
vt 0.173246 0.123389
vt 0.173246 0.870176
vt 0.113601 0.040643
vt 0.144486 0.015011
vt 0.166117 0.058941
vt 0.113895 0.077137
vt 0.187870 0.014765
vt 0.218340 0.040744
vt 0.187749 0.102871
vt 0.144365 0.103117
vt 0.218632 0.077239
vt 0.333354 0.110826
vt 0.012917 0.858247
vt 0.821172 0.059236
vt 0.873394 0.077432
vt 0.750461 0.122171
vt 0.935626 0.891769
vt 0.873687 0.040937
vt 0.666927 0.114596
vt 0.194128 0.897145
vt 0.848017 0.901108
vt 0.987364 0.863190
vt 0.281590 0.886522
vt 0.245910 0.922445
vt 0.271890 0.896813
vt 0.290086 0.940742
vt 0.246156 0.958939
vt 0.308384 0.896567
vt 0.334016 0.922546
vt 0.308282 0.984672
vt 0.271788 0.984918
vt 0.334262 0.959040
vt 0.867746 0.122112
vt 0.910737 0.116283
vt 0.707475 0.116314
vn 0.000000 0.382687 0.923878
vn 0.000000 0.006742 0.999977
vn 0.000000 0.006742 0.999977
vn 0.000000 0.382687 0.923878
vn 0.000000 0.702329 0.711852
vn 0.000000 0.702329 0.711852
vn -1.000000 0.000000 0.000000
vn -1.000000 0.000000 0.000000
vn -1.000000 -0.000000 0.000000
vn -1.000000 0.000000 0.000000
vn -1.000000 0.000000 0.000000
vn -1.000000 -0.000001 0.000000
vn -1.000000 -0.000000 0.000000
vn -1.000000 0.000001 0.000000
vn -1.000000 -0.000002 0.000000
vn 0.426652 -0.670674 0.606766
vn 0.758862 -0.559948 -0.332545
vn -0.758862 -0.559948 -0.332545
vn -0.426652 -0.670674 0.606765
vn -0.000102 -0.711341 0.702847
vn 0.000102 -0.711341 0.702847
vn -0.000003 0.006742 0.999977
vn -0.000001 0.382687 0.923878
vn -0.563413 -0.393671 0.726353
vn -0.000102 -0.711688 0.702495
vn 0.000000 -0.382688 -0.923878
vn 0.000000 -0.702330 -0.711852
vn 0.000000 -0.702330 -0.711851
vn 0.000000 -0.382688 -0.923878
vn 0.000000 -0.006742 -0.999977
vn 0.000000 -0.006742 -0.999977
vn 0.000000 0.923880 -0.382683
vn 0.000000 0.923880 -0.382683
vn 0.000000 0.711859 -0.702323
vn 0.000000 0.711859 -0.702322
vn 0.000000 0.999977 -0.006742
vn 0.000000 0.999977 -0.006742
vn 0.000000 0.702329 0.711852
vn -0.000003 0.382687 0.923878
vn -0.000005 0.006742 0.999977
vn 0.000000 -0.711862 0.702319
vn 0.000000 -0.923881 0.382680
vn -0.760347 -0.649470 0.007840
vn 0.000000 -0.999977 0.006741
vn 0.000000 -0.702330 -0.711851
vn 0.000000 -0.382688 -0.923878
vn 0.000000 -0.006742 -0.999977
vn 0.000000 0.711860 -0.702322
vn 0.000000 0.923880 -0.382682
vn 0.000000 0.999977 -0.006742
vn 0.000000 0.702329 0.711852
vn 0.360537 -0.050112 0.931398
vn 0.360537 -0.050112 0.931398
vn 0.006155 -0.000905 0.999981
vn 0.006155 -0.000905 0.999981
vn 0.667072 -0.092669 0.739208
vn 0.667072 -0.092669 0.739208
vn 0.000000 1.000000 -0.000000
vn 0.000000 1.000000 -0.000000
vn -0.361164 0.055948 -0.930822
vn -0.361164 0.055948 -0.930822
vn -0.667828 0.103503 -0.737084
vn -0.667828 0.103503 -0.737084
vn -0.006162 0.000905 -0.999981
vn -0.006162 0.000905 -0.999981
vn 0.000000 -1.000000 0.000000
vn 0.000000 -1.000000 0.000000
vn 0.000000 -1.000000 0.000000
vn 0.000000 -1.000000 0.000001
vn 0.000000 -1.000000 0.000000
vn 0.000000 -1.000000 0.000000
vn 0.000000 -1.000000 0.000001
vn 0.000000 -1.000000 0.000001
vn 0.000000 -1.000000 0.000000
vn 0.907432 -0.124535 -0.401320
vn 0.673966 -0.093841 -0.732778
vn 0.673966 -0.093841 -0.732778
vn 0.990888 -0.134641 -0.003518
vn -0.905798 0.142064 0.399183
vn -0.987703 0.156305 0.003443
vn -0.675776 0.104593 0.729649
vn -0.675776 0.104593 0.729649
vn 0.000019 0.999954 0.009550
vn 0.000019 0.999954 0.009550
vn 0.000019 0.999954 0.009550
vn 0.000019 0.999954 0.009550
vn 1.000000 0.000000 0.000000
vn 1.000000 0.000000 0.000000
vn 1.000000 0.000000 0.000000
vn 1.000000 0.000000 0.000000
vn 1.000000 0.000000 0.000000
vn 1.000000 0.000000 0.000000
vn 1.000000 0.000000 0.000000
vn 1.000000 0.000000 0.000000
vn 1.000000 0.000000 0.000000
vn 0.000000 -0.382688 -0.923878
vn 0.000000 -0.702330 -0.711851
vn 0.000000 -0.006742 -0.999977
vn 0.000000 0.923880 -0.382683
vn 0.000000 0.711859 -0.702323
vn 0.000000 0.999977 -0.006742
vn 0.000004 0.006742 0.999977
vn 0.000002 0.382687 0.923878
vn 0.563413 -0.393671 0.726353
vn 0.000102 -0.711688 0.702495
vn 0.000000 -0.382688 -0.923878
vn 0.000000 -0.702330 -0.711852
vn 0.000000 -0.006742 -0.999977
vn 0.000000 0.923880 -0.382683
vn 0.000000 0.711859 -0.702323
vn 0.000000 0.999977 -0.006742
vn 0.000000 0.702329 0.711853
vn 0.000008 0.006742 0.999977
vn 0.000004 0.382687 0.923878
vn 0.000000 -0.923881 0.382680
vn 0.000000 -0.711862 0.702319
vn 0.760347 -0.649470 0.007840
vn 0.000000 -0.999977 0.006741
vn 0.000000 -0.702330 -0.711852
vn 0.000000 -0.382687 -0.923878
vn 0.000000 -0.006742 -0.999977
vn 0.000000 0.923880 -0.382683
vn 0.000000 0.711858 -0.702323
vn 0.000000 0.999977 -0.006742
vn 0.000000 0.702329 0.711853
vn -0.360537 -0.050112 0.931398
vn -0.006155 -0.000905 0.999981
vn -0.006155 -0.000905 0.999981
vn -0.360537 -0.050112 0.931398
vn -0.667072 -0.092669 0.739208
vn -0.667072 -0.092669 0.739208
vn 0.000000 1.000000 -0.000002
vn 0.000000 1.000000 -0.000002
vn 0.361164 0.055948 -0.930822
vn 0.667829 0.103502 -0.737083
vn 0.667829 0.103502 -0.737083
vn 0.361164 0.055948 -0.930822
vn 0.006162 0.000905 -0.999981
vn 0.006162 0.000905 -0.999981
vn 0.000000 -1.000000 -0.000000
vn 0.000000 -1.000000 -0.000001
vn 0.000000 -1.000000 -0.000000
vn 0.000000 -1.000000 -0.000001
vn 0.000000 -1.000000 -0.000000
vn 0.000000 -1.000000 -0.000001
vn 0.000000 -1.000000 -0.000001
vn 0.000000 -1.000000 -0.000000
vn 0.000000 -1.000000 0.000000
vn -0.907432 -0.124535 -0.401320
vn -0.673966 -0.093841 -0.732778
vn -0.673966 -0.093841 -0.732778
vn -0.990888 -0.134641 -0.003518
vn 0.905798 0.142064 0.399183
vn 0.987703 0.156305 0.003443
vn 0.675776 0.104593 0.729649
vn 0.675776 0.104593 0.729649
vn -0.000019 0.999954 0.009551
vn -0.000019 0.999954 0.009551
vn -0.000019 0.999954 0.009551
vn -0.000019 0.999954 0.009551
s 1
f 10/1/1 11/2/2 40/3/3 39/4/4
f 17/11/5 10/1/1 39/4/4 41/12/6
s 2
f 1/25/7 2/26/8 5/27/9 4/28/10
f 2/26/8 3/29/11 6/30/12 5/27/9
f 4/28/10 5/27/9 8/31/13 7/32/14
f 5/27/9 6/30/12 9/33/15 8/31/13
s 3
f 12/7/16 13/35/17 51/36/18 55/8/19
f 11/2/20 12/7/16 55/8/19 40/3/21
s 1
f 19/5/22 11/2/2 10/1/1 18/6/23
s 3
f 20/13/24 12/7/16 11/2/20 19/5/25
s 4
f 14/38/26 13/35/27 21/42/28 22/43/29
f 15/52/30 14/38/26 22/43/29 23/55/31
s 5
f 24/60/32 16/61/33 15/52/34 23/55/35
f 25/14/36 17/11/37 16/72/33 24/73/32
s 1
f 18/6/23 10/1/1 17/11/5 25/14/38
f 19/5/22 18/6/23 2/15/39 1/16/40
s 3
f 20/13/24 19/5/25 1/16/41 4/21/42
f 21/42/43 20/13/24 4/21/42 7/46/44
s 4
f 7/46/45 8/47/46 22/43/29 21/42/28
f 8/47/46 9/59/47 23/55/31 22/43/29
s 5
f 24/60/32 23/55/35 9/59/48 6/65/49
f 25/14/36 24/73/32 6/76/49 3/22/50
s 1
f 18/6/23 25/14/38 3/22/51 2/15/39
s 6
f 27/82/52 30/83/53 29/84/54 26/85/55
f 12/86/56 30/83/53 27/82/52 28/87/57
s 3
f 12/90/16 20/91/24 29/84/58 30/83/59
s 7
f 31/96/60 34/95/61 33/98/62 21/99/63
f 35/94/64 34/95/61 31/96/60 32/97/65
s 8
f 33/102/66 34/103/67 37/104/68 36/105/69
f 34/103/67 35/106/70 38/107/71 37/104/68
f 36/105/69 37/104/68 27/108/72 26/109/73
f 37/104/68 38/107/71 28/110/74 27/108/72
s 3
f 38/100/75 35/94/76 32/97/77 13/101/17
f 12/86/16 28/87/78 38/100/75 13/101/17
f 36/111/79 20/88/24 21/99/43 33/98/80
f 26/85/81 29/84/82 20/112/24 36/89/79
s off
f 13/119/83 32/97/84 31/96/85 21/122/86
s 9
f 42/123/87 45/124/88 44/125/89 43/126/90
f 43/126/90 44/125/89 47/129/91 46/130/92
f 45/124/88 49/127/93 48/128/94 44/125/89
f 44/125/89 48/128/94 50/131/95 47/129/91
s 4
f 14/38/26 52/39/96 51/36/97 13/35/27
f 15/52/30 53/56/98 52/39/96 14/38/26
s 5
f 16/61/33 54/62/99 53/56/100 15/52/34
f 17/11/37 41/12/101 54/75/99 16/72/33
s 1
f 56/9/102 57/10/103 39/4/4 40/3/3
s 3
f 58/17/104 56/9/105 40/3/21 55/8/19
s 4
f 52/39/96 60/40/106 59/41/107 51/36/97
f 53/56/98 61/63/108 60/40/106 52/39/96
s 5
f 62/66/109 61/63/110 53/56/100 54/62/99
f 63/20/111 62/79/109 54/75/99 41/12/101
s 1
f 57/10/103 63/20/112 41/12/6 39/4/4
f 56/9/102 42/18/113 43/19/114 57/10/103
s 3
f 58/17/104 45/23/115 42/18/116 56/9/105
f 59/41/117 49/44/118 45/23/115 58/17/104
s 4
f 49/44/119 59/41/107 60/40/106 48/45/120
f 48/45/120 60/40/106 61/63/108 50/68/121
s 5
f 62/66/109 47/69/122 50/68/123 61/63/110
f 63/20/111 46/24/124 47/81/122 62/79/109
s 1
f 57/10/103 43/19/114 46/24/125 63/20/112
s 10
f 64/132/126 67/133/127 66/92/128 65/93/129
f 55/67/130 68/57/131 64/132/126 65/93/129
s 3
f 55/120/19 65/93/132 66/92/133 58/116/104
s 11
f 69/37/134 59/51/135 71/118/136 70/134/137
f 72/115/138 73/34/139 69/37/134 70/134/137
s 12
f 71/117/140 75/114/141 74/113/142 70/80/143
f 70/80/143 74/113/142 76/74/144 72/71/145
f 75/114/141 67/78/146 64/77/147 74/113/142
f 74/113/142 64/77/147 68/70/148 76/74/144
s 3
f 76/58/149 51/64/18 73/34/150 72/115/151
f 55/67/19 51/64/18 76/58/149 68/57/152
f 75/54/153 71/53/154 59/121/117 58/50/104
f 67/133/155 75/54/153 58/50/104 66/92/156
s off
f 51/49/157 59/48/158 69/37/159 73/34/160
