# This file uses centimeters as units for non-parametric coordinates.

v -0.361544 -2.516727 0.872860
v 0.359539 -2.516727 0.868000
v 0.872854 -2.516727 0.361553
v -0.361544 0.872858 -2.468382
v 0.359539 0.867998 -2.468382
v 0.872854 0.361553 -2.468382
v -0.867992 0.359535 -2.468382
v 0.000000 0.000000 -2.468380
v 0.867994 -0.359533 -2.468378
v -0.872854 -0.361549 -2.468378
v -0.359537 -0.867992 -2.468378
v 0.361546 -0.872856 -2.468378
v -0.872854 -2.516727 -0.361553
v -0.359537 -2.516727 -0.867996
v 0.361546 -2.516727 -0.872860
v -0.867992 -2.516727 0.359535
v 0.000000 -2.516727 0.000000
v 0.867994 -2.516727 -0.359535
v 0.872854 0.361553 -0.821827
v 0.359539 0.872860 -0.589962
v -0.361544 0.872858 -0.587738
v -0.867992 0.361553 -0.822750
v -0.872854 -0.361547 -1.152878
v -0.359537 -0.867990 -1.384739
v 0.361546 -0.867990 -1.386967
v 0.867994 -0.361547 -1.151955
v 0.872854 -0.790144 0.361553
v 0.359539 -0.545404 0.872860
v -0.361546 -0.543056 0.872860
v -0.867992 -0.791121 0.361553
v -0.872854 -1.139587 -0.361553
v -0.359537 -1.384325 -0.868000
v 0.361546 -1.386675 -0.868000
v 0.867994 -1.138613 -0.361553
vt 0.709729 0.867995
vt 0.676591 0.867995
vt 0.643579 0.867995
vt 0.676590 0.588289
vt 0.709729 0.588289
vt 0.742425 0.867995
vt 0.643579 0.588289
vt 0.742425 0.588289
vt 0.857466 0.581675
vt 0.891170 0.581902
vt 0.874365 0.622474
vt 0.833793 0.605669
vt 0.915164 0.605575
vt 0.914937 0.639280
vt 0.857559 0.663046
vt 0.833566 0.639374
vt 0.891264 0.663274
vt 0.544543 0.588289
vt 0.577680 0.588289
vt 0.610442 0.588289
vt 0.577680 0.867995
vt 0.808640 0.867995
vt 0.775563 0.588289
vt 0.610442 0.867995
vt 0.775563 0.867995
vt 0.826836 0.814031
vt 0.850829 0.790358
vt 0.867635 0.830930
vt 0.827063 0.847736
vt 0.884534 0.790131
vt 0.908207 0.814125
vt 0.884441 0.871503
vt 0.850736 0.871730
vt 0.908434 0.847830
vt 0.808640 0.588289
vt 0.808640 0.639290
vt 0.643579 0.687886
vt 0.676590 0.679487
vt 0.709729 0.679487
vt 0.742425 0.687886
vt 0.544543 0.867995
vt 0.775563 0.651424
vt 0.544543 0.639290
vt 0.577680 0.639290
vt 0.610442 0.700765
vt 0.643579 0.786861
vt 0.676591 0.774262
vt 0.709729 0.774262
vt 0.742425 0.765863
vt 0.808640 0.744204
vt 0.775563 0.752985
vt 0.544543 0.744204
vt 0.577680 0.744204
vt 0.610442 0.752985
vt 0.610442 0.802326
vt 0.643579 0.765863
vt 0.577680 0.814460
vt 0.808640 0.814460
vt 0.544543 0.814460
vt 0.775563 0.802326
vt 0.742425 0.786861
vt 0.610442 0.651424
vt 0.643579 0.666889
vt 0.577680 0.709546
vt 0.808640 0.709545
vt 0.544543 0.709546
vt 0.775563 0.700765
vt 0.742425 0.666889
vn 0.382162 -0.001170 0.924095
vn 0.414402 0.352575 0.839024
vn 0.003046 0.389263 0.921122
vn 0.003369 -0.001232 0.999994
vn 0.739520 0.258994 0.621315
vn 0.703919 -0.000934 0.710279
vn 0.000000 -0.000002 -1.000000
vn 0.000000 -0.000003 -1.000000
vn 0.000001 -0.000003 -1.000000
vn 0.000000 -0.000003 -1.000000
vn 0.000000 -0.000003 -1.000000
vn 0.000002 -0.000003 -1.000000
vn 0.000002 -0.000003 -1.000000
vn 0.000000 -0.000003 -1.000000
vn 0.000003 -0.000002 -1.000000
vn -0.412163 -0.347707 -0.842153
vn -0.381125 0.001159 -0.924523
vn -0.702328 -0.000001 -0.711853
vn -0.736924 -0.257766 -0.624900
vn -0.003362 0.002146 -0.999992
vn -0.003036 -0.381844 -0.924222
vn 0.000000 -1.000000 0.000002
vn 0.000000 -1.000000 0.000001
vn 0.000000 -1.000000 0.000000
vn 0.000000 -1.000000 0.000001
vn 0.000000 -1.000000 0.000001
vn 0.000000 -1.000000 -0.000000
vn 0.000000 -1.000000 -0.000000
vn 0.000000 -1.000000 0.000000
vn 0.000000 -1.000000 -0.000001
vn 0.923211 0.000429 -0.384294
vn 0.709395 0.000799 -0.704811
vn 0.743317 -0.254813 -0.618506
vn 0.935094 -0.134997 -0.327681
vn 0.999982 -0.002314 -0.005625
vn 0.999977 -0.000005 -0.006729
vn -0.923680 -0.000210 0.383165
vn -0.935782 0.135836 0.325363
vn -0.999982 0.002313 0.005628
vn -0.999977 -0.000005 0.006734
vn -0.711120 -0.000384 0.703070
vn -0.745819 0.256676 0.614713
vn 0.703918 0.710281 -0.000979
vn 0.382160 0.924095 -0.001228
vn 0.412253 0.845154 0.340238
vn 0.737488 0.627064 0.250804
vn 0.003025 0.927056 0.374912
vn 0.003367 0.999994 -0.001294
vn -0.935075 0.329028 0.131816
vn -0.743809 0.620448 0.248583
vn -0.711119 0.703072 -0.000403
vn -0.923680 0.383164 -0.000220
vn -0.999981 0.005680 0.002259
vn -0.999977 0.006730 -0.000005
vn -0.381126 -0.924522 0.001215
vn -0.411833 -0.843115 -0.345760
vn -0.736188 -0.626975 -0.254813
vn -0.702325 -0.711856 0.000001
vn -0.003039 -0.924368 -0.381490
vn -0.003369 -0.999992 0.002248
vn 0.934838 -0.329011 -0.133528
vn 0.742600 -0.620560 -0.251894
vn 0.709396 -0.704809 0.000838
vn 0.923211 -0.384293 0.000450
vn 0.999977 -0.006730 -0.000005
vn 0.999981 -0.005677 -0.002263
s 1
f 2/2/1 28/47/2 29/48/3 1/1/4
f 27/46/5 28/47/2 2/2/1 3/3/6
s 2
f 4/9/7 5/10/8 8/11/9 7/12/10
f 5/10/8 6/13/11 9/14/12 8/11/9
f 7/12/10 8/11/9 11/15/13 10/16/14
f 8/11/9 9/14/12 12/17/15 11/15/13
s 3
f 32/58/16 14/22/17 13/25/18 31/60/19
f 15/21/20 14/41/17 32/59/16 33/57/21
s 4
f 13/26/22 14/27/23 17/28/24 16/29/25
f 14/27/23 15/30/26 18/31/27 17/28/24
f 16/29/25 17/28/24 2/32/28 1/33/29
f 17/28/24 18/31/27 3/34/30 2/32/28
s 5
f 18/24/31 15/21/32 33/57/33 34/55/34
f 34/55/34 27/46/35 3/3/36 18/24/31
s 6
f 16/6/37 30/61/38 31/60/39 13/25/40
f 1/1/41 29/48/42 30/61/38 16/6/37
s 1
f 6/7/43 5/4/44 20/38/45 19/63/46
f 21/39/47 20/38/45 5/4/44 4/5/48
s 6
f 22/68/49 21/39/50 4/5/51 7/8/52
f 23/42/53 22/68/49 7/8/52 10/23/54
s 3
f 11/35/55 24/36/56 23/42/57 10/23/58
f 25/44/59 24/43/56 11/18/55 12/19/60
s 5
f 26/62/61 25/44/62 12/19/63 9/20/64
f 6/7/65 19/63/66 26/62/61 9/20/64
s 1
f 19/37/46 20/38/45 28/47/2 27/56/5
f 29/48/3 28/47/2 20/38/45 21/39/47
s 6
f 30/49/38 29/48/42 21/39/50 22/40/49
f 31/51/39 30/49/38 22/40/49 23/67/53
s 3
f 24/65/56 32/50/16 31/51/19 23/67/57
f 33/53/21 32/52/16 24/66/56 25/64/59
s 5
f 34/54/34 33/53/33 25/64/62 26/45/61
f 26/45/61 19/37/66 27/56/35 34/54/34
