# This file uses centimeters as units for non-parametric coordinates.

v 5.135561 -0.562348 8.475227
v 5.349211 -0.562348 8.276451
v 5.135561 0.383293 8.475227
v 5.349211 0.383293 8.276451
v -0.505154 0.383293 0.188332
v -0.231722 0.383293 0.086388
v -2.066013 0.383293 -9.361317
v -1.774197 0.383293 -9.361317
v -2.066013 -0.562348 -9.361317
v -1.774197 -0.562348 -9.361317
v -0.505154 -0.562348 0.188332
v -0.231722 -0.562348 0.086388
v 5.135561 0.723390 8.475227
v -0.505154 0.723390 0.188332
v 5.349211 0.723390 8.276451
v -0.231722 0.723390 0.086388
v -2.066013 0.723390 -9.361317
v -1.774197 0.723390 -9.361317
v 5.057419 0.417500 8.547916
v -0.605158 0.417500 0.225613
v 5.057419 0.689184 8.547916
v -0.605158 0.689184 0.225613
v -2.172745 0.417500 -9.361317
v -2.172745 0.689184 -9.361317
v 5.427349 0.417500 8.203758
v -0.131721 0.417500 0.049107
v -0.131721 0.689184 0.049107
v 5.427349 0.689184 8.203758
v -1.667473 0.417500 -9.361317
v -1.667473 0.689184 -9.361317
v -2.066013 -0.723390 -9.361317
v -0.505154 -0.723390 0.188332
v -1.774197 -0.723390 -9.361317
v -0.231722 -0.723390 0.086388
v 5.135561 -0.723390 8.475227
v 5.349211 -0.723390 8.276451
v -2.313316 -0.562348 -9.361317
v -0.736876 -0.562348 0.274723
v -2.313316 -0.723390 -9.361317
v -0.736876 -0.723390 0.274723
v 4.954500 -0.562348 8.643673
v 4.954500 -0.723390 8.643673
v -1.526897 -0.562348 -9.361317
v 0.000000 -0.562348 0.000000
v 0.000000 -0.723390 0.000000
v -1.526897 -0.723390 -9.361317
v 5.530272 -0.562348 8.108009
v 5.530272 -0.723390 8.108009
vt 0.459847 0.190327
vt 0.459847 0.145169
vt 0.473782 0.190327
vt 0.473782 0.145169
vt 0.459847 0.206568
vt 0.459847 0.137479
vt 0.473782 0.206568
vt 0.473782 0.137479
vt 0.454751 0.204934
vt 0.454751 0.191960
vt 0.448038 0.145169
vt 0.448038 0.137479
vt 0.478879 0.191960
vt 0.478879 0.204934
vt 0.485592 0.137479
vt 0.485592 0.145169
vt 0.004280 0.325519
vt 0.499316 0.325519
vt 0.004280 0.311584
vt 0.499316 0.311584
vt 0.994351 0.325519
vt 0.499316 0.330615
vt 0.004280 0.330615
vt 0.004280 0.306487
vt 0.499316 0.306487
vt 0.994351 0.311584
vt 0.994351 0.330616
vt 0.994351 0.306487
vt 0.552099 0.145432
vt 0.552099 0.190590
vt 0.538164 0.145432
vt 0.538164 0.190590
vt 0.552099 0.137742
vt 0.552099 0.206831
vt 0.538164 0.137742
vt 0.538164 0.206831
vt 0.563909 0.137742
vt 0.563909 0.145432
vt 0.557196 0.192224
vt 0.557196 0.205197
vt 0.526354 0.145432
vt 0.526354 0.137742
vt 0.533067 0.205197
vt 0.533067 0.192224
vt 0.994614 0.078439
vt 0.499578 0.078440
vt 0.994614 0.092375
vt 0.499578 0.092375
vt 0.004543 0.078440
vt 0.499579 0.066630
vt 0.994614 0.066630
vt 0.994614 0.104184
vt 0.499578 0.104184
vt 0.004543 0.092375
vt 0.004543 0.066630
vt 0.004543 0.104184
vt 0.499316 0.243259
vt 0.994351 0.243259
vt 0.994351 0.288417
vt 0.499316 0.288417
vt 0.004280 0.288417
vt 0.004280 0.243259
vt 0.499316 0.393844
vt 0.499316 0.348686
vt 0.994351 0.348686
vt 0.994351 0.393844
vt 0.004280 0.393844
vt 0.004280 0.348686
vt 0.499316 0.343589
vt 0.004280 0.343589
vt 0.004280 0.231449
vt 0.004280 0.413343
vt 0.994351 0.343589
vt 0.994351 0.231450
vt 0.004280 0.293513
vt 0.499316 0.293513
vt 0.499316 0.231450
vt 0.004280 0.405653
vt 0.994351 0.293513
vt 0.499316 0.413343
vt 0.004280 0.223759
vt 0.994351 0.405653
vt 0.499316 0.223759
vt 0.994351 0.413344
vt 0.994351 0.223759
vt 0.499316 0.405653
vn 0.681140 0.000000 0.732153
vn 0.681156 0.000000 0.732139
vn 0.681153 0.000000 0.732141
vn 0.681154 0.000000 0.732140
vn -0.142511 0.988153 0.056958
vn -0.130130 0.987534 0.088559
vn 0.130074 0.987533 -0.088655
vn 0.142494 0.988154 -0.056989
vn -0.154727 0.987633 0.025295
vn 0.154748 0.987631 -0.025260
vn 0.000000 0.000000 -1.000000
vn 0.000000 0.000000 -1.000000
vn -0.000001 0.000000 -1.000000
vn 0.000000 0.000000 -1.000000
vn 0.000000 -1.000000 0.000000
vn 0.000000 -1.000000 0.000000
vn 0.000000 -1.000000 0.000000
vn 0.000000 -1.000000 0.000000
vn 0.000000 -1.000000 0.000000
vn 0.000000 -1.000000 0.000000
vn 0.928667 0.000000 -0.370915
vn 0.986933 0.000000 -0.161131
vn 0.986933 0.000000 -0.161131
vn 0.928667 0.000000 -0.370915
vn 0.826378 0.000000 -0.563116
vn 0.826378 0.000000 -0.563116
vn -0.928729 0.000000 0.370760
vn -0.928729 0.000000 0.370760
vn -0.986904 0.000000 0.161306
vn -0.986904 0.000000 0.161306
vn -0.826666 0.000000 0.562694
vn -0.826666 0.000000 0.562694
vn 0.681128 0.000000 0.732164
vn 0.681149 0.000000 0.732144
vn -0.928751 0.000000 0.370705
vn -0.826769 0.000000 0.562542
vn -0.826769 0.000000 0.562542
vn -0.928751 0.000000 0.370705
vn 0.826271 0.000000 -0.563273
vn 0.928644 0.000000 -0.370973
vn 0.928644 0.000000 -0.370973
vn 0.826271 0.000000 -0.563273
vn -0.986894 0.000000 0.161370
vn -0.986894 0.000000 0.161370
vn 0.986944 0.000000 -0.161066
vn 0.986944 0.000000 -0.161066
vn 0.000000 0.000000 -1.000000
vn -0.000002 0.000000 -1.000000
vn -0.281965 -0.952783 0.112696
vn -0.257025 -0.950443 0.174918
vn -0.257025 -0.950443 0.174918
vn -0.281965 -0.952783 0.112696
vn 0.681093 0.000000 0.732197
vn 0.681093 0.000000 0.732197
vn -0.281956 0.952786 0.112690
vn -0.257016 0.950447 0.174909
vn -0.305637 -0.950836 0.049966
vn -0.305637 -0.950836 0.049966
vn -0.305627 0.950839 0.049964
vn 0.000000 0.000000 -1.000000
vn 0.000000 0.000000 -1.000000
vn 0.256911 -0.950440 -0.175101
vn 0.281929 -0.952787 -0.112753
vn 0.281929 -0.952787 -0.112753
vn 0.256911 -0.950440 -0.175101
vn 0.256904 0.950442 -0.175099
vn 0.281923 0.952789 -0.112752
vn 0.681135 0.000000 0.732157
vn 0.681135 0.000000 0.732157
vn 0.305673 -0.950829 -0.049895
vn 0.305673 -0.950829 -0.049895
vn -0.000004 0.000000 -1.000000
vn -0.000004 0.000000 -1.000000
vn 0.305669 0.950830 -0.049894
vn 0.000000 0.000000 -1.000000
vn 0.000000 0.000000 -1.000000
vn -0.928780 0.000000 0.370632
vn -0.986881 0.000000 0.161452
vn -0.986881 0.000000 0.161452
vn -0.928780 0.000000 0.370632
vn 0.986958 0.000000 -0.160980
vn 0.928613 0.000000 -0.371049
vn 0.928613 0.000000 -0.371049
vn 0.986958 0.000000 -0.160980
vn -0.826904 0.000000 0.562343
vn -0.826904 0.000000 0.562343
vn 0.826128 0.000000 -0.563482
vn 0.826128 0.000000 -0.563482
vn 0.681152 0.000000 0.732142
vn 0.681147 0.000000 0.732147
vn 0.000000 1.000000 0.000000
vn 0.000000 1.000000 -0.000000
vn 0.000000 1.000000 -0.000000
vn 0.000000 1.000000 0.000000
vn 0.000000 0.000000 -1.000000
vn 0.000000 0.000000 -1.000000
vn 0.000000 -1.000000 0.000000
vn 0.000000 -1.000000 0.000000
vn 0.000000 1.000000 0.000001
vn 0.000000 1.000000 0.000001
vn 0.000000 -1.000000 0.000000
vn 0.681142 0.000000 0.732151
vn 0.681142 0.000000 0.732151
vn 0.000000 1.000000 0.000000
vn 0.000000 1.000000 0.000000
vn 0.000000 1.000000 0.000000
vn 0.000000 1.000000 0.000000
vn 0.000000 -1.000000 0.000000
vn 0.000000 -1.000000 -0.000000
vn 0.000000 0.000000 -1.000000
vn 0.000000 0.000000 -1.000000
vn 0.000000 1.000000 0.000001
vn 0.000000 1.000000 0.000001
vn 0.681133 0.000000 0.732160
vn 0.681133 0.000000 0.732160
vn 0.000000 -1.000000 -0.000000
s 1
f 3/1/1 1/2/2 2/4/3 4/3/4
s 2
f 14/18/5 13/17/6 15/19/7 16/20/8
f 17/21/9 14/18/5 16/20/8 18/26/10
s 3
f 9/29/11 7/30/12 8/32/13 10/31/14
s 4
f 32/46/15 31/45/16 33/47/17 34/48/18
f 35/49/19 32/46/15 34/48/18 36/54/20
s 5
f 12/57/21 10/58/22 8/59/23 6/60/24
f 4/61/25 2/62/26 12/57/21 6/60/24
s 6
f 11/63/27 5/64/28 7/65/29 9/66/30
f 1/67/31 3/68/32 5/64/28 11/63/27
s 1
f 13/5/33 3/1/1 4/3/4 15/7/34
s 7
f 20/69/35 19/70/36 21/23/37 22/22/38
s 8
f 25/75/39 26/76/40 27/25/41 28/24/42
s 7
f 23/73/43 20/69/35 22/22/38 24/27/44
s 8
f 26/76/40 29/79/45 30/28/46 27/25/41
s 3
f 17/34/47 18/36/48 8/32/13 7/30/12
s 9
f 5/64/49 3/68/50 19/70/51 20/69/52
s 1
f 3/1/1 13/5/33 21/9/53 19/10/54
s 2
f 13/17/6 14/18/5 22/22/55 21/23/56
s 9
f 7/65/57 5/64/49 20/69/52 23/73/58
s 2
f 14/18/5 17/21/9 24/27/59 22/22/55
s 3
f 17/34/47 7/30/12 23/39/60 24/40/61
s 10
f 4/61/62 6/60/63 26/76/64 25/75/65
s 2
f 16/20/8 15/19/7 28/24/66 27/25/67
s 1
f 15/7/34 4/3/4 25/13/68 28/14/69
s 10
f 6/60/63 8/59/70 29/79/71 26/76/64
s 3
f 8/32/13 18/36/48 30/43/72 29/44/73
s 2
f 18/26/10 16/20/8 27/25/67 30/28/74
s 3
f 31/33/75 9/29/11 10/31/14 33/35/76
s 11
f 38/86/77 37/82/78 39/84/79 40/80/80
s 12
f 43/74/81 44/77/82 45/83/83 46/85/84
s 11
f 41/78/85 38/86/77 40/80/80 42/72/86
s 12
f 44/77/82 47/71/87 48/81/88 45/83/83
s 1
f 35/6/89 36/8/90 2/4/3 1/2/2
s 13
f 11/63/91 9/66/92 37/82/93 38/86/94
s 3
f 9/29/11 31/33/75 39/37/95 37/38/96
s 4
f 31/45/16 32/46/15 40/50/97 39/51/98
s 13
f 1/67/99 11/63/91 38/86/94 41/78/100
s 4
f 32/46/15 35/49/19 42/55/101 40/50/97
s 1
f 35/6/89 1/2/2 41/11/102 42/12/103
s 14
f 10/58/104 12/57/105 44/77/106 43/74/107
s 4
f 34/48/18 33/47/17 46/52/108 45/53/109
s 3
f 33/35/76 10/31/14 43/41/110 46/42/111
s 14
f 12/57/105 2/62/112 47/71/113 44/77/106
s 1
f 2/4/3 36/8/90 48/15/114 47/16/115
s 4
f 36/54/20 34/48/18 45/53/109 48/56/116
