# This file uses centimeters as units for non-parametric coordinates.

v -0.561148 -13.046692 1.354756
v 0.558036 -13.046692 1.347211
v 1.354745 -13.046692 0.561162
v -0.561148 13.046692 1.354756
v 0.558036 13.046692 1.347211
v 1.354745 13.046692 0.561162
v -1.347199 13.046692 0.558030
v -0.000001 13.046692 0.000001
v 1.347203 13.046692 -0.558028
v -1.354747 13.046692 -0.561160
v -0.558032 13.046692 -1.347205
v 0.561149 13.046692 -1.354755
v -1.354747 -13.046692 -0.561160
v -0.558032 -13.046692 -1.347205
v 0.561149 -13.046692 -1.354755
v -1.347199 -13.046692 0.558030
v -0.000001 -13.046692 0.000001
v 1.347203 -13.046692 -0.558028
vt 0.049610 0.015105
vt 0.086673 0.015104
vt 0.123596 0.015104
vt 0.086673 0.991011
vt 0.049610 0.991011
vt 0.013040 0.015104
vt 0.123595 0.991011
vt 0.013040 0.991011
vt 0.363890 0.998029
vt 0.336909 0.997847
vt 0.350362 0.965369
vt 0.382841 0.978822
vt 0.317702 0.978897
vt 0.317884 0.951916
vt 0.363815 0.932890
vt 0.383023 0.951840
vt 0.336834 0.932708
vt 0.234365 0.991010
vt 0.197301 0.991010
vt 0.160659 0.991010
vt 0.197301 0.015104
vt 0.234365 0.015104
vt 0.271359 0.991010
vt 0.160659 0.015105
vt 0.271359 0.015104
vt 0.383023 0.054793
vt 0.363815 0.073743
vt 0.350362 0.041265
vt 0.382841 0.027812
vt 0.336834 0.073925
vt 0.317884 0.054718
vt 0.336909 0.008786
vt 0.363890 0.008604
vt 0.317702 0.027736
vt 0.308423 0.991010
vt 0.308423 0.015104
vn 0.382687 0.000000 0.923878
vn 0.382687 0.000000 0.923878
vn 0.006742 0.000000 0.999977
vn 0.006742 0.000000 0.999977
vn 0.702328 0.000000 0.711853
vn 0.702328 0.000000 0.711853
vn 0.000000 1.000000 0.000000
vn 0.000000 1.000000 0.000000
vn 0.000000 1.000000 0.000000
vn 0.000000 1.000000 0.000000
vn 0.000000 1.000000 0.000000
vn 0.000000 1.000000 0.000000
vn 0.000000 1.000000 0.000000
vn 0.000000 1.000000 0.000000
vn 0.000000 1.000000 0.000000
vn -0.382685 0.000000 -0.923879
vn -0.382685 0.000000 -0.923879
vn -0.702325 0.000000 -0.711857
vn -0.702325 0.000000 -0.711857
vn -0.006744 0.000000 -0.999977
vn -0.006744 0.000000 -0.999977
vn 0.000000 -1.000000 -0.000000
vn 0.000000 -1.000000 -0.000000
vn 0.000000 -1.000000 -0.000000
vn 0.000000 -1.000000 -0.000001
vn 0.000000 -1.000000 -0.000001
vn 0.000000 -1.000000 0.000000
vn 0.000000 -1.000000 -0.000000
vn 0.000000 -1.000000 -0.000002
vn 0.000000 -1.000000 0.000001
vn 0.923880 0.000000 -0.382682
vn 0.711858 0.000000 -0.702324
vn 0.711858 0.000000 -0.702324
vn 0.923880 0.000000 -0.382682
vn 0.999977 0.000000 -0.006738
vn 0.999977 0.000000 -0.006738
vn -0.923880 0.000000 0.382683
vn -0.923880 0.000000 0.382683
vn -0.999977 0.000000 0.006743
vn -0.999977 0.000000 0.006743
vn -0.711860 0.000000 0.702321
vn -0.711860 0.000000 0.702321
s 1
f 2/2/1 5/4/2 4/5/3 1/1/4
f 6/7/5 5/4/2 2/2/1 3/3/6
s 2
f 4/9/7 5/10/8 8/11/9 7/12/10
f 5/10/8 6/13/11 9/14/12 8/11/9
f 7/12/10 8/11/9 11/15/13 10/16/14
f 8/11/9 9/14/12 12/17/15 11/15/13
s 3
f 11/18/16 14/22/17 13/25/18 10/23/19
f 15/21/20 14/22/17 11/18/16 12/19/21
s 4
f 13/26/22 14/27/23 17/28/24 16/29/25
f 14/27/23 15/30/26 18/31/27 17/28/24
f 16/29/25 17/28/24 2/32/28 1/33/29
f 17/28/24 18/31/27 3/34/30 2/32/28
s 5
f 18/24/31 15/21/32 12/19/33 9/20/34
f 6/7/35 3/3/36 18/24/31 9/20/34
s 6
f 16/36/37 7/35/38 10/23/39 13/25/40
f 1/1/41 4/5/42 7/8/38 16/6/37
