# This file uses centimeters as units for non-parametric coordinates.

v -0.687967 -11.736728 0.246635
v 0.687967 -11.736728 0.246635
v -0.687967 11.736728 0.246635
v 0.687967 11.736728 0.246635
v -0.687967 11.736728 -0.246640
v 0.687967 11.736728 -0.246640
v -0.687967 -11.736728 -0.246640
v 0.687967 -11.736728 -0.246640
vt 0.900128 0.920100
vt 0.850741 0.920100
vt 0.850741 0.077543
vt 0.900128 0.077543
vt 0.917834 0.920099
vt 0.967222 0.920101
vt 0.967220 0.937808
vt 0.917832 0.937803
vt 0.917834 0.077543
vt 0.967222 0.077543
vt 0.984928 0.077543
vt 0.984927 0.920100
vt 0.917834 0.059838
vt 0.967221 0.059837
vn 0.000000 0.000000 1.000000
vn 0.000000 0.000000 1.000000
vn 0.000000 0.000000 1.000000
vn 0.000000 0.000000 1.000000
vn 0.000000 1.000000 0.000000
vn 0.000000 1.000000 0.000000
vn 0.000000 1.000000 0.000000
vn 0.000000 1.000000 0.000000
vn 0.000000 0.000000 -1.000000
vn 0.000000 0.000000 -1.000000
vn 0.000000 0.000000 -1.000000
vn 0.000000 0.000000 -1.000000
vn 0.000000 -1.000000 0.000000
vn 0.000000 -1.000000 0.000000
vn 0.000000 -1.000000 0.000000
vn 0.000000 -1.000000 0.000000
vn 1.000000 0.000000 0.000000
vn 1.000000 0.000000 0.000000
vn 1.000000 0.000000 0.000000
vn 1.000000 0.000000 0.000000
vn -1.000000 0.000000 0.000000
vn -1.000000 0.000000 0.000000
vn -1.000000 0.000000 0.000000
vn -1.000000 0.000000 0.000000
s off
f 4/1/1 3/2/2 1/3/3 2/4/4
f 6/5/5 5/6/6 3/7/7 4/8/8
f 8/9/9 7/10/10 5/6/11 6/5/12
f 2/13/13 1/14/14 7/10/15 8/9/16
f 4/1/17 2/4/18 8/9/19 6/5/20
f 1/11/21 3/12/22 5/6/23 7/10/24
