# This file uses centimeters as units for non-parametric coordinates.

v 0.000000 -1.497305 0.016846
v -0.000000 0.000000 0.016846
v 0.182840 -0.930998 0.016846
v 0.372860 -0.371315 0.016846
v 0.490009 -0.488905 0.016846
v 0.903253 -0.181297 0.016846
v 1.426262 0.000000 0.016846
v 0.182840 -0.563456 0.016846
v -0.000000 -0.563456 0.016846
v 0.563511 -0.181297 0.016846
v 0.563511 0.000000 0.016846
v 0.182840 -0.563456 -0.016845
v 0.372860 -0.371315 -0.016845
v -0.000000 -0.563456 -0.016846
v -0.000000 0.000000 -0.016846
v 0.490009 -0.488905 -0.016846
v 0.563511 -0.181297 -0.016845
v 0.903253 -0.181297 -0.016846
v 0.563511 0.000000 -0.016846
v 1.426262 0.000000 -0.016846
v 0.182840 -0.930998 -0.016846
v 0.000000 -1.497305 -0.016846
vt 0.839670 0.157314
vt 0.903084 0.221436
vt 0.964101 0.221435
vt 0.964101 0.033398
vt 0.903083 0.344092
vt 0.800573 0.196556
vt 0.964101 0.533083
vt 0.776046 0.033399
vt 0.776046 0.093901
vt 0.662666 0.093901
vt 0.488127 0.033399
vt 0.839968 0.157498
vt 0.964399 0.033584
vt 0.964399 0.221621
vt 0.903380 0.221621
vt 0.776342 0.094085
vt 0.776343 0.033584
vt 0.964275 0.532896
vt 0.903031 0.343461
vt 0.800590 0.196437
vt 0.663071 0.093892
vt 0.487660 0.033285
vt 0.893128 0.348575
vt 0.793395 0.205295
vt 0.975643 0.033582
vt 0.975642 0.221621
vt 0.658636 0.104294
vt 0.975644 0.533266
vt 0.953450 0.535979
vt 0.481478 0.043032
vt 0.490125 0.022906
vt 0.776343 0.022340
vt 0.964399 0.022341
vn -0.000001 0.000001 -1.000000
vn 0.000001 0.000000 -1.000000
vn 0.000002 -0.000000 -1.000000
vn 0.000002 -0.000000 -1.000000
vn -0.000003 0.000002 -1.000000
vn -0.000001 0.000000 -1.000000
vn -0.000000 -0.000000 -1.000000
vn -0.000002 0.000001 -1.000000
vn 0.000000 -0.000001 -1.000000
vn 0.000000 -0.000001 -1.000000
vn 0.000000 0.000001 -1.000000
vn -0.000003 0.000002 -1.000000
vn 0.000004 0.000000 -1.000000
vn 0.000004 0.000000 -1.000000
vn 0.000002 -0.000001 -1.000000
vn 0.000002 -0.000001 -1.000000
vn 0.000002 0.000000 1.000000
vn 0.000000 0.000000 1.000000
vn 0.000000 0.000000 1.000000
vn 0.000000 0.000000 1.000000
vn -0.000002 0.000000 1.000000
vn -0.000001 0.000000 1.000000
vn -0.000001 0.000000 1.000000
vn -0.000001 0.000000 1.000000
vn 0.000000 0.000000 1.000000
vn 0.000000 0.000000 1.000000
vn 0.000001 0.000000 1.000000
vn 0.000003 0.000000 1.000000
vn -0.000002 0.000000 1.000000
vn -0.000002 0.000000 1.000000
vn 0.000000 0.000000 1.000000
vn 0.000000 0.000000 1.000000
vn -1.000000 -0.000000 0.000000
vn -1.000000 0.000000 0.000000
vn -1.000000 0.000000 0.000000
vn -1.000000 -0.000000 0.000000
vn 0.467789 -0.883840 0.000000
vn 0.718560 -0.695465 0.000000
vn 0.718560 -0.695465 0.000000
vn 0.467789 -0.883840 0.000000
vn 0.000000 1.000000 0.000000
vn 0.000000 1.000000 0.000000
vn 0.000000 1.000000 0.000000
vn 0.000000 1.000000 0.000000
vn 0.327524 -0.944843 0.000000
vn 0.327524 -0.944843 0.000000
vn 0.896157 -0.443738 0.000000
vn 0.896157 -0.443738 0.000000
vn 0.951630 -0.307247 0.000000
vn 0.951630 -0.307247 0.000000
vn -1.000000 -0.000000 0.000000
vn -1.000000 -0.000000 0.000000
vn 0.000000 1.000000 0.000000
vn 0.000000 1.000000 0.000000
s 1
f 13/1/1 12/2/2 14/3/3 15/4/4
s 2
f 16/6/5 13/1/6 17/9/7 18/10/8
f 19/8/9 20/11/10 18/10/8 17/9/7
s 1
f 21/5/11 12/2/2 13/1/1 16/6/12
f 12/2/2 21/5/11 22/7/13 14/3/14
s 2
f 15/4/15 19/8/16 17/9/7 13/1/6
s 3
f 4/12/17 2/13/18 9/14/19 8/15/20
s 4
f 5/20/21 6/21/22 10/16/23 4/12/24
f 11/17/25 10/16/23 6/21/22 7/22/26
s 3
f 3/19/27 5/20/28 4/12/17 8/15/20
f 8/15/20 9/14/29 1/18/30 3/19/27
s 4
f 2/13/31 4/12/24 10/16/23 11/17/32
s 5
f 9/14/33 2/13/34 15/25/35 14/26/36
s 6
f 6/21/37 5/20/38 16/24/39 18/27/40
s 7
f 11/17/41 7/22/42 20/31/43 19/32/44
s 6
f 7/22/45 6/21/37 18/27/40 20/30/46
f 5/20/38 3/19/47 21/23/48 16/24/39
f 3/19/47 1/18/49 22/29/50 21/23/48
s 5
f 1/18/51 9/14/33 14/26/36 22/28/52
s 7
f 2/13/53 11/17/41 19/32/44 15/33/54
