# This file uses centimeters as units for non-parametric coordinates.

v 0.676537 -0.988356 0.016847
v -0.000000 0.000000 0.016847
v 0.701445 -0.684908 0.016847
v 0.466032 -0.244362 0.016847
v 0.801085 -0.420700 0.016847
v 0.938976 -0.188610 0.016847
v 1.140895 0.002827 0.016847
v 0.400848 -0.371569 0.016847
v 0.254590 -0.371931 0.016847
v 0.532680 -0.118555 0.016847
v 0.450764 0.001118 0.016847
v 0.400848 -0.371569 -0.016845
v 0.466032 -0.244362 -0.016845
v 0.254590 -0.371931 -0.016845
v -0.000000 0.000000 -0.016845
v 0.801085 -0.420700 -0.016845
v 0.532680 -0.118555 -0.016845
v 0.938976 -0.188610 -0.016845
v 0.450764 0.001118 -0.016845
v 1.140895 0.002827 -0.016845
v 0.701445 -0.684908 -0.016845
v 0.676537 -0.988356 -0.016845
vt 0.593012 0.317264
vt 0.635464 0.295512
vt 0.635585 0.246702
vt 0.511463 0.161739
vt 0.740032 0.395828
vt 0.651860 0.429079
vt 0.841299 0.387515
vt 0.511090 0.312170
vt 0.551027 0.339507
vt 0.574407 0.475097
vt 0.510520 0.542480
vt 0.592903 0.317343
vt 0.511302 0.161751
vt 0.635757 0.246841
vt 0.635355 0.295589
vt 0.550919 0.339585
vt 0.511038 0.312168
vt 0.841649 0.387707
vt 0.739776 0.395957
vt 0.652060 0.428964
vt 0.574406 0.475219
vt 0.510422 0.542706
vt 0.642088 0.237549
vt 0.519234 0.549562
vt 0.499131 0.542934
vt 0.499853 0.312080
vt 0.847693 0.401613
vt 0.499971 0.161651
vt 0.581173 0.484026
vt 0.656899 0.439066
vt 0.741721 0.406856
vt 0.517673 0.152486
vt 0.843883 0.375629
vn 0.000000 0.000000 -1.000000
vn 0.000000 0.000000 -1.000000
vn 0.000000 0.000000 -1.000000
vn 0.000000 0.000000 -1.000000
vn 0.000000 0.000000 -1.000000
vn 0.000000 0.000000 -1.000000
vn 0.000000 0.000000 -1.000000
vn 0.000000 0.000000 -1.000000
vn 0.000000 0.000000 -1.000000
vn 0.000000 0.000000 -1.000000
vn 0.000000 0.000000 -1.000000
vn 0.000000 0.000000 -1.000000
vn 0.000000 0.000000 -1.000000
vn 0.000000 0.000000 -1.000000
vn 0.000000 0.000000 -1.000000
vn 0.000000 0.000000 -1.000000
vn 0.000003 0.000000 1.000000
vn 0.000004 0.000000 1.000000
vn 0.000004 0.000000 1.000000
vn 0.000003 0.000000 1.000000
vn -0.000003 0.000000 1.000000
vn -0.000002 0.000000 1.000000
vn -0.000002 0.000000 1.000000
vn -0.000002 0.000000 1.000000
vn -0.000000 0.000000 1.000000
vn -0.000000 0.000000 1.000000
vn 0.000003 0.000000 1.000000
vn 0.000003 0.000000 1.000000
vn 0.000003 0.000000 1.000000
vn 0.000003 0.000000 1.000000
vn -0.000002 0.000000 1.000000
vn -0.000002 0.000000 1.000000
vn -0.825194 -0.564849 0.000000
vn -0.825196 -0.564846 0.000000
vn -0.825196 -0.564846 0.000000
vn -0.825194 -0.564849 0.000000
vn 0.781291 -0.624166 0.000000
vn 0.901157 -0.433493 0.000000
vn 0.901157 -0.433493 0.000000
vn 0.781291 -0.624166 0.000000
vn -0.002478 0.999997 0.000000
vn -0.002476 0.999997 0.000000
vn -0.002476 0.999997 0.000000
vn -0.002478 0.999997 0.000000
vn 0.688021 -0.725690 0.000000
vn 0.688021 -0.725690 0.000000
vn 0.975620 -0.219468 0.000000
vn 0.975620 -0.219468 0.000000
vn 0.996648 -0.081807 0.000000
vn 0.996648 -0.081807 0.000000
vn -0.825192 -0.564852 0.000000
vn -0.825192 -0.564852 0.000000
vn -0.002480 0.999997 0.000000
vn -0.002480 0.999997 0.000000
s 1
f 13/1/1 12/2/2 14/3/3 15/4/4
s 2
f 16/6/5 13/1/6 17/9/7 18/10/8
f 19/8/9 20/11/10 18/10/8 17/9/7
s 1
f 21/5/11 12/2/2 13/1/1 16/6/12
f 12/2/2 21/5/11 22/7/13 14/3/14
s 2
f 15/4/15 19/8/16 17/9/7 13/1/6
s 3
f 4/12/17 2/13/18 9/14/19 8/15/20
s 4
f 5/20/21 6/21/22 10/16/23 4/12/24
f 11/17/25 10/16/23 6/21/22 7/22/26
s 3
f 3/19/27 5/20/28 4/12/17 8/15/20
f 8/15/20 9/14/29 1/18/30 3/19/27
s 4
f 2/13/31 4/12/24 10/16/23 11/17/32
s 5
f 9/14/33 2/13/34 15/32/35 14/23/36
s 6
f 6/21/37 5/20/38 16/30/39 18/29/40
s 7
f 11/17/41 7/22/42 20/25/43 19/26/44
s 6
f 7/22/45 6/21/37 18/29/40 20/24/46
f 5/20/38 3/19/47 21/31/48 16/30/39
f 3/19/47 1/18/49 22/27/50 21/31/48
s 5
f 1/18/51 9/14/33 14/23/36 22/33/52
s 7
f 2/13/53 11/17/41 19/26/44 15/28/54
