# This file uses centimeters as units for non-parametric coordinates.

v -1.056927 -2.567034 1.609257
v -0.060406 -2.749538 1.926052
v 1.672485 -2.303367 1.636131
v -2.258480 -0.635036 1.224236
v 0.497314 -0.787827 1.350258
v 2.767250 -0.026735 1.437786
v -1.464348 1.254219 2.081566
v 0.543629 1.280698 2.768230
v 2.130455 0.835194 2.216793
v -0.461925 2.766994 0.935280
v 1.429455 2.089702 1.922852
v 2.876740 1.574290 0.964417
v -0.551163 1.786261 -0.252178
v 0.577148 0.848280 -1.406128
v 2.110088 0.767342 -1.016644
v -2.015877 -1.320955 -2.016552
v -0.019585 -1.428369 -2.768230
v 2.275852 -0.261770 -1.910698
v -1.270973 -2.303367 -1.307339
v 0.285782 -2.364019 -1.719601
v 1.672485 -2.303367 -1.307339
v -1.880997 -2.315213 0.164398
v 0.073910 -2.766995 0.281658
v 2.282509 -2.315213 0.164398
v 3.075962 0.501882 0.788944
v -3.075962 -1.342523 0.040947
vt 0.533996 0.260324
vt 0.602399 0.279901
vt 0.543770 0.411572
vt 0.392721 0.322229
vt 0.682988 0.373288
vt 0.618819 0.522218
vt 0.885763 0.216406
vt 0.896379 0.335647
vt 0.441379 0.560813
vt 0.345452 0.464065
vt 0.295952 0.597839
vt 0.542849 0.555927
vt 0.869951 0.434971
vt 0.426799 0.567029
vt 0.498490 0.645449
vt 0.381709 0.738445
vt 0.792975 0.006524
vt 0.620315 0.646739
vt 0.709284 0.250211
vt 0.643043 0.581222
vt 0.730189 0.166520
vt 0.440277 0.920103
vt 0.187844 0.853994
vt 0.280935 0.779107
vt 0.382724 0.996256
vt 0.781868 0.623535
vt 0.003399 0.896395
vt 0.011114 0.766072
vt 0.970018 0.447636
vt 0.846045 0.562509
vt 0.763696 0.437211
vt 0.995423 0.321395
vt 0.975199 0.168482
vt 0.980621 0.547065
vt 0.134227 0.981641
vt 0.136954 0.600083
vt 0.031559 0.639915
vt 0.226702 0.946213
vt 0.797753 0.284540
vt 0.827287 0.148672
vt 0.894259 0.060304
vn -0.094484 0.223749 0.970056
vn -0.049826 0.202917 0.977928
vn -0.031574 -0.172431 0.984515
vn -0.136255 -0.129326 0.982196
vn -0.005044 0.181579 0.983363
vn 0.075610 -0.214117 0.973877
vn -0.008545 -0.527685 0.849397
vn -0.160783 -0.466034 0.870035
vn 0.143927 -0.574876 0.805483
vn -0.170162 0.717659 0.675285
vn 0.181435 0.629812 0.755261
vn 0.276633 0.943924 0.180229
vn 0.146891 0.980138 0.133239
vn 0.508043 0.455217 0.731211
vn 0.400290 0.888742 0.223395
vn 0.256057 0.863597 -0.434322
vn 0.395899 0.788586 -0.470528
vn 0.109432 0.915728 -0.386609
vn -0.286219 0.560765 -0.776931
vn -0.088129 0.566982 -0.819003
vn 0.001962 -0.028252 -0.999599
vn -0.348295 -0.107349 -0.931218
vn 0.113578 0.549925 -0.827456
vn 0.317923 0.046383 -0.946981
vn 0.095841 -0.641954 -0.760730
vn -0.245267 -0.724576 -0.644076
vn 0.423839 -0.471519 -0.773324
vn -0.155286 -0.975900 -0.153313
vn -0.002364 -0.989355 -0.145502
vn 0.004391 -0.997912 -0.064444
vn -0.181087 -0.979251 -0.090963
vn 0.150613 -0.979434 -0.134253
vn 0.190344 -0.981074 -0.035538
vn 0.011208 -0.999773 0.018143
vn -0.206062 -0.978133 -0.028197
vn 0.227919 -0.971602 0.063579
vn 0.946268 -0.322941 0.016935
vn 0.926883 -0.265311 -0.265515
vn 0.935085 0.045216 -0.351528
vn 0.997755 -0.047823 0.046874
vn 0.886663 -0.353613 0.297972
vn 0.893320 -0.131131 0.429866
vn 0.846139 0.351045 -0.401019
vn 0.963274 0.257723 0.075383
vn 0.840179 0.100129 0.532985
vn -0.611828 -0.733328 -0.296473
vn -0.726698 -0.675518 0.124846
vn -0.997614 -0.065251 -0.022570
vn -0.886404 -0.115662 -0.448229
vn -0.700554 -0.486625 0.521939
vn -0.931643 -0.009158 0.363261
vn -0.833468 0.531613 -0.150726
vn -0.735566 0.557514 -0.384865
vn -0.877131 0.471117 0.093222
s 1
f 1/1/1 2/2/2 5/3/3 4/4/4
f 2/2/2 3/5/5 6/6/6 5/3/3
f 4/4/4 5/3/3 8/9/7 7/10/8
f 5/3/3 6/6/6 9/12/9 8/9/7
s 2
f 7/11/10 8/14/11 11/15/12 10/16/13
f 8/14/11 9/12/14 12/18/15 11/15/12
f 10/16/13 11/22/12 14/23/16 13/24/17
f 11/22/12 12/25/15 15/38/18 14/23/16
s 3
f 13/24/19 14/23/20 17/27/21 16/28/22
f 14/23/20 15/38/23 18/35/24 17/27/21
f 16/33/22 17/32/21 20/8/25 19/7/26
f 17/34/21 18/30/24 21/13/27 20/29/25
s 4
f 19/7/28 20/8/29 23/39/30 22/40/31
f 20/8/29 21/13/32 24/31/33 23/39/30
f 22/40/31 23/39/30 2/19/34 1/21/35
f 23/39/30 24/31/33 3/5/36 2/19/34
s 5
f 24/31/37 21/13/38 18/30/39 25/20/40
f 3/5/41 24/31/37 25/20/40 6/6/42
f 25/20/40 18/30/39 15/26/43 12/18/44
f 6/6/42 25/20/40 12/18/44 9/12/45
s 6
f 19/7/46 22/40/47 26/41/48 16/33/49
f 22/40/47 1/21/50 4/17/51 26/41/48
f 16/28/49 26/37/48 10/16/52 13/24/53
f 26/37/48 4/36/51 7/11/54 10/16/52
