# This file uses centimeters as units for non-parametric coordinates.

v 10.032157 -0.209010 -9.927441
v 11.693549 -0.209010 -9.886811
v 9.547599 -0.209010 9.886813
v 11.208976 -0.209010 9.927444
v 9.547599 0.209010 9.886813
v 11.208976 0.209010 9.927444
v 10.032157 0.209010 -9.927441
v 11.693549 0.209010 -9.886811
v -11.693536 -0.209010 -9.886960
v -10.032159 -0.209010 -9.927361
v -11.211679 -0.209010 9.927360
v -9.550286 -0.209010 9.886962
v -11.211679 0.209010 9.927360
v -9.550286 0.209010 9.886962
v -11.693536 0.209010 -9.886960
v -10.032159 0.209010 -9.927361
v 2.686561 -0.209010 -9.879330
v 4.347632 -0.209010 -9.931195
v 3.305137 -0.209010 9.931197
v 4.966208 -0.209010 9.879333
v 3.305137 0.209010 9.931197
v 4.966208 0.209010 9.879333
v 2.686561 0.209010 -9.879330
v 4.347632 0.209010 -9.931195
v -0.737618 -0.209010 -9.910088
v 0.924262 -0.209010 -9.910088
v -0.737618 -0.209010 9.910091
v 0.924262 -0.209010 9.910091
v -0.737618 0.209010 9.910091
v 0.924262 0.209010 9.910091
v -0.737618 0.209010 -9.910088
v 0.924262 0.209010 -9.910088
v -2.937066 -0.209010 -9.943806
v -1.279153 -0.209010 -9.829114
v -4.304971 -0.209010 9.829116
v -2.647058 -0.209010 9.943809
v -4.304971 0.209010 9.829116
v -2.647058 0.209010 9.943809
v -2.937066 0.209010 -9.943806
v -1.279153 0.209010 -9.829114
v -7.544412 -0.209010 -9.934266
v -5.883706 -0.209010 -9.871991
v -8.287149 -0.209010 9.871993
v -6.626443 -0.209010 9.934268
v -8.287149 0.209010 9.871993
v -6.626443 0.209010 9.934268
v -7.544412 0.209010 -9.934266
v -5.883706 0.209010 -9.871991
v 7.273047 -0.209010 -9.910088
v 8.934928 -0.209010 -9.910088
v 7.273047 -0.209010 9.910091
v 8.934928 -0.209010 9.910091
v 7.273047 0.209010 9.910091
v 8.934928 0.209010 9.910091
v 7.273047 0.209010 -9.910088
v 8.934928 0.209010 -9.910088
vt 0.979735 0.812583
vt 0.927701 0.812583
vt 0.927701 0.192002
vt 0.979735 0.192002
vt 0.927701 0.825671
vt 0.914613 0.192002
vt 0.914613 0.812583
vt 0.979735 0.825671
vt 0.862579 0.192002
vt 0.979735 0.178914
vt 0.927701 0.178913
vt 0.862579 0.812583
vt 0.992823 0.812583
vt 0.992824 0.192002
vt 0.123294 0.812583
vt 0.071260 0.812583
vt 0.071259 0.192002
vt 0.123293 0.192002
vt 0.071260 0.825671
vt 0.123294 0.825671
vt 0.006137 0.192002
vt 0.058171 0.192002
vt 0.058171 0.812583
vt 0.006137 0.812583
vt 0.071259 0.178914
vt 0.123293 0.178914
vt 0.136382 0.192002
vt 0.136382 0.812583
vt 0.696232 0.812583
vt 0.644198 0.812583
vt 0.644198 0.192002
vt 0.696232 0.192002
vt 0.644198 0.825671
vt 0.696232 0.825671
vt 0.579075 0.192002
vt 0.631109 0.192002
vt 0.631109 0.812583
vt 0.579075 0.812583
vt 0.644198 0.178914
vt 0.696232 0.178914
vt 0.709320 0.192002
vt 0.709320 0.812583
vt 0.553969 0.812583
vt 0.501934 0.812583
vt 0.501934 0.192002
vt 0.553968 0.192002
vt 0.501934 0.825671
vt 0.553968 0.825671
vt 0.436812 0.192002
vt 0.488846 0.192002
vt 0.488846 0.812583
vt 0.436812 0.812583
vt 0.501934 0.178914
vt 0.553968 0.178914
vt 0.567057 0.192002
vt 0.567057 0.812583
vt 0.407049 0.812583
vt 0.355015 0.812583
vt 0.355015 0.192002
vt 0.407049 0.192002
vt 0.355015 0.825671
vt 0.407049 0.825671
vt 0.289893 0.192002
vt 0.341927 0.192002
vt 0.341927 0.812583
vt 0.289893 0.812583
vt 0.355015 0.178914
vt 0.407049 0.178914
vt 0.420138 0.192002
vt 0.420138 0.812583
vt 0.264963 0.812583
vt 0.212929 0.812583
vt 0.212929 0.192002
vt 0.264963 0.192002
vt 0.212929 0.825671
vt 0.264963 0.825671
vt 0.147807 0.192002
vt 0.199841 0.192002
vt 0.199841 0.812583
vt 0.147807 0.812583
vt 0.212929 0.178914
vt 0.264963 0.178914
vt 0.278052 0.192002
vt 0.278052 0.812583
vt 0.838009 0.812583
vt 0.785976 0.812583
vt 0.785976 0.192002
vt 0.838009 0.192002
vt 0.785976 0.825671
vt 0.838009 0.825671
vt 0.720853 0.192002
vt 0.772887 0.192002
vt 0.772887 0.812583
vt 0.720853 0.812583
vt 0.785976 0.178914
vt 0.838009 0.178914
vt 0.851098 0.192002
vt 0.851098 0.812583
vn 0.000000 -1.000000 0.000000
vn 0.000000 -1.000000 0.000000
vn 0.000000 -1.000000 0.000000
vn 0.000000 -1.000000 0.000000
vn -0.024449 0.000000 0.999701
vn -0.024449 0.000000 0.999701
vn -0.024449 0.000000 0.999701
vn -0.024449 0.000000 0.999701
vn 0.000000 1.000000 -0.000000
vn 0.000000 1.000000 -0.000000
vn 0.000000 1.000000 -0.000000
vn 0.000000 1.000000 -0.000000
vn 0.024449 0.000000 -0.999701
vn 0.024449 0.000000 -0.999701
vn 0.024449 0.000000 -0.999701
vn 0.024449 0.000000 -0.999701
vn 0.999701 0.000000 0.024448
vn 0.999701 0.000000 0.024448
vn 0.999701 0.000000 0.024448
vn 0.999701 0.000000 0.024448
vn -0.999701 0.000000 -0.024448
vn -0.999701 0.000000 -0.024448
vn -0.999701 0.000000 -0.024448
vn -0.999701 0.000000 -0.024448
vn 0.000000 -1.000000 -0.000000
vn 0.000000 -1.000000 -0.000000
vn 0.000000 -1.000000 -0.000000
vn 0.000000 -1.000000 -0.000000
vn 0.024309 0.000000 0.999705
vn 0.024309 0.000000 0.999705
vn 0.024309 0.000000 0.999705
vn 0.024309 0.000000 0.999705
vn 0.000000 1.000000 0.000000
vn 0.000000 1.000000 0.000000
vn 0.000000 1.000000 0.000000
vn 0.000000 1.000000 0.000000
vn -0.024312 0.000000 -0.999704
vn -0.024312 0.000000 -0.999704
vn -0.024312 0.000000 -0.999704
vn -0.024312 0.000000 -0.999704
vn 0.999704 0.000000 -0.024312
vn 0.999704 0.000000 -0.024312
vn 0.999704 0.000000 -0.024312
vn 0.999704 0.000000 -0.024312
vn -0.999704 0.000000 0.024311
vn -0.999704 0.000000 0.024311
vn -0.999704 0.000000 0.024311
vn -0.999704 0.000000 0.024311
vn 0.000000 -1.000000 0.000000
vn 0.000000 -1.000000 0.000000
vn 0.000000 -1.000000 0.000000
vn 0.000000 -1.000000 0.000000
vn 0.031209 0.000000 0.999513
vn 0.031209 0.000000 0.999513
vn 0.031209 0.000000 0.999513
vn 0.031209 0.000000 0.999513
vn 0.000000 1.000000 -0.000000
vn 0.000000 1.000000 -0.000000
vn 0.000000 1.000000 -0.000000
vn 0.000000 1.000000 -0.000000
vn -0.031209 0.000000 -0.999513
vn -0.031209 0.000000 -0.999513
vn -0.031209 0.000000 -0.999513
vn -0.031209 0.000000 -0.999513
vn 0.999513 0.000000 -0.031209
vn 0.999513 0.000000 -0.031209
vn 0.999513 0.000000 -0.031209
vn 0.999513 0.000000 -0.031209
vn -0.999513 0.000000 0.031209
vn -0.999513 0.000000 0.031209
vn -0.999513 0.000000 0.031209
vn -0.999513 0.000000 0.031209
vn 0.000000 -1.000000 0.000000
vn 0.000000 -1.000000 0.000000
vn 0.000000 -1.000000 0.000000
vn 0.000000 -1.000000 0.000000
vn 0.000000 0.000000 1.000000
vn 0.000000 0.000000 1.000000
vn 0.000000 0.000000 1.000000
vn 0.000000 0.000000 1.000000
vn 0.000000 1.000000 0.000000
vn 0.000000 1.000000 0.000000
vn 0.000000 1.000000 0.000000
vn 0.000000 1.000000 0.000000
vn 0.000000 0.000000 -1.000000
vn 0.000000 0.000000 -1.000000
vn 0.000000 0.000000 -1.000000
vn 0.000000 0.000000 -1.000000
vn 1.000000 0.000000 0.000000
vn 1.000000 0.000000 0.000000
vn 1.000000 0.000000 0.000000
vn 1.000000 0.000000 0.000000
vn -1.000000 0.000000 0.000000
vn -1.000000 0.000000 0.000000
vn -1.000000 0.000000 0.000000
vn -1.000000 0.000000 0.000000
vn 0.000000 -1.000000 0.000000
vn 0.000000 -1.000000 0.000000
vn 0.000000 -1.000000 0.000000
vn 0.000000 -1.000000 0.000000
vn -0.069016 0.000000 0.997616
vn -0.069016 0.000000 0.997616
vn -0.069016 0.000000 0.997616
vn -0.069016 0.000000 0.997616
vn 0.000000 1.000000 0.000000
vn 0.000000 1.000000 0.000000
vn 0.000000 1.000000 0.000000
vn 0.000000 1.000000 0.000000
vn 0.069016 0.000000 -0.997616
vn 0.069016 0.000000 -0.997616
vn 0.069016 0.000000 -0.997616
vn 0.069016 0.000000 -0.997616
vn 0.997616 0.000000 0.069016
vn 0.997616 0.000000 0.069016
vn 0.997616 0.000000 0.069016
vn 0.997616 0.000000 0.069016
vn -0.997616 0.000000 -0.069016
vn -0.997616 0.000000 -0.069016
vn -0.997616 0.000000 -0.069016
vn -0.997616 0.000000 -0.069016
vn 0.000000 -1.000000 0.000000
vn 0.000000 -1.000000 0.000000
vn 0.000000 -1.000000 0.000000
vn 0.000000 -1.000000 0.000000
vn -0.037475 0.000000 0.999298
vn -0.037475 0.000000 0.999298
vn -0.037475 0.000000 0.999298
vn -0.037475 0.000000 0.999298
vn 0.000000 1.000000 0.000000
vn 0.000000 1.000000 0.000000
vn 0.000000 1.000000 0.000000
vn 0.000000 1.000000 0.000000
vn 0.037475 0.000000 -0.999298
vn 0.037475 0.000000 -0.999298
vn 0.037475 0.000000 -0.999298
vn 0.037475 0.000000 -0.999298
vn 0.999298 0.000000 0.037474
vn 0.999298 0.000000 0.037474
vn 0.999298 0.000000 0.037474
vn 0.999298 0.000000 0.037474
vn -0.999298 0.000000 -0.037474
vn -0.999298 0.000000 -0.037474
vn -0.999298 0.000000 -0.037474
vn -0.999298 0.000000 -0.037474
vn 0.000000 -1.000000 0.000000
vn 0.000000 -1.000000 0.000000
vn 0.000000 -1.000000 0.000000
vn 0.000000 -1.000000 0.000000
vn 0.000000 0.000000 1.000000
vn 0.000000 0.000000 1.000000
vn 0.000000 0.000000 1.000000
vn 0.000000 0.000000 1.000000
vn 0.000000 1.000000 0.000000
vn 0.000000 1.000000 0.000000
vn 0.000000 1.000000 0.000000
vn 0.000000 1.000000 0.000000
vn 0.000000 0.000000 -1.000000
vn 0.000000 0.000000 -1.000000
vn 0.000000 0.000000 -1.000000
vn 0.000000 0.000000 -1.000000
vn 1.000000 0.000000 0.000000
vn 1.000000 0.000000 0.000000
vn 1.000000 0.000000 0.000000
vn 1.000000 0.000000 0.000000
vn -1.000000 0.000000 0.000000
vn -1.000000 0.000000 0.000000
vn -1.000000 0.000000 0.000000
vn -1.000000 0.000000 0.000000
s off
f 4/1/1 3/2/2 1/3/3 2/4/4
f 5/5/5 3/2/6 4/1/7 6/8/8
f 8/9/9 7/6/10 5/7/11 6/12/12
f 2/4/13 1/3/14 7/11/15 8/10/16
f 4/1/17 2/4/18 8/14/19 6/13/20
f 1/3/21 3/2/22 5/7/23 7/6/24
f 12/15/25 11/16/26 9/17/27 10/18/28
f 13/19/29 11/16/30 12/15/31 14/20/32
f 16/21/33 15/22/34 13/23/35 14/24/36
f 10/18/37 9/17/38 15/25/39 16/26/40
f 12/15/41 10/18/42 16/27/43 14/28/44
f 9/17/45 11/16/46 13/23/47 15/22/48
f 20/29/49 19/30/50 17/31/51 18/32/52
f 21/33/53 19/30/54 20/29/55 22/34/56
f 24/35/57 23/36/58 21/37/59 22/38/60
f 18/32/61 17/31/62 23/39/63 24/40/64
f 20/29/65 18/32/66 24/41/67 22/42/68
f 17/31/69 19/30/70 21/37/71 23/36/72
f 28/43/73 27/44/74 25/45/75 26/46/76
f 29/47/77 27/44/78 28/43/79 30/48/80
f 32/49/81 31/50/82 29/51/83 30/52/84
f 26/46/85 25/45/86 31/53/87 32/54/88
f 28/43/89 26/46/90 32/55/91 30/56/92
f 25/45/93 27/44/94 29/51/95 31/50/96
f 36/57/97 35/58/98 33/59/99 34/60/100
f 37/61/101 35/58/102 36/57/103 38/62/104
f 40/63/105 39/64/106 37/65/107 38/66/108
f 34/60/109 33/59/110 39/67/111 40/68/112
f 36/57/113 34/60/114 40/69/115 38/70/116
f 33/59/117 35/58/118 37/65/119 39/64/120
f 44/71/121 43/72/122 41/73/123 42/74/124
f 45/75/125 43/72/126 44/71/127 46/76/128
f 48/77/129 47/78/130 45/79/131 46/80/132
f 42/74/133 41/73/134 47/81/135 48/82/136
f 44/71/137 42/74/138 48/83/139 46/84/140
f 41/73/141 43/72/142 45/79/143 47/78/144
f 52/85/145 51/86/146 49/87/147 50/88/148
f 53/89/149 51/86/150 52/85/151 54/90/152
f 56/91/153 55/92/154 53/93/155 54/94/156
f 50/88/157 49/87/158 55/95/159 56/96/160
f 52/85/161 50/88/162 56/97/163 54/98/164
f 49/87/165 51/86/166 53/93/167 55/92/168
