# This file uses centimeters as units for non-parametric coordinates.

v 3.867884 -0.562348 6.485771
v 4.075354 -0.562348 6.280552
v 3.867884 0.383293 6.485771
v 4.075354 0.383293 6.280552
v -0.499203 0.383293 0.203579
v -0.228989 0.383293 0.093384
v -1.607441 0.383293 -7.024143
v -1.315624 0.383293 -7.024143
v -1.607441 -0.562348 -7.024143
v -1.315624 -0.562348 -7.024143
v -0.499203 -0.562348 0.203579
v -0.228989 -0.562348 0.093384
v 3.867884 0.723390 6.485771
v -0.499203 0.723390 0.203579
v 4.075354 0.723390 6.280552
v -0.228989 0.723390 0.093384
v -1.607441 0.723390 -7.024143
v -1.315624 0.723390 -7.024143
v 3.792006 0.417500 6.560825
v -0.598026 0.417500 0.243877
v 3.792006 0.689184 6.560825
v -0.598026 0.689184 0.243877
v -1.714167 0.417500 -7.024143
v -1.714167 0.689184 -7.024143
v 4.151226 0.417500 6.205498
v -0.130161 0.417500 0.053085
v -0.130161 0.689184 0.053085
v 4.151226 0.689184 6.205498
v -1.208897 0.417500 -7.024143
v -1.208897 0.689184 -7.024143
v -1.607441 -0.723390 -7.024143
v -0.499203 -0.723390 0.203579
v -1.315624 -0.723390 -7.024143
v -0.228989 -0.723390 0.093384
v 3.867884 -0.723390 6.485771
v 4.075354 -0.723390 6.280552
v -1.854740 -0.562348 -7.024143
v -0.728189 -0.562348 0.296963
v -1.854740 -0.723390 -7.024143
v -0.728189 -0.723390 0.296963
v 3.692064 -0.562348 6.659679
v 3.692064 -0.723390 6.659679
v -1.068321 -0.562348 -7.024143
v 0.000000 -0.562348 0.000000
v 0.000000 -0.723390 0.000000
v -1.068321 -0.723390 -7.024143
v 4.251167 -0.562348 6.106640
v 4.251167 -0.723390 6.106640
vt 0.459847 0.190352
vt 0.459847 0.145195
vt 0.473782 0.190352
vt 0.473782 0.145195
vt 0.459847 0.206593
vt 0.459847 0.137504
vt 0.473782 0.206593
vt 0.473782 0.137504
vt 0.454751 0.204960
vt 0.454751 0.191986
vt 0.448038 0.145195
vt 0.448038 0.137504
vt 0.478879 0.191986
vt 0.478879 0.204960
vt 0.485592 0.137504
vt 0.485592 0.145195
vt 0.004280 0.325544
vt 0.499316 0.325544
vt 0.004280 0.311609
vt 0.499316 0.311609
vt 0.994351 0.325545
vt 0.499316 0.330641
vt 0.004280 0.330641
vt 0.004280 0.306512
vt 0.499316 0.306513
vt 0.994351 0.311609
vt 0.994351 0.330641
vt 0.994351 0.306513
vt 0.552099 0.145458
vt 0.552099 0.190616
vt 0.538164 0.145458
vt 0.538164 0.190615
vt 0.552099 0.137767
vt 0.552099 0.206856
vt 0.538164 0.137767
vt 0.538164 0.206856
vt 0.563909 0.137767
vt 0.563909 0.145458
vt 0.557196 0.192249
vt 0.557196 0.205223
vt 0.526354 0.145458
vt 0.526354 0.137767
vt 0.533067 0.205223
vt 0.533067 0.192249
vt 0.994614 0.078465
vt 0.499578 0.078465
vt 0.994614 0.092400
vt 0.499578 0.092400
vt 0.004543 0.078465
vt 0.499579 0.066656
vt 0.994614 0.066655
vt 0.994614 0.104210
vt 0.499578 0.104210
vt 0.004543 0.092400
vt 0.004543 0.066655
vt 0.004543 0.104210
vt 0.499316 0.243284
vt 0.994351 0.243285
vt 0.994351 0.288442
vt 0.499316 0.288442
vt 0.004280 0.288442
vt 0.004280 0.243284
vt 0.499316 0.393869
vt 0.499316 0.348711
vt 0.994351 0.348711
vt 0.994351 0.393869
vt 0.004280 0.393869
vt 0.004280 0.348711
vt 0.499316 0.343615
vt 0.004280 0.343615
vt 0.004280 0.231475
vt 0.004280 0.413369
vt 0.994351 0.343615
vt 0.994351 0.231475
vt 0.004280 0.293538
vt 0.499316 0.293539
vt 0.499316 0.231475
vt 0.004280 0.405678
vt 0.994351 0.293538
vt 0.499316 0.413369
vt 0.004280 0.223784
vt 0.994351 0.405678
vt 0.499316 0.223785
vt 0.994351 0.413369
vt 0.994351 0.223785
vt 0.499316 0.405678
vn 0.703236 0.000000 0.710956
vn 0.703237 0.000000 0.710955
vn 0.703243 0.000000 0.710950
vn 0.703247 0.000000 0.710946
vn -0.142422 0.988172 0.056857
vn -0.129173 0.987549 0.089783
vn 0.129128 0.987549 -0.089846
vn 0.142410 0.988175 -0.056821
vn -0.155492 0.987549 0.023860
vn 0.155512 0.987549 -0.023723
vn 0.000000 0.000000 -1.000000
vn 0.000000 0.000000 -1.000000
vn -0.000001 0.000000 -1.000000
vn 0.000000 0.000000 -1.000000
vn 0.000000 -1.000000 -0.000000
vn 0.000000 -1.000000 0.000000
vn 0.000000 -1.000000 -0.000000
vn 0.000000 -1.000000 -0.000000
vn 0.000000 -1.000000 -0.000000
vn 0.000000 -1.000000 -0.000000
vn 0.928789 0.000000 -0.370608
vn 0.988546 0.000000 -0.150922
vn 0.988546 0.000000 -0.150922
vn 0.928789 0.000000 -0.370608
vn 0.820892 0.000000 -0.571084
vn 0.820892 0.000000 -0.571084
vn -0.928737 0.000000 0.370741
vn -0.928737 0.000000 0.370741
vn -0.988448 0.000000 0.151560
vn -0.988448 0.000000 0.151560
vn -0.821097 0.000000 0.570789
vn -0.821097 0.000000 0.570789
vn 0.703235 0.000000 0.710958
vn 0.703251 0.000000 0.710941
vn -0.928718 0.000000 0.370788
vn -0.821171 0.000000 0.570682
vn -0.821171 0.000000 0.570682
vn -0.928718 0.000000 0.370788
vn 0.820815 0.000000 -0.571195
vn 0.928809 0.000000 -0.370558
vn 0.928809 0.000000 -0.370558
vn 0.820815 0.000000 -0.571195
vn -0.988413 0.000000 0.151789
vn -0.988413 0.000000 0.151789
vn 0.988582 0.000000 -0.150683
vn 0.988582 0.000000 -0.150683
vn 0.000000 0.000000 -1.000000
vn -0.000002 0.000000 -1.000000
vn -0.281818 -0.952849 0.112506
vn -0.255132 -0.950506 0.177332
vn -0.255132 -0.950506 0.177332
vn -0.281818 -0.952849 0.112506
vn 0.703228 0.000000 0.710964
vn 0.703228 0.000000 0.710964
vn -0.281813 0.952850 0.112505
vn -0.255128 0.950507 0.177330
vn -0.307118 -0.950504 0.047127
vn -0.307118 -0.950504 0.047127
vn -0.307112 0.950506 0.047127
vn 0.000000 0.000000 -1.000000
vn 0.000000 0.000000 -1.000000
vn 0.255043 -0.950506 -0.177459
vn 0.281798 -0.952863 -0.112436
vn 0.281798 -0.952863 -0.112436
vn 0.255043 -0.950506 -0.177459
vn 0.255040 0.950508 -0.177454
vn 0.281794 0.952865 -0.112433
vn 0.703261 0.000000 0.710932
vn 0.703261 0.000000 0.710932
vn 0.307159 -0.950504 -0.046856
vn 0.307159 -0.950504 -0.046856
vn -0.000004 0.000000 -1.000000
vn -0.000004 0.000000 -1.000000
vn 0.307152 0.950506 -0.046856
vn 0.000000 0.000000 -1.000000
vn 0.000000 0.000000 -1.000000
vn -0.928693 0.000000 0.370849
vn -0.988367 0.000000 0.152087
vn -0.988367 0.000000 0.152087
vn -0.928693 0.000000 0.370849
vn 0.988631 0.000000 -0.150364
vn 0.928836 0.000000 -0.370491
vn 0.928836 0.000000 -0.370491
vn 0.988631 0.000000 -0.150364
vn -0.821268 0.000000 0.570543
vn -0.821268 0.000000 0.570543
vn 0.820712 0.000000 -0.571342
vn 0.820712 0.000000 -0.571342
vn 0.703236 0.000000 0.710956
vn 0.703245 0.000000 0.710948
vn 0.000000 1.000000 0.000000
vn 0.000000 1.000000 -0.000000
vn 0.000000 1.000000 -0.000000
vn 0.000000 1.000000 0.000000
vn 0.000000 0.000000 -1.000000
vn 0.000000 0.000000 -1.000000
vn 0.000000 -1.000000 0.000000
vn 0.000000 -1.000000 0.000000
vn 0.000000 1.000000 0.000001
vn 0.000000 1.000000 0.000001
vn 0.000000 -1.000000 0.000001
vn 0.703235 0.000000 0.710958
vn 0.703235 0.000000 0.710958
vn 0.000000 1.000000 0.000000
vn 0.000000 1.000000 0.000000
vn 0.000000 1.000000 0.000000
vn 0.000000 1.000000 0.000000
vn 0.000000 -1.000000 -0.000000
vn 0.000000 -1.000000 0.000000
vn 0.000000 0.000000 -1.000000
vn 0.000000 0.000000 -1.000000
vn 0.000000 1.000000 0.000001
vn 0.000000 1.000000 0.000001
vn 0.703251 0.000000 0.710941
vn 0.703251 0.000000 0.710941
vn 0.000000 -1.000000 0.000001
s 1
f 3/1/1 1/2/2 2/4/3 4/3/4
s 2
f 14/18/5 13/17/6 15/19/7 16/20/8
f 17/21/9 14/18/5 16/20/8 18/26/10
s 3
f 9/29/11 7/30/12 8/32/13 10/31/14
s 4
f 32/46/15 31/45/16 33/47/17 34/48/18
f 35/49/19 32/46/15 34/48/18 36/54/20
s 5
f 12/57/21 10/58/22 8/59/23 6/60/24
f 4/61/25 2/62/26 12/57/21 6/60/24
s 6
f 11/63/27 5/64/28 7/65/29 9/66/30
f 1/67/31 3/68/32 5/64/28 11/63/27
s 1
f 13/5/33 3/1/1 4/3/4 15/7/34
s 7
f 20/69/35 19/70/36 21/23/37 22/22/38
s 8
f 25/75/39 26/76/40 27/25/41 28/24/42
s 7
f 23/73/43 20/69/35 22/22/38 24/27/44
s 8
f 26/76/40 29/79/45 30/28/46 27/25/41
s 3
f 17/34/47 18/36/48 8/32/13 7/30/12
s 9
f 5/64/49 3/68/50 19/70/51 20/69/52
s 1
f 3/1/1 13/5/33 21/9/53 19/10/54
s 2
f 13/17/6 14/18/5 22/22/55 21/23/56
s 9
f 7/65/57 5/64/49 20/69/52 23/73/58
s 2
f 14/18/5 17/21/9 24/27/59 22/22/55
s 3
f 17/34/47 7/30/12 23/39/60 24/40/61
s 10
f 4/61/62 6/60/63 26/76/64 25/75/65
s 2
f 16/20/8 15/19/7 28/24/66 27/25/67
s 1
f 15/7/34 4/3/4 25/13/68 28/14/69
s 10
f 6/60/63 8/59/70 29/79/71 26/76/64
s 3
f 8/32/13 18/36/48 30/43/72 29/44/73
s 2
f 18/26/10 16/20/8 27/25/67 30/28/74
s 3
f 31/33/75 9/29/11 10/31/14 33/35/76
s 11
f 38/86/77 37/82/78 39/84/79 40/80/80
s 12
f 43/74/81 44/77/82 45/83/83 46/85/84
s 11
f 41/78/85 38/86/77 40/80/80 42/72/86
s 12
f 44/77/82 47/71/87 48/81/88 45/83/83
s 1
f 35/6/89 36/8/90 2/4/3 1/2/2
s 13
f 11/63/91 9/66/92 37/82/93 38/86/94
s 3
f 9/29/11 31/33/75 39/37/95 37/38/96
s 4
f 31/45/16 32/46/15 40/50/97 39/51/98
s 13
f 1/67/99 11/63/91 38/86/94 41/78/100
s 4
f 32/46/15 35/49/19 42/55/101 40/50/97
s 1
f 35/6/89 1/2/2 41/11/102 42/12/103
s 14
f 10/58/104 12/57/105 44/77/106 43/74/107
s 4
f 34/48/18 33/47/17 46/52/108 45/53/109
s 3
f 33/35/76 10/31/14 43/41/110 46/42/111
s 14
f 12/57/105 2/62/112 47/71/113 44/77/106
s 1
f 2/4/3 36/8/90 48/15/114 47/16/115
s 4
f 36/54/20 34/48/18 45/53/109 48/56/116
