# This file uses centimeters as units for non-parametric coordinates.

v -1.894472 -1.536780 1.419132
v -0.126268 -1.990518 1.736015
v 1.791697 -1.354285 1.304169
v -2.592421 -0.607096 2.365723
v -0.126268 -0.322305 2.415600
v 2.532824 -0.275660 1.813835
v -1.957586 1.464410 1.286034
v -0.126268 1.345909 1.736015
v 2.194540 0.021594 1.654938
v -2.622560 2.024541 0.044804
v 0.032602 0.930583 0.039936
v 2.704294 0.038194 0.448608
v -2.671720 1.336285 -1.150829
v -0.013105 0.589217 -1.562256
v 1.949617 0.315779 -0.688278
v -2.446444 -0.970979 -2.236897
v -0.662065 -0.085130 -2.415600
v 2.926409 -0.068369 -1.409645
v -1.891069 -1.980893 -1.150829
v -0.126268 -1.990518 -1.646408
v 1.758181 -1.465523 -1.228962
v -2.622560 -1.990518 0.044804
v -0.126268 -2.024541 0.044804
v 2.370028 -1.990517 0.044804
v 3.956102 -0.280821 -0.259396
v -3.956102 -1.225019 0.626701
vt 0.783502 0.580223
vt 0.867448 0.432144
vt 0.004503 0.378805
vt 0.034045 0.519232
vt 0.930946 0.243021
vt 0.034945 0.188457
vt 0.124412 0.377306
vt 0.134675 0.579911
vt 0.767394 0.382762
vt 0.823820 0.268051
vt 0.150584 0.056047
vt 0.110897 0.158128
vt 0.233950 0.140474
vt 0.181646 0.209789
vt 0.227699 0.362062
vt 0.953421 0.269072
vt 0.020838 0.153751
vt 0.995739 0.483120
vt 0.223868 0.545721
vt 0.322822 0.386020
vt 0.417389 0.501330
vt 0.519621 0.440930
vt 0.952852 0.622946
vt 0.307875 0.144959
vt 0.421185 0.275496
vt 0.712013 0.495523
vt 0.876232 0.967179
vt 0.501326 0.295202
vt 0.983186 0.731569
vt 0.626168 0.343153
vt 0.592079 0.512894
vt 0.594498 0.627139
vt 0.566085 0.179236
vt 0.660913 0.179311
vt 0.497435 0.074120
vt 0.579569 0.036906
vt 0.753460 0.179643
vt 0.769343 0.745035
vt 0.761377 0.235610
vt 0.977651 0.834943
vt 0.888823 0.053199
vn -0.093889 -0.546240 0.832350
vn 0.084423 -0.502711 0.860322
vn 0.078450 -0.038521 0.996174
vn -0.123296 -0.061514 0.990462
vn 0.259824 -0.441853 0.858637
vn 0.269596 -0.014887 0.962859
vn 0.054191 0.433753 0.899401
vn -0.120545 0.439256 0.890238
vn 0.227266 0.414957 0.881000
vn 0.260639 0.965433 0.002686
vn 0.335053 0.942088 -0.014480
vn 0.308680 0.943735 -0.118665
vn 0.276611 0.945627 -0.171099
vn 0.407331 0.912736 -0.031553
vn 0.339211 0.938362 -0.066430
vn 0.278597 0.934413 -0.221938
vn 0.284051 0.896651 -0.339606
vn 0.268881 0.957877 -0.100875
vn -0.126627 0.553451 -0.823200
vn 0.044604 0.718464 -0.694133
vn 0.104352 0.167503 -0.980333
vn -0.090985 0.006005 -0.995834
vn 0.212571 0.830880 -0.514250
vn 0.302096 0.325354 -0.896037
vn 0.123604 -0.436319 -0.891262
vn -0.025248 -0.543427 -0.839077
vn 0.267963 -0.313350 -0.911048
vn -0.012363 -0.999757 -0.018249
vn 0.066115 -0.991049 -0.115981
vn 0.044867 -0.997619 0.052370
vn -0.069268 -0.994066 0.083868
vn 0.143549 -0.966695 -0.211883
vn 0.160730 -0.986807 0.019457
vn 0.022242 -0.975288 0.219814
vn -0.125225 -0.974759 0.184837
vn 0.169198 -0.953415 0.249742
vn 0.720127 -0.692686 -0.040043
vn 0.570421 -0.594194 -0.567057
vn 0.779540 0.329227 -0.532848
vn 0.943768 0.320600 0.080733
vn 0.646696 -0.576546 0.499379
vn 0.798491 0.218310 0.561028
vn 0.288939 0.957131 -0.020351
vn 0.361237 0.924990 0.117902
vn 0.424369 0.869379 0.253164
vn -0.582496 -0.724425 -0.368657
vn -0.501090 -0.862737 0.067770
vn -0.939413 -0.327944 0.099779
vn -0.861066 -0.294331 -0.414651
vn -0.311337 -0.814504 0.489543
vn -0.706635 -0.253925 0.660446
vn -0.928428 0.361869 0.084104
vn -0.911714 0.213672 -0.350888
vn -0.748816 0.433545 0.501312
s 1
f 1/26/1 2/9/2 5/2/3 4/1/4
f 2/9/2 3/10/5 6/5/6 5/2/3
f 4/1/4 5/2/3 8/18/7 7/23/8
f 5/2/3 6/5/6 9/16/9 8/18/7
s 2
f 7/4/10 8/3/11 11/7/12 10/8/13
f 8/3/11 9/6/14 12/12/15 11/7/12
f 10/8/13 11/7/12 14/15/16 13/19/17
f 11/7/12 12/12/15 15/14/18 14/15/16
s 3
f 13/19/19 14/15/20 17/20/21 16/21/22
f 14/15/20 15/14/23 18/13/24 17/20/21
f 16/21/22 17/20/21 20/25/25 19/22/26
f 17/20/21 18/13/24 21/24/27 20/25/25
s 4
f 19/22/28 20/28/29 23/30/30 22/31/31
f 20/28/29 21/33/32 24/34/33 23/30/30
f 22/31/31 23/30/30 2/9/34 1/26/35
f 23/30/30 24/34/33 3/39/36 2/9/34
s 5
f 24/34/37 21/33/38 18/35/39 25/36/40
f 3/10/41 24/37/37 25/41/40 6/5/42
f 25/11/40 18/13/39 15/14/43 12/12/44
f 6/17/42 25/11/40 12/12/44 9/6/45
s 6
f 19/22/46 22/31/47 26/32/48 16/21/49
f 22/31/47 1/26/50 4/1/51 26/32/48
f 16/27/49 26/38/48 10/29/52 13/40/53
f 26/38/48 4/1/51 7/23/54 10/29/52
