# This file uses centimeters as units for non-parametric coordinates.

v -0.871409 -0.000426 -0.588915
v 0.000000 -0.000426 -0.818620
v 0.588915 -0.000426 -0.588915
v -0.380889 -0.791130 -0.537384
v 0.000000 -0.791130 -0.685949
v 0.380889 -0.791130 -0.380889
v -0.269575 -0.924812 -0.269575
v 0.000000 -1.159228 -0.265622
v 0.269575 -0.924812 -0.269575
v -0.265622 -1.159228 -0.095268
v 0.000000 -1.239717 0.126179
v 0.265622 -1.159228 0.000000
v -0.269575 -0.924812 0.174307
v 0.000000 -0.978608 0.391801
v 0.269575 -0.924812 0.269575
v -0.380889 -0.700157 0.380889
v 0.000000 -0.582234 0.529454
v 0.380889 -0.673207 0.380889
v -0.418291 -0.000426 0.771410
v 0.170624 -0.000426 1.001115
v 0.759539 -0.000426 0.771410
v -1.101114 -0.000426 -0.000000
v 0.000000 -0.000426 -0.000000
v 0.989244 -0.000426 0.182495
v 0.529454 -0.791130 0.000000
v -0.529454 -0.791130 0.000000
v 0.539410 -0.188595 0.539410
v 0.000000 -0.188595 0.749805
v -0.539410 -0.188595 0.539410
v -0.887537 -0.188595 -0.189655
v -0.677141 -0.188595 -0.729065
v -0.137732 -0.188595 -0.939460
v 0.539410 -0.188595 -0.539410
v 0.749805 -0.188595 -0.000000
v 0.462715 -0.480110 0.619317
v 0.000000 -0.480110 0.799798
v -0.539799 -0.629065 0.619317
v -0.720280 -0.629065 -0.000000
v -0.462715 -0.564245 -0.381771
v 0.000000 -0.564245 -0.562252
v 0.462715 -0.623352 -0.462715
v 0.643197 -0.623352 -0.000000
vt 0.375000 0.000000
vt 0.500000 0.000000
vt 0.625000 0.000000
vt 0.375000 0.125000
vt 0.500000 0.125000
vt 0.625000 0.125000
vt 0.375000 0.250000
vt 0.500000 0.250000
vt 0.625000 0.250000
vt 0.375000 0.375000
vt 0.500000 0.375000
vt 0.625000 0.375000
vt 0.375000 0.500000
vt 0.500000 0.500000
vt 0.625000 0.500000
vt 0.375000 0.625000
vt 0.500000 0.625000
vt 0.625000 0.625000
vt 0.375000 0.750000
vt 0.500000 0.750000
vt 0.625000 0.750000
vt 0.375000 0.875000
vt 0.500000 0.875000
vt 0.625000 0.875000
vt 0.375000 1.000000
vt 0.500000 1.000000
vt 0.625000 1.000000
vt 0.875000 0.000000
vt 0.750000 0.000000
vt 0.875000 0.125000
vt 0.750000 0.125000
vt 0.875000 0.250000
vt 0.750000 0.250000
vt 0.125000 0.000000
vt 0.250000 0.000000
vt 0.125000 0.125000
vt 0.250000 0.125000
vt 0.125000 0.250000
vt 0.250000 0.250000
vt 0.625000 0.720253
vt 0.875000 0.029747
vt 0.500000 0.720253
vt 0.125000 0.029747
vt 0.375000 0.720253
vt 0.250000 0.029747
vt 0.375000 0.029747
vt 0.500000 0.029747
vt 0.625000 0.029747
vt 0.750000 0.029747
vt 0.625000 0.674168
vt 0.875000 0.075832
vt 0.500000 0.674168
vt 0.125000 0.075832
vt 0.375000 0.674168
vt 0.250000 0.075832
vt 0.375000 0.075832
vt 0.500000 0.075832
vt 0.625000 0.075832
vt 0.750000 0.075832
vn -0.357876 -0.173441 -0.917520
vn 0.061468 -0.216536 -0.974338
vn 0.072491 -0.337073 -0.938684
vn -0.462310 -0.207308 -0.862144
vn 0.397728 -0.222832 -0.890033
vn 0.503758 -0.366616 -0.782190
vn 0.058791 -0.812022 -0.580658
vn -0.389845 -0.772954 -0.500564
vn 0.495127 -0.681203 -0.539270
vn -0.296711 -0.835419 -0.462642
vn 0.051504 -0.888336 -0.456296
vn -0.017573 -0.994804 0.100280
vn -0.529001 -0.847251 0.048203
vn 0.393327 -0.831016 -0.393327
vn 0.487439 -0.864377 0.123516
vn -0.086873 -0.733249 0.674387
vn -0.594623 -0.592147 0.543862
vn 0.446483 -0.658222 0.606133
vn -0.387090 -0.499115 0.775271
vn -0.027831 -0.476757 0.878595
vn 0.050535 -0.732732 0.678639
vn -0.134800 -0.774977 0.617446
vn 0.335331 -0.387537 0.858701
vn 0.228507 -0.663787 0.712159
vn 0.077962 -0.478521 0.874608
vn -0.143856 -0.505663 0.850653
vn 0.277591 -0.432498 0.857840
vn 0.000000 1.000000 0.000000
vn 0.000000 1.000000 -0.000000
vn 0.000000 1.000000 0.000000
vn 0.000000 1.000000 0.000000
vn 0.000000 1.000000 -0.000000
vn 0.000000 1.000000 -0.000000
vn 0.000000 1.000000 0.000000
vn 0.000000 1.000000 0.000000
vn 0.000000 1.000000 0.000000
vn 0.902105 -0.431205 0.016415
vn 0.826235 -0.422772 0.372290
vn 0.705650 -0.573463 0.416171
vn 0.784431 -0.618906 0.040299
vn 0.860272 -0.383848 -0.335547
vn 0.745885 -0.571777 -0.341654
vn 0.728830 -0.521007 0.444250
vn 0.784472 -0.618985 0.038227
vn 0.700830 -0.607062 -0.374584
vn -0.775864 -0.535252 0.333977
vn -0.827255 -0.558767 -0.058560
vn -0.708701 -0.705286 -0.017710
vn -0.541019 -0.766993 0.344993
vn -0.765087 -0.506902 -0.397105
vn -0.760643 -0.530940 -0.373530
vn -0.720275 -0.691273 0.057844
vn -0.629294 -0.630007 0.455061
vn -0.688944 -0.635152 -0.349196
vn -0.021569 -0.367822 0.929646
vn 0.331333 -0.410637 0.849468
vn 0.194887 -0.844020 0.499648
vn -0.037964 -0.787364 0.615318
vn -0.346899 -0.284365 0.893755
vn -0.268126 -0.674956 0.687418
vn -0.632037 -0.641831 0.434261
vn -0.754089 -0.652705 0.072977
vn -0.851196 -0.524074 0.028477
vn -0.825811 -0.373660 0.422392
vn -0.766390 -0.568584 -0.298929
vn -0.735571 -0.580514 -0.349197
vn -0.253402 0.525277 -0.812325
vn 0.107431 0.265815 -0.958019
vn 0.087199 -0.213487 -0.973047
vn -0.324316 -0.132474 -0.936627
vn 0.444763 -0.051794 -0.894149
vn 0.401421 -0.250939 -0.880847
vn 0.795345 -0.479701 -0.370559
vn 0.700066 -0.708042 -0.092648
vn 0.873393 -0.484078 -0.053421
vn 0.860336 -0.354730 -0.366043
vn 0.507862 -0.838353 0.198090
vn 0.775583 -0.561057 0.289284
s 1
f 39/56/1 40/57/2 5/5/3 4/4/4
f 40/57/2 41/58/5 6/6/6 5/5/3
f 4/4/4 5/5/3 8/8/7 7/7/8
f 5/5/3 6/6/6 9/9/9 8/8/7
s 2
f 7/7/10 8/8/11 11/11/12 10/10/13
f 8/8/11 9/9/14 12/12/15 11/11/12
f 10/10/13 11/11/12 14/14/16 13/13/17
f 11/11/12 12/12/15 15/15/18 14/14/16
s 3
f 13/13/19 14/14/20 17/17/21 16/16/22
f 14/14/20 15/15/23 18/18/24 17/17/21
f 16/16/22 17/17/21 36/52/25 37/54/26
f 17/17/21 18/18/24 35/50/27 36/52/25
s 4
f 19/19/28 20/20/29 23/23/30 22/22/31
f 20/20/29 21/21/32 24/24/33 23/23/30
f 22/22/31 23/23/30 2/26/34 1/25/35
f 23/23/30 24/24/33 3/27/36 2/26/34
s 5
f 42/59/37 35/51/38 18/30/39 25/31/40
f 41/58/41 42/59/37 25/31/40 6/6/42
f 25/31/40 18/30/39 15/32/43 12/33/44
f 6/6/42 25/31/40 12/33/44 9/9/45
s 6
f 37/53/46 38/55/47 26/37/48 16/36/49
f 38/55/47 39/56/50 4/4/51 26/37/48
f 16/36/49 26/37/48 10/39/52 13/38/53
f 26/37/48 4/4/51 7/7/54 10/39/52
s 3
f 28/42/55 27/40/56 21/21/57 20/20/58
f 29/44/59 28/42/55 20/20/58 19/19/60
s 6
f 19/34/61 22/35/62 30/45/63 29/43/64
f 22/35/62 1/1/65 31/46/66 30/45/63
s 1
f 1/1/67 2/2/68 32/47/69 31/46/70
f 2/2/68 3/3/71 33/48/72 32/47/69
s 5
f 3/3/73 24/29/74 34/49/75 33/48/76
f 24/29/74 21/28/77 27/41/78 34/49/75
s 3
f 36/52/25 35/50/27 27/40/56 28/42/55
f 37/54/26 36/52/25 28/42/55 29/44/59
s 6
f 29/43/64 30/45/63 38/55/47 37/53/46
f 30/45/63 31/46/66 39/56/50 38/55/47
s 1
f 31/46/70 32/47/69 40/57/2 39/56/1
f 32/47/69 33/48/72 41/58/5 40/57/2
s 5
f 33/48/76 34/49/75 42/59/37 41/58/41
f 34/49/75 27/41/78 35/51/38 42/59/37
