# This file uses centimeters as units for non-parametric coordinates.

v -0.739008 -0.002461 -0.413219
v -0.000000 -0.002461 -0.807169
v 0.413219 -0.002461 -0.645994
v -0.267255 -3.509261 -0.155764
v -0.000000 -3.509261 -0.328405
v 0.267255 -3.509261 -0.224163
v -0.189150 -5.343865 -0.189150
v 0.039460 -6.698398 -0.186377
v 0.189150 -5.343865 -0.189150
v -0.124334 -6.698398 -0.000000
v 0.183868 -8.207173 0.053698
v 0.322655 -6.698398 -0.000000
v -0.158741 -5.343865 0.189150
v 0.088712 -6.698398 0.240074
v 0.189150 -5.343865 0.246501
v -0.267255 -3.509261 0.373057
v -0.000000 -3.509261 0.542147
v 0.267255 -3.509261 0.310347
v -0.413219 -0.002461 0.635145
v -0.000000 -0.002461 0.796320
v 0.566278 -0.002461 0.585566
v -0.986407 -0.002461 -0.000000
v 0.077725 -0.002461 -0.000000
v 0.891401 -0.002461 0.172347
v 0.371497 -3.509261 0.043092
v -0.371497 -3.509261 0.123715
v -0.201109 -4.437852 -0.189799
v -0.258130 -4.440434 0.042992
v -0.170699 -4.616338 0.275783
v 0.120395 -4.618918 0.460362
v 0.264474 -4.616338 0.333134
v 0.375408 -4.618918 0.042992
v 0.264474 -4.616338 -0.189799
v 0.031683 -4.618918 -0.246821
v -0.403986 -1.557146 -0.280109
v -0.638102 -1.557146 -0.000000
v -0.403986 -1.557146 0.348508
v -0.055478 -1.557146 0.612001
v 0.293030 -1.557146 0.348508
v 0.428965 -1.557146 -0.000000
v 0.293030 -1.557146 -0.348508
v -0.055478 -1.557146 -0.484443
v 0.309840 -4.112404 0.363499
v 0.014493 -4.114009 0.571295
v -0.261158 -4.112404 0.326353
v -0.374175 -4.114009 0.031007
v -0.280854 -3.888804 -0.227340
v 0.014493 -3.890409 -0.357662
v 0.309840 -3.986365 -0.264340
v 0.438080 -3.987970 0.031007
v 0.389045 -2.779283 0.351065
v 0.055222 -2.779283 0.621181
v -0.278600 -2.617978 0.413775
v -0.408807 -2.617978 0.097865
v -0.278600 -2.617978 -0.241559
v 0.055222 -2.617978 -0.446788
v 0.389046 -2.800576 -0.316581
v 0.519252 -2.800576 0.017242
v 0.367582 -0.592790 0.388648
v -0.021065 -0.592790 0.588674
v -0.409713 -0.802960 0.503232
v -0.712969 -0.802960 0.114584
v -0.409713 -0.802960 -0.362676
v -0.021065 -0.592790 -0.540239
v 0.367582 -0.592790 -0.388648
v 0.620869 -0.592790 -0.000000
vt 0.375000 0.000000
vt 0.500000 0.000000
vt 0.625000 0.000000
vt 0.375000 0.125000
vt 0.500000 0.125000
vt 0.625000 0.125000
vt 0.375000 0.250000
vt 0.500000 0.250000
vt 0.625000 0.250000
vt 0.375000 0.375000
vt 0.500000 0.375000
vt 0.625000 0.375000
vt 0.375000 0.500000
vt 0.500000 0.500000
vt 0.625000 0.500000
vt 0.375000 0.625000
vt 0.500000 0.625000
vt 0.625000 0.625000
vt 0.375000 0.750000
vt 0.500000 0.750000
vt 0.625000 0.750000
vt 0.375000 0.875000
vt 0.500000 0.875000
vt 0.625000 0.875000
vt 0.375000 1.000000
vt 0.500000 1.000000
vt 0.625000 1.000000
vt 0.875000 0.000000
vt 0.750000 0.000000
vt 0.875000 0.125000
vt 0.750000 0.125000
vt 0.875000 0.250000
vt 0.750000 0.250000
vt 0.125000 0.000000
vt 0.250000 0.000000
vt 0.125000 0.125000
vt 0.250000 0.125000
vt 0.125000 0.250000
vt 0.250000 0.250000
vt 0.375000 0.180156
vt 0.250000 0.180156
vt 0.125000 0.180156
vt 0.375000 0.569844
vt 0.500000 0.569844
vt 0.625000 0.569844
vt 0.875000 0.180156
vt 0.750000 0.180156
vt 0.625000 0.180156
vt 0.500000 0.180156
vt 0.375000 0.055417
vt 0.250000 0.055417
vt 0.125000 0.055417
vt 0.375000 0.694583
vt 0.500000 0.694583
vt 0.625000 0.694583
vt 0.875000 0.055417
vt 0.750000 0.055417
vt 0.625000 0.055417
vt 0.500000 0.055417
vt 0.625000 0.594945
vt 0.875000 0.155055
vt 0.500000 0.594945
vt 0.125000 0.155055
vt 0.375000 0.594945
vt 0.250000 0.155055
vt 0.375000 0.155055
vt 0.500000 0.155055
vt 0.625000 0.155055
vt 0.750000 0.155055
vt 0.625000 0.656770
vt 0.875000 0.093230
vt 0.500000 0.656770
vt 0.125000 0.093230
vt 0.375000 0.656770
vt 0.250000 0.093230
vt 0.375000 0.093230
vt 0.500000 0.093230
vt 0.625000 0.093230
vt 0.750000 0.093230
vt 0.625000 0.728958
vt 0.875000 0.021042
vt 0.500000 0.728958
vt 0.125000 0.021042
vt 0.375000 0.728958
vt 0.250000 0.021042
vt 0.375000 0.021042
vt 0.500000 0.021042
vt 0.625000 0.021042
vt 0.750000 0.021042
vn -0.420092 -0.176532 -0.890146
vn -0.038042 -0.223632 -0.973931
vn -0.063535 -0.059189 -0.996223
vn -0.478975 -0.076183 -0.874517
vn 0.353122 -0.235969 -0.905330
vn 0.363739 -0.031093 -0.930982
vn -0.425507 -0.009846 -0.904902
vn -0.067546 -0.015452 -0.997597
vn -0.020048 -0.082957 -0.996351
vn -0.281245 -0.078625 -0.956410
vn 0.299206 -0.018941 -0.954001
vn 0.241252 -0.081517 -0.967033
vn -0.742412 -0.152056 -0.652460
vn -0.128114 -0.147690 -0.980701
vn -0.472354 -0.836861 -0.276669
vn -0.983617 -0.180220 0.004300
vn 0.548335 -0.071677 -0.833181
vn 0.989854 -0.093946 -0.106601
vn -0.019894 -0.123128 0.992191
vn -0.742548 -0.120022 0.658951
vn 0.715359 -0.048259 0.697089
vn -0.581532 -0.162214 0.797187
vn 0.084663 -0.163401 0.982920
vn 0.007751 -0.079926 0.996771
vn -0.600605 -0.130814 0.788772
vn 0.715089 -0.085414 0.693795
vn 0.611155 0.003906 0.791502
vn -0.494785 -0.047780 0.867701
vn 0.048065 -0.022816 0.998584
vn 0.070697 -0.189965 0.979242
vn -0.324254 -0.146434 0.934568
vn 0.574878 0.009206 0.818187
vn 0.457776 -0.203092 0.865561
vn 0.000000 1.000000 0.000000
vn 0.000000 1.000000 0.000000
vn 0.000000 1.000000 -0.000000
vn 0.000000 1.000000 -0.000000
vn 0.000000 1.000000 0.000000
vn 0.000000 1.000000 0.000000
vn 0.000000 1.000000 -0.000000
vn 0.000000 1.000000 -0.000000
vn 0.000000 1.000000 -0.000000
vn 0.959490 -0.281675 0.006192
vn 0.813556 -0.295694 0.500691
vn 0.909577 -0.028996 0.414522
vn 0.999394 -0.034813 -0.000621
vn 0.853694 -0.194543 -0.483074
vn 0.908988 -0.034349 -0.415406
vn 0.999780 0.008763 -0.019059
vn 0.932305 0.006322 0.361618
vn 0.892447 -0.079418 0.444107
vn 0.996144 -0.083235 -0.027722
vn 0.917561 0.009895 -0.397472
vn 0.867774 -0.067669 -0.492330
vn -0.776494 -0.142049 0.613904
vn -0.977424 -0.205721 0.048183
vn -0.990569 -0.136924 -0.005027
vn -0.837318 -0.128135 0.531488
vn -0.817124 -0.193647 -0.542963
vn -0.834913 -0.102997 -0.540659
vn -0.934982 -0.145629 0.323421
vn -0.992813 -0.118799 -0.014434
vn -0.988713 -0.149090 0.014774
vn -0.947791 -0.152269 0.280191
vn -0.932637 -0.077670 -0.352357
vn -0.957710 -0.134982 -0.254109
vn -0.991396 -0.044020 -0.123271
vn -0.995176 -0.052675 0.082762
vn -0.956623 -0.059089 0.285273
vn -0.571610 -0.085215 0.816089
vn 0.166611 -0.125738 0.977973
vn 0.809394 -0.094235 0.579656
vn 0.838153 -0.063261 0.541754
vn 0.998327 -0.055435 -0.016426
vn 0.821784 -0.028912 -0.569066
vn 0.232833 -0.026761 -0.972148
vn 0.023705 -0.024594 -0.999417
vn -0.186478 -0.021332 -0.982228
vn -0.995001 -0.099841 0.002191
vn -0.896453 -0.111448 -0.428895
vn -0.941518 0.010586 -0.336796
vn -0.999666 -0.014100 0.021665
vn -0.899515 -0.068835 0.431432
vn -0.925635 -0.036879 0.376615
vn -0.573347 -0.034727 0.818577
vn 0.032179 -0.039616 0.998697
vn 0.042794 -0.050895 0.997787
vn -0.556254 -0.040029 0.830048
vn 0.628038 -0.028580 0.777658
vn 0.627966 -0.041959 0.777109
vn 0.997839 -0.065690 0.001378
vn 0.929736 -0.051423 0.364618
vn 0.926535 -0.034379 0.374634
vn 0.999207 -0.039763 0.002005
vn 0.929290 -0.070972 -0.362467
vn 0.927284 -0.039402 -0.372279
vn -0.100598 -0.090343 -0.990817
vn 0.341808 -0.077120 -0.936600
vn 0.333455 -0.030159 -0.942283
vn -0.094284 -0.007770 -0.995515
vn -0.521539 -0.085655 -0.848917
vn -0.503316 0.015996 -0.863955
vn 0.368361 -0.361989 0.856314
vn 0.072178 -0.310321 0.947888
vn -0.231134 -0.227999 0.945830
vn -0.752480 -0.137137 0.644180
vn -0.949691 -0.299074 0.092966
vn -0.796511 -0.350666 -0.492547
vn -0.390178 -0.286227 -0.875120
vn -0.030553 -0.367813 -0.929398
vn 0.333316 -0.398299 -0.854552
vn 0.826403 -0.257359 -0.500823
vn 0.909480 -0.415561 0.012507
vn 0.723862 -0.450990 0.522142
s 1
f 63/86/1 64/87/2 42/59/3 35/50/4
f 64/87/2 65/88/5 41/58/6 42/59/3
f 47/66/7 48/67/8 34/49/9 27/40/10
f 48/67/8 49/68/11 33/48/12 34/49/9
s 3
f 7/7/13 8/8/14 11/11/15 10/10/16
f 8/8/14 9/9/17 12/12/18 11/11/15
f 10/10/16 11/11/15 14/14/19 13/13/20
f 11/11/15 12/12/18 15/15/21 14/14/19
s 4
f 29/43/22 30/44/23 44/62/24 45/64/25
f 30/44/23 31/45/26 43/60/27 44/62/24
f 37/53/28 38/54/29 60/82/30 61/84/31
f 38/54/29 39/55/32 59/80/33 60/82/30
s 6
f 19/19/34 20/20/35 23/23/36 22/22/37
f 20/20/35 21/21/38 24/24/39 23/23/36
f 22/22/37 23/23/36 2/26/40 1/25/41
f 23/23/36 24/24/39 3/27/42 2/26/40
s 7
f 66/89/43 59/81/44 39/56/45 40/57/46
f 65/88/47 66/89/43 40/57/46 41/58/48
f 50/69/49 43/61/50 31/46/51 32/47/52
f 49/68/53 50/69/49 32/47/52 33/48/54
s 9
f 61/83/55 62/85/56 36/51/57 37/52/58
f 62/85/56 63/86/59 35/50/60 36/51/57
f 45/63/61 46/65/62 28/41/63 29/42/64
f 46/65/62 47/66/65 27/40/66 28/41/63
f 28/41/63 27/40/66 7/7/67 10/39/68
f 29/42/64 28/41/63 10/39/68 13/38/69
s 4
f 13/13/70 14/14/71 30/44/23 29/43/22
f 14/14/71 15/15/72 31/45/26 30/44/23
s 7
f 32/47/52 31/46/51 15/32/73 12/33/74
f 33/48/54 32/47/52 12/33/74 9/9/75
s 1
f 34/49/9 33/48/12 9/9/76 8/8/77
f 27/40/10 34/49/9 8/8/77 7/7/78
s 9
f 54/75/79 55/76/80 4/4/81 26/37/82
f 53/73/83 54/75/79 26/37/82 16/36/84
s 4
f 16/16/85 17/17/86 52/72/87 53/74/88
f 17/17/86 18/18/89 51/70/90 52/72/87
s 7
f 58/79/91 51/71/92 18/30/93 25/31/94
f 57/78/95 58/79/91 25/31/94 6/6/96
s 1
f 56/77/97 57/78/98 6/6/99 5/5/100
f 55/76/101 56/77/97 5/5/100 4/4/102
s 4
f 44/62/24 43/60/27 18/18/89 17/17/86
f 45/64/25 44/62/24 17/17/86 16/16/85
s 9
f 16/36/84 26/37/82 46/65/62 45/63/61
f 26/37/82 4/4/81 47/66/65 46/65/62
s 1
f 4/4/102 5/5/100 48/67/8 47/66/7
f 5/5/100 6/6/99 49/68/11 48/67/8
s 7
f 6/6/96 25/31/94 50/69/49 49/68/53
f 25/31/94 18/30/93 43/61/50 50/69/49
s 4
f 52/72/87 51/70/90 39/55/32 38/54/29
f 53/74/88 52/72/87 38/54/29 37/53/28
s 9
f 37/52/58 36/51/57 54/75/79 53/73/83
f 36/51/57 35/50/60 55/76/80 54/75/79
s 1
f 35/50/4 42/59/3 56/77/97 55/76/101
f 42/59/3 41/58/6 57/78/98 56/77/97
s 7
f 41/58/48 40/57/46 58/79/91 57/78/95
f 40/57/46 39/56/45 51/71/92 58/79/91
s 4
f 60/82/30 59/80/33 21/21/103 20/20/104
f 61/84/31 60/82/30 20/20/104 19/19/105
s 9
f 19/34/106 22/35/107 62/85/56 61/83/55
f 22/35/107 1/1/108 63/86/59 62/85/56
s 1
f 1/1/109 2/2/110 64/87/2 63/86/1
f 2/2/110 3/3/111 65/88/5 64/87/2
s 7
f 3/3/112 24/29/113 66/89/43 65/88/47
f 24/29/113 21/28/114 59/81/44 66/89/43
