# This file uses centimeters as units for non-parametric coordinates.

v -0.688698 -0.000840 -0.688698
v 0.000000 -0.000840 -0.957323
v 0.688698 -0.000840 -0.688698
v -0.445425 -1.197274 -0.445425
v 0.000000 -1.197274 -0.619162
v 0.445425 -1.197274 -0.445425
v -0.315251 -1.823196 -0.315251
v 0.000000 -2.285329 -0.310628
v 0.315251 -1.823196 -0.315251
v -0.310628 -2.285329 0.000000
v 0.000000 -2.800086 0.000000
v 0.310628 -2.285329 0.000000
v -0.315251 -1.823196 0.315251
v 0.000000 -2.285329 0.310628
v 0.315251 -1.823196 0.315251
v -0.445425 -1.197274 0.445425
v 0.000000 -1.197274 0.619162
v 0.445425 -1.197274 0.445425
v -0.688698 -0.000840 0.688698
v 0.000000 -0.000840 0.957323
v 0.688698 -0.000840 0.688698
v -0.957323 -0.000840 -0.000000
v 0.000000 -0.000840 -0.000000
v 0.957323 -0.000840 -0.000000
v 0.619162 -1.197274 0.000000
v -0.619162 -1.197274 0.000000
vt 0.375000 0.000000
vt 0.500000 0.000000
vt 0.625000 0.000000
vt 0.375000 0.125000
vt 0.500000 0.125000
vt 0.625000 0.125000
vt 0.375000 0.250000
vt 0.500000 0.250000
vt 0.625000 0.250000
vt 0.375000 0.375000
vt 0.500000 0.375000
vt 0.625000 0.375000
vt 0.375000 0.500000
vt 0.500000 0.500000
vt 0.625000 0.500000
vt 0.375000 0.625000
vt 0.500000 0.625000
vt 0.625000 0.625000
vt 0.375000 0.750000
vt 0.500000 0.750000
vt 0.625000 0.750000
vt 0.375000 0.875000
vt 0.500000 0.875000
vt 0.625000 0.875000
vt 0.375000 1.000000
vt 0.500000 1.000000
vt 0.625000 1.000000
vt 0.875000 0.000000
vt 0.750000 0.000000
vt 0.875000 0.125000
vt 0.750000 0.125000
vt 0.875000 0.250000
vt 0.750000 0.250000
vt 0.125000 0.000000
vt 0.250000 0.000000
vt 0.125000 0.125000
vt 0.250000 0.125000
vt 0.125000 0.250000
vt 0.250000 0.250000
vn -0.351405 -0.254639 -0.900929
vn 0.000000 -0.271985 -0.962301
vn 0.000000 -0.273498 -0.961873
vn -0.353651 -0.255824 -0.899714
vn 0.351405 -0.254639 -0.900929
vn 0.353651 -0.255824 -0.899714
vn 0.000000 -0.275014 -0.961440
vn -0.355893 -0.257007 -0.898492
vn 0.355893 -0.257007 -0.898492
vn -0.643281 -0.415185 -0.643281
vn 0.000000 -0.542278 -0.840199
vn 0.000000 -1.000000 0.000000
vn -0.840199 -0.542279 0.000000
vn 0.643281 -0.415185 -0.643282
vn 0.840199 -0.542279 0.000000
vn 0.000000 -0.542278 0.840199
vn -0.643281 -0.415185 0.643281
vn 0.643281 -0.415185 0.643282
vn -0.355893 -0.257007 0.898492
vn 0.000000 -0.275014 0.961440
vn 0.000000 -0.273498 0.961873
vn -0.353651 -0.255824 0.899714
vn 0.355893 -0.257007 0.898492
vn 0.353651 -0.255824 0.899714
vn 0.000000 -0.271985 0.962301
vn -0.351405 -0.254639 0.900929
vn 0.351405 -0.254639 0.900929
vn 0.000000 1.000000 0.000000
vn 0.000000 1.000000 0.000000
vn 0.000000 1.000000 0.000000
vn 0.000000 1.000000 0.000000
vn 0.000000 1.000000 0.000000
vn 0.000000 1.000000 0.000000
vn 0.000000 1.000000 -0.000000
vn 0.000000 1.000000 -0.000000
vn 0.000000 1.000000 0.000000
vn 0.962301 -0.271985 0.000000
vn 0.900929 -0.254639 0.351405
vn 0.899714 -0.255824 0.353651
vn 0.961873 -0.273498 0.000000
vn 0.900929 -0.254639 -0.351405
vn 0.899714 -0.255824 -0.353650
vn 0.898492 -0.257007 0.355893
vn 0.961440 -0.275013 0.000000
vn 0.898492 -0.257007 -0.355893
vn -0.900929 -0.254639 0.351405
vn -0.962301 -0.271985 -0.000000
vn -0.961873 -0.273498 -0.000000
vn -0.899714 -0.255824 0.353650
vn -0.900929 -0.254639 -0.351405
vn -0.899714 -0.255824 -0.353651
vn -0.961440 -0.275013 0.000000
vn -0.898492 -0.257007 0.355893
vn -0.898492 -0.257007 -0.355893
s 1
f 1/1/1 2/2/2 5/5/3 4/4/4
f 2/2/2 3/3/5 6/6/6 5/5/3
f 4/4/4 5/5/3 8/8/7 7/7/8
f 5/5/3 6/6/6 9/9/9 8/8/7
s 2
f 7/7/10 8/8/11 11/11/12 10/10/13
f 8/8/11 9/9/14 12/12/15 11/11/12
f 10/10/13 11/11/12 14/14/16 13/13/17
f 11/11/12 12/12/15 15/15/18 14/14/16
s 3
f 13/13/19 14/14/20 17/17/21 16/16/22
f 14/14/20 15/15/23 18/18/24 17/17/21
f 16/16/22 17/17/21 20/20/25 19/19/26
f 17/17/21 18/18/24 21/21/27 20/20/25
s 4
f 19/19/28 20/20/29 23/23/30 22/22/31
f 20/20/29 21/21/32 24/24/33 23/23/30
f 22/22/31 23/23/30 2/26/34 1/25/35
f 23/23/30 24/24/33 3/27/36 2/26/34
s 5
f 24/29/37 21/28/38 18/30/39 25/31/40
f 3/3/41 24/29/37 25/31/40 6/6/42
f 25/31/40 18/30/39 15/32/43 12/33/44
f 6/6/42 25/31/40 12/33/44 9/9/45
s 6
f 19/34/46 22/35/47 26/37/48 16/36/49
f 22/35/47 1/1/50 4/4/51 26/37/48
f 16/36/49 26/37/48 10/39/52 13/38/53
f 26/37/48 4/4/51 7/7/54 10/39/52
