# This file uses centimeters as units for non-parametric coordinates.

v -0.982972 -14.557344 2.927113
v 0.104134 -14.291282 3.373360
v 1.369838 -12.697847 3.933487
v -1.365747 13.888663 -0.376511
v -0.166534 13.436224 0.447548
v 1.149008 13.059851 0.273655
v -1.825236 14.101256 -1.674051
v 1.726771 12.924135 -0.753174
v -1.365148 13.895443 -2.614849
v -0.164790 13.455975 -2.709270
v 1.149701 13.067692 -1.965614
v -0.926449 -14.620804 0.793400
v 0.242037 -14.044595 0.666288
v 1.410024 -13.132159 1.585472
v -1.409395 -14.727616 1.813091
v 1.943783 -12.041641 3.361469
v -0.608935 -13.922878 1.475452
v 0.259183 -13.664171 1.239143
v -0.983432 -14.062023 2.208893
v 1.149413 -12.917659 1.962318
v 1.553627 -12.087102 3.312193
v 0.147185 -13.883829 3.265970
v -0.683291 -14.131074 2.905424
v 1.119439 -12.600558 3.744307
v -0.129620 13.902491 0.057909
v -1.062878 14.283886 -0.595516
v -1.422760 14.455832 -1.589291
v 0.874673 13.567499 -0.032328
v 1.306920 13.445545 -0.796381
v -1.061991 14.293938 -2.303352
v -0.127791 13.923208 -2.347511
v 0.875747 13.579672 -1.742027
v -2.295359 13.909525 0.504238
v -0.280054 13.428417 1.744831
v -0.276984 13.889576 1.743126
v -2.294225 14.382332 0.492950
v -3.094574 14.249567 -1.800676
v -3.092976 14.727616 -1.816566
v 2.016284 13.071844 1.158314
v 2.025218 13.522820 1.164070
v 3.081995 12.834112 -0.695465
v 3.094574 13.281424 -0.687359
v -2.295365 13.909525 -3.508106
v -0.279523 13.434422 -3.931267
v -2.294231 14.382332 -3.519394
v -0.276402 13.896168 -3.933487
v 2.016289 13.071844 -2.854033
v 2.025224 13.522820 -2.848274
v 0.172496 6.533594 -0.200993
v -0.827516 6.538450 0.299778
v -2.059885 6.533594 -0.200993
v -2.879505 6.518299 -1.466003
v -2.900611 6.498463 -2.775158
v -2.020386 6.488602 -3.324627
v -0.668230 6.498463 -2.775158
v 0.259964 6.518299 -1.466003
v 0.969800 -5.684442 -0.499315
v 1.218984 -5.751355 -1.290142
v 0.837842 -5.777458 -2.116760
v 0.025371 -5.751355 -2.483753
v -0.729205 -5.684442 -2.198322
v -0.961119 -5.605356 -1.418167
v -0.566109 -5.569476 -0.600126
v 0.232494 -5.605356 -0.224558
v -1.948363 7.036066 -0.530760
v -0.995097 7.040402 -0.144470
v -0.249358 7.036066 -0.530760
v -0.212208 7.023239 -1.505053
v -0.927539 7.007725 -2.505470
v -1.952919 7.000376 -2.921074
v -2.626545 7.007725 -2.505470
v -2.599436 7.023239 -1.505053
v 1.185099 -5.686064 -0.200867
v 0.209184 -5.587186 0.165974
v -0.841694 -5.541148 -0.327938
v -1.360550 -5.587186 -1.403759
v -1.047283 -5.686064 -2.433247
v -0.043301 -5.765159 -2.817430
v 1.030975 -5.794706 -2.337982
v 1.526433 -5.765159 -1.247696
vt 0.348314 0.177127
vt 0.348314 0.944500
vt 0.319809 0.944500
vt 0.319809 0.177127
vt 0.376819 0.944500
vt 0.376819 0.177127
vt 0.234293 0.944500
vt 0.234293 0.177127
vt 0.262798 0.177127
vt 0.262798 0.944500
vt 0.433829 0.944500
vt 0.405324 0.177127
vt 0.405324 0.944500
vt 0.291304 0.177127
vt 0.291304 0.944500
vt 0.130525 0.954271
vt 0.153275 0.954271
vt 0.287761 0.153702
vt 0.259256 0.153702
vt 0.107775 0.954271
vt 0.230751 0.153702
vt 0.085025 0.954271
vt 0.202246 0.153702
vt 0.221526 0.175874
vt 0.198775 0.175874
vt 0.176025 0.175874
vt 0.085025 0.175874
vt 0.153275 0.175874
vt 0.130525 0.175874
vt 0.107775 0.175874
vt 0.287762 0.164726
vt 0.259256 0.164726
vt 0.316267 0.164726
vt 0.316267 0.153702
vt 0.176025 0.954271
vt 0.230751 0.164726
vt 0.202246 0.164726
vt 0.373277 0.164726
vt 0.344772 0.164726
vt 0.344772 0.153702
vt 0.373277 0.153702
vt 0.221526 0.954271
vt 0.198775 0.954271
vt 0.462334 0.177127
vt 0.433829 0.177127
vt 0.039525 0.175874
vt 0.173741 0.164726
vt 0.039525 0.954271
vt 0.062275 0.175874
vt 0.462334 0.944500
vt 0.145236 0.164726
vt 0.173741 0.153702
vt 0.145236 0.153702
vt 0.062275 0.954271
vt 0.130168 0.103561
vt 0.122506 0.084645
vt 0.148261 0.058890
vt 0.166726 0.103561
vt 0.103591 0.076983
vt 0.099703 0.038482
vt 0.122506 0.122477
vt 0.148261 0.148232
vt 0.084674 0.084645
vt 0.058919 0.058890
vt 0.103591 0.130139
vt 0.103591 0.166697
vt 0.077012 0.103561
vt 0.040454 0.103561
vt 0.084674 0.122477
vt 0.058918 0.148233
vt 0.251162 0.061854
vt 0.261260 0.086708
vt 0.252885 0.086708
vt 0.245223 0.067793
vt 0.251162 0.111563
vt 0.245223 0.105624
vt 0.226307 0.051755
vt 0.226307 0.060130
vt 0.226307 0.121662
vt 0.226307 0.113287
vt 0.201453 0.061854
vt 0.207391 0.067793
vt 0.201453 0.111563
vt 0.207391 0.105624
vt 0.191354 0.086708
vt 0.199729 0.086708
vt 0.379394 0.072040
vt 0.369295 0.096894
vt 0.341113 0.096894
vt 0.359577 0.052223
vt 0.379394 0.121748
vt 0.359577 0.141566
vt 0.404249 0.061941
vt 0.400362 0.031815
vt 0.404249 0.131848
vt 0.404249 0.160030
vt 0.429103 0.072040
vt 0.448920 0.052223
vt 0.429103 0.121748
vt 0.448920 0.141566
vt 0.439202 0.096894
vt 0.467385 0.096894
vt 0.376819 0.780144
vt 0.348314 0.780144
vt 0.319809 0.780144
vt 0.291304 0.780144
vt 0.262798 0.780144
vt 0.234293 0.780144
vt 0.462334 0.780144
vt 0.433829 0.780144
vt 0.405324 0.780144
vt 0.107775 0.477787
vt 0.085025 0.477787
vt 0.062275 0.477787
vt 0.221526 0.477787
vt 0.039525 0.477787
vt 0.198775 0.477787
vt 0.176025 0.477787
vt 0.153275 0.477787
vt 0.130525 0.477787
vt 0.153275 0.791090
vt 0.130525 0.791090
vt 0.107775 0.791090
vt 0.085025 0.791090
vt 0.062275 0.791090
vt 0.221526 0.791090
vt 0.039525 0.791090
vt 0.198775 0.791090
vt 0.176025 0.791090
vt 0.376819 0.479870
vt 0.348314 0.479870
vt 0.319809 0.479870
vt 0.291304 0.479870
vt 0.262798 0.479870
vt 0.234293 0.479870
vt 0.462334 0.479870
vt 0.433829 0.479870
vt 0.405324 0.479870
vn -0.374075 0.357794 0.855600
vn -0.201923 0.189100 0.960973
vn -0.411370 0.137662 0.901013
vn -0.408894 0.317679 0.855504
vn 0.035689 0.234004 0.971580
vn -0.338201 0.396899 0.853283
vn 0.111871 -0.214103 -0.970384
vn 0.245422 -0.370988 -0.895621
vn -0.134064 -0.362662 -0.922227
vn -0.296043 -0.236687 -0.925385
vn 0.589374 -0.325599 -0.739340
vn 0.502236 -0.155070 -0.850713
vn 0.975500 0.157688 0.153407
vn 0.948294 -0.126871 -0.290934
vn 0.913890 -0.018845 -0.405525
vn 0.991586 0.128032 -0.019093
vn 0.888731 0.255142 0.380867
vn 0.730393 0.398227 0.554924
vn -0.999912 0.007186 0.011190
vn -0.992322 -0.060413 0.107919
vn -0.961281 -0.136226 -0.239544
vn -0.923804 -0.131819 -0.359457
vn -0.913540 0.145023 0.380018
vn -0.896639 0.023239 0.442152
vn 0.215405 0.976357 0.018110
vn 0.193616 0.976701 0.092559
vn 0.193616 0.976701 0.092559
vn 0.215405 0.976357 0.018110
vn 0.151529 0.986412 -0.063479
vn 0.151529 0.986412 -0.063479
vn 0.102305 0.994749 -0.002724
vn 0.102305 0.994749 -0.002724
vn 0.145665 0.987720 0.056490
vn 0.145665 0.987720 0.056490
vn 0.583258 -0.698972 0.413821
vn 0.304229 -0.779197 0.547993
vn 0.304229 -0.779197 0.547993
vn 0.583258 -0.698972 0.413821
vn 0.827341 -0.561361 -0.019522
vn 0.827341 -0.561361 -0.019522
vn 0.121248 -0.834071 0.538168
vn 0.121248 -0.834071 0.538168
vn 0.139289 -0.986137 -0.090178
vn 0.139289 -0.986137 -0.090178
vn 0.527864 -0.256396 -0.809704
vn 0.678058 -0.404400 -0.613757
vn 0.678058 -0.404400 -0.613757
vn 0.527864 -0.256396 -0.809704
vn 0.424819 -0.493256 -0.759096
vn 0.424819 -0.493256 -0.759096
vn -0.947701 0.139486 0.287064
vn -0.947701 0.139486 0.287064
vn -0.913429 0.022824 0.406358
vn -0.913429 0.022824 0.406358
vn 0.422968 -0.351977 -0.834992
vn 0.422968 -0.351977 -0.834992
vn 0.419825 -0.155925 -0.894111
vn 0.419825 -0.155925 -0.894111
vn -0.732131 -0.396485 -0.553881
vn -0.732131 -0.396485 -0.553881
vn -0.892341 -0.260273 -0.368762
vn -0.892341 -0.260273 -0.368762
vn 0.390930 -0.416210 -0.820941
vn 0.390930 -0.416210 -0.820941
vn -0.009864 -0.253360 -0.967322
vn -0.009864 -0.253360 -0.967322
vn -0.522966 0.014210 0.852235
vn -0.522966 0.014210 0.852235
vn -0.522966 0.014210 0.852235
vn -0.522966 0.014210 0.852235
vn -0.944317 0.012114 0.328814
vn -0.944317 0.012114 0.328814
vn -0.944317 0.012114 0.328814
vn -0.944317 0.012114 0.328814
vn 0.892388 -0.180635 -0.413539
vn 0.885093 -0.039590 -0.463727
vn 0.885093 -0.039590 -0.463727
vn 0.892388 -0.180635 -0.413539
vn 0.244578 -0.007526 0.969600
vn 0.244578 -0.007526 0.969600
vn 0.244578 -0.007526 0.969600
vn 0.244578 -0.007526 0.969600
vn 0.864498 -0.028449 0.501831
vn 0.864498 -0.028449 0.501831
vn 0.864498 -0.028449 0.501831
vn 0.864498 -0.028449 0.501831
vn -0.206231 -0.013203 -0.978414
vn -0.206231 -0.013203 -0.978414
vn -0.206231 -0.013203 -0.978414
vn -0.206231 -0.013203 -0.978414
vn 0.235164 0.408956 0.881733
vn 0.345100 0.255838 0.903025
vn 0.345100 0.255838 0.903025
vn 0.235164 0.408956 0.881733
vn -0.906210 -0.009479 -0.422722
vn -0.906210 -0.009479 -0.422722
vn -0.906210 -0.009479 -0.422722
vn -0.906210 -0.009479 -0.422722
vn 0.912725 0.168186 0.372352
vn 0.957931 0.155160 0.241441
vn 0.957931 0.155160 0.241441
vn 0.912725 0.168186 0.372352
vn 0.895728 -0.014595 -0.444363
vn 0.895728 -0.014595 -0.444363
vn 0.895728 -0.014595 -0.444363
vn 0.895728 -0.014595 -0.444363
vn 0.425350 -0.002110 -0.905027
vn 0.425350 -0.002110 -0.905027
vn 0.425350 -0.002110 -0.905027
vn 0.425350 -0.002110 -0.905027
vn -0.605550 0.348799 0.715296
vn -0.513640 0.165355 0.841922
vn -0.513640 0.165355 0.841922
vn -0.605550 0.348799 0.715296
vn -0.166572 -0.980388 -0.105326
vn -0.202512 -0.979140 -0.016552
vn -0.202512 -0.979140 -0.016552
vn -0.166572 -0.980388 -0.105326
vn -0.126177 -0.991922 0.013069
vn -0.126177 -0.991922 0.013069
vn 0.168552 0.985647 -0.009536
vn 0.168552 0.985647 -0.009536
vn -0.128804 -0.988685 0.076889
vn -0.128804 -0.988685 0.076889
vn -0.070322 -0.997515 0.004205
vn -0.070322 -0.997515 0.004205
vn -0.215513 -0.975810 0.036734
vn -0.194512 -0.971849 0.132948
vn -0.194512 -0.971849 0.132948
vn -0.215513 -0.975810 0.036734
vn 0.227523 0.973189 -0.033705
vn 0.227523 0.973189 -0.033705
vn 0.221072 0.968651 -0.113322
vn 0.221072 0.968651 -0.113322
vn -0.122596 -0.990180 -0.067188
vn -0.122596 -0.990180 -0.067188
vn 0.267171 -0.077127 0.960558
vn -0.110172 -0.016517 0.993775
vn -0.054565 -0.013269 0.998422
vn 0.336499 -0.024204 0.941373
vn -0.436305 -0.000289 0.899799
vn -0.471302 0.046525 0.880744
vn -0.985895 0.011689 0.166956
vn -0.879300 0.008147 0.476198
vn -0.885203 0.115181 0.450721
vn -0.980209 0.149054 0.130283
vn -0.986623 0.013991 -0.162416
vn -0.964594 0.166106 -0.204858
vn 0.087240 0.049677 -0.994948
vn 0.029357 0.004095 -0.999561
vn -0.361894 0.007473 -0.932189
vn -0.270806 0.115537 -0.955675
vn 0.412244 0.000113 -0.911074
vn 0.433589 -0.022843 -0.900821
vn 0.987169 -0.047664 -0.152397
vn 0.856799 -0.032337 -0.514636
vn 0.845082 -0.153863 -0.512019
vn 0.972963 -0.194962 -0.123824
vn 0.936669 -0.203163 0.285265
vn 0.970488 -0.055939 0.234572
vn -0.974796 0.057333 -0.215607
vn -0.974796 0.057333 -0.215607
vn -0.856429 0.032422 0.515247
vn -0.856429 0.032422 0.515247
vn -0.418907 0.001675 0.908028
vn -0.418907 0.001675 0.908028
vn 0.349427 -0.009279 0.936918
vn 0.349427 -0.009279 0.936918
vn 0.987196 -0.021116 0.158111
vn 0.987196 -0.021116 0.158111
vn 0.873985 -0.012921 -0.485781
vn 0.873985 -0.012921 -0.485781
vn 0.437605 -0.001816 -0.899166
vn 0.437605 -0.001816 -0.899166
vn -0.329142 0.024833 -0.943954
vn -0.329142 0.024833 -0.943954
vn 0.474337 -0.050290 -0.878906
vn 0.474337 -0.050290 -0.878906
vn -0.245982 0.087051 -0.965357
vn -0.245982 0.087051 -0.965357
vn -0.938149 0.216596 -0.270116
vn -0.938149 0.216596 -0.270116
vn -0.846394 0.158821 0.508324
vn -0.846394 0.158821 0.508324
vn -0.445220 0.031048 0.894883
vn -0.445220 0.031048 0.894883
vn 0.248800 -0.111874 0.962072
vn 0.248800 -0.111874 0.962072
vn 0.961739 -0.180763 0.205871
vn 0.961739 -0.180763 0.205871
vn 0.877945 -0.128007 -0.461331
vn 0.877945 -0.128007 -0.461331
s 1
f 2/1/1 74/131/2 75/132/3 1/4/4
f 73/130/5 74/131/2 2/1/1 3/6/6
s 2
f 78/135/7 13/8/8 12/9/9 77/134/10
f 14/45/11 13/44/8 78/136/7 79/137/12
s 3
f 16/12/13 14/45/14 79/137/15 80/138/16
f 80/138/16 73/130/17 3/6/18 16/12/13
s 4
f 15/14/19 76/133/20 77/134/21 12/9/22
f 1/4/23 75/132/24 76/133/20 15/14/19
s 5
f 25/55/25 26/56/26 36/57/27 35/58/28
f 28/61/29 25/55/25 35/58/28 40/62/30
f 29/65/31 28/61/29 40/62/30 42/66/32
f 32/69/33 29/65/31 42/66/32 48/70/34
s 6
f 12/71/35 13/72/36 18/73/37 17/74/38
f 15/77/39 12/71/35 17/74/38 19/78/40
f 13/72/36 14/75/41 20/76/42 18/73/37
f 14/75/41 16/79/43 21/80/44 20/76/42
f 2/85/45 1/81/46 23/82/47 22/86/48
f 1/81/46 15/77/39 19/78/40 23/82/47
f 16/79/43 3/83/49 24/84/50 21/80/44
f 3/83/49 2/85/45 22/86/48 24/84/50
s 7
f 20/49/51 21/27/52 58/113/53 59/114/54
s 8
f 22/29/55 23/28/56 63/119/57 64/120/58
s 9
f 21/27/59 24/30/60 57/112/61 58/113/62
s 10
f 24/30/63 22/29/64 64/120/65 57/112/66
s off
f 33/31/67 34/32/68 35/19/69 36/18/70
f 37/33/71 33/31/72 36/18/73 38/34/74
s 11
f 19/26/75 62/118/76 63/119/77 23/28/78
s off
f 34/32/79 39/36/80 40/21/81 35/19/82
f 39/36/83 41/37/84 42/23/85 40/21/86
f 44/38/87 43/39/88 45/40/89 46/41/90
s 12
f 18/24/91 60/115/92 61/117/93 17/25/94
s off
f 43/39/95 37/33/96 38/34/97 45/40/98
s 13
f 17/25/99 61/117/100 62/118/101 19/26/102
s off
f 41/37/103 47/47/104 48/52/105 42/23/106
f 47/47/107 44/51/108 46/53/109 48/52/110
s 14
f 20/49/111 59/114/112 60/116/113 18/46/114
s 15
f 4/87/115 5/88/116 34/89/117 33/90/118
f 7/93/119 4/87/115 33/90/118 37/94/120
s 5
f 27/59/121 38/60/122 36/57/27 26/56/26
s 15
f 5/88/116 6/91/123 39/92/124 34/89/117
f 6/91/123 8/95/125 41/96/126 39/92/124
f 10/101/127 9/97/128 43/98/129 44/102/130
s 5
f 31/67/131 46/68/132 45/64/133 30/63/134
s 15
f 9/97/128 7/93/119 37/94/120 43/98/129
s 5
f 30/63/134 45/64/133 38/60/122 27/59/121
s 15
f 8/95/125 11/99/135 47/100/136 41/96/126
f 11/99/135 10/101/127 44/102/130 47/100/136
s 5
f 32/69/33 48/70/34 46/68/132 31/67/131
s 1
f 6/5/137 5/2/138 50/104/139 49/103/140
f 51/105/141 50/104/139 5/2/138 4/3/142
s 4
f 52/106/143 51/105/144 4/3/145 7/15/146
f 53/107/147 52/106/143 7/15/146 9/10/148
s 2
f 10/7/149 54/108/150 53/107/151 9/10/152
f 55/110/153 54/109/150 10/50/149 11/11/154
s 3
f 56/111/155 55/110/156 11/11/157 8/13/158
f 6/5/159 49/103/160 56/111/155 8/13/158
s 9
f 58/113/62 57/112/61 67/123/161 68/124/162
s 7
f 59/114/54 58/113/53 68/124/163 69/125/164
s 14
f 60/116/113 59/114/112 69/125/165 70/127/166
s 12
f 61/117/93 60/115/92 70/126/167 71/128/168
s 13
f 62/118/101 61/117/100 71/128/169 72/129/170
s 11
f 63/119/77 62/118/76 72/129/171 65/121/172
s 8
f 64/120/58 63/119/57 65/121/173 66/122/174
s 10
f 57/112/66 64/120/65 66/122/175 67/123/176
s 8
f 66/122/174 65/121/173 26/17/177 25/16/178
s 10
f 67/123/176 66/122/175 25/16/179 28/20/180
s 9
f 68/124/162 67/123/161 28/20/181 29/22/182
s 7
f 69/125/164 68/124/163 29/22/183 32/54/184
s 14
f 70/127/166 69/125/165 32/54/185 31/48/186
s 12
f 71/128/168 70/126/167 31/42/187 30/43/188
s 13
f 72/129/170 71/128/169 30/43/189 27/35/190
s 11
f 65/121/172 72/129/171 27/35/191 26/17/192
s 1
f 49/103/140 50/104/139 74/131/2 73/130/5
f 75/132/3 74/131/2 50/104/139 51/105/141
s 4
f 76/133/20 75/132/24 51/105/144 52/106/143
f 77/134/21 76/133/20 52/106/143 53/107/147
s 2
f 54/108/150 78/135/7 77/134/10 53/107/151
f 79/137/12 78/136/7 54/109/150 55/110/153
s 3
f 80/138/16 79/137/15 55/110/156 56/111/155
f 56/111/155 49/103/160 73/130/17 80/138/16
