# This file uses centimeters as units for non-parametric coordinates.

v -0.148193 -0.910598 0.087331
v 0.000000 -0.910598 0.171056
v 0.148628 -0.910598 0.086587
v -0.148636 -0.910598 -0.086587
v 0.000000 -0.910598 -0.171056
v 0.148193 -0.910598 -0.087335
v 0.148628 0.798431 0.086587
v 0.000000 0.798431 0.171056
v -0.148193 0.798431 0.087331
v -0.148636 0.798431 -0.086587
v 0.000000 0.798431 -0.171056
v 0.148193 0.798431 -0.087335
v 0.286751 0.785299 0.167052
v 0.000000 0.785299 0.331056
v 0.286751 0.910598 0.167052
v 0.000000 0.910598 0.331056
v -0.285912 0.785299 0.168487
v -0.285912 0.910598 0.168487
v -0.286751 0.785299 -0.167052
v -0.286751 0.910598 -0.167052
v 0.000000 0.910598 -0.331056
v 0.000000 0.785299 -0.331056
v 0.285904 0.910598 -0.168489
v 0.285904 0.785299 -0.168489
vt 0.251102 0.460260
vt 0.273898 0.447306
vt 0.251169 0.486935
vt 0.296627 0.460146
vt 0.273898 0.499775
vt 0.296694 0.486821
vt 0.307773 0.455351
vt 0.334071 0.455351
vt 0.334071 0.717466
vt 0.307773 0.717466
vt 0.361003 0.455351
vt 0.361003 0.717466
vt 0.413976 0.455351
vt 0.413976 0.717466
vt 0.387677 0.717466
vt 0.387677 0.455351
vt 0.440908 0.717466
vt 0.440908 0.455351
vt 0.467582 0.455351
vt 0.467582 0.717466
vt 0.210767 0.686657
vt 0.156595 0.742542
vt 0.156595 0.723325
vt 0.208279 0.723324
vt 0.208280 0.742541
vt 0.259135 0.723324
vt 0.259135 0.742541
vt 0.254746 0.711810
vt 0.210896 0.635195
vt 0.310597 0.723324
vt 0.310597 0.742541
vt 0.363683 0.723324
vt 0.363683 0.742541
vt 0.417340 0.723324
vt 0.417340 0.742541
vt 0.468801 0.723323
vt 0.468802 0.742540
vt 0.255468 0.577477
vt 0.278263 0.564522
vt 0.299447 0.576863
vt 0.255468 0.602016
vt 0.278197 0.537848
vt 0.299318 0.525401
vt 0.211618 0.577083
vt 0.232739 0.564636
vt 0.255468 0.525007
vt 0.255468 0.500468
vt 0.232672 0.537962
vt 0.211489 0.525621
vt 0.298724 0.635415
vt 0.254746 0.610262
vt 0.298595 0.686876
vn 0.000000 -1.000000 0.000000
vn 0.000000 -1.000000 0.000000
vn 0.000000 -1.000000 0.000000
vn 0.000000 -1.000000 0.000000
vn 0.494102 0.000000 0.869404
vn 0.001267 0.000000 0.999999
vn 0.001267 0.000000 0.999999
vn 0.494102 0.000000 0.869404
vn -0.001267 0.000000 -0.999999
vn -0.001267 0.000000 -0.999999
vn -0.494083 0.000000 -0.869415
vn -0.494083 0.000000 -0.869415
vn 0.999997 0.000000 -0.002500
vn 0.999997 0.000000 -0.002500
vn 0.999997 0.000000 -0.002500
vn 0.999997 0.000000 -0.002500
vn 0.496473 0.000000 0.868052
vn 0.496473 0.000000 0.868052
vn 0.001260 0.000000 0.999999
vn 0.001260 0.000000 0.999999
vn -0.494284 0.000000 0.869300
vn -0.494284 0.000000 0.869300
vn -0.999997 0.000000 0.002501
vn -0.999997 0.000000 0.002501
vn -0.999997 0.000000 0.002501
vn -0.999997 0.000000 0.002501
vn -0.001257 0.000000 -0.999999
vn -0.001257 0.000000 -0.999999
vn -0.496473 0.000000 -0.868052
vn -0.496473 0.000000 -0.868052
vn 0.494290 0.000000 -0.869297
vn 0.494290 0.000000 -0.869297
vn 0.999997 0.000000 -0.002524
vn 0.999997 0.000000 -0.002524
vn 0.999997 0.000000 -0.002524
vn 0.999997 0.000000 -0.002524
vn -0.000135 -0.996634 -0.081980
vn -0.070844 -0.996650 -0.040871
vn -0.070844 -0.996650 -0.040871
vn -0.000135 -0.996634 -0.081980
vn 0.070706 -0.996650 -0.041112
vn 0.070706 -0.996650 -0.041112
vn 0.000000 1.000000 0.000000
vn 0.000000 1.000000 0.000000
vn 0.000000 1.000000 0.000000
vn 0.000000 1.000000 0.000000
vn 0.070843 -0.996650 0.040874
vn 0.070843 -0.996650 0.040874
vn 0.000137 -0.996634 0.081983
vn 0.000137 -0.996634 0.081983
vn 0.000000 1.000000 0.000000
vn 0.000000 1.000000 0.000000
vn 0.000000 1.000000 0.000000
vn 0.000000 1.000000 0.000000
vn -0.070708 -0.996650 0.041112
vn -0.070708 -0.996650 0.041112
vn -0.491897 0.000000 0.870653
vn -0.491897 0.000000 0.870653
vn 0.491877 0.000000 -0.870665
vn 0.491877 0.000000 -0.870665
vn -0.999997 0.000000 0.002544
vn -0.999997 0.000000 0.002544
vn -0.999997 0.000000 0.002544
vn -0.999997 0.000000 0.002544
vn 0.000000 -1.000000 0.000000
vn 0.000000 -1.000000 0.000000
vn 0.000000 -1.000000 0.000000
vn 0.000000 -1.000000 0.000000
s off
f 3/6/1 2/5/2 5/2/3 6/4/4
s 1
f 7/7/5 8/8/6 2/9/7 3/10/8
s 2
f 11/13/9 5/14/10 4/15/11 10/16/12
s off
f 7/19/13 3/20/14 6/17/15 12/18/16
s 3
f 13/22/17 15/23/18 16/24/19 14/25/20
f 18/26/21 17/27/22 14/25/20 16/24/19
s off
f 17/27/23 18/26/24 20/30/25 19/31/26
s 4
f 21/32/27 22/33/28 19/31/29 20/30/30
f 22/33/28 21/32/27 23/34/31 24/35/32
s off
f 15/36/33 13/37/34 24/35/35 23/34/36
s 5
f 8/38/37 7/39/38 13/40/39 14/41/40
f 17/44/41 9/45/42 8/38/37 14/41/40
s off
f 21/28/43 20/21/44 18/29/45 16/51/46
s 5
f 10/48/47 9/45/42 17/44/41 19/49/48
f 22/47/49 11/46/50 10/48/47 19/49/48
s off
f 15/50/51 23/52/52 21/28/53 16/51/54
s 5
f 12/42/55 11/46/50 22/47/49 24/43/56
f 13/40/39 7/39/38 12/42/55 24/43/56
s 1
f 9/11/57 1/12/58 2/9/7 8/8/6
s 2
f 6/17/59 5/14/10 11/13/9 12/18/60
s off
f 10/16/61 4/15/62 1/12/63 9/11/64
f 5/2/65 2/5/66 1/3/67 4/1/68
