# This file uses centimeters as units for non-parametric coordinates.

v -1.995205 -0.056181 3.735737
v 0.525928 -1.631697 3.735737
v 2.592026 0.304396 3.735737
v -1.730160 0.104603 3.735737
v 0.525928 -1.321694 3.735737
v 2.341759 0.487338 3.735737
v -2.440762 -0.072603 -0.000001
v 0.078281 -1.321694 -0.000001
v 1.283176 1.631697 -0.000001
v -2.440762 -0.072603 -3.735737
v 0.403786 -0.800306 -3.735737
v 1.283176 1.631697 -3.735737
v -2.592026 -0.343197 -3.735737
v 0.522923 -1.086504 -3.735737
v 1.533443 1.448755 -3.735737
v -2.592026 -0.343197 -0.000001
v 0.078281 -1.631697 -0.000001
v 1.533443 1.448755 -0.000001
vt 0.125791 0.056878
vt 0.125791 0.065536
vt 0.062781 0.105371
vt 0.055379 0.100880
vt 0.176505 0.116060
vt 0.183495 0.110951
vt 0.056556 0.120279
vt 0.119566 0.120279
vt 0.099223 0.225679
vt 0.036710 0.224614
vt 0.209186 0.075148
vt 0.179621 0.179483
vt 0.115404 0.329218
vt 0.036710 0.328948
vt 0.036704 0.117167
vt 0.019202 0.221502
vt 0.216176 0.075148
vt 0.186611 0.179483
vt 0.186611 0.283817
vt 0.179621 0.283817
vt 0.025093 0.221501
vt 0.157146 0.222216
vt 0.182337 0.323783
vt 0.044106 0.117167
vt 0.176849 0.358236
vt 0.180176 0.366230
vt 0.093179 0.345470
vt 0.097404 0.337912
vt 0.208399 0.295423
vt 0.201409 0.290313
vt 0.354473 0.365489
vt 0.268501 0.365786
vt 0.287059 0.262366
vt 0.354473 0.261154
vt 0.267393 0.156820
vt 0.337805 0.156820
vt 0.223902 0.258434
vt 0.209689 0.156819
vt 0.170280 0.120279
vt 0.199014 0.359612
vt 0.018417 0.325838
vt 0.025974 0.325834
vn 0.000000 0.000000 1.000000
vn 0.000000 0.000000 1.000000
vn 0.000000 0.000000 1.000000
vn 0.000000 0.000000 1.000000
vn 0.000001 0.000000 1.000000
vn 0.000001 0.000000 1.000000
vn 0.486527 0.868373 -0.096019
vn -0.231605 0.967281 0.103575
vn -0.323367 0.943296 0.075017
vn 0.418538 0.908165 -0.007922
vn -0.818803 0.519351 0.244614
vn -0.887440 0.446053 0.116131
vn -0.412566 0.909790 0.045515
vn 0.344702 0.935273 0.080284
vn -0.932479 0.360894 -0.015440
vn 0.000001 0.000000 -1.000000
vn 0.000001 0.000000 -1.000000
vn -0.000001 0.000000 -1.000000
vn -0.000001 0.000000 -1.000000
vn 0.000004 0.000000 -1.000000
vn 0.000004 0.000000 -1.000000
vn -0.330070 -0.939825 -0.088222
vn 0.399453 -0.915742 -0.043049
vn 0.307672 -0.948829 -0.071149
vn -0.408565 -0.912708 0.006263
vn 0.915339 -0.401897 0.025147
vn 0.866635 -0.486292 -0.111637
vn 0.212979 -0.972085 -0.098442
vn -0.480595 -0.871148 0.100649
vn 0.793488 -0.556972 -0.245273
vn 0.589659 0.806664 0.039942
vn 0.590130 0.807309 0.000000
vn 0.590130 0.807309 0.000000
vn 0.589659 0.806664 0.039942
vn 0.588247 0.804733 0.079821
vn 0.588247 0.804733 0.079821
vn -0.802323 0.595437 0.041624
vn -0.802323 0.595437 0.041624
vn -0.872877 0.487940 0.000000
vn -0.872877 0.487940 0.000000
vn -0.717114 0.692057 0.082487
vn -0.717114 0.692057 0.082487
s 1
f 2/1/1 5/2/2 4/3/3 1/4/4
f 6/5/5 5/2/2 2/1/1 3/6/6
s 2
f 4/7/7 5/8/8 8/9/9 7/10/10
f 5/8/8 6/39/11 9/22/12 8/9/9
f 7/10/10 8/9/9 11/13/13 10/14/14
f 8/9/9 9/22/12 12/23/15 11/13/13
s 3
f 11/25/16 14/26/17 13/27/18 10/28/19
f 15/29/20 14/26/17 11/25/16 12/30/21
s 4
f 13/31/22 14/32/23 17/33/24 16/34/25
f 14/32/23 15/40/26 18/37/27 17/33/24
f 16/34/25 17/33/24 2/35/28 1/36/29
f 17/33/24 18/37/27 3/38/30 2/35/28
s 5
f 18/18/31 15/19/32 12/20/33 9/12/34
f 6/11/35 3/17/36 18/18/31 9/12/34
s 6
f 16/16/37 7/21/38 10/42/39 13/41/40
f 1/15/41 4/24/42 7/21/38 16/16/37
