# This file uses centimeters as units for non-parametric coordinates.

v -2.216717 -0.288119 2.887635
v 0.000000 -0.617763 3.568877
v 2.216717 -0.370301 3.568877
v -2.216717 0.021884 2.887635
v 0.728455 -0.307760 3.568877
v 2.216717 -0.060297 3.568877
v -2.216717 -0.307760 0.000001
v 0.728455 -0.307760 0.000001
v 2.216717 -0.307760 0.000001
v -2.216717 -0.307760 -3.568877
v 0.000000 -0.307760 -3.568877
v 2.216717 0.617763 -3.049163
v -2.216717 -0.617763 -3.568877
v 0.000000 -0.617763 -3.568877
v 2.216717 0.307760 -3.049163
v -2.216717 -0.617763 0.000001
v 0.000000 -0.617763 0.000001
v 2.216717 -0.617763 0.000001
vt 0.127992 0.642268
vt 0.147088 0.650394
vt 0.069884 0.659036
vt 0.069884 0.650909
vt 0.186101 0.656881
vt 0.186101 0.648755
vt 0.045436 0.678205
vt 0.122640 0.660347
vt 0.122640 0.753902
vt 0.045436 0.753902
vt 0.161653 0.660347
vt 0.161653 0.753902
vt 0.103545 0.847456
vt 0.045436 0.847456
vt 0.161653 0.833832
vt 0.103545 0.860669
vt 0.103545 0.868795
vt 0.045436 0.868795
vt 0.045436 0.860669
vt 0.161653 0.844534
vt 0.161653 0.836407
vt 0.195383 0.661977
vt 0.253492 0.661977
vt 0.253492 0.755532
vt 0.195383 0.755532
vt 0.311600 0.675601
vt 0.311600 0.755532
vt 0.253492 0.849086
vt 0.195383 0.831228
vt 0.311600 0.849086
vt 0.190480 0.810995
vt 0.166218 0.890925
vt 0.158092 0.890925
vt 0.182354 0.810995
vt 0.175867 0.717440
vt 0.183993 0.717440
vt 0.025927 0.706917
vt 0.034053 0.706917
vt 0.034053 0.800471
vt 0.025927 0.800471
vt 0.034568 0.631221
vt 0.042695 0.631221
vn -0.109759 0.128957 0.985557
vn -0.109759 0.128957 0.985557
vn -0.216347 0.254189 0.942646
vn -0.216347 0.254189 0.942646
vn 0.000000 0.000000 1.000000
vn 0.000000 0.000000 1.000000
vn 0.061670 0.996798 -0.050893
vn -0.010594 0.999027 -0.042824
vn -0.071194 0.997276 0.019305
vn 0.030860 0.999199 -0.025467
vn -0.082803 0.995968 -0.034530
vn -0.173202 0.982791 0.064207
vn -0.131830 0.987885 0.081883
vn 0.000000 1.000000 0.000000
vn -0.260466 0.951832 0.161782
vn 0.114891 0.000000 -0.993378
vn 0.114891 0.000000 -0.993378
vn 0.000000 0.000000 -1.000000
vn 0.000000 0.000000 -1.000000
vn 0.228260 0.000000 -0.973600
vn 0.228260 0.000000 -0.973600
vn 0.000000 -1.000000 0.000000
vn 0.109739 -0.991621 -0.068162
vn 0.048305 -0.998754 -0.012552
vn -0.040956 -0.998837 0.025439
vn 0.217639 -0.966623 -0.135181
vn 0.137635 -0.989187 -0.050649
vn -0.013091 -0.998998 0.042810
vn -0.081817 -0.995351 0.050819
vn 0.055697 -0.997848 0.034595
vn 1.000000 0.000000 0.000000
vn 1.000000 0.000000 0.000000
vn 1.000000 0.000000 0.000000
vn 1.000000 0.000000 0.000000
vn 1.000000 0.000000 0.000000
vn 1.000000 0.000000 0.000000
vn -1.000000 0.000000 0.000000
vn -1.000000 0.000000 0.000000
vn -1.000000 0.000000 0.000000
vn -1.000000 0.000000 0.000000
vn -1.000000 0.000000 0.000000
vn -1.000000 0.000000 0.000000
s 1
f 2/1/1 5/2/2 4/3/3 1/4/4
f 6/5/5 5/2/2 2/1/1 3/6/6
s 2
f 4/7/7 5/8/8 8/9/9 7/10/10
f 5/8/8 6/11/11 9/12/12 8/9/9
f 7/10/10 8/9/9 11/13/13 10/14/14
f 8/9/9 9/12/12 12/15/15 11/13/13
s 3
f 11/16/16 14/17/17 13/18/18 10/19/19
f 15/20/20 14/17/17 11/16/16 12/21/21
s 4
f 13/22/22 14/23/23 17/24/24 16/25/25
f 14/23/23 15/26/26 18/27/27 17/24/24
f 16/25/25 17/24/24 2/28/28 1/29/29
f 17/24/24 18/27/27 3/30/30 2/28/28
s 5
f 18/31/31 15/32/32 12/33/33 9/34/34
f 6/35/35 3/36/36 18/31/31 9/34/34
s 6
f 16/37/37 7/38/38 10/39/39 13/40/40
f 1/41/41 4/42/42 7/38/38 16/37/37
