# This file uses centimeters as units for non-parametric coordinates.

v -1.940964 -0.703504 2.338424
v 0.000000 -0.914859 2.338424
v 1.669151 0.360691 1.983819
v -1.940964 -0.393501 2.338424
v 0.000000 -0.604856 2.338424
v 1.669151 0.670694 1.983819
v -1.732327 -0.136626 0.000001
v 0.000000 -0.136626 0.000001
v 1.940964 -0.136626 -0.584359
v -1.727489 1.070034 -1.919730
v 0.000000 -0.605717 -2.338424
v 1.940964 -0.760031 -2.338424
v -1.727489 0.760031 -1.919730
v 0.000000 -0.915721 -2.338424
v 1.940964 -1.070034 -2.338424
v -1.732327 -0.446629 0.000001
v 0.000000 -0.446629 0.000001
v 1.940964 -0.446629 -0.584359
v 0.000000 -0.136626 -1.376081
v -1.940964 0.703353 -1.043548
v -1.940964 0.393349 -1.043548
v 0.000000 -0.446629 -1.376081
v 1.429264 -1.070034 -1.376081
v 1.429264 -0.760031 -1.376081
v 0.000000 -0.604856 0.753758
v -1.940964 -0.393501 0.753758
v -1.940964 -0.703504 0.753758
v 0.000000 -0.914859 0.753758
v 1.940964 0.170732 0.753758
v 1.940964 0.480735 0.753758
vt 0.070546 0.395466
vt 0.070546 0.404147
vt 0.016193 0.410066
vt 0.016193 0.401385
vt 0.117288 0.439867
vt 0.117288 0.431186
vt 0.037617 0.468905
vt 0.091970 0.468905
vt 0.091970 0.513280
vt 0.037617 0.513280
vt 0.138712 0.478835
vt 0.146323 0.513280
vt 0.091970 0.534388
vt 0.043460 0.534388
vt 0.146323 0.550752
vt 0.091970 0.572922
vt 0.037617 0.563610
vt 0.131994 0.572922
vt 0.091970 0.599871
vt 0.043595 0.588146
vt 0.146323 0.599871
vt 0.062041 0.611716
vt 0.062041 0.620397
vt 0.013665 0.573471
vt 0.013665 0.564790
vt 0.116394 0.624719
vt 0.116394 0.616037
vt 0.273011 0.488340
vt 0.218658 0.497652
vt 0.218658 0.459117
vt 0.267169 0.459117
vt 0.267033 0.512876
vt 0.218658 0.524601
vt 0.178634 0.497652
vt 0.164305 0.475481
vt 0.218658 0.438010
vt 0.273011 0.438010
vt 0.164305 0.524601
vt 0.164305 0.438010
vt 0.218658 0.393634
vt 0.273011 0.393634
vt 0.171916 0.403564
vt 0.116993 0.391526
vt 0.125674 0.391526
vt 0.130993 0.425972
vt 0.122312 0.425972
vt 0.148281 0.463443
vt 0.139600 0.463443
vt 0.165739 0.485614
vt 0.157058 0.485614
vt 0.165739 0.512563
vt 0.157058 0.512563
vt 0.028431 0.459738
vt 0.034569 0.465877
vt 0.030538 0.503173
vt 0.024400 0.497034
vt 0.038270 0.439726
vt 0.044408 0.445865
vt 0.020450 0.527783
vt 0.014311 0.521644
vt 0.069648 0.408348
vt 0.075787 0.414486
vn 0.104475 0.000000 0.994528
vn 0.104475 0.000000 0.994528
vn 0.000000 0.000000 1.000000
vn 0.000000 0.000000 1.000000
vn 0.207807 0.000000 0.978170
vn 0.207807 0.000000 0.978170
vn 0.108252 0.994124 0.000000
vn -0.236132 0.969983 -0.058097
vn -0.178835 0.981403 0.069753
vn 0.082068 0.970854 0.225184
vn -0.551577 0.826962 -0.109074
vn -0.419835 0.903152 -0.089745
vn 0.146003 0.916704 0.371938
vn 0.035922 0.994472 0.098663
vn 0.300340 0.952967 -0.040623
vn 0.413649 0.895502 0.164228
vn -0.079908 0.978567 -0.189792
vn 0.172626 0.955622 -0.238720
vn -0.118614 0.000000 -0.992940
vn -0.118614 0.000000 -0.992940
vn -0.235556 0.000000 -0.971861
vn -0.235556 0.000000 -0.971861
vn 0.000002 0.000000 -1.000000
vn 0.000002 0.000000 -1.000000
vn -0.413649 -0.895502 -0.164228
vn -0.300340 -0.952967 0.040623
vn -0.035922 -0.994472 -0.098663
vn -0.146003 -0.916704 -0.371938
vn -0.172626 -0.955622 0.238721
vn 0.079908 -0.978567 0.189792
vn -0.082068 -0.970854 -0.225184
vn 0.178835 -0.981403 -0.069753
vn 0.236132 -0.969983 0.058097
vn -0.108252 -0.994124 0.000000
vn 0.419835 -0.903152 0.089744
vn 0.551577 -0.826962 0.109074
vn 0.959129 0.000000 -0.282970
vn 0.999095 0.000000 -0.042525
vn 0.999095 0.000000 -0.042525
vn 0.959129 0.000000 -0.282970
vn 0.976444 0.000000 0.215769
vn 0.976444 0.000000 0.215769
vn 0.994094 0.000000 0.108526
vn 0.994094 0.000000 0.108526
vn -0.999339 0.000000 -0.036345
vn -0.999339 0.000000 -0.036345
vn -0.999783 0.000000 -0.020826
vn -0.999783 0.000000 -0.020826
vn -1.000000 0.000000 0.000000
vn -1.000000 0.000000 0.000000
vn -0.990899 0.000000 -0.134608
vn -0.990899 0.000000 -0.134608
vn 0.403858 0.911389 -0.079174
vn 0.568250 0.822609 0.020159
vn -0.971579 0.000000 -0.236716
vn -0.971579 0.000000 -0.236716
vn -0.568250 -0.822609 -0.020159
vn -0.403858 -0.911389 0.079174
vn -0.221384 -0.959363 0.174962
vn 0.882943 0.000000 0.469481
vn 0.882943 0.000000 0.469481
vn 0.221384 0.959363 -0.174962
s 1
f 2/1/1 5/2/2 4/3/3 1/4/4
f 6/5/5 5/2/2 2/1/1 3/6/6
s 2
f 4/7/7 5/8/8 25/9/9 26/10/10
f 5/8/8 6/11/11 30/12/12 25/9/9
f 7/14/13 8/13/14 19/16/15 20/17/16
f 8/13/14 9/15/17 24/18/18 19/16/15
s 3
f 11/22/19 14/23/20 13/24/21 10/25/22
f 15/26/23 14/23/20 11/22/19 12/27/24
s 4
f 21/28/25 22/29/26 17/30/27 16/31/28
f 22/29/26 23/34/29 18/35/30 17/30/27
f 27/37/31 28/36/32 2/40/33 1/41/34
f 28/36/32 29/39/35 3/42/36 2/40/33
s 5
f 18/47/37 23/49/38 24/50/39 9/48/40
f 6/43/41 3/44/42 29/45/43 30/46/44
s 6
f 16/53/45 7/54/46 20/55/47 21/56/48
f 1/61/49 4/62/50 26/58/51 27/57/52
s 2
f 20/17/16 19/16/15 11/19/53 10/20/54
s 6
f 21/56/48 20/55/47 10/59/55 13/60/56
s 4
f 13/32/57 14/33/58 22/29/26 21/28/25
f 14/33/58 15/38/59 23/34/29 22/29/26
s 5
f 24/50/39 23/49/38 15/51/60 12/52/61
s 2
f 19/16/15 24/18/18 12/21/62 11/19/53
f 26/10/10 25/9/9 8/13/14 7/14/13
s 6
f 27/57/52 26/58/51 7/54/46 16/53/45
s 4
f 16/31/28 17/30/27 28/36/32 27/37/31
f 17/30/27 18/35/30 29/39/35 28/36/32
s 5
f 30/46/44 29/45/43 18/47/37 9/48/40
s 2
f 25/9/9 30/12/12 9/15/17 8/13/14
