# This file uses centimeters as units for non-parametric coordinates.

v -0.289570 -0.028012 0.289570
v 0.000004 -0.028012 0.407232
v 0.289570 -0.028012 0.289570
v -0.289570 0.028012 0.289570
v 0.000004 0.028012 0.407232
v 0.289570 0.028012 0.289570
v -0.407230 0.028012 -0.000001
v 0.407230 0.028012 -0.000001
v -0.289570 0.028012 -0.289572
v 0.000004 0.028012 -0.407232
v 0.289570 0.028012 -0.289572
v -0.289570 -0.028012 -0.289572
v 0.000004 -0.028012 -0.407232
v 0.289570 -0.028012 -0.289572
v -0.407230 -0.028012 -0.000001
v 0.407230 -0.028012 -0.000001
v -0.164295 0.028012 0.164297
v 0.000004 0.028012 0.230850
v -0.230846 0.028012 -0.000001
v 0.164303 0.028012 0.164297
v 0.230854 0.028012 -0.000001
v 0.000004 0.028012 -0.230850
v -0.164295 0.028012 -0.164299
v 0.164303 0.028012 -0.164299
v -0.164295 -0.028012 -0.164299
v 0.000004 -0.028012 -0.230850
v -0.230846 -0.028012 -0.000001
v 0.164303 -0.028012 -0.164299
v 0.230854 -0.028012 -0.000001
v 0.000004 -0.028012 0.230850
v -0.164295 -0.028012 0.164297
v 0.164303 -0.028012 0.164297
vt 0.800110 0.767431
vt 0.429838 0.775046
vt 0.753826 0.775044
vt 0.753826 0.767434
vt 0.476122 0.775046
vt 0.476122 0.767436
vt 0.614974 0.775046
vt 0.614974 0.767436
vt 0.661258 0.767437
vt 0.661258 0.775047
vt 0.568690 0.767436
vt 0.568690 0.775046
vt 0.522406 0.767436
vt 0.800110 0.775041
vt 0.429838 0.767436
vt 0.522406 0.775046
vt 0.509719 0.641564
vt 0.719805 0.633954
vt 0.707542 0.767435
vt 0.707542 0.775045
vt 0.509719 0.633954
vt 0.719805 0.641564
vt 0.693544 0.641564
vt 0.693544 0.633954
vt 0.574303 0.796963
vt 0.616068 0.779993
vt 0.616068 0.805432
vt 0.592371 0.815031
vt 0.657833 0.796963
vt 0.639765 0.815031
vt 0.557333 0.838728
vt 0.582772 0.838728
vt 0.674803 0.838728
vt 0.649364 0.838728
vt 0.574303 0.880493
vt 0.592371 0.862425
vt 0.657833 0.880493
vt 0.639765 0.862425
vt 0.616068 0.897463
vt 0.616068 0.872024
vt 0.573399 0.664561
vt 0.615164 0.647591
vt 0.615164 0.673030
vt 0.591467 0.682629
vt 0.656929 0.664561
vt 0.638861 0.682629
vt 0.556429 0.706326
vt 0.581869 0.706326
vt 0.673900 0.706326
vt 0.648460 0.706326
vt 0.573399 0.748091
vt 0.591467 0.730023
vt 0.656929 0.748091
vt 0.638861 0.730023
vt 0.615164 0.765061
vt 0.615164 0.739622
vt 0.562241 0.641565
vt 0.535980 0.641565
vt 0.535980 0.633955
vt 0.562241 0.633955
vt 0.588501 0.641565
vt 0.588501 0.633955
vt 0.614762 0.641565
vt 0.667284 0.641565
vt 0.667284 0.633954
vt 0.614762 0.633954
vt 0.641023 0.641565
vt 0.641023 0.633954
vn 0.000005 0.000000 1.000000
vn 0.000005 0.000000 1.000000
vn -0.376441 0.000000 0.926441
vn -0.376441 0.000000 0.926441
vn 0.376449 0.000000 0.926437
vn 0.376449 0.000000 0.926437
vn 0.000005 0.000000 -1.000000
vn 0.000005 0.000000 -1.000000
vn -0.376435 0.000000 -0.926443
vn -0.376435 0.000000 -0.926443
vn 0.376443 0.000000 -0.926440
vn 0.376443 0.000000 -0.926440
vn 1.000000 0.000000 -0.000001
vn 0.926441 0.000000 -0.376439
vn 0.926441 0.000000 -0.376439
vn 1.000000 0.000000 -0.000001
vn 0.926442 0.000000 0.376438
vn 0.926442 0.000000 0.376438
vn -1.000000 0.000000 -0.000001
vn -1.000000 0.000000 -0.000001
vn -0.926441 0.000000 -0.376439
vn -0.926441 0.000000 -0.376439
vn -0.926442 0.000000 0.376438
vn -0.926442 0.000000 0.376438
vn 0.000000 1.000000 0.000000
vn 0.000000 1.000000 -0.000000
vn 0.000000 1.000000 -0.000000
vn 0.000000 1.000000 0.000000
vn 0.000000 1.000000 0.000000
vn 0.000000 1.000000 0.000000
vn 0.000000 1.000000 -0.000000
vn 0.000000 1.000000 -0.000000
vn 0.000000 1.000000 0.000000
vn 0.000000 1.000000 0.000000
vn 0.000000 1.000000 0.000000
vn 0.000000 1.000000 0.000000
vn 0.000000 1.000000 0.000000
vn 0.000000 1.000000 0.000000
vn 0.000000 1.000000 0.000000
vn 0.000000 1.000000 0.000000
vn 0.000000 -1.000000 0.000000
vn 0.000000 -1.000000 0.000000
vn 0.000000 -1.000000 0.000000
vn 0.000000 -1.000000 0.000000
vn 0.000000 -1.000000 0.000000
vn 0.000000 -1.000000 0.000000
vn 0.000000 -1.000000 0.000000
vn 0.000000 -1.000000 0.000000
vn 0.000000 -1.000000 0.000000
vn 0.000000 -1.000000 0.000000
vn 0.000000 -1.000000 -0.000000
vn 0.000000 -1.000000 0.000000
vn 0.000000 -1.000000 0.000000
vn 0.000000 -1.000000 -0.000000
vn 0.000000 -1.000000 -0.000000
vn 0.000000 -1.000000 -0.000000
vn 0.926850 0.000000 -0.375432
vn 0.926850 0.000000 -0.375432
vn 0.926850 0.000000 -0.375432
vn 0.926850 0.000000 -0.375432
vn 0.375433 0.000000 0.926849
vn 0.375433 0.000000 0.926849
vn 0.375433 0.000000 0.926849
vn 0.375433 0.000000 0.926849
vn 0.926849 0.000000 0.375434
vn 0.926849 0.000000 0.375434
vn 0.926849 0.000000 0.375434
vn 0.926849 0.000000 0.375434
vn -0.375433 0.000000 0.926849
vn -0.375433 0.000000 0.926849
vn -0.375433 0.000000 0.926849
vn -0.375433 0.000000 0.926849
vn -0.926849 0.000000 0.375434
vn -0.926849 0.000000 0.375434
vn -0.926849 0.000000 0.375434
vn -0.926849 0.000000 0.375434
vn 0.375439 0.000000 -0.926847
vn 0.375439 0.000000 -0.926847
vn 0.375439 0.000000 -0.926847
vn 0.375439 0.000000 -0.926847
vn -0.926850 0.000000 -0.375432
vn -0.926850 0.000000 -0.375432
vn -0.926850 0.000000 -0.375432
vn -0.926850 0.000000 -0.375432
vn -0.375439 0.000000 -0.926847
vn -0.375439 0.000000 -0.926847
vn -0.375439 0.000000 -0.926847
vn -0.375439 0.000000 -0.926847
s 1
f 2/1/1 5/14/2 4/3/3 1/4/4
f 6/5/5 5/2/2 2/15/1 3/6/6
s 2
f 10/7/7 13/8/8 12/9/9 9/10/10
f 14/11/11 13/8/8 10/7/7 11/12/12
s 3
f 16/13/13 14/11/14 11/12/15 8/16/16
f 6/5/17 3/6/18 16/13/13 8/16/16
s 4
f 15/19/19 7/20/20 9/10/21 12/9/22
f 1/4/23 4/3/24 7/20/20 15/19/19
s 5
f 4/25/25 5/26/26 18/27/27 17/28/28
f 7/31/29 4/25/25 17/28/28 19/32/30
f 5/26/26 6/29/31 20/30/32 18/27/27
f 6/29/31 8/33/33 21/34/34 20/30/32
f 10/39/35 9/35/36 23/36/37 22/40/38
f 9/35/36 7/31/29 19/32/30 23/36/37
f 8/33/33 11/37/39 24/38/40 21/34/34
f 11/37/39 10/39/35 22/40/38 24/38/40
s 6
f 12/41/41 13/42/42 26/43/43 25/44/44
f 15/47/45 12/41/41 25/44/44 27/48/46
f 13/42/42 14/45/47 28/46/48 26/43/43
f 14/45/47 16/49/49 29/50/50 28/46/48
f 2/55/51 1/51/52 31/52/53 30/56/54
f 1/51/52 15/47/45 27/48/46 31/52/53
f 16/49/49 3/53/55 32/54/56 29/50/50
f 3/53/55 2/55/51 30/56/54 32/54/56
s off
f 19/57/57 17/58/58 31/59/59 27/60/60
f 22/63/61 23/61/62 25/62/63 26/66/64
f 23/61/65 19/57/66 27/60/67 25/62/68
f 24/67/69 22/63/70 26/66/71 28/68/72
f 24/67/73 28/68/74 29/65/75 21/64/76
f 18/17/77 30/21/78 31/59/79 17/58/80
f 21/64/81 29/65/82 32/24/83 20/23/84
f 20/23/85 32/24/86 30/18/87 18/22/88
