# This file uses centimeters as units for non-parametric coordinates.

v -1.940965 -8.478260 1.940967
v 0.000000 -8.478260 2.729638
v 1.940965 -8.478260 1.940967
v -1.940965 -6.649091 1.940967
v 0.000000 -6.649091 2.729638
v 1.940965 -6.649091 1.940967
v -1.940965 4.773327 1.940967
v 0.000000 4.773327 2.729638
v 1.940965 4.773327 1.940967
v -2.729645 4.773327 -0.000001
v 2.729645 4.773327 -0.000001
v -1.940965 4.773327 -1.940965
v 0.000000 4.773327 -2.729638
v 1.940965 4.773327 -1.940965
v -1.940965 -6.649091 -1.940965
v 0.000000 -6.649091 -2.729638
v 1.940965 -6.649091 -1.940965
v -1.940965 -8.478260 -1.940965
v 0.000000 -8.478260 -2.729638
v 1.940965 -8.478260 -1.940965
v -2.729645 -8.478260 -0.000001
v 2.729645 -8.478260 -0.000001
v 2.729645 -6.649091 -0.000001
v -2.729645 -6.649091 -0.000001
v -0.630689 4.773327 0.630694
v 0.000000 4.773327 0.886376
v -0.886371 4.773327 -0.000001
v 0.630689 4.773327 0.630694
v 0.886371 4.773327 -0.000001
v 0.000000 4.773327 -0.886374
v -0.630689 4.773327 -0.630694
v 0.630689 4.773327 -0.630694
v -0.630689 -8.478260 -0.630694
v 0.000000 -8.478260 -0.886374
v 0.000000 -8.478260 -0.000001
v -0.886371 -8.478260 -0.000001
v 0.630689 -8.478260 -0.630694
v 0.886371 -8.478260 -0.000001
v 0.000000 -8.478260 0.886376
v -0.630689 -8.478260 0.630694
v 0.630689 -8.478260 0.630694
v -0.630689 6.308678 0.630692
v 0.000000 6.308678 0.886376
v -0.886371 6.308678 -0.000001
v 0.630689 6.308678 0.630692
v 0.886371 6.308678 -0.000001
v 0.000000 6.308678 -0.886374
v -0.630689 6.308678 -0.630691
v 0.630689 6.308678 -0.630691
v -0.052940 7.647018 0.630250
v 0.398760 7.207459 0.886373
v -0.235676 7.825215 -0.000857
v 0.851068 6.767335 0.631133
v 1.034455 6.588526 0.000857
v 0.400019 7.206281 -0.886373
v -0.052288 7.646408 -0.631133
v 0.851719 6.766725 -0.630246
v 1.269449 8.223009 0.630486
v 1.269449 7.592773 0.886392
v 1.269434 8.478260 -0.000834
v 1.269449 6.961709 0.630929
v 1.269449 6.705565 0.000882
v 1.269449 7.591050 -0.886342
v 1.269449 8.222153 -0.631320
v 1.269449 6.960779 -0.629994
v 1.269449 8.124068 0.531644
v 1.269449 7.592637 0.746221
v 1.269434 8.338092 -0.000697
v 1.269449 7.060511 0.532020
v 1.269449 6.845732 0.000747
v 1.269449 7.591187 -0.746169
v 1.269449 8.123345 -0.532340
v 1.269449 7.059726 -0.531222
v 0.024967 7.583763 0.532514
v 0.399516 7.206801 0.747085
v -0.125916 7.735590 0.000161
v 0.774553 6.829344 0.532878
v 0.925954 6.676971 0.001605
v 0.400537 7.205771 -0.745318
v 0.025456 7.583278 -0.531495
v 0.775130 6.828758 -0.530364
v -0.532110 6.308713 0.531650
v -0.000711 6.308678 0.746211
v -0.000015 6.308678 -0.000001
v -0.746180 6.308727 -0.000724
v 0.531369 6.308645 0.531999
v 0.746180 6.308631 0.000724
v 0.000726 6.308678 -0.746209
v -0.531443 6.308713 -0.532397
v 0.532199 6.308645 -0.531245
v -1.583135 -8.141057 2.086352
v -0.357800 -8.141057 2.584250
v -0.357800 -6.986294 2.584250
v -1.583135 -6.986294 2.086352
v -0.953631 -8.141057 0.537160
v 0.271704 -8.141057 1.035058
v 0.271704 -6.986294 1.035058
v -0.953631 -6.986294 0.537160
vt 0.769921 0.011512
vt 0.869718 0.011512
vt 0.869718 0.097636
vt 0.769921 0.097636
vt 0.670124 0.097636
vt 0.769921 0.635446
vt 0.670124 0.635446
vt 0.869718 0.635446
vt 0.736659 0.983918
vt 0.769062 0.967454
vt 0.704212 0.988034
vt 0.801501 0.935982
vt 0.574389 0.920803
vt 0.639270 0.967454
vt 0.606849 0.935982
vt 0.470530 0.635446
vt 0.370733 0.635446
vt 0.370733 0.097636
vt 0.470530 0.097636
vt 0.270936 0.635446
vt 0.270936 0.097636
vt 0.370733 0.011512
vt 0.470530 0.011512
vt 0.969515 0.011512
vt 0.171139 0.097636
vt 0.171139 0.635446
vt 0.570327 0.011512
vt 0.570327 0.097636
vt 0.670124 0.011512
vt 0.570327 0.635446
vt 0.902861 0.643429
vt 0.870436 0.643429
vt 0.838012 0.643429
vt 0.935285 0.643429
vt 0.708279 0.643429
vt 0.806722 0.643429
vt 0.773162 0.643429
vt 0.740738 0.643429
vt 0.902861 0.714410
vt 0.870436 0.714410
vt 0.838012 0.714410
vt 0.935285 0.714410
vt 0.708279 0.714409
vt 0.806722 0.714410
vt 0.773162 0.714410
vt 0.740738 0.714409
vt 0.902861 0.774923
vt 0.870436 0.786098
vt 0.838012 0.789823
vt 0.935285 0.757230
vt 0.708279 0.746055
vt 0.806722 0.786098
vt 0.773162 0.774923
vt 0.740738 0.757230
vt 0.902861 0.834782
vt 0.870436 0.853407
vt 0.838012 0.863650
vt 0.935285 0.802189
vt 0.708278 0.781701
vt 0.806722 0.853407
vt 0.773162 0.834782
vt 0.740737 0.802189
vt 0.769062 0.845509
vt 0.736659 0.829044
vt 0.801501 0.876981
vt 0.574389 0.892161
vt 0.671697 0.829044
vt 0.639270 0.845509
vt 0.606848 0.876982
vt 0.769062 0.912842
vt 0.736659 0.914559
vt 0.704212 0.914989
vt 0.801501 0.909559
vt 0.574389 0.907976
vt 0.639270 0.912842
vt 0.606848 0.909559
vt 0.752439 0.027388
vt 0.687441 0.027388
vt 0.752439 0.081759
vt 0.687441 0.081759
vt 0.671698 0.983918
vt 0.171139 0.011512
vt 0.969515 0.635446
vt 0.969515 0.097636
vt 0.270936 0.011512
vt 0.967676 0.643429
vt 0.967676 0.714410
vt 0.032765 0.644843
vt 0.967676 0.781702
vt 0.967676 0.746055
vt 0.103674 0.698541
vt 0.103674 0.644843
vt 0.704212 0.824927
vt 0.671698 0.914559
vt 0.833879 0.892161
vt 0.833879 0.920803
vt 0.833879 0.907976
vt 0.162916 0.644843
vt 0.162916 0.698541
vt 0.032766 0.698541
vt 0.634805 0.685446
vt 0.647425 0.680350
vt 0.647441 0.698071
vt 0.629721 0.698088
vt 0.660060 0.685437
vt 0.665161 0.698054
vt 0.647459 0.715792
vt 0.634821 0.710715
vt 0.660080 0.710687
vt 0.469261 0.741400
vt 0.498589 0.729510
vt 0.498589 0.770728
vt 0.457371 0.770728
vt 0.408331 0.680470
vt 0.498589 0.643796
vt 0.527916 0.741400
vt 0.539806 0.770728
vt 0.498589 0.811946
vt 0.469261 0.800056
vt 0.371656 0.770728
vt 0.588847 0.680470
vt 0.625521 0.770728
vt 0.527916 0.800056
vt 0.498589 0.897660
vt 0.408331 0.860986
vt 0.588847 0.860986
vt 0.178259 0.768980
vt 0.268517 0.732306
vt 0.268517 0.818020
vt 0.239189 0.829910
vt 0.358775 0.768980
vt 0.297845 0.829910
vt 0.141584 0.859238
vt 0.227299 0.859238
vt 0.395449 0.859238
vt 0.309734 0.859238
vt 0.178259 0.949495
vt 0.239189 0.888566
vt 0.358775 0.949495
vt 0.297845 0.888566
vt 0.268517 0.986170
vt 0.268517 0.900456
vt 0.617662 0.728561
vt 0.605762 0.699254
vt 0.612280 0.699247
vt 0.622258 0.723960
vt 0.617641 0.669909
vt 0.622241 0.674503
vt 0.647019 0.740430
vt 0.647013 0.733912
vt 0.646940 0.657997
vt 0.646946 0.664515
vt 0.676338 0.728521
vt 0.671735 0.723926
vt 0.676276 0.669865
vt 0.671683 0.674466
vt 0.688197 0.699174
vt 0.681678 0.699180
vt 0.102543 0.567083
vt 0.164047 0.567083
vt 0.102542 0.776301
vt 0.164046 0.776302
vt 0.233825 0.644843
vt 0.233825 0.698541
vn -0.376446 0.000000 0.926439
vn -0.376446 0.000000 0.926439
vn -0.376446 0.000000 0.926439
vn -0.376446 0.000000 0.926439
vn 0.376440 0.000000 0.926441
vn 0.376440 0.000000 0.926441
vn 0.376440 0.000000 0.926441
vn -0.081000 -0.000004 0.996714
vn -0.376433 -0.000006 0.926444
vn 0.000000 0.000000 1.000000
vn -0.376441 0.000000 0.926441
vn 0.376441 0.000000 0.926441
vn 0.000066 1.000000 0.000002
vn 0.000064 1.000000 0.000001
vn 0.000064 1.000000 0.000001
vn 0.000066 1.000000 0.000001
vn 0.000062 1.000000 0.000000
vn 0.000062 1.000000 0.000000
vn 0.000064 1.000000 0.000000
vn 0.000066 1.000000 -0.000000
vn 0.000062 1.000000 0.000000
vn -0.376442 0.000000 -0.926440
vn 0.000000 0.000000 -1.000000
vn 0.000000 0.000000 -1.000000
vn -0.376441 0.000000 -0.926441
vn 0.376442 0.000000 -0.926440
vn 0.376441 0.000000 -0.926441
vn 0.000000 0.000000 -1.000000
vn -0.376441 0.000000 -0.926441
vn 0.376441 0.000000 -0.926441
vn 0.000000 -1.000000 0.000000
vn 0.000000 -1.000000 0.000000
vn 0.000000 -1.000000 0.000000
vn 0.000000 -1.000000 0.000000
vn 0.000000 -1.000000 -0.000000
vn 0.000000 -1.000000 -0.000000
vn 0.000000 -1.000000 0.000000
vn 0.000000 -1.000000 0.000000
vn 0.000000 -1.000000 0.000000
vn 1.000000 0.000000 -0.000000
vn 0.926439 0.000000 -0.376444
vn 0.926439 0.000000 -0.376444
vn 1.000000 0.000000 -0.000000
vn 0.926440 0.000000 0.376443
vn 0.926440 0.000000 0.376443
vn 0.926439 0.000000 -0.376444
vn 1.000000 0.000000 -0.000000
vn 0.926440 0.000000 0.376444
vn -0.926439 0.000000 -0.376444
vn -1.000000 0.000000 -0.000000
vn -1.000000 0.000000 -0.000000
vn -0.926439 0.000000 -0.376444
vn -0.926440 0.000000 0.376443
vn -0.926440 0.000000 0.376443
vn -1.000000 0.000000 -0.000000
vn -0.926439 0.000000 -0.376444
vn -0.926440 0.000000 0.376444
vn 0.000000 1.000000 0.000000
vn 0.000000 1.000000 0.000000
vn 0.000000 1.000000 0.000000
vn 0.000000 1.000000 0.000000
vn 0.000000 1.000000 0.000000
vn 0.000000 1.000000 0.000000
vn 0.000000 1.000000 0.000000
vn 0.000000 1.000000 0.000000
vn 0.000000 1.000000 -0.000000
vn 0.000000 1.000000 -0.000000
vn 0.000000 1.000000 0.000000
vn 0.000000 1.000000 0.000000
vn 0.000000 1.000000 0.000000
vn 0.000000 1.000000 0.000000
vn 0.000000 1.000000 -0.000000
vn 0.000000 1.000000 -0.000000
vn 0.000000 -1.000000 0.000000
vn 0.000000 -1.000000 0.000000
vn 0.000000 -1.000000 0.000000
vn 0.000000 -1.000000 -0.000000
vn 0.000000 -1.000000 -0.000000
vn 0.000000 -1.000000 0.000000
vn 0.000000 -1.000000 0.000000
vn 0.000000 -1.000000 0.000000
vn -0.375703 0.000001 0.926740
vn -0.375703 0.000001 0.926740
vn -0.372971 0.080629 0.924333
vn -0.372971 0.080629 0.924333
vn -0.926742 0.000000 0.375698
vn -0.926742 0.000000 0.375698
vn -0.909695 0.188493 0.370035
vn -0.909695 0.188493 0.370035
vn 0.375703 0.000001 0.926740
vn 0.375703 0.000001 0.926740
vn 0.371420 -0.083573 0.924696
vn 0.371420 -0.083573 0.924696
vn 0.926742 0.000000 0.375698
vn 0.926742 0.000000 0.375698
vn 0.903170 -0.214245 0.371998
vn 0.903170 -0.214245 0.371998
vn -0.375703 0.000001 -0.926740
vn -0.375703 0.000001 -0.926740
vn -0.372584 0.080500 -0.924500
vn -0.372584 0.080500 -0.924500
vn -0.926741 0.000000 -0.375701
vn -0.926741 0.000000 -0.375701
vn -0.909557 0.188415 -0.370414
vn -0.909557 0.188415 -0.370414
vn 0.926741 0.000000 -0.375701
vn 0.926741 0.000000 -0.375701
vn 0.903329 -0.214247 -0.371612
vn 0.903329 -0.214247 -0.371612
vn 0.375703 0.000001 -0.926740
vn 0.375703 0.000001 -0.926740
vn 0.371772 -0.083801 -0.924534
vn 0.371772 -0.083801 -0.924534
vn -0.267833 0.268011 0.925438
vn -0.267833 0.268011 0.925438
vn -0.657136 0.655004 0.373017
vn -0.657136 0.655004 0.373017
vn 0.267488 -0.269380 0.925140
vn 0.267488 -0.269380 0.925140
vn 0.651285 -0.663513 0.368210
vn 0.651285 -0.663513 0.368210
vn -0.267086 0.267120 -0.925912
vn -0.267086 0.267120 -0.925912
vn -0.656857 0.654626 -0.374171
vn -0.656857 0.654626 -0.374171
vn 0.651634 -0.663811 -0.367052
vn 0.651634 -0.663811 -0.367052
vn 0.268210 -0.270347 -0.924649
vn 0.268210 -0.270347 -0.924649
vn -0.162073 0.369501 0.914987
vn -0.162073 0.369501 0.914987
vn -0.373581 0.859382 0.349143
vn -0.373581 0.859382 0.349143
vn 0.165073 -0.366792 0.915541
vn 0.165073 -0.366792 0.915541
vn 0.403049 -0.845435 0.350417
vn 0.403049 -0.845435 0.350417
vn -0.161394 0.368031 -0.915699
vn -0.161394 0.368031 -0.915699
vn -0.373365 0.858884 -0.350595
vn -0.373365 0.858884 -0.350595
vn 0.403324 -0.845921 -0.348924
vn 0.403324 -0.845921 -0.348924
vn 0.165787 -0.368229 -0.914834
vn 0.165787 -0.368229 -0.914834
vn 1.000000 0.000005 -0.000011
vn 1.000000 0.000000 0.000000
vn 1.000000 0.000000 0.000000
vn 1.000000 0.000005 -0.000011
vn 1.000000 0.000009 -0.000000
vn 1.000000 0.000009 -0.000000
vn 1.000000 -0.000000 0.000000
vn 1.000000 -0.000000 0.000000
vn 1.000000 0.000000 0.000000
vn 1.000000 0.000000 0.000000
vn 1.000000 -0.000000 0.000000
vn 1.000000 0.000004 0.000011
vn 1.000000 0.000004 0.000011
vn 1.000000 -0.000000 0.000000
vn 1.000000 0.000000 0.000000
vn 1.000000 0.000000 0.000000
vn 0.159979 -0.366956 -0.916379
vn 0.159979 -0.366956 -0.916379
vn 0.266348 -0.266808 -0.926214
vn 0.266348 -0.266808 -0.926214
vn 0.372202 -0.860296 -0.348364
vn 0.372202 -0.860296 -0.348364
vn 0.655926 -0.657455 -0.370829
vn 0.655926 -0.657455 -0.370829
vn -0.165501 0.363545 -0.916758
vn -0.165501 0.363545 -0.916758
vn -0.165501 0.363545 -0.916758
vn -0.165501 0.363545 -0.916758
vn -0.403953 0.845321 -0.349649
vn -0.403953 0.845321 -0.349649
vn -0.403953 0.845321 -0.349649
vn -0.403953 0.845321 -0.349649
vn 0.160581 -0.364928 0.917083
vn 0.160581 -0.364928 0.917083
vn 0.160581 -0.364928 0.917083
vn 0.160581 -0.364928 0.917083
vn 0.372368 -0.859652 0.349772
vn 0.372368 -0.859652 0.349772
vn 0.372368 -0.859652 0.349772
vn 0.372368 -0.859652 0.349772
vn -0.403092 0.846362 0.348122
vn -0.403092 0.846362 0.348122
vn -0.658276 0.657546 0.366478
vn -0.658276 0.657546 0.366478
vn -0.164242 0.365785 0.916093
vn -0.164242 0.365785 0.916093
vn -0.164242 0.365785 0.916093
vn -0.164242 0.365785 0.916093
vn 0.367006 -0.160940 -0.916191
vn 0.367006 -0.160940 -0.916191
vn 0.859530 -0.374307 -0.347998
vn 0.859530 -0.374307 -0.347998
vn -0.363765 0.166092 -0.916564
vn -0.363765 0.166092 -0.916564
vn -0.363765 0.166092 -0.916564
vn -0.363765 0.166092 -0.916564
vn -0.845854 0.403104 -0.349339
vn -0.845854 0.403104 -0.349339
vn -0.845854 0.403104 -0.349339
vn -0.845854 0.403104 -0.349339
vn 0.364960 -0.161539 0.916902
vn 0.364960 -0.161539 0.916902
vn 0.364960 -0.161539 0.916902
vn 0.364960 -0.161539 0.916902
vn 0.858892 -0.374497 0.349367
vn 0.858892 -0.374497 0.349367
vn 0.858892 -0.374497 0.349367
vn 0.858892 -0.374497 0.349367
vn -0.846904 0.402247 0.347780
vn -0.846904 0.402247 0.347780
vn -0.365991 0.164841 0.915903
vn -0.365991 0.164841 0.915903
vn -0.365991 0.164841 0.915903
vn -0.365991 0.164841 0.915903
vn -0.376429 0.000010 0.926446
vn -0.376443 0.000010 0.926440
vn -0.376443 0.000010 0.926440
vn -0.376429 0.000010 0.926446
vn -0.376443 -0.000010 0.926440
vn -0.376429 -0.000010 0.926446
vn 0.000000 1.000000 -0.000000
vn 0.000000 1.000000 -0.000000
vn 0.000000 1.000000 -0.000000
vn 0.000000 1.000000 -0.000000
vn -0.926436 0.000000 -0.376452
vn -0.926436 0.000000 -0.376452
vn -0.926436 0.000000 -0.376452
vn -0.926436 0.000000 -0.376452
vn 0.000000 -1.000000 -0.000000
vn 0.000000 -1.000000 -0.000000
vn 0.000000 -1.000000 -0.000000
vn 0.000000 -1.000000 -0.000000
vn 0.926436 0.000000 0.376452
vn 0.926436 0.000000 0.376452
vn 0.926436 0.000000 0.376452
vn 0.926436 0.000000 0.376452
s off
f 95/92/1 96/98/2 97/99/3 98/91/4
s 1
f 2/1/5 3/2/6 6/3/7 5/4/8
f 4/5/9 5/4/8 8/6/10 7/7/11
f 5/4/8 6/3/7 9/8/12 8/6/10
s 3
f 82/101/13 83/102/14 84/103/15 85/104/16
f 83/102/14 86/105/17 87/106/18 84/103/15
f 85/104/16 84/103/15 88/107/19 89/108/20
f 84/103/15 87/106/18 90/109/21 88/107/19
s 4
f 12/16/22 13/17/23 16/18/24 15/19/25
f 13/17/23 14/20/26 17/21/27 16/18/24
f 15/19/25 16/18/24 19/22/28 18/23/29
f 16/18/24 17/21/27 20/85/30 19/22/28
s 5
f 33/110/31 34/111/32 35/112/33 36/113/34
f 34/111/32 37/116/35 38/117/36 35/112/33
f 36/113/34 35/112/33 39/118/37 40/119/38
f 35/112/33 38/117/36 41/123/39 39/118/37
s 6
f 22/82/40 20/85/41 17/21/42 23/25/43
f 3/2/44 22/24/40 23/84/43 6/3/45
f 23/25/43 17/21/42 14/20/46 11/26/47
f 6/3/45 23/84/43 11/83/47 9/8/48
s 7
f 18/23/49 21/27/50 24/28/51 15/19/52
f 21/27/50 1/29/53 4/5/54 24/28/51
f 15/19/52 24/28/51 10/30/55 12/16/56
f 24/28/51 4/5/54 7/7/57 10/30/55
s 8
f 7/127/58 8/128/59 26/129/60 25/130/61
f 10/133/62 7/127/58 25/130/61 27/134/63
f 8/128/59 9/131/64 28/132/65 26/129/60
f 9/131/64 11/135/66 29/136/67 28/132/65
f 13/141/68 12/137/69 31/138/70 30/142/71
f 12/137/69 10/133/62 27/134/63 31/138/70
f 11/135/66 14/139/72 32/140/73 29/136/67
f 14/139/72 13/141/68 30/142/71 32/140/73
s 5
f 18/114/74 19/115/75 34/111/32 33/110/31
f 21/120/76 18/114/74 33/110/31 36/113/34
f 19/115/75 20/121/77 37/116/35 34/111/32
f 20/121/77 22/122/78 38/117/36 37/116/35
f 2/124/79 1/125/80 40/119/38 39/118/37
f 1/125/80 21/120/76 36/113/34 40/119/38
f 22/122/78 3/126/81 41/123/39 38/117/36
f 3/126/81 2/124/79 39/118/37 41/123/39
s 9
f 25/32/82 26/31/83 43/39/84 42/40/85
s 10
f 27/33/86 25/32/87 42/40/88 44/41/89
s 11
f 26/31/90 28/34/91 45/42/92 43/39/93
s 12
f 28/34/94 29/86/95 46/87/96 45/42/97
s 13
f 30/37/98 31/36/99 48/44/100 47/45/101
s 14
f 31/36/102 27/33/103 44/41/104 48/44/105
s 15
f 29/35/106 32/38/107 49/46/108 46/43/109
s 16
f 32/38/110 30/37/111 47/45/112 49/46/113
s 9
f 42/40/85 43/39/84 51/47/114 50/48/115
s 10
f 44/41/89 42/40/88 50/48/116 52/49/117
s 11
f 43/39/93 45/42/92 53/50/118 51/47/119
s 12
f 45/42/97 46/87/96 54/90/120 53/50/121
s 13
f 47/45/101 48/44/100 56/52/122 55/53/123
s 14
f 48/44/105 44/41/104 52/49/124 56/52/125
s 15
f 46/43/109 49/46/108 57/54/126 54/51/127
s 16
f 49/46/113 47/45/112 55/53/128 57/54/129
s 9
f 50/48/115 51/47/114 59/55/130 58/56/131
s 10
f 52/49/117 50/48/116 58/56/132 60/57/133
s 11
f 51/47/119 53/50/118 61/58/134 59/55/135
s 12
f 53/50/121 54/90/120 62/89/136 61/58/137
s 13
f 55/53/123 56/52/122 64/60/138 63/61/139
s 14
f 56/52/125 52/49/124 60/57/140 64/60/141
s 15
f 54/51/127 57/54/126 65/62/142 62/59/143
s 16
f 57/54/129 55/53/128 63/61/144 65/62/145
s 17
f 58/143/146 59/144/147 67/145/148 66/146/149
f 60/149/150 58/143/146 66/146/149 68/150/151
f 59/144/147 61/147/152 69/148/153 67/145/148
f 61/147/152 62/151/154 70/152/155 69/148/153
f 63/157/156 64/153/157 72/154/158 71/158/159
f 64/153/157 60/149/150 68/150/151 72/154/158
f 62/151/154 65/155/160 73/156/161 70/152/155
f 65/155/160 63/157/156 71/158/159 73/156/161
s 18
f 66/64/162 67/63/163 75/70/164 74/71/165
s 19
f 68/93/166 66/64/167 74/71/168 76/72/169
s off
f 67/63/170 69/65/171 77/73/172 75/70/173
f 69/65/174 70/95/175 78/97/176 77/73/177
f 71/68/178 72/67/179 80/94/180 79/75/181
f 72/67/182 68/93/183 76/72/184 80/94/185
s 20
f 70/66/186 73/69/187 81/76/188 78/74/189
s off
f 73/69/190 71/68/191 79/75/192 81/76/193
s 18
f 74/71/165 75/70/164 83/10/194 82/9/195
s 19
f 76/72/169 74/71/168 82/9/196 85/11/197
s off
f 75/70/198 77/73/199 86/12/200 83/10/201
f 77/73/202 78/97/203 87/96/204 86/12/205
f 79/75/206 80/94/207 89/81/208 88/14/209
f 80/94/210 76/72/211 85/11/212 89/81/213
s 20
f 78/74/189 81/76/188 90/15/214 87/13/215
s off
f 81/76/216 79/75/217 88/14/218 90/15/219
s 1
f 1/29/220 2/1/221 92/77/222 91/78/223
f 2/1/221 5/4/8 93/79/224 92/77/222
f 5/4/8 4/5/9 94/80/225 93/79/224
f 4/5/9 1/29/220 91/78/223 94/80/225
s off
f 91/159/226 92/160/227 96/98/228 95/92/229
f 92/163/230 93/164/231 97/99/232 96/98/233
f 93/162/234 94/161/235 98/91/236 97/99/237
f 94/100/238 91/88/239 95/92/240 98/91/241
