# This file uses centimeters as units for non-parametric coordinates.

v -1.050588 -15.926240 1.050591
v 0.000000 -15.926240 1.477476
v 1.050587 -15.926240 1.050591
v -1.461530 13.203565 1.461529
v 0.000000 13.203565 2.055395
v 1.461530 13.203565 1.461529
v -1.461530 15.466281 1.461529
v 0.000000 15.466281 2.055395
v 1.461530 15.466281 1.461529
v -2.055392 15.466281 0.000002
v 2.055392 15.466281 0.000000
v -1.461530 15.466281 -1.461529
v 0.000000 15.466281 -2.055393
v 1.461530 15.466281 -1.461529
v -1.461530 13.203565 -1.461529
v 0.000000 13.203565 -2.055393
v 1.461530 13.203565 -1.461529
v -1.050588 -15.926240 -1.050591
v 0.000000 -15.926240 -1.477478
v 1.050587 -15.926240 -1.050591
v -1.477474 -15.926240 0.000002
v 1.477474 -15.926240 0.000000
v 2.055392 13.203565 0.000000
v -2.055392 13.203565 0.000002
v -0.799572 -15.926240 -0.799574
v 0.000000 -15.926240 -1.123455
v -1.123459 -15.926240 0.000002
v 0.799571 -15.926240 -0.799574
v 1.123459 -15.926240 0.000002
v 0.000000 -15.926240 1.123461
v -0.799572 -15.926240 0.799576
v 0.799571 -15.926240 0.799576
v -1.112326 13.203565 1.112331
v 0.000000 13.203565 1.562904
v -1.562906 13.203565 0.000002
v 1.112325 13.203565 1.112331
v 1.562906 13.203565 0.000000
v 0.000000 13.203565 -1.562904
v -1.112326 13.203565 -1.112331
v 1.112325 13.203565 -1.112331
v 0.000000 15.926240 1.562904
v -1.112326 15.926240 1.112331
v -1.562906 15.926240 0.000002
v 1.112325 15.926240 1.112331
v 1.562906 15.926240 0.000000
v -1.112326 15.926240 -1.112331
v 0.000000 15.926240 -1.562904
v 1.112325 15.926240 -1.112331
v -2.087276 15.466281 2.087278
v 0.000000 15.466281 2.948914
v 0.000000 15.926240 2.948914
v -2.087276 15.926240 2.087278
v -2.948915 15.466281 0.000002
v -2.948915 15.926240 0.000002
v 2.087276 15.466281 2.087276
v 2.087276 15.926240 2.087276
v 2.948915 15.466281 0.000000
v 2.948915 15.926240 0.000000
v -2.087282 15.466281 -2.087276
v 0.000000 15.466281 -2.948914
v -2.087282 15.926240 -2.087276
v 0.000000 15.926240 -2.948914
v 2.087282 15.466281 -2.087276
v 2.087282 15.926240 -2.087276
v -1.050588 12.216485 1.050591
v -1.477474 12.216485 0.000002
v -1.050588 12.216485 -1.050591
v 0.000000 12.216485 -1.477478
v 1.050587 12.216485 -1.050591
v 1.477474 12.216485 0.000000
v 1.050587 12.216485 1.050591
v 0.000000 12.216485 1.477476
v -1.123459 12.216485 0.000002
v -0.799572 12.216485 0.799576
v 0.000000 12.216485 1.123461
v 0.799571 12.216485 0.799576
v 1.123459 12.216485 0.000002
v 0.799571 12.216485 -0.799574
v 0.000000 12.216485 -1.123455
v -0.799572 12.216485 -0.799574
vt 0.572373 0.005342
vt 0.602165 0.005342
vt 0.602165 0.688374
vt 0.572373 0.688374
vt 0.631957 0.005342
vt 0.631957 0.688374
vt 0.572373 0.712330
vt 0.602165 0.712330
vt 0.602165 0.767247
vt 0.572373 0.767247
vt 0.631957 0.712330
vt 0.631957 0.767247
vt 0.512788 0.767247
vt 0.482996 0.767247
vt 0.482996 0.712330
vt 0.512788 0.712330
vt 0.691542 0.767247
vt 0.691542 0.712330
vt 0.512788 0.688374
vt 0.482996 0.688374
vt 0.482996 0.005342
vt 0.512788 0.005342
vt 0.691542 0.688374
vt 0.691542 0.005342
vt 0.661750 0.005342
vt 0.661750 0.688374
vt 0.661750 0.712330
vt 0.661750 0.767247
vt 0.542580 0.005342
vt 0.542580 0.688374
vt 0.542580 0.712330
vt 0.542580 0.767247
vt 0.827586 0.776767
vt 0.851363 0.776767
vt 0.692641 0.788431
vt 0.651069 0.788431
vt 0.803809 0.776767
vt 0.609498 0.788431
vt 0.780031 0.776767
vt 0.567927 0.788431
vt 0.922696 0.003698
vt 0.898918 0.003698
vt 0.875141 0.003698
vt 0.780031 0.003698
vt 0.851363 0.003698
vt 0.827586 0.003698
vt 0.803809 0.003698
vt 0.827586 0.710686
vt 0.851363 0.710686
vt 0.803809 0.710686
vt 0.780031 0.710686
vt 0.756254 0.710686
vt 0.922696 0.686730
vt 0.898918 0.686730
vt 0.875141 0.686730
vt 0.780031 0.686730
vt 0.851363 0.686730
vt 0.827586 0.686730
vt 0.803809 0.686730
vt 0.692641 0.799594
vt 0.651069 0.799594
vt 0.734212 0.799594
vt 0.734212 0.788431
vt 0.875141 0.710686
vt 0.875141 0.776767
vt 0.609499 0.799594
vt 0.567927 0.799594
vt 0.817355 0.799594
vt 0.775784 0.799594
vt 0.775784 0.788431
vt 0.817355 0.788431
vt 0.922696 0.710686
vt 0.922696 0.776767
vt 0.898918 0.776767
vt 0.898918 0.710686
vt 0.721334 0.712330
vt 0.721334 0.688374
vt 0.721334 0.005342
vt 0.732476 0.003698
vt 0.756254 0.003698
vt 0.756254 0.686730
vt 0.732476 0.686730
vt 0.526356 0.799594
vt 0.732476 0.776767
vt 0.721334 0.767247
vt 0.484784 0.799594
vt 0.526356 0.788431
vt 0.484784 0.788431
vt 0.756254 0.776767
vt 0.732476 0.710686
vt 0.712861 0.901943
vt 0.698349 0.866115
vt 0.729751 0.834713
vt 0.757504 0.901943
vt 0.662521 0.851603
vt 0.662521 0.806960
vt 0.698349 0.937771
vt 0.729751 0.969173
vt 0.626694 0.866115
vt 0.595291 0.834713
vt 0.662521 0.952283
vt 0.662521 0.996926
vt 0.612181 0.901943
vt 0.567538 0.901943
vt 0.626694 0.937771
vt 0.595291 0.969173
vt 0.896191 0.866781
vt 0.909941 0.900620
vt 0.898539 0.900620
vt 0.888106 0.874867
vt 0.896191 0.934459
vt 0.888106 0.926374
vt 0.862353 0.853031
vt 0.862353 0.864434
vt 0.862353 0.948209
vt 0.862353 0.936806
vt 0.828514 0.866781
vt 0.836599 0.874867
vt 0.828514 0.934459
vt 0.836599 0.926373
vt 0.814764 0.900620
vt 0.826167 0.900620
vt 0.816922 0.853545
vt 0.797794 0.900620
vt 0.769014 0.900620
vt 0.796766 0.833390
vt 0.816922 0.947695
vt 0.796767 0.967850
vt 0.863997 0.834417
vt 0.863997 0.805637
vt 0.863997 0.966823
vt 0.863997 0.995603
vt 0.911071 0.853545
vt 0.931227 0.833390
vt 0.911071 0.947695
vt 0.931227 0.967851
vt 0.930200 0.900620
vt 0.958980 0.900620
vn -0.376441 0.000000 0.926441
vn 0.000000 0.000000 1.000000
vn 0.000000 -0.264163 0.964478
vn -0.364878 -0.245951 0.897982
vn 0.376441 0.000000 0.926440
vn 0.364878 -0.245951 0.897982
vn -0.364879 -0.245951 0.897982
vn 0.000000 -0.264163 0.964478
vn 0.000000 0.000000 1.000000
vn -0.376442 0.000000 0.926440
vn 0.364879 -0.245951 0.897982
vn 0.376442 0.000000 0.926440
vn -0.376441 0.000000 -0.926441
vn 0.000000 0.000000 -1.000000
vn 0.000000 -0.264163 -0.964478
vn -0.364878 -0.245950 -0.897983
vn 0.376441 0.000000 -0.926441
vn 0.364878 -0.245950 -0.897983
vn -0.364878 -0.245950 -0.897983
vn 0.000000 -0.264163 -0.964478
vn 0.000000 0.000000 -1.000000
vn -0.376441 0.000000 -0.926441
vn 0.364878 -0.245950 -0.897982
vn 0.376441 0.000000 -0.926440
vn 1.000000 0.000000 0.000000
vn 0.926441 0.000000 -0.376440
vn 0.897983 -0.245951 -0.364877
vn 0.964478 -0.264164 0.000000
vn 0.926441 0.000000 0.376441
vn 0.897983 -0.245951 0.364877
vn 0.964478 -0.264164 -0.000000
vn 0.897983 -0.245951 -0.364876
vn 0.926441 0.000000 -0.376440
vn 1.000000 0.000000 0.000000
vn 0.897983 -0.245951 0.364876
vn 0.926441 0.000000 0.376440
vn -0.926441 0.000000 -0.376440
vn -1.000000 0.000000 0.000000
vn -0.964478 -0.264163 0.000001
vn -0.897983 -0.245951 -0.364875
vn -0.926441 0.000000 0.376440
vn -0.897983 -0.245951 0.364877
vn -0.897983 -0.245951 -0.364875
vn -0.964478 -0.264163 0.000001
vn -1.000000 0.000000 0.000000
vn -0.926441 0.000000 -0.376439
vn -0.897983 -0.245951 0.364877
vn -0.926441 0.000000 0.376440
vn 0.000000 1.000000 -0.000000
vn 0.000000 1.000000 -0.000001
vn 0.000000 1.000000 -0.000001
vn 0.000000 1.000000 -0.000000
vn 0.000000 1.000000 0.000000
vn 0.000000 1.000000 0.000000
vn 0.000000 1.000000 0.000000
vn 0.000000 1.000000 0.000000
vn 0.000000 1.000000 0.000000
vn 0.000000 1.000000 0.000000
vn 0.000000 -1.000000 0.000001
vn 0.000000 -1.000000 0.000001
vn 0.000000 -1.000000 0.000001
vn 0.000000 -1.000000 0.000001
vn 0.000000 -1.000000 0.000000
vn 0.000000 -1.000000 0.000000
vn 0.000000 -1.000000 0.000000
vn 0.000000 -1.000000 0.000000
vn 0.000000 -1.000000 -0.000000
vn 0.000000 -1.000000 -0.000000
vn 0.000000 -1.000000 -0.000001
vn 0.000000 -1.000000 -0.000001
vn 0.000000 -1.000000 -0.000001
vn 0.000000 -1.000000 -0.000001
vn 0.000000 -1.000000 -0.000000
vn 0.000000 -1.000000 -0.000000
vn 0.375439 0.000000 -0.926847
vn 0.375439 0.000000 -0.926847
vn 0.375439 0.000000 -0.926847
vn 0.375439 0.000000 -0.926847
vn -0.375440 0.000000 -0.926847
vn -0.375440 0.000000 -0.926847
vn -0.375440 0.000000 -0.926847
vn -0.375440 0.000000 -0.926847
vn -0.926845 0.000000 -0.375444
vn -0.926845 0.000000 -0.375444
vn -0.926845 0.000000 -0.375444
vn -0.926845 0.000000 -0.375444
vn -0.926845 0.000000 0.375445
vn -0.926845 0.000000 0.375445
vn -0.926845 0.000000 0.375445
vn -0.926845 0.000000 0.375445
vn 0.375438 0.000000 0.926848
vn 0.375438 0.000000 0.926848
vn 0.368274 0.194428 0.909160
vn 0.368274 0.194428 0.909160
vn 0.926846 0.000000 0.375442
vn 0.926846 0.000000 0.375442
vn 0.909159 0.194427 0.368278
vn 0.909159 0.194427 0.368278
vn -0.375439 0.000000 0.926847
vn -0.375439 0.000000 0.926847
vn -0.368275 0.194428 0.909160
vn -0.368275 0.194428 0.909160
vn -0.926845 0.000000 0.375443
vn -0.926845 0.000000 0.375443
vn -0.909158 0.194428 0.368279
vn -0.909158 0.194428 0.368279
vn 0.375440 0.000000 -0.926847
vn 0.375440 0.000000 -0.926847
vn 0.368275 0.194427 -0.909160
vn 0.368275 0.194427 -0.909160
vn 0.926846 0.000000 -0.375442
vn 0.926846 0.000000 -0.375442
vn 0.909159 0.194427 -0.368278
vn 0.909159 0.194427 -0.368278
vn -0.926845 0.000000 -0.375443
vn -0.926845 0.000000 -0.375443
vn -0.909158 0.194426 -0.368279
vn -0.909158 0.194426 -0.368279
vn -0.375441 0.000000 -0.926846
vn -0.375441 0.000000 -0.926846
vn -0.368276 0.194426 -0.909160
vn -0.368276 0.194426 -0.909160
vn -0.381570 0.000000 0.924340
vn -0.381570 0.000000 0.924340
vn -0.381570 0.000000 0.924340
vn -0.381570 0.000000 0.924340
vn -0.924339 0.000000 0.381572
vn -0.924339 0.000000 0.381572
vn -0.924339 0.000000 0.381572
vn -0.924339 0.000000 0.381572
vn 0.926845 0.000000 -0.375444
vn 0.926845 0.000000 -0.375444
vn 0.926845 0.000000 -0.375444
vn 0.926845 0.000000 -0.375444
vn 0.381572 0.000000 0.924339
vn 0.381572 0.000000 0.924339
vn 0.381572 0.000000 0.924339
vn 0.381572 0.000000 0.924339
vn 0.924339 0.000000 0.381572
vn 0.924339 0.000000 0.381572
vn 0.924339 0.000000 0.381572
vn 0.924339 0.000000 0.381572
vn -0.381570 0.000000 -0.924340
vn -0.381570 0.000000 -0.924340
vn -0.381570 0.000000 -0.924340
vn -0.381570 0.000000 -0.924340
vn 0.375441 0.000000 0.926846
vn 0.375441 0.000000 0.926846
vn 0.375441 0.000000 0.926846
vn 0.375441 0.000000 0.926846
vn -0.924341 0.000000 -0.381568
vn -0.924341 0.000000 -0.381568
vn -0.924341 0.000000 -0.381568
vn -0.924341 0.000000 -0.381568
vn 0.926845 0.000000 0.375443
vn 0.926845 0.000000 0.375443
vn 0.926845 0.000000 0.375443
vn 0.926845 0.000000 0.375443
vn 0.924341 0.000000 -0.381569
vn 0.924341 0.000000 -0.381569
vn 0.924341 0.000000 -0.381569
vn 0.924341 0.000000 -0.381569
vn 0.381570 0.000000 -0.924340
vn 0.381570 0.000000 -0.924340
vn 0.381570 0.000000 -0.924340
vn 0.381570 0.000000 -0.924340
vn -0.375442 0.000000 0.926846
vn -0.375442 0.000000 0.926846
vn -0.375442 0.000000 0.926846
vn -0.375442 0.000000 0.926846
vn 0.000000 -1.000000 0.000000
vn 0.000000 -1.000000 0.000000
vn 0.000000 -1.000000 0.000000
vn 0.000000 -1.000000 0.000000
vn 0.000000 -1.000000 -0.000001
vn 0.000000 -1.000000 -0.000001
vn 0.000000 1.000000 0.000000
vn 0.000000 1.000000 0.000000
vn 0.000000 -1.000000 0.000000
vn 0.000000 -1.000000 0.000000
vn 0.000000 -1.000000 0.000000
vn 0.000000 -1.000000 0.000000
vn 0.000000 -1.000000 -0.000002
vn 0.000000 -1.000000 -0.000002
vn 0.000000 -1.000000 -0.000002
vn 0.000000 -1.000000 -0.000002
vn 0.000000 1.000000 0.000001
vn 0.000000 1.000000 0.000001
vn 0.000000 1.000000 0.000000
vn 0.000000 1.000000 0.000000
vn 0.000000 -1.000000 -0.000001
vn 0.000000 -1.000000 -0.000001
vn 0.856772 0.381433 -0.347059
vn 0.856772 0.381433 -0.347059
vn 0.347055 0.381433 -0.856774
vn 0.347055 0.381433 -0.856774
vn -0.347056 0.381432 -0.856774
vn -0.347056 0.381432 -0.856774
vn -0.856773 0.381432 -0.347059
vn -0.856773 0.381432 -0.347059
vn -0.856772 0.381435 0.347059
vn -0.856772 0.381435 0.347059
vn -0.347055 0.381435 0.856773
vn -0.347055 0.381435 0.856773
vn 0.347055 0.381435 0.856773
vn 0.347055 0.381435 0.856773
vn 0.856773 0.381433 0.347058
vn 0.856773 0.381433 0.347058
s 1
f 1/1/1 2/2/2 72/3/3 65/4/4
f 2/2/2 3/5/5 71/6/6 72/3/3
f 4/7/7 5/8/8 8/9/9 7/10/10
f 5/8/8 6/11/11 9/12/12 8/9/9
s 2
f 12/13/13 13/14/14 16/15/15 15/16/16
f 13/85/14 14/17/17 17/18/18 16/76/15
f 67/19/19 68/20/20 19/21/21 18/22/22
f 68/77/20 69/23/23 20/24/24 19/78/21
s 3
f 22/25/25 20/24/26 69/23/27 70/26/28
f 3/5/29 22/25/25 70/26/28 71/6/30
f 23/27/31 17/18/32 14/17/33 11/28/34
f 6/11/35 23/27/31 11/28/34 9/12/36
s 4
f 18/22/37 21/29/38 66/30/39 67/19/40
f 21/29/38 1/1/41 65/4/42 66/30/39
f 15/16/43 24/31/44 10/32/45 12/13/46
f 24/31/44 4/7/47 7/10/48 10/32/45
s 5
f 41/91/49 42/92/50 52/93/51 51/94/52
f 44/97/53 41/91/49 51/94/52 56/98/54
f 45/101/55 44/97/53 56/98/54 58/102/56
f 48/105/57 45/101/55 58/102/56 64/106/58
s 6
f 18/107/59 19/108/60 26/109/61 25/110/62
f 21/113/63 18/107/59 25/110/62 27/114/64
f 19/108/60 20/111/65 28/112/66 26/109/61
f 20/111/65 22/115/67 29/116/68 28/112/66
f 2/121/69 1/117/70 31/118/71 30/122/72
f 1/117/70 21/113/63 27/114/64 31/118/71
f 22/115/67 3/119/73 32/120/74 29/116/68
f 3/119/73 2/121/69 30/122/72 32/120/74
s off
f 34/48/75 33/49/76 42/34/77 41/33/78
f 36/50/79 34/48/80 41/33/81 44/37/82
f 37/51/83 36/50/84 44/37/85 45/39/86
f 40/52/87 37/51/88 45/39/89 48/89/90
s 7
f 25/42/91 26/41/92 79/53/93 80/54/94
s 8
f 27/43/95 25/42/96 80/54/97 73/55/98
s 9
f 26/79/99 28/80/100 78/81/101 79/82/102
s 10
f 28/80/103 29/44/104 77/56/105 78/81/106
s 11
f 30/46/107 31/45/108 74/57/109 75/58/110
s 12
f 31/45/111 27/43/112 73/55/113 74/57/114
s 13
f 29/44/115 32/47/116 76/59/117 77/56/118
s 14
f 32/47/119 30/46/120 75/58/121 76/59/122
s off
f 49/60/123 50/61/124 51/36/125 52/35/126
f 53/62/127 49/60/128 52/35/129 54/63/130
f 35/64/131 43/65/132 42/34/133 33/49/134
f 50/61/135 55/66/136 56/38/137 51/36/138
f 55/66/139 57/67/140 58/40/141 56/38/142
f 60/68/143 59/69/144 61/70/145 62/71/146
f 38/72/147 47/73/148 46/74/149 39/75/150
f 59/69/151 53/62/152 54/63/153 61/70/154
f 39/75/155 46/74/156 43/65/157 35/64/158
f 57/67/159 63/83/160 64/87/161 58/40/162
f 63/83/163 60/86/164 62/88/165 64/87/166
f 40/52/167 48/89/168 47/84/169 38/90/170
s 15
f 7/123/171 8/124/172 50/125/173 49/126/174
f 10/129/175 7/123/171 49/126/174 53/130/176
s 5
f 43/95/177 54/96/178 52/93/51 42/92/50
s 15
f 8/124/172 9/127/179 55/128/180 50/125/173
f 9/127/179 11/131/181 57/132/182 55/128/180
f 13/137/183 12/133/184 59/134/185 60/138/186
s 5
f 47/103/187 62/104/188 61/100/189 46/99/190
s 15
f 12/133/184 10/129/175 53/130/176 59/134/185
s 5
f 46/99/190 61/100/189 54/96/178 43/95/177
s 15
f 11/131/181 14/135/191 63/136/192 57/132/182
f 14/135/191 13/137/183 60/138/186 63/136/192
s 5
f 48/105/57 64/106/58 62/104/188 47/103/187
s 4
f 66/30/39 65/4/42 4/7/47 24/31/44
f 67/19/40 66/30/39 24/31/44 15/16/43
s 2
f 15/16/16 16/15/15 68/20/20 67/19/19
f 16/76/15 17/18/18 69/23/23 68/77/20
s 3
f 70/26/28 69/23/27 17/18/32 23/27/31
f 71/6/30 70/26/28 23/27/31 6/11/35
s 1
f 72/3/3 71/6/6 6/11/11 5/8/8
f 65/4/4 72/3/3 5/8/8 4/7/7
s 12
f 74/57/114 73/55/113 35/64/193 33/49/194
s 11
f 75/58/110 74/57/109 33/49/195 34/48/196
s 14
f 76/59/122 75/58/121 34/48/197 36/50/198
s 13
f 77/56/118 76/59/117 36/50/199 37/51/200
s 10
f 78/81/106 77/56/105 37/51/201 40/52/202
s 9
f 79/82/102 78/81/101 40/52/203 38/90/204
s 7
f 80/54/94 79/53/93 38/72/205 39/75/206
s 8
f 73/55/98 80/54/97 39/75/207 35/64/208
