# This file uses centimeters as units for non-parametric coordinates.

mtllib props_foundry_rail_thick_bent_b_1.mtl
v 12.123278 -1.594586 -0.134933
v 14.529174 -1.783284 0.073006
v 12.364790 0.953213 -0.617229
v 14.770686 0.764515 -0.409294
v 12.495644 0.592187 -2.458870
v 14.901540 0.403489 -2.250935
v 12.254131 -1.955612 -1.976570
v 14.660028 -2.144310 -1.768635
v 12.763721 0.969302 -0.887028
v 14.430981 0.838536 -0.742928
v 12.854401 0.719112 -2.163273
v 14.521662 0.588346 -2.019176
v 12.593842 -2.029633 -1.642937
v 14.261101 -2.160399 -1.498837
v 12.503160 -1.779443 -0.366688
v 14.170421 -1.910209 -0.222591
v 10.588060 5.713324 0.899395
v 12.068426 6.459891 0.637142
v 10.409077 5.615897 -0.388275
v 11.889441 6.362464 -0.650532
v 11.933170 -8.856581 -0.765049
v 13.611748 -8.856581 -0.765049
v 11.933170 -8.856581 1.002178
v 13.611748 -8.856581 1.002178
v 10.263056 5.647845 1.239594
v 12.394087 6.722552 0.862068
v 10.005404 5.507598 -0.614040
v 12.136435 6.582304 -0.991562
v 9.209593 7.732780 1.228275
v 11.340626 8.807486 0.850750
v 8.951941 7.592531 -0.625359
v 11.082972 8.667238 -1.002880
v 14.702168 -1.517208 -0.572235
v 14.870261 0.256068 -0.907917
v 14.750580 -1.650775 -1.253578
v 14.918673 0.122501 -1.589260
v 12.106152 -1.313598 -0.796604
v 12.274244 0.459678 -1.132286
v 12.322655 0.326110 -1.813629
v 12.154562 -1.447165 -1.477947
v 12.237001 7.037743 0.261505
v 11.503788 8.488863 0.253628
v 12.141678 6.985856 -0.424278
v 11.408464 8.436977 -0.432156
v 9.204357 7.329231 0.660992
v 9.109034 7.277343 -0.024796
v 9.842247 5.826222 -0.016914
v 9.937571 5.878110 0.668869
v -12.364883 -1.733260 -1.005161
v -14.785328 -1.677917 -1.079803
v -12.320923 0.827309 -0.532108
v -14.741367 0.882652 -0.606754
v -12.385731 0.486819 1.316933
v -14.806175 0.542163 1.242290
v -12.429691 -2.073749 0.843884
v -14.850136 -2.018406 0.769238
v -12.700691 0.884515 -0.241081
v -14.378033 0.922867 -0.292809
v -12.745602 0.648557 1.040298
v -14.422943 0.686910 0.988571
v -12.793030 -2.113964 0.529938
v -14.470371 -2.075612 0.478210
v -12.748119 -1.878007 -0.751442
v -14.425461 -1.839654 -0.803169
v -10.311481 5.882806 -0.105038
v -11.874851 6.459847 0.096279
v -10.261292 5.576999 1.161293
v -11.824657 6.154040 1.362606
v -12.746243 -8.856581 1.002178
v -14.424820 -8.856581 1.002178
v -12.746243 -8.856581 -0.765049
v -14.424820 -8.856581 -0.765049
v -9.947624 5.901828 -0.409821
v -12.198135 6.732496 -0.120022
v -9.875370 5.461611 1.413086
v -12.125885 6.292279 1.702888
v -9.101887 8.025913 0.069607
v -11.352402 8.856581 0.359406
v -9.029633 7.585697 1.892513
v -11.280148 8.416365 2.182316
v -14.894691 -1.393787 -0.428371
v -14.864098 0.388376 -0.099125
v -14.918671 -1.519757 0.255714
v -14.888073 0.262407 0.584957
v -12.282986 -1.453504 -0.347828
v -12.252388 0.328660 -0.018585
v -12.276367 0.202690 0.665501
v -12.306961 -1.579473 0.336254
v -12.135750 6.949500 0.538551
v -11.547115 8.427870 0.872234
v -12.109020 6.786634 1.212967
v -11.520386 8.265005 1.546650
v -9.118759 7.531562 0.559525
v -9.092026 7.368695 1.233944
v -9.680664 5.890325 0.900261
v -9.707394 6.053191 0.225842
v 5.074865 2.466052 0.105019
v 5.074865 2.466052 0.799343
v 5.074865 4.091910 0.799343
v 5.074865 4.091910 0.105019
v -2.717863 -3.692145 0.388908
v -2.717863 -3.692145 1.084911
v -2.717863 -1.879566 1.084911
v -2.717863 -1.879566 0.388908
v -3.011814 1.135568 1.606350
v -2.998337 1.053461 2.290642
v -2.701584 2.604966 2.458862
v -2.715061 2.687073 1.774574
vt 0.117116 0.227485
vt 0.196157 0.227485
vt 0.196158 0.312467
vt 0.117116 0.312467
vt 0.197218 0.496043
vt 0.197220 0.557284
vt 0.118370 0.557286
vt 0.118367 0.496046
vt 0.117116 0.081115
vt 0.196157 0.081114
vt 0.196157 0.166097
vt 0.117116 0.166096
vt 0.384110 0.242172
vt 0.326444 0.242172
vt 0.326443 0.187398
vt 0.384110 0.187397
vt 0.104198 0.208146
vt 0.045051 0.208145
vt 0.045052 0.185433
vt 0.104199 0.185435
vt 0.110055 0.982697
vt 0.032134 0.227483
vt 0.032135 0.166094
vt 0.885081 0.982697
vt 0.184024 0.218062
vt 0.885081 0.929642
vt 0.110055 0.929643
vt 0.129249 0.218062
vt 0.184024 0.175520
vt 0.887788 0.760014
vt 0.636047 0.458279
vt 0.129249 0.175520
vt 0.184024 0.071691
vt 0.112968 0.678155
vt 0.887788 0.678155
vt 0.129249 0.071692
vt 0.184023 0.029149
vt 0.196157 0.019726
vt 0.117115 0.019727
vt 0.129249 0.029150
vt 0.425943 0.643865
vt 0.425943 0.477562
vt 0.480718 0.477562
vt 0.480718 0.643865
vt 0.286087 0.643867
vt 0.286082 0.477564
vt 0.328624 0.477562
vt 0.328628 0.643866
vt 0.383402 0.643865
vt 0.383401 0.477562
vt 0.880086 0.421463
vt 0.868048 0.412114
vt 0.880087 0.635158
vt 0.944727 0.539640
vt 0.813274 0.412114
vt 0.801236 0.421463
vt 0.112968 0.655443
vt 0.334005 0.465838
vt 0.279261 0.467689
vt 0.271701 0.244023
vt 0.944727 0.516983
vt 0.891672 0.516983
vt 0.236818 0.470593
vt 0.214164 0.247885
vt 0.956314 0.497692
vt 0.112968 0.737302
vt 0.376549 0.465838
vt 0.112969 0.819161
vt 0.887788 0.819161
vt 0.438852 0.244055
vt 0.431294 0.467657
vt 0.956313 0.558932
vt 0.197212 0.358576
vt 0.185175 0.367925
vt 0.130400 0.367927
vt 0.118362 0.358579
vt 0.197215 0.419816
vt 0.185177 0.410467
vt 0.130402 0.410469
vt 0.118365 0.419819
vt 0.698351 0.236463
vt 0.197222 0.633511
vt 0.118372 0.633514
vt 0.887788 0.737302
vt 0.106783 0.537995
vt 0.053728 0.537998
vt 0.053727 0.515341
vt 0.106782 0.515338
vt 0.531199 0.236495
vt 0.042142 0.557290
vt 0.042140 0.496049
vt 0.538758 0.460097
vt 0.736595 0.516982
vt 0.725008 0.497691
vt 0.789649 0.516982
vt 0.789649 0.539639
vt 0.281139 0.227485
vt 0.885081 0.906985
vt 0.209075 0.208146
vt 0.268222 0.208147
vt 0.110055 0.906986
vt 0.209075 0.185435
vt 0.281139 0.166096
vt 0.268222 0.185435
vt 0.736595 0.539639
vt 0.725008 0.558931
vt 0.208805 0.515335
vt 0.208805 0.537992
vt 0.273446 0.496043
vt 0.261860 0.515335
vt 0.273446 0.557284
vt 0.261860 0.537992
vt 0.887788 0.655443
vt 0.110055 0.853931
vt 0.885081 0.853931
vt 0.112969 0.760014
vt 0.593502 0.458279
vt 0.110055 0.831274
vt 0.885081 0.831274
vt 0.755888 0.240326
vt 0.881074 0.163491
vt 0.802033 0.163491
vt 0.802032 0.078509
vt 0.881074 0.078509
vt 0.801236 0.558931
vt 0.801236 0.497691
vt 0.880086 0.497691
vt 0.880086 0.558931
vt 0.881074 0.309861
vt 0.802033 0.309861
vt 0.802033 0.224880
vt 0.881074 0.224879
vt 0.643608 0.234613
vt 0.585941 0.234612
vt 0.585942 0.179837
vt 0.643609 0.179838
vt 0.893991 0.182829
vt 0.953139 0.182829
vt 0.953139 0.205541
vt 0.893991 0.205541
vt 0.690790 0.460129
vt 0.966056 0.163491
vt 0.966056 0.224879
vt 0.733234 0.463034
vt 0.814166 0.172914
vt 0.729968 0.205541
vt 0.717051 0.224880
vt 0.868941 0.172914
vt 0.814166 0.215456
vt 0.789116 0.205541
vt 0.729968 0.182830
vt 0.868941 0.215456
vt 0.814166 0.026544
vt 0.802033 0.017121
vt 0.881074 0.017121
vt 0.868941 0.026544
vt 0.814166 0.069086
vt 0.789115 0.182829
vt 0.717051 0.163491
vt 0.868941 0.069086
vt 0.610558 0.634314
vt 0.610558 0.468011
vt 0.665332 0.468010
vt 0.665333 0.634314
vt 0.891672 0.539639
vt 0.801237 0.635159
vt 0.707874 0.468010
vt 0.707875 0.634314
vt 0.568016 0.634314
vt 0.568015 0.468011
vt 0.880086 0.360223
vt 0.868049 0.369572
vt 0.513241 0.634314
vt 0.513241 0.468011
vt 0.813274 0.369572
vt 0.801236 0.360223
vt 0.360451 0.853931
vt 0.360451 0.982697
vt 0.360451 0.831274
vt 0.360451 0.929642
vt 0.360451 0.906986
vt 0.575801 0.678155
vt 0.575801 0.819161
vt 0.575801 0.655443
vt 0.575801 0.760014
vt 0.575801 0.737302
vt 0.624935 0.853931
vt 0.624935 0.982697
vt 0.624935 0.831274
vt 0.624935 0.929642
vt 0.624935 0.906985
vn -0.069557 0.191908 0.978945
vn -0.069557 0.191908 0.978945
vn -0.069557 0.191908 0.978945
vn -0.069557 0.191908 0.978945
vn -0.450970 0.892526 -0.004845
vn -0.450970 0.892526 -0.004845
vn -0.450970 0.892526 -0.004845
vn -0.450970 0.892526 -0.004845
vn 0.069556 -0.191908 -0.978945
vn 0.069556 -0.191908 -0.978945
vn 0.069556 -0.191908 -0.978945
vn 0.069556 -0.191908 -0.978945
vn 0.000000 -1.000000 0.000000
vn 0.000000 -1.000000 0.000000
vn 0.000000 -1.000000 0.000000
vn 0.000000 -1.000000 0.000000
vn 0.992316 0.010086 0.123314
vn 0.977654 -0.144594 0.152595
vn 0.985115 -0.165179 0.047592
vn 0.999777 -0.010499 0.018311
vn -0.056810 0.998085 -0.024484
vn -0.056810 0.998085 -0.024484
vn 0.213918 0.976851 -0.001086
vn 0.213918 0.976851 -0.001086
vn 0.237779 0.911018 -0.336908
vn 0.237779 0.911018 -0.336908
vn -0.032949 0.932252 -0.360306
vn -0.032949 0.932252 -0.360306
vn -0.213917 -0.976851 0.001086
vn -0.213917 -0.976851 0.001086
vn 0.056811 -0.998085 0.024485
vn 0.056811 -0.998085 0.024485
vn 0.032950 -0.932251 0.360308
vn 0.032950 -0.932251 0.360308
vn -0.237778 -0.911018 0.336909
vn -0.237778 -0.911018 0.336909
vn 0.086285 -0.256325 0.962732
vn 0.086285 -0.256325 0.962732
vn 0.086285 -0.256325 0.962732
vn 0.086285 -0.256325 0.962732
vn 0.904394 0.417576 -0.087763
vn 0.904394 0.417576 -0.087763
vn 0.904394 0.417576 -0.087763
vn 0.904394 0.417576 -0.087763
vn -0.884139 -0.457967 0.092542
vn -0.884139 -0.457967 0.092542
vn -0.884139 -0.457967 0.092542
vn -0.884139 -0.457967 0.092542
vn -0.084107 0.244556 -0.965980
vn -0.084107 0.244556 -0.965980
vn -0.084107 0.244556 -0.965980
vn -0.084107 0.244556 -0.965980
vn 0.037953 -0.121881 -0.991819
vn 0.037953 -0.121881 -0.991819
vn 0.037953 -0.121881 -0.991819
vn 0.037953 -0.121881 -0.991819
vn 0.995886 -0.082945 0.036491
vn 0.995886 -0.082945 0.036491
vn 0.995886 -0.082945 0.036491
vn 0.995886 -0.082945 0.036491
vn -0.995944 0.082264 -0.036437
vn -0.995944 0.082264 -0.036437
vn -0.995944 0.082264 -0.036437
vn -0.995944 0.082264 -0.036437
vn -0.035091 0.184483 0.982209
vn -0.035091 0.184483 0.982209
vn -0.035091 0.184483 0.982209
vn -0.035091 0.184483 0.982209
vn 0.471404 -0.832856 0.290051
vn 0.471404 -0.832856 0.290051
vn 0.471404 -0.832856 0.290051
vn 0.471404 -0.832856 0.290051
vn 0.640357 -0.767454 -0.030942
vn 0.640357 -0.767454 -0.030942
vn 0.640357 -0.767454 -0.030942
vn 0.640357 -0.767454 -0.030942
vn 0.237784 -0.970479 0.040375
vn 0.237784 -0.970479 0.040375
vn 0.237784 -0.970479 0.040375
vn 0.237784 -0.970479 0.040375
vn 0.392060 -0.876045 -0.280775
vn 0.392060 -0.876045 -0.280775
vn 0.392060 -0.876045 -0.280775
vn 0.392060 -0.876045 -0.280775
vn 0.137291 0.074731 0.987708
vn 0.137291 0.074731 0.987708
vn 0.137291 0.074731 0.987708
vn 0.137291 0.074731 0.987708
vn 0.845184 0.524499 -0.102788
vn 0.924081 0.368352 -0.101940
vn 0.909333 0.360325 -0.208035
vn 0.830437 0.516472 -0.208883
vn -0.137289 -0.074730 -0.987708
vn -0.137289 -0.074730 -0.987708
vn -0.137289 -0.074730 -0.987708
vn -0.137289 -0.074730 -0.987708
vn 0.988392 0.054497 0.141812
vn 0.966374 -0.177779 0.185782
vn 0.977578 -0.208690 0.028103
vn 0.999596 0.023586 -0.015867
vn -0.999596 -0.023579 0.015860
vn -0.977579 0.208683 -0.028107
vn -0.977579 0.208683 -0.028107
vn -0.999596 -0.023579 0.015860
vn -0.966376 0.177775 -0.185776
vn -0.966376 0.177775 -0.185776
vn -0.988393 -0.054487 -0.141809
vn -0.988393 -0.054487 -0.141809
vn 0.823200 0.562732 -0.075334
vn 0.941696 0.328213 -0.074060
vn 0.919547 0.316157 -0.233405
vn 0.801051 0.550675 -0.234678
vn -0.919545 -0.316167 0.233399
vn -0.941692 -0.328223 0.074066
vn -0.941692 -0.328223 0.074066
vn -0.919545 -0.316167 0.233399
vn -0.823205 -0.562724 0.075340
vn -0.823205 -0.562724 0.075340
vn -0.801058 -0.550668 0.234672
vn -0.801058 -0.550668 0.234672
vn 0.024304 0.080291 -0.996475
vn 0.024304 0.080291 -0.996475
vn 0.254403 0.085238 -0.963335
vn 0.254403 0.085238 -0.963335
vn -0.221090 -0.969852 -0.102503
vn -0.221090 -0.969852 -0.102503
vn -0.566451 -0.813783 -0.129961
vn -0.566451 -0.813783 -0.129961
vn 0.034449 0.180991 -0.982881
vn 0.034449 0.180991 -0.982881
vn 0.034449 0.180991 -0.982881
vn 0.034449 0.180991 -0.982881
vn 0.362047 0.909286 0.205234
vn 0.362047 0.909286 0.205234
vn 0.362047 0.909286 0.205234
vn 0.362047 0.909286 0.205234
vn -0.034449 -0.180991 0.982881
vn -0.034449 -0.180991 0.982881
vn -0.034449 -0.180991 0.982881
vn -0.034449 -0.180991 0.982881
vn 0.000000 -1.000000 0.000000
vn 0.000000 -1.000000 0.000000
vn 0.000000 -1.000000 0.000000
vn 0.000000 -1.000000 0.000000
vn -0.991513 0.110172 -0.069026
vn -0.994181 -0.045272 -0.097744
vn -0.997876 -0.064683 0.007675
vn -0.995208 0.090761 0.036393
vn 0.158561 0.987266 0.012846
vn 0.158561 0.987266 0.012846
vn -0.113805 0.993493 0.004446
vn -0.113805 0.993493 0.004446
vn -0.125622 0.931405 0.341620
vn -0.125622 0.931405 0.341620
vn 0.146743 0.925177 0.350020
vn 0.146743 0.925177 0.350020
vn 0.113803 -0.993493 -0.004446
vn 0.113803 -0.993493 -0.004446
vn -0.158561 -0.987266 -0.012846
vn -0.158561 -0.987266 -0.012846
vn -0.146744 -0.925177 -0.350019
vn -0.146744 -0.925177 -0.350019
vn 0.125621 -0.931405 -0.341620
vn 0.125621 -0.931405 -0.341620
vn -0.033629 0.065327 -0.997297
vn -0.033629 0.065327 -0.997297
vn -0.033629 0.065327 -0.997297
vn -0.033629 0.065327 -0.997297
vn -0.905941 0.413759 0.089864
vn -0.905941 0.413759 0.089864
vn -0.905941 0.413759 0.089864
vn -0.905941 0.413759 0.089864
vn 0.894585 -0.436743 -0.094726
vn 0.894585 -0.436743 -0.094726
vn 0.894585 -0.436743 -0.094726
vn 0.894585 -0.436743 -0.094726
vn 0.033873 -0.064055 0.997371
vn 0.033873 -0.064055 0.997371
vn 0.033873 -0.064055 0.997371
vn 0.033873 -0.064055 0.997371
vn -0.014532 0.073359 0.997200
vn -0.014532 0.073359 0.997200
vn -0.014532 0.073359 0.997200
vn -0.014532 0.073359 0.997200
vn -0.999879 -0.003960 -0.015036
vn -0.999879 -0.003960 -0.015036
vn -0.999879 -0.003960 -0.015036
vn -0.999879 -0.003960 -0.015036
vn 0.999879 0.004049 0.015043
vn 0.999879 0.004049 0.015043
vn 0.999879 0.004049 0.015043
vn 0.999879 0.004049 0.015043
vn 0.015392 -0.001749 -0.999880
vn 0.015392 -0.001749 -0.999880
vn 0.015392 -0.001749 -0.999880
vn 0.015392 -0.001749 -0.999880
vn -0.357727 -0.802712 -0.477163
vn -0.357727 -0.802712 -0.477163
vn -0.357727 -0.802712 -0.477163
vn -0.357727 -0.802712 -0.477163
vn -0.565070 -0.806820 -0.172443
vn -0.565070 -0.806820 -0.172443
vn -0.565070 -0.806820 -0.172443
vn -0.565070 -0.806820 -0.172443
vn -0.139921 -0.963746 -0.227190
vn -0.139921 -0.963746 -0.227190
vn -0.139921 -0.963746 -0.227190
vn -0.139921 -0.963746 -0.227190
vn -0.335477 -0.938278 0.084204
vn -0.335477 -0.938278 0.084204
vn -0.335477 -0.938278 0.084204
vn -0.335477 -0.938278 0.084204
vn -0.038499 0.234570 -0.971337
vn -0.038499 0.234570 -0.971337
vn -0.038499 0.234570 -0.971337
vn -0.038499 0.234570 -0.971337
vn -0.896843 0.434090 0.085083
vn -0.960183 0.275008 0.049177
vn -0.956048 0.249812 0.153513
vn -0.892707 0.408894 0.189419
vn 0.038501 -0.234570 0.971337
vn 0.038501 -0.234570 0.971337
vn 0.038501 -0.234570 0.971337
vn 0.038501 -0.234570 0.971337
vn -0.984152 0.153899 -0.088086
vn -0.988160 -0.079525 -0.131211
vn -0.993708 -0.108674 0.027092
vn -0.989701 0.124750 0.070216
vn 0.989701 -0.124750 -0.070216
vn 0.993708 0.108675 -0.027092
vn 0.993708 0.108675 -0.027092
vn 0.989701 -0.124750 -0.070216
vn 0.988160 0.079525 0.131211
vn 0.988160 0.079525 0.131211
vn 0.984152 -0.153900 0.088086
vn 0.984152 -0.153900 0.088086
vn -0.875770 0.478042 0.067110
vn -0.970902 0.239115 0.013182
vn -0.964691 0.201272 0.169887
vn -0.869559 0.440199 0.223815
vn 0.964688 -0.201285 -0.169885
vn 0.970899 -0.239125 -0.013193
vn 0.970899 -0.239125 -0.013193
vn 0.964688 -0.201285 -0.169885
vn 0.875775 -0.478031 -0.067115
vn 0.875775 -0.478031 -0.067115
vn 0.869565 -0.440190 -0.223808
vn 0.869565 -0.440190 -0.223808
vn -0.020744 0.001701 -0.999783
vn -0.020744 0.001701 -0.999783
vn 0.080477 0.090233 -0.992664
vn 0.080477 0.090233 -0.992664
vn 0.026159 0.999649 -0.004315
vn 0.214493 0.972338 0.092478
vn 0.214493 0.972338 0.092478
vn 0.026159 0.999649 -0.004315
vn 0.021116 -0.001720 0.999776
vn -0.080326 -0.090237 0.992676
vn -0.080326 -0.090237 0.992676
vn 0.021116 -0.001720 0.999776
vn -0.024702 -0.999686 0.004335
vn -0.213754 -0.972500 -0.092480
vn -0.213754 -0.972500 -0.092480
vn -0.024702 -0.999686 0.004335
vn 0.222318 0.969622 0.102020
vn 0.579859 0.804613 0.127910
vn 0.579859 0.804613 0.127910
vn 0.222318 0.969622 0.102020
vn -0.024745 -0.080168 0.996474
vn -0.255113 -0.085001 0.963168
vn -0.255113 -0.085001 0.963168
vn -0.024745 -0.080168 0.996474
vn 0.575058 -0.818064 -0.008963
vn 0.575058 -0.818064 -0.008963
vn 0.375433 -0.926169 -0.035531
vn 0.375433 -0.926169 -0.035531
vn 0.023800 0.008231 0.999683
vn 0.115969 -0.031540 0.992752
vn 0.115969 -0.031540 0.992752
vn 0.023800 0.008231 0.999683
vn -0.618005 0.786065 0.013132
vn -0.406416 0.912904 0.037851
vn -0.406416 0.912904 0.037851
vn -0.618005 0.786065 0.013132
vn -0.022672 -0.007963 -0.999711
vn -0.022672 -0.007963 -0.999711
vn -0.115481 0.031682 -0.992804
vn -0.115481 0.031682 -0.992804
vn 0.165482 -0.981032 0.100952
vn 0.165482 -0.981032 0.100952
vn 0.122175 0.086828 0.988703
vn 0.122175 0.086828 0.988703
vn -0.163367 0.981391 -0.100912
vn -0.163367 0.981391 -0.100912
vn -0.121590 -0.086862 -0.988773
vn -0.121590 -0.086862 -0.988773
usemtl lambert4SG
f 4/1/1 3/2/2 1/3/3 2/4/4
f 31/5/5 29/6/6 30/7/7 32/8/8
f 8/9/9 7/10/10 5/11/11 6/12/12
f 23/13/13 21/14/14 22/15/15 24/16/16
f 34/17/17 33/18/18 35/19/19 36/20/20
f 9/25/21 3/2/22 4/1/23 10/28/24
f 10/28/24 4/1/23 6/12/25 12/32/26
f 11/29/27 5/11/28 3/2/22 9/25/21
f 12/32/26 6/12/25 5/11/28 11/29/27
f 13/33/29 7/10/30 8/9/31 14/36/32
f 14/36/32 8/9/31 2/39/33 16/40/34
f 15/37/35 1/38/36 7/10/30 13/33/29
f 16/40/34 2/39/33 1/38/36 15/37/35
f 17/41/37 9/42/38 10/43/39 18/44/40
f 18/45/41 10/46/42 12/47/43 20/48/44
f 19/49/45 11/50/46 9/42/47 17/41/48
f 20/48/49 12/47/50 11/50/51 19/49/52
f 21/14/53 13/58/54 14/59/55 22/60/56
f 22/60/57 14/59/58 16/63/59 24/64/60
f 21/14/61 23/13/62 15/67/63 13/58/64
f 23/13/65 24/70/66 16/71/67 15/67/68
f 25/73/69 17/74/70 18/75/71 26/76/72
f 26/76/73 18/75/74 20/79/75 28/80/76
f 27/77/77 19/78/78 17/74/79 25/73/80
f 28/80/81 20/79/82 19/78/83 27/77/84
f 29/6/85 25/82/86 26/83/87 30/7/88
f 42/85/89 41/86/90 43/87/91 44/88/92
f 31/5/93 32/8/94 28/80/95 27/77/96
f 4/1/97 2/22/98 33/18/18 34/17/17
f 2/22/98 8/23/99 35/19/19 33/18/18
f 8/23/99 6/12/100 36/20/20 35/19/19
f 6/12/100 4/1/97 34/17/17 36/20/20
f 1/97/101 3/2/102 38/99/103 37/100/104
f 3/2/102 5/11/105 39/102/106 38/99/103
f 5/11/105 7/103/107 40/104/108 39/102/106
f 7/103/107 1/97/101 37/100/104 40/104/108
f 30/7/109 26/90/110 41/86/90 42/85/89
f 26/90/110 28/91/111 43/87/91 41/86/90
f 28/91/111 32/8/112 44/88/92 43/87/91
f 32/8/112 30/7/109 42/85/89 44/88/92
f 29/6/113 31/5/114 46/107/115 45/108/116
f 31/5/114 27/109/117 47/110/118 46/107/115
f 27/109/117 25/111/119 48/112/120 47/110/118
f 25/111/119 29/6/113 45/108/116 48/112/120
f 108/191/121 105/187/122 96/115/123 93/98/124
f 105/187/125 106/189/126 95/119/127 96/115/128
f 52/121/129 51/122/130 49/123/131 50/124/132
f 79/125/133 77/126/134 78/127/135 80/128/136
f 56/129/137 55/130/138 53/131/139 54/132/140
f 71/133/141 69/134/142 70/135/143 72/136/144
f 82/137/145 81/138/146 83/139/147 84/140/148
f 57/145/149 51/122/150 52/121/151 58/148/152
f 58/148/152 52/121/151 54/132/153 60/152/154
f 59/149/155 53/131/156 51/122/150 57/145/149
f 60/152/154 54/132/153 53/131/156 59/149/155
f 61/153/157 55/154/158 56/155/159 62/156/160
f 62/156/160 56/155/159 50/124/161 64/160/162
f 63/157/163 49/123/164 55/154/158 61/153/157
f 64/160/162 50/124/161 49/123/164 63/157/163
f 65/161/165 57/162/166 58/163/167 66/164/168
f 66/164/169 58/163/170 60/167/171 68/168/172
f 67/169/173 59/170/174 57/162/175 65/161/176
f 68/173/177 60/174/178 59/170/179 67/169/180
f 69/134/181 61/117/182 62/92/183 70/89/184
f 70/120/185 62/144/186 64/141/187 72/81/188
f 69/134/189 71/133/190 63/31/191 61/117/192
f 71/133/193 72/81/194 64/141/195 63/31/196
f 73/56/197 65/55/198 66/52/199 74/51/200
f 74/51/201 66/52/202 68/172/203 76/171/204
f 75/176/205 67/175/206 65/55/207 73/56/208
f 76/171/209 68/172/210 67/175/211 75/176/212
f 77/126/213 73/56/214 74/51/215 78/127/216
f 90/62/217 89/61/218 91/54/219 92/165/220
f 79/125/221 80/128/222 76/53/223 75/166/224
f 52/121/225 50/142/226 81/138/146 82/137/145
f 50/142/226 56/143/227 83/139/147 81/138/146
f 56/143/227 54/132/228 84/140/148 83/139/147
f 54/132/228 52/121/225 82/137/145 84/140/148
f 49/159/229 51/122/230 86/158/231 85/151/232
f 51/122/230 53/131/233 87/150/234 86/158/231
f 53/131/233 55/147/235 88/146/236 87/150/234
f 55/147/235 49/159/229 85/151/232 88/146/236
f 78/127/237 74/65/238 89/61/218 90/62/217
f 74/65/238 76/72/239 91/54/219 89/61/218
f 76/72/239 80/128/240 92/165/220 91/54/219
f 80/128/240 78/127/237 90/62/217 92/165/220
f 77/126/241 79/125/242 94/96/243 93/95/244
f 79/125/242 75/106/245 95/105/246 94/96/243
f 75/106/245 73/94/247 96/93/248 95/105/246
f 73/94/247 77/126/241 93/95/244 96/93/248
f 104/186/249 101/182/250 85/35/251 86/84/252
f 104/186/253 86/84/254 87/30/255 103/185/256
f 103/185/257 87/30/258 88/69/259 102/183/260
f 102/184/261 88/113/262 85/35/263 101/182/264
f 108/191/265 93/98/266 94/26/267 107/190/268
f 107/190/269 94/26/270 95/24/271 106/188/272
f 47/114/273 48/118/274 98/179/275 97/177/276
f 45/27/277 99/180/278 98/178/279 48/21/280
f 46/101/281 100/181/282 99/180/283 45/27/284
f 46/101/285 47/114/286 97/177/287 100/181/288
f 37/57/289 102/184/261 101/182/264 40/34/290
f 38/116/291 103/185/257 102/183/260 37/68/292
f 39/66/293 104/186/253 103/185/256 38/116/294
f 40/34/295 101/182/250 104/186/249 39/66/296
f 97/177/276 98/179/275 106/189/126 105/187/125
f 99/180/278 107/190/269 106/188/272 98/178/279
f 100/181/282 108/191/265 107/190/268 99/180/283
f 100/181/288 97/177/287 105/187/122 108/191/121
