# This file uses centimeters as units for non-parametric coordinates.

v -0.688698 -0.001502 -0.688698
v 0.000000 -0.001502 -0.957323
v 0.688698 -0.001502 -0.688698
v -0.350870 -2.983969 -0.350870
v 0.000000 -2.780010 -0.487726
v 0.350870 -2.819012 -0.350870
v -0.315251 -3.261667 -0.315251
v 0.000000 -4.088415 -0.310628
v 0.315251 -3.261667 -0.315251
v -0.310628 -4.088415 0.000000
v 0.000000 -4.528594 0.000000
v 0.310628 -3.607701 0.000000
v -0.315251 -3.261667 0.315251
v -0.135785 -4.088415 0.310628
v 0.315251 -3.261667 0.315251
v -0.350870 -2.983969 0.350870
v -0.135785 -2.983969 0.487726
v 0.350870 -2.983969 0.350870
v -0.688698 -0.001502 0.688698
v 0.000000 -0.001502 0.957323
v 0.688698 -0.001502 0.688698
v -0.957323 -0.001502 0.000000
v 0.000000 -0.001502 0.000000
v 0.957323 -0.001502 0.000000
v 0.585775 -2.983969 0.000000
v -0.487726 -2.983969 0.000000
v 0.389189 -2.645681 0.389189
v 0.000000 -2.645681 0.540991
v -0.301116 -2.645681 0.406664
v -0.685294 -2.645681 0.105931
v -0.533492 -2.645681 -0.389189
v 0.000000 -2.441722 -0.540991
v 0.389189 -2.480725 -0.389189
v 0.639040 -2.645681 0.000000
v 0.436621 -2.226928 0.436621
v 0.000000 -2.226928 0.606924
v -0.348548 -2.226928 0.348166
v -0.606924 -2.377375 0.105406
v -0.436621 -2.377375 -0.331215
v 0.095213 -2.226928 -0.711598
v 0.531835 -2.226928 -0.541295
v 0.606924 -2.226928 0.000000
v 0.377959 -1.747917 0.381206
v -0.012895 -1.747917 0.884359
v -0.490879 -1.747917 0.490879
v -0.682346 -1.511920 0.000000
v -0.490879 -1.511920 -0.490879
v 0.000000 -1.747917 -0.682346
v 0.490879 -1.747917 -0.490879
v 0.785028 -1.747917 0.000000
v 0.563449 -1.161456 0.549197
v -0.012895 -1.161456 0.976699
v -0.557309 -1.161456 0.557309
v -0.470005 -1.161456 0.013549
v -0.377352 -1.161456 -0.557309
v 0.000000 -0.969318 -0.774686
v 0.557309 -0.969318 -0.557309
v 0.877368 -1.161456 0.000000
v 0.570877 -0.529302 0.730475
v 0.000000 -0.529302 0.874220
v -0.628913 -0.529302 0.628913
v -0.844865 -0.529302 0.013549
v -0.724283 -0.529302 -0.628913
v 0.030984 -0.529302 -1.102431
v 0.659897 -0.529302 -0.857125
v 0.697123 -0.529302 0.000000
vt 0.375000 0.000000
vt 0.500000 0.000000
vt 0.625000 0.000000
vt 0.375000 0.125000
vt 0.500000 0.125000
vt 0.625000 0.125000
vt 0.375000 0.250000
vt 0.500000 0.250000
vt 0.625000 0.250000
vt 0.375000 0.375000
vt 0.500000 0.375000
vt 0.625000 0.375000
vt 0.375000 0.500000
vt 0.500000 0.500000
vt 0.625000 0.500000
vt 0.375000 0.625000
vt 0.500000 0.625000
vt 0.625000 0.625000
vt 0.375000 0.750000
vt 0.500000 0.750000
vt 0.625000 0.750000
vt 0.375000 0.875000
vt 0.500000 0.875000
vt 0.625000 0.875000
vt 0.375000 1.000000
vt 0.500000 1.000000
vt 0.625000 1.000000
vt 0.875000 0.000000
vt 0.750000 0.000000
vt 0.875000 0.125000
vt 0.750000 0.125000
vt 0.875000 0.250000
vt 0.750000 0.250000
vt 0.125000 0.000000
vt 0.250000 0.000000
vt 0.125000 0.125000
vt 0.250000 0.125000
vt 0.125000 0.250000
vt 0.250000 0.250000
vt 0.625000 0.639178
vt 0.875000 0.110822
vt 0.500000 0.639178
vt 0.125000 0.110822
vt 0.375000 0.639178
vt 0.250000 0.110822
vt 0.375000 0.110822
vt 0.500000 0.110822
vt 0.625000 0.110822
vt 0.750000 0.110822
vt 0.625000 0.656729
vt 0.875000 0.093271
vt 0.500000 0.656729
vt 0.125000 0.093271
vt 0.375000 0.656729
vt 0.250000 0.093271
vt 0.375000 0.093271
vt 0.500000 0.093271
vt 0.625000 0.093271
vt 0.750000 0.093271
vt 0.625000 0.676805
vt 0.875000 0.073195
vt 0.500000 0.676805
vt 0.125000 0.073195
vt 0.375000 0.676805
vt 0.250000 0.073195
vt 0.375000 0.073195
vt 0.500000 0.073195
vt 0.625000 0.073195
vt 0.750000 0.073195
vt 0.625000 0.701384
vt 0.875000 0.048616
vt 0.500000 0.701384
vt 0.125000 0.048616
vt 0.375000 0.701384
vt 0.250000 0.048616
vt 0.375000 0.048616
vt 0.500000 0.048616
vt 0.625000 0.048616
vt 0.750000 0.048616
vt 0.625000 0.727879
vt 0.875000 0.022121
vt 0.500000 0.727879
vt 0.125000 0.022121
vt 0.375000 0.727879
vt 0.250000 0.022121
vt 0.375000 0.022121
vt 0.500000 0.022121
vt 0.625000 0.022121
vt 0.750000 0.022121
vn -0.333743 -0.113883 -0.935760
vn -0.016421 -0.274730 -0.961381
vn 0.036497 -0.154560 -0.987309
vn -0.268206 -0.161785 -0.949680
vn 0.312027 -0.403631 -0.860071
vn 0.337383 -0.132795 -0.931954
vn 0.009048 -0.133870 -0.990958
vn -0.311306 -0.133183 -0.940931
vn 0.328450 -0.120484 -0.936805
vn -0.667013 -0.331947 -0.667012
vn 0.161045 -0.515073 -0.841882
vn 0.098377 -0.995065 -0.012942
vn -0.909160 -0.397763 -0.123341
vn 0.868352 -0.312000 -0.385514
vn 0.924603 -0.365908 0.105927
vn -0.059911 -0.530735 0.845418
vn -0.825332 -0.320963 0.464553
vn 0.751937 -0.329223 0.571142
vn -0.565209 -0.139696 0.813034
vn -0.163319 -0.161651 0.973240
vn -0.124770 -0.140738 0.982153
vn -0.517106 -0.077726 0.852385
vn 0.269219 -0.153271 0.950804
vn 0.287965 -0.179076 0.940749
vn -0.087220 -0.110773 0.990011
vn -0.491424 -0.026037 0.870531
vn 0.333230 -0.175049 0.926453
vn 0.000000 1.000000 0.000000
vn 0.000000 1.000000 0.000000
vn 0.000000 1.000000 -0.000000
vn 0.000000 1.000000 0.000000
vn 0.000000 1.000000 0.000000
vn 0.000000 1.000000 -0.000000
vn 0.000000 1.000000 -0.000000
vn 0.000000 1.000000 -0.000000
vn 0.000000 1.000000 -0.000000
vn 0.986966 -0.160207 0.015214
vn 0.861597 -0.092622 0.499071
vn 0.837164 -0.225888 0.498127
vn 0.968078 -0.249515 -0.023807
vn 0.859543 -0.187055 -0.475601
vn 0.818566 -0.200877 -0.538143
vn 0.838894 -0.306969 0.449474
vn 0.946986 -0.320564 -0.021354
vn 0.833911 -0.259292 -0.487196
vn -0.717054 -0.108010 0.688599
vn -0.967781 -0.102551 0.229962
vn -0.952381 -0.292800 0.085075
vn -0.841585 -0.230719 0.488368
vn -0.943686 -0.066105 -0.324171
vn -0.893025 -0.302550 -0.333122
vn -0.986774 -0.162102 -0.000000
vn -0.917118 -0.150659 0.369048
vn -0.917118 -0.150659 -0.369048
vn 0.498566 -0.139952 0.855479
vn -0.029338 -0.215316 0.976104
vn -0.552693 -0.226096 0.802129
vn -0.768421 -0.029505 0.639264
vn -0.984069 0.042235 0.172697
vn -0.933411 0.102932 -0.343727
vn -0.465475 -0.087084 -0.880766
vn -0.089753 -0.194248 -0.976838
vn 0.335210 -0.274917 -0.901141
vn 0.921979 -0.173212 -0.346340
vn 0.987454 -0.126999 0.093840
vn 0.855041 -0.055286 0.515605
vn 0.649549 -0.196455 0.734501
vn 0.036388 -0.302121 0.952575
vn -0.596895 -0.275716 0.753457
vn -0.944843 -0.005208 0.327483
vn -0.997410 0.071216 0.010066
vn -0.940226 0.140233 -0.310338
vn -0.460563 -0.110919 -0.880669
vn -0.054838 -0.056167 -0.996914
vn 0.363368 0.009185 -0.931600
vn 0.895339 -0.120590 -0.428749
vn 0.981604 -0.167582 0.091483
vn 0.792737 -0.167603 0.586069
vn 0.566331 -0.164222 0.807651
vn 0.001589 -0.142183 0.989839
vn -0.557592 -0.071114 0.827064
vn -0.987564 -0.100337 0.121034
vn -0.995869 -0.080720 -0.041578
vn -0.974538 -0.056961 -0.216867
vn -0.430029 -0.257156 -0.865417
vn -0.052935 -0.333609 -0.941224
vn 0.339202 -0.358700 -0.869642
vn 0.920126 -0.061740 -0.386725
vn 0.995361 -0.086130 0.042875
vn 0.877226 -0.094066 0.470771
vn 0.378599 -0.067469 0.923098
vn -0.026677 -0.077183 0.996660
vn -0.428425 -0.073768 0.900561
vn -0.940419 -0.253905 0.226150
vn -0.958780 -0.284111 0.004600
vn -0.928119 -0.300134 -0.220261
vn -0.451861 -0.180366 -0.873664
vn -0.067100 -0.194772 -0.978551
vn 0.357737 -0.175609 -0.917162
vn 0.969013 -0.115515 -0.218334
vn 0.991828 -0.121786 0.038011
vn 0.947833 -0.119901 0.295357
vn 0.310337 -0.071749 0.947915
vn -0.026130 -0.115189 0.993000
vn -0.359536 -0.145136 0.921775
vn -0.924390 -0.165878 0.343494
vn -0.990373 -0.134261 0.033695
vn -0.956003 -0.089039 -0.279518
vn -0.455878 0.073681 -0.886987
vn -0.058087 0.187381 -0.980568
vn 0.350155 0.267366 -0.897723
vn 0.954412 -0.231168 -0.188836
vn 0.958982 -0.281472 0.033565
vn 0.913673 -0.317135 0.254220
s 1
f 31/46/1 32/47/2 5/5/3 4/4/4
f 32/47/2 33/48/5 6/6/6 5/5/3
f 4/4/4 5/5/3 8/8/7 7/7/8
f 5/5/3 6/6/6 9/9/9 8/8/7
s 2
f 7/7/10 8/8/11 11/11/12 10/10/13
f 8/8/11 9/9/14 12/12/15 11/11/12
f 10/10/13 11/11/12 14/14/16 13/13/17
f 11/11/12 12/12/15 15/15/18 14/14/16
s 3
f 13/13/19 14/14/20 17/17/21 16/16/22
f 14/14/20 15/15/23 18/18/24 17/17/21
f 16/16/22 17/17/21 28/42/25 29/44/26
f 17/17/21 18/18/24 27/40/27 28/42/25
s 4
f 19/19/28 20/20/29 23/23/30 22/22/31
f 20/20/29 21/21/32 24/24/33 23/23/30
f 22/22/31 23/23/30 2/26/34 1/25/35
f 23/23/30 24/24/33 3/27/36 2/26/34
s 5
f 34/49/37 27/41/38 18/30/39 25/31/40
f 33/48/41 34/49/37 25/31/40 6/6/42
f 25/31/40 18/30/39 15/32/43 12/33/44
f 6/6/42 25/31/40 12/33/44 9/9/45
s 6
f 29/43/46 30/45/47 26/37/48 16/36/49
f 30/45/47 31/46/50 4/4/51 26/37/48
f 16/36/49 26/37/48 10/39/52 13/38/53
f 26/37/48 4/4/51 7/7/54 10/39/52
s 3
f 28/42/25 27/40/27 35/50/55 36/52/56
f 29/44/26 28/42/25 36/52/56 37/54/57
s 6
f 37/53/58 38/55/59 30/45/47 29/43/46
f 38/55/59 39/56/60 31/46/50 30/45/47
s 1
f 39/56/61 40/57/62 32/47/2 31/46/1
f 40/57/62 41/58/63 33/48/5 32/47/2
s 5
f 41/58/64 42/59/65 34/49/37 33/48/41
f 42/59/65 35/51/66 27/41/38 34/49/37
s 3
f 36/52/56 35/50/55 43/60/67 44/62/68
f 37/54/57 36/52/56 44/62/68 45/64/69
s 6
f 45/63/70 46/65/71 38/55/59 37/53/58
f 46/65/71 47/66/72 39/56/60 38/55/59
s 1
f 47/66/73 48/67/74 40/57/62 39/56/61
f 48/67/74 49/68/75 41/58/63 40/57/62
s 5
f 49/68/76 50/69/77 42/59/65 41/58/64
f 50/69/77 43/61/78 35/51/66 42/59/65
s 3
f 44/62/68 43/60/67 51/70/79 52/72/80
f 45/64/69 44/62/68 52/72/80 53/74/81
s 6
f 53/73/82 54/75/83 46/65/71 45/63/70
f 54/75/83 55/76/84 47/66/72 46/65/71
s 1
f 55/76/85 56/77/86 48/67/74 47/66/73
f 56/77/86 57/78/87 49/68/75 48/67/74
s 5
f 57/78/88 58/79/89 50/69/77 49/68/76
f 58/79/89 51/71/90 43/61/78 50/69/77
s 3
f 52/72/80 51/70/79 59/80/91 60/82/92
f 53/74/81 52/72/80 60/82/92 61/84/93
s 6
f 61/83/94 62/85/95 54/75/83 53/73/82
f 62/85/95 63/86/96 55/76/84 54/75/83
s 1
f 63/86/97 64/87/98 56/77/86 55/76/85
f 64/87/98 65/88/99 57/78/87 56/77/86
s 5
f 65/88/100 66/89/101 58/79/89 57/78/88
f 66/89/101 59/81/102 51/71/90 58/79/89
s 3
f 60/82/92 59/80/91 21/21/103 20/20/104
f 61/84/93 60/82/92 20/20/104 19/19/105
s 6
f 19/34/106 22/35/107 62/85/95 61/83/94
f 22/35/107 1/1/108 63/86/96 62/85/95
s 1
f 1/1/109 2/2/110 64/87/98 63/86/97
f 2/2/110 3/3/111 65/88/99 64/87/98
s 5
f 3/3/112 24/29/113 66/89/101 65/88/100
f 24/29/113 21/28/114 59/81/102 66/89/101
