# This file uses centimeters as units for non-parametric coordinates.

v -0.688698 -0.001034 -0.688698
v 0.000000 -0.001034 -0.957323
v 0.688698 -0.001034 -0.688698
v -0.350870 -2.052914 -0.350870
v 0.000000 -2.052914 -0.487726
v 0.350870 -2.052914 -0.350870
v -0.315251 -2.243965 -0.315251
v 0.000000 -2.812752 -0.310628
v 0.315251 -2.243965 -0.315251
v -0.310628 -2.812752 0.000000
v 0.000000 -3.446309 0.000000
v 0.310628 -2.812752 0.000000
v -0.315251 -2.243965 0.315251
v 0.000000 -2.812752 0.310628
v 0.315251 -2.243965 0.315251
v -0.350870 -2.052914 0.350870
v 0.000000 -2.052914 0.487726
v 0.350870 -2.052914 0.350870
v -0.688698 -0.001034 0.688698
v 0.000000 -0.001034 0.957323
v 0.688698 -0.001034 0.688698
v -0.957323 -0.001034 -0.000000
v 0.000000 -0.001034 -0.000000
v 0.957323 -0.001034 -0.000000
v 0.487726 -2.052914 0.000000
v -0.487726 -2.052914 0.000000
v 0.389189 -1.820179 0.389189
v 0.000000 -1.820179 0.540991
v -0.389189 -1.820179 0.389189
v -0.540991 -1.820179 0.000000
v -0.389189 -1.820179 -0.389189
v 0.000000 -1.820179 -0.540991
v 0.389189 -1.820179 -0.389189
v 0.540991 -1.820179 0.000000
v 0.436621 -1.532085 0.436621
v 0.000000 -1.532085 0.606924
v -0.436621 -1.532085 0.436621
v -0.606924 -1.532085 0.000000
v -0.436621 -1.532085 -0.436621
v 0.000000 -1.532085 -0.606924
v 0.436621 -1.532085 -0.436621
v 0.606924 -1.532085 0.000000
v 0.490879 -1.202534 0.490879
v 0.000000 -1.202534 0.682346
v -0.490879 -1.202534 0.490879
v -0.682346 -1.202534 0.000000
v -0.490879 -1.202534 -0.490879
v 0.000000 -1.202534 -0.682346
v 0.490879 -1.202534 -0.490879
v 0.682346 -1.202534 0.000000
v 0.557309 -0.799060 0.557309
v 0.000000 -0.799060 0.774686
v -0.557309 -0.799060 0.557309
v -0.774686 -0.799060 -0.000000
v -0.557309 -0.799060 -0.557309
v 0.000000 -0.799060 -0.774686
v 0.557309 -0.799060 -0.557309
v 0.774686 -0.799060 -0.000000
v 0.628913 -0.364150 0.628913
v 0.000000 -0.364150 0.874220
v -0.628913 -0.364150 0.628913
v -0.874220 -0.364150 -0.000000
v -0.628913 -0.364150 -0.628913
v 0.000000 -0.364150 -0.874220
v 0.628913 -0.364150 -0.628913
v 0.874220 -0.364150 -0.000000
vt 0.375000 0.000000
vt 0.500000 0.000000
vt 0.625000 0.000000
vt 0.375000 0.125000
vt 0.500000 0.125000
vt 0.625000 0.125000
vt 0.375000 0.250000
vt 0.500000 0.250000
vt 0.625000 0.250000
vt 0.375000 0.375000
vt 0.500000 0.375000
vt 0.625000 0.375000
vt 0.375000 0.500000
vt 0.500000 0.500000
vt 0.625000 0.500000
vt 0.375000 0.625000
vt 0.500000 0.625000
vt 0.625000 0.625000
vt 0.375000 0.750000
vt 0.500000 0.750000
vt 0.625000 0.750000
vt 0.375000 0.875000
vt 0.500000 0.875000
vt 0.625000 0.875000
vt 0.375000 1.000000
vt 0.500000 1.000000
vt 0.625000 1.000000
vt 0.875000 0.000000
vt 0.750000 0.000000
vt 0.875000 0.125000
vt 0.750000 0.125000
vt 0.875000 0.250000
vt 0.750000 0.250000
vt 0.125000 0.000000
vt 0.250000 0.000000
vt 0.125000 0.125000
vt 0.250000 0.125000
vt 0.125000 0.250000
vt 0.250000 0.250000
vt 0.625000 0.639178
vt 0.875000 0.110822
vt 0.500000 0.639178
vt 0.125000 0.110822
vt 0.375000 0.639178
vt 0.250000 0.110822
vt 0.375000 0.110822
vt 0.500000 0.110822
vt 0.625000 0.110822
vt 0.750000 0.110822
vt 0.625000 0.656729
vt 0.875000 0.093271
vt 0.500000 0.656729
vt 0.125000 0.093271
vt 0.375000 0.656729
vt 0.250000 0.093271
vt 0.375000 0.093271
vt 0.500000 0.093271
vt 0.625000 0.093271
vt 0.750000 0.093271
vt 0.625000 0.676805
vt 0.875000 0.073195
vt 0.500000 0.676805
vt 0.125000 0.073195
vt 0.375000 0.676805
vt 0.250000 0.073195
vt 0.375000 0.073195
vt 0.500000 0.073195
vt 0.625000 0.073195
vt 0.750000 0.073195
vt 0.625000 0.701384
vt 0.875000 0.048616
vt 0.500000 0.701384
vt 0.125000 0.048616
vt 0.375000 0.701384
vt 0.250000 0.048616
vt 0.375000 0.048616
vt 0.500000 0.048616
vt 0.625000 0.048616
vt 0.750000 0.048616
vt 0.625000 0.727879
vt 0.875000 0.022121
vt 0.500000 0.727879
vt 0.125000 0.022121
vt 0.375000 0.727879
vt 0.250000 0.022121
vt 0.375000 0.022121
vt 0.500000 0.022121
vt 0.625000 0.022121
vt 0.750000 0.022121
vn -0.355395 -0.208529 -0.911159
vn -0.000000 -0.223094 -0.974797
vn 0.000000 -0.227665 -0.973739
vn -0.359942 -0.212406 -0.908474
vn 0.355395 -0.208529 -0.911159
vn 0.359942 -0.212406 -0.908474
vn 0.000000 -0.232249 -0.972656
vn -0.364474 -0.216273 -0.905751
vn 0.364474 -0.216273 -0.905751
vn -0.662995 -0.347670 -0.662995
vn 0.000000 -0.464413 -0.885619
vn 0.000000 -1.000000 0.000000
vn -0.885619 -0.464413 0.000000
vn 0.662995 -0.347670 -0.662995
vn 0.885619 -0.464413 0.000000
vn 0.000000 -0.464413 0.885619
vn -0.662995 -0.347670 0.662995
vn 0.662995 -0.347670 0.662995
vn -0.364474 -0.216273 0.905751
vn 0.000000 -0.232249 0.972656
vn 0.000000 -0.227665 0.973739
vn -0.359942 -0.212406 0.908474
vn 0.364474 -0.216273 0.905751
vn 0.359942 -0.212406 0.908474
vn 0.000000 -0.223094 0.974797
vn -0.355395 -0.208529 0.911159
vn 0.355395 -0.208529 0.911159
vn 0.000000 1.000000 0.000000
vn 0.000000 1.000000 0.000000
vn 0.000000 1.000000 0.000000
vn 0.000000 1.000000 0.000000
vn 0.000000 1.000000 0.000000
vn 0.000000 1.000000 0.000000
vn 0.000000 1.000000 -0.000000
vn 0.000000 1.000000 -0.000000
vn 0.000000 1.000000 -0.000000
vn 0.974797 -0.223094 -0.000000
vn 0.911159 -0.208529 0.355395
vn 0.908474 -0.212406 0.359942
vn 0.973739 -0.227665 0.000000
vn 0.911159 -0.208529 -0.355395
vn 0.908474 -0.212406 -0.359942
vn 0.905751 -0.216273 0.364474
vn 0.972656 -0.232249 0.000000
vn 0.905751 -0.216273 -0.364474
vn -0.911159 -0.208529 0.355395
vn -0.974797 -0.223094 0.000000
vn -0.973739 -0.227665 -0.000000
vn -0.908474 -0.212406 0.359942
vn -0.911159 -0.208529 -0.355395
vn -0.908474 -0.212406 -0.359942
vn -0.972656 -0.232249 -0.000000
vn -0.905751 -0.216273 0.364474
vn -0.905751 -0.216273 -0.364474
vn 0.355395 -0.208529 0.911159
vn 0.000000 -0.223094 0.974797
vn -0.355395 -0.208529 0.911159
vn -0.911159 -0.208529 0.355395
vn -0.974797 -0.223094 -0.000000
vn -0.911159 -0.208529 -0.355395
vn -0.355395 -0.208529 -0.911159
vn -0.000000 -0.223094 -0.974797
vn 0.355395 -0.208529 -0.911159
vn 0.911159 -0.208529 -0.355395
vn 0.974797 -0.223094 -0.000000
vn 0.911159 -0.208529 0.355395
vn 0.355395 -0.208529 0.911159
vn 0.000000 -0.223094 0.974797
vn -0.355395 -0.208529 0.911159
vn -0.911159 -0.208529 0.355395
vn -0.974797 -0.223094 -0.000000
vn -0.911159 -0.208529 -0.355395
vn -0.355395 -0.208529 -0.911159
vn 0.000000 -0.223094 -0.974797
vn 0.355395 -0.208529 -0.911159
vn 0.911159 -0.208529 -0.355395
vn 0.974797 -0.223094 -0.000000
vn 0.911159 -0.208529 0.355395
vn 0.355395 -0.208529 0.911159
vn 0.000000 -0.223094 0.974797
vn -0.355395 -0.208529 0.911159
vn -0.911159 -0.208529 0.355395
vn -0.974797 -0.223094 0.000000
vn -0.911159 -0.208529 -0.355395
vn -0.355395 -0.208529 -0.911159
vn 0.000000 -0.223094 -0.974797
vn 0.355395 -0.208529 -0.911158
vn 0.911159 -0.208529 -0.355395
vn 0.974797 -0.223094 0.000000
vn 0.911159 -0.208529 0.355395
vn 0.355395 -0.208529 0.911159
vn 0.000000 -0.223094 0.974797
vn -0.355395 -0.208529 0.911159
vn -0.911159 -0.208529 0.355395
vn -0.974797 -0.223094 0.000000
vn -0.911159 -0.208529 -0.355395
vn -0.355395 -0.208529 -0.911159
vn 0.000000 -0.223094 -0.974797
vn 0.355395 -0.208529 -0.911159
vn 0.911159 -0.208529 -0.355395
vn 0.974797 -0.223094 0.000000
vn 0.911159 -0.208529 0.355395
vn 0.355395 -0.208529 0.911159
vn 0.000000 -0.223094 0.974797
vn -0.355395 -0.208529 0.911159
vn -0.911159 -0.208529 0.355395
vn -0.974797 -0.223094 -0.000000
vn -0.911158 -0.208529 -0.355395
vn -0.355395 -0.208529 -0.911159
vn 0.000000 -0.223094 -0.974797
vn 0.355395 -0.208529 -0.911159
vn 0.911159 -0.208529 -0.355395
vn 0.974797 -0.223094 0.000000
vn 0.911158 -0.208529 0.355395
s 1
f 31/46/1 32/47/2 5/5/3 4/4/4
f 32/47/2 33/48/5 6/6/6 5/5/3
f 4/4/4 5/5/3 8/8/7 7/7/8
f 5/5/3 6/6/6 9/9/9 8/8/7
s 2
f 7/7/10 8/8/11 11/11/12 10/10/13
f 8/8/11 9/9/14 12/12/15 11/11/12
f 10/10/13 11/11/12 14/14/16 13/13/17
f 11/11/12 12/12/15 15/15/18 14/14/16
s 3
f 13/13/19 14/14/20 17/17/21 16/16/22
f 14/14/20 15/15/23 18/18/24 17/17/21
f 16/16/22 17/17/21 28/42/25 29/44/26
f 17/17/21 18/18/24 27/40/27 28/42/25
s 4
f 19/19/28 20/20/29 23/23/30 22/22/31
f 20/20/29 21/21/32 24/24/33 23/23/30
f 22/22/31 23/23/30 2/26/34 1/25/35
f 23/23/30 24/24/33 3/27/36 2/26/34
s 5
f 34/49/37 27/41/38 18/30/39 25/31/40
f 33/48/41 34/49/37 25/31/40 6/6/42
f 25/31/40 18/30/39 15/32/43 12/33/44
f 6/6/42 25/31/40 12/33/44 9/9/45
s 6
f 29/43/46 30/45/47 26/37/48 16/36/49
f 30/45/47 31/46/50 4/4/51 26/37/48
f 16/36/49 26/37/48 10/39/52 13/38/53
f 26/37/48 4/4/51 7/7/54 10/39/52
s 3
f 28/42/25 27/40/27 35/50/55 36/52/56
f 29/44/26 28/42/25 36/52/56 37/54/57
s 6
f 37/53/58 38/55/59 30/45/47 29/43/46
f 38/55/59 39/56/60 31/46/50 30/45/47
s 1
f 39/56/61 40/57/62 32/47/2 31/46/1
f 40/57/62 41/58/63 33/48/5 32/47/2
s 5
f 41/58/64 42/59/65 34/49/37 33/48/41
f 42/59/65 35/51/66 27/41/38 34/49/37
s 3
f 36/52/56 35/50/55 43/60/67 44/62/68
f 37/54/57 36/52/56 44/62/68 45/64/69
s 6
f 45/63/70 46/65/71 38/55/59 37/53/58
f 46/65/71 47/66/72 39/56/60 38/55/59
s 1
f 47/66/73 48/67/74 40/57/62 39/56/61
f 48/67/74 49/68/75 41/58/63 40/57/62
s 5
f 49/68/76 50/69/77 42/59/65 41/58/64
f 50/69/77 43/61/78 35/51/66 42/59/65
s 3
f 44/62/68 43/60/67 51/70/79 52/72/80
f 45/64/69 44/62/68 52/72/80 53/74/81
s 6
f 53/73/82 54/75/83 46/65/71 45/63/70
f 54/75/83 55/76/84 47/66/72 46/65/71
s 1
f 55/76/85 56/77/86 48/67/74 47/66/73
f 56/77/86 57/78/87 49/68/75 48/67/74
s 5
f 57/78/88 58/79/89 50/69/77 49/68/76
f 58/79/89 51/71/90 43/61/78 50/69/77
s 3
f 52/72/80 51/70/79 59/80/91 60/82/92
f 53/74/81 52/72/80 60/82/92 61/84/93
s 6
f 61/83/94 62/85/95 54/75/83 53/73/82
f 62/85/95 63/86/96 55/76/84 54/75/83
s 1
f 63/86/97 64/87/98 56/77/86 55/76/85
f 64/87/98 65/88/99 57/78/87 56/77/86
s 5
f 65/88/100 66/89/101 58/79/89 57/78/88
f 66/89/101 59/81/102 51/71/90 58/79/89
s 3
f 60/82/92 59/80/91 21/21/103 20/20/104
f 61/84/93 60/82/92 20/20/104 19/19/105
s 6
f 19/34/106 22/35/107 62/85/95 61/83/94
f 22/35/107 1/1/108 63/86/96 62/85/95
s 1
f 1/1/109 2/2/110 64/87/98 63/86/97
f 2/2/110 3/3/111 65/88/99 64/87/98
s 5
f 3/3/112 24/29/113 66/89/101 65/88/100
f 24/29/113 21/28/114 59/81/102 66/89/101
