# This file uses centimeters as units for non-parametric coordinates.

v -0.153224 -6.646091 1.194084
v 0.153224 -6.646091 1.194084
v -0.153224 6.646091 1.194084
v 0.153224 6.646091 1.194084
v -0.153224 6.646091 -1.194084
v 0.153224 6.646091 -1.194084
v -0.153224 -6.646091 -1.194084
v 0.153224 -6.646091 -1.194084
v -0.153224 -6.646091 1.505113
v 0.153224 -6.646091 1.505113
v 0.153224 6.646091 1.505113
v -0.153224 6.646091 1.505113
v -0.153224 6.646091 -1.505113
v 0.153224 6.646091 -1.505113
v 0.153224 -6.646091 -1.505113
v -0.153224 -6.646091 -1.505113
v 1.179753 -6.646091 1.194084
v 1.179753 6.646091 1.194084
v 1.179753 6.646091 1.505113
v 1.179753 -6.646091 1.505113
v -1.179753 -6.646091 1.194084
v -1.179753 6.646091 1.194084
v -1.179753 -6.646091 1.505113
v -1.179753 6.646091 1.505113
v 1.179753 6.646091 -1.194084
v 1.179753 -6.646091 -1.194084
v 1.179753 -6.646091 -1.505113
v 1.179753 6.646091 -1.505113
v -1.179753 6.646091 -1.194084
v -1.179753 -6.646091 -1.194084
v -1.179753 6.646091 -1.505113
v -1.179753 -6.646091 -1.505113
vt 0.308564 0.010334
vt 0.327232 0.010334
vt 0.327232 0.820057
vt 0.308564 0.820057
vt 0.389765 0.010334
vt 0.389765 0.820057
vt 0.246031 0.820057
vt 0.246031 0.010334
vt 0.533057 0.923832
vt 0.533057 0.905164
vt 0.678537 0.905164
vt 0.678538 0.923832
vt 0.514110 0.923831
vt 0.514110 0.905164
vt 0.697485 0.905164
vt 0.697485 0.923831
vt 0.533057 0.986365
vt 0.514110 0.986365
vt 0.514111 0.842630
vt 0.533058 0.842631
vt 0.678538 0.842631
vt 0.697485 0.842631
vt 0.697485 0.986365
vt 0.678538 0.986365
vt 0.820672 0.010334
vt 0.839339 0.010334
vt 0.839339 0.820057
vt 0.820672 0.820057
vt 0.901873 0.010334
vt 0.901873 0.820057
vt 0.758138 0.820057
vt 0.758138 0.010334
vt 0.300300 0.923832
vt 0.300300 0.905164
vt 0.445780 0.905164
vt 0.445780 0.923832
vt 0.281353 0.923832
vt 0.281353 0.905164
vt 0.464728 0.905164
vt 0.464728 0.923832
vt 0.300300 0.986365
vt 0.281353 0.986365
vt 0.281353 0.842630
vt 0.300300 0.842630
vt 0.445780 0.842630
vt 0.464728 0.842630
vt 0.464727 0.986365
vt 0.445781 0.986365
vt 0.471246 0.010334
vt 0.616726 0.010334
vt 0.616726 0.820057
vt 0.471245 0.820057
vt 0.019069 0.010334
vt 0.164550 0.010334
vt 0.164550 0.820057
vt 0.019069 0.820057
vt 0.408713 0.010334
vt 0.408712 0.820057
vt 0.920819 0.010334
vt 0.920820 0.820057
vt 0.227083 0.820057
vt 0.227083 0.010334
vt 0.983354 0.820057
vt 0.983352 0.010334
vt 0.676658 0.820057
vt 0.676658 0.010334
vt 0.739192 0.820057
vt 0.739191 0.010334
vn 0.000000 0.000000 1.000000
vn 0.000000 0.000000 1.000000
vn 0.000000 0.000000 1.000000
vn 0.000000 0.000000 1.000000
vn 0.000000 1.000000 0.000000
vn 0.000000 1.000000 0.000000
vn 0.000000 1.000000 0.000000
vn 0.000000 1.000000 0.000000
vn 0.000000 0.000000 -1.000000
vn 0.000000 0.000000 -1.000000
vn 0.000000 0.000000 -1.000000
vn 0.000000 0.000000 -1.000000
vn 0.000000 -1.000000 0.000000
vn 0.000000 -1.000000 0.000000
vn 0.000000 -1.000000 0.000000
vn 0.000000 -1.000000 0.000000
vn 1.000000 0.000000 0.000000
vn 1.000000 0.000000 0.000000
vn 1.000000 0.000000 0.000000
vn 1.000000 0.000000 0.000000
vn -1.000000 0.000000 0.000000
vn -1.000000 0.000000 0.000000
vn -1.000000 0.000000 0.000000
vn -1.000000 0.000000 0.000000
vn 0.000000 -1.000000 0.000000
vn 0.000000 -1.000000 0.000000
vn 1.000000 0.000000 0.000000
vn 1.000000 0.000000 0.000000
vn 1.000000 0.000000 0.000000
vn 1.000000 0.000000 0.000000
vn 0.000000 1.000000 0.000000
vn 0.000000 1.000000 0.000000
vn -1.000000 0.000000 0.000000
vn -1.000000 0.000000 0.000000
vn -1.000000 0.000000 0.000000
vn -1.000000 0.000000 0.000000
vn 0.000000 1.000000 0.000000
vn 0.000000 1.000000 0.000000
vn 1.000000 0.000000 0.000000
vn 1.000000 0.000000 0.000000
vn 1.000000 0.000000 0.000000
vn 1.000000 0.000000 0.000000
vn 0.000000 -1.000000 0.000000
vn 0.000000 -1.000000 0.000000
vn -1.000000 0.000000 0.000000
vn -1.000000 0.000000 0.000000
vn -1.000000 0.000000 0.000000
vn -1.000000 0.000000 0.000000
vn 0.000000 0.000000 -1.000000
vn 0.000000 0.000000 -1.000000
vn 0.000000 0.000000 -1.000000
vn 0.000000 0.000000 -1.000000
vn 0.000000 1.000000 0.000000
vn 0.000000 1.000000 0.000000
vn 0.000000 0.000000 1.000000
vn 0.000000 0.000000 1.000000
vn 0.000000 -1.000000 0.000000
vn 0.000000 -1.000000 0.000000
vn 0.000000 0.000000 -1.000000
vn 0.000000 0.000000 -1.000000
vn 0.000000 0.000000 -1.000000
vn 0.000000 0.000000 -1.000000
vn 0.000000 -1.000000 0.000000
vn 0.000000 -1.000000 0.000000
vn 0.000000 0.000000 1.000000
vn 0.000000 0.000000 1.000000
vn 0.000000 1.000000 0.000000
vn 0.000000 1.000000 0.000000
vn 0.000000 0.000000 1.000000
vn 0.000000 0.000000 1.000000
vn 0.000000 0.000000 1.000000
vn 0.000000 0.000000 1.000000
vn 0.000000 -1.000000 0.000000
vn 0.000000 -1.000000 0.000000
vn 0.000000 0.000000 -1.000000
vn 0.000000 0.000000 -1.000000
vn 0.000000 1.000000 0.000000
vn 0.000000 1.000000 0.000000
vn 0.000000 0.000000 1.000000
vn 0.000000 0.000000 1.000000
vn 0.000000 0.000000 1.000000
vn 0.000000 0.000000 1.000000
vn 0.000000 1.000000 0.000000
vn 0.000000 1.000000 0.000000
vn 0.000000 0.000000 -1.000000
vn 0.000000 0.000000 -1.000000
vn 0.000000 -1.000000 0.000000
vn 0.000000 -1.000000 0.000000
s 1
f 9/1/1 10/2/2 11/3/3 12/4/4
s 2
f 3/9/5 4/10/6 6/11/7 5/12/8
s 3
f 13/25/9 14/26/10 15/27/11 16/28/12
s 4
f 7/33/13 8/34/14 2/35/15 1/36/16
s off
f 2/49/17 8/50/18 6/51/19 4/52/20
f 7/53/21 1/54/22 3/55/23 5/56/24
s 4
f 1/36/16 2/35/15 10/39/25 9/40/26
s off
f 17/57/27 18/58/28 19/6/29 20/5/30
s 2
f 4/10/6 3/9/5 12/13/31 11/14/32
s off
f 22/61/33 21/62/34 23/8/35 24/7/36
s 2
f 5/12/8 6/11/7 14/15/37 13/16/38
s off
f 25/59/39 26/60/40 27/30/41 28/29/42
s 4
f 8/34/14 7/33/13 16/37/43 15/38/44
s off
f 30/67/45 29/68/46 31/32/47 32/31/48
f 2/49/49 4/52/50 18/58/51 17/57/52
s 2
f 4/10/6 11/14/32 19/19/53 18/20/54
s 1
f 11/3/3 10/2/2 20/5/55 19/6/56
s 4
f 10/39/25 2/35/15 17/45/57 20/46/58
s off
f 3/55/59 1/54/60 21/62/61 22/61/62
s 4
f 1/36/16 9/40/26 23/47/63 21/48/64
s 1
f 9/1/1 12/4/4 24/7/65 23/8/66
s 2
f 12/13/31 3/9/5 22/17/67 24/18/68
s off
f 6/64/69 8/63/70 26/60/71 25/59/72
s 4
f 8/34/14 15/38/44 27/43/73 26/44/74
s 3
f 15/27/11 14/26/10 28/29/75 27/30/76
s 2
f 14/15/37 6/11/7 25/21/77 28/22/78
s off
f 7/65/79 5/66/80 29/68/81 30/67/82
s 2
f 5/12/8 13/16/38 31/23/83 29/24/84
s 3
f 13/25/9 16/28/12 32/31/85 31/32/86
s 4
f 16/37/43 7/33/13 30/41/87 32/42/88
