# This file uses centimeters as units for non-parametric coordinates.

v -0.374642 -0.374644 0.374647
v 0.000001 -0.374644 0.526876
v 0.374644 -0.374644 0.374647
v -0.374642 0.374644 0.374647
v 0.000001 0.374644 0.526876
v 0.374644 0.374644 0.374647
v -0.526874 0.374644 0.000002
v 0.526875 0.374644 0.000002
v -0.374642 0.374644 -0.374643
v 0.000001 0.374644 -0.526873
v 0.374644 0.374644 -0.374643
v -0.374642 -0.374644 -0.374643
v 0.000001 -0.374644 -0.526873
v 0.374644 -0.374644 -0.374643
v -0.526874 -0.374644 0.000002
v 0.526875 -0.374644 0.000002
v -0.374642 0.050941 0.374647
v -0.526874 -0.240447 0.000002
v -0.374642 0.050941 -0.374643
v 0.000001 -0.240447 -0.526873
v 0.374644 0.050941 -0.374643
v 0.526875 -0.240447 0.000002
v 0.374644 0.050941 0.374647
v 0.000001 -0.240447 0.526876
v 0.000001 -0.069539 0.526876
v 0.374644 0.240447 0.374647
v 0.526875 -0.069539 0.000002
v 0.374644 0.240447 -0.374643
v 0.000001 -0.069539 -0.526873
v -0.374642 0.240447 -0.374643
v -0.526874 -0.069539 0.000002
v -0.374642 0.240447 0.374647
v -0.904681 0.159552 -1.679094
v 0.362071 -0.099241 -1.871790
v -0.904681 0.228936 -1.679094
v 0.362071 -0.026390 -1.871790
v 1.871797 -0.099241 0.362070
v 1.871797 -0.026390 0.362070
v 1.679095 0.159552 -0.904684
v 1.679095 0.228936 -0.904684
v -0.362071 -0.026390 1.871794
v 0.904683 0.228936 1.679098
v -0.362071 -0.099241 1.871794
v 0.904683 0.159552 1.679098
v -1.871793 -0.026390 -0.362066
v -1.679095 0.228936 0.904692
v -1.871793 -0.099241 -0.362066
v -1.679095 0.159552 0.904692
v -1.532632 0.153941 -2.573606
v 0.211881 -0.099241 -2.987368
v -1.532632 0.228936 -2.573606
v 0.211881 -0.026390 -2.987368
v 2.987382 -0.099241 0.211874
v 2.987382 -0.026390 0.211874
v 2.573607 0.153941 -1.532637
v 2.573607 0.228936 -1.532637
v -0.211879 -0.026390 2.987375
v 1.532634 0.228936 2.573610
v -0.211879 -0.099241 2.987375
v 1.532634 0.153941 2.573610
v -2.987380 -0.026390 -0.211870
v -2.573607 0.228936 1.532644
v -2.987380 -0.099241 -0.211870
v -2.573607 0.153941 1.532644
v -1.731610 0.049502 -3.086390
v -0.819409 0.049502 -3.442553
v -1.731610 0.116972 -3.086390
v -0.819409 0.116972 -3.442553
v 3.442554 0.049502 -0.819422
v 3.442554 0.116972 -0.819422
v 3.086390 0.049502 -1.731615
v 3.086390 0.116972 -1.731615
v 0.819415 0.116972 3.442553
v 1.731614 0.116972 3.086393
v 0.819415 0.049502 3.442553
v 1.731614 0.049502 3.086393
v -3.442554 0.116972 0.819426
v -3.086390 0.116972 1.731623
v -3.442554 0.049502 0.819426
v -3.086390 0.049502 1.731623
v -0.176320 0.374644 0.176321
v 0.000001 0.374644 0.248190
v -0.248185 0.374644 0.000002
v 0.176322 0.374644 0.176321
v 0.248187 0.374644 0.000002
v 0.000001 0.374644 -0.248182
v -0.176320 0.374644 -0.176321
v 0.176322 0.374644 -0.176321
v -0.176320 -0.374644 -0.176321
v 0.000001 -0.374644 -0.248182
v -0.248185 -0.374644 0.000002
v 0.176322 -0.374644 -0.176321
v 0.248187 -0.374644 0.000002
v 0.000001 -0.374644 0.248190
v -0.176320 -0.374644 0.176321
v 0.176322 -0.374644 0.176321
vt 0.238618 0.006971
vt 0.288727 0.006971
vt 0.288727 0.023746
vt 0.238618 0.060169
vt 0.338836 0.006971
vt 0.338836 0.060169
vt 0.238618 0.083858
vt 0.288727 0.045110
vt 0.288727 0.100632
vt 0.238618 0.100632
vt 0.338836 0.083858
vt 0.338836 0.100632
vt 0.138399 0.100632
vt 0.088290 0.100632
vt 0.088290 0.045110
vt 0.138399 0.083858
vt 0.439054 0.100632
vt 0.138399 0.060169
vt 0.088290 0.023746
vt 0.088290 0.006971
vt 0.138399 0.006971
vt 0.439054 0.060169
vt 0.388945 0.006971
vt 0.388945 0.023746
vt 0.388945 0.045110
vt 0.388945 0.100632
vt 0.188508 0.006971
vt 0.188508 0.023746
vt 0.188508 0.045110
vt 0.188508 0.100632
vt 0.665359 0.098891
vt 0.640963 0.098891
vt 0.640963 0.005231
vt 0.665359 0.005231
vt 0.714151 0.098891
vt 0.689755 0.098891
vt 0.689755 0.005231
vt 0.714151 0.005231
vt 0.543379 0.098891
vt 0.567775 0.005231
vt 0.567775 0.098891
vt 0.616567 0.098891
vt 0.616567 0.005231
vt 0.592171 0.005231
vt 0.592171 0.098891
vt 0.489164 0.100632
vt 0.489164 0.045110
vt 0.439054 0.006971
vt 0.489164 0.006971
vt 0.489164 0.023746
vt 0.439054 0.083858
vt 0.518983 0.098891
vt 0.518983 0.005231
vt 0.543379 0.005231
vt 0.416961 0.997113
vt 0.298148 0.948457
vt 0.311157 0.944560
vt 0.416166 0.984814
vt 0.534283 0.933506
vt 0.544158 0.942955
vt 0.927460 0.625378
vt 0.936153 0.624585
vt 0.890263 0.740688
vt 0.887205 0.730385
vt 0.876152 0.507263
vt 0.881702 0.499309
vt 0.675046 0.163790
vt 0.570039 0.123536
vt 0.570383 0.113701
vt 0.685350 0.157315
vt 0.451922 0.174842
vt 0.445108 0.165878
vt 0.121255 0.375212
vt 0.081002 0.480221
vt 0.070027 0.479876
vt 0.117060 0.366047
vt 0.132307 0.598336
vt 0.125621 0.606290
vt 0.319796 0.638820
vt 0.363119 0.657108
vt 0.299439 0.807959
vt 0.179426 0.719639
vt 0.277519 0.933152
vt 0.100042 0.823724
vt 0.251715 0.991680
vt 0.147417 0.945956
vt 0.444818 0.626651
vt 0.466440 0.631978
vt 0.404484 0.782176
vt 0.395022 0.777337
vt 0.334942 0.882216
vt 0.323881 0.875170
vt 0.480670 0.538210
vt 0.472313 0.558714
vt 0.565302 0.802433
vt 0.511498 0.648218
vt 0.552984 0.802605
vt 0.744239 0.480442
vt 0.721662 0.644843
vt 0.423964 0.304478
vt 0.589501 0.329334
vt 0.263082 0.627436
vt 0.286801 0.460756
vt 0.530871 0.643763
vt 0.501175 0.529852
vt 0.544743 0.515147
vt 0.521680 0.538210
vt 0.439904 0.558714
vt 0.590864 0.530045
vt 0.586409 0.510672
vt 0.418332 0.387291
vt 0.745251 0.488561
vt 0.400043 0.430617
vt 0.821476 0.714603
vt 0.568249 0.715096
vt 0.586538 0.671771
vt 0.737389 0.735453
vt 0.649069 0.855463
vt 0.862579 0.757372
vt 0.753155 0.934848
vt 0.921110 0.783175
vt 0.875387 0.887473
vt 0.569297 0.596725
vt 0.574623 0.575103
vt 0.724819 0.637063
vt 0.233426 0.167541
vt 0.824862 0.706603
vt 0.124001 0.345017
vt 0.249192 0.366937
vt 0.337512 0.246925
vt 0.659265 0.231798
vt 0.065472 0.319212
vt 0.189262 0.388721
vt 0.530037 0.558714
vt 0.821059 0.097627
vt 0.821059 0.130036
vt 0.841562 0.089270
vt 0.864625 0.112333
vt 0.519763 0.476372
vt 0.474706 0.460132
vt 0.433221 0.305745
vt 0.581722 0.326175
vt 0.800554 0.089270
vt 0.651261 0.226133
vt 0.777491 0.112333
vt 0.849919 0.068765
vt 0.882329 0.068765
vt 0.455333 0.464587
vt 0.457607 0.602282
vt 0.792197 0.068765
vt 0.562446 0.558714
vt 0.759788 0.068765
vt 0.662909 0.463702
vt 0.619583 0.445414
vt 0.683262 0.294562
vt 0.803273 0.382882
vt 0.705183 0.169370
vt 0.882659 0.278798
vt 0.730986 0.110841
vt 0.835285 0.156565
vt 0.541386 0.481699
vt 0.841562 0.048260
vt 0.864625 0.025197
vt 0.480670 0.579219
vt 0.800554 0.048260
vt 0.439165 0.508874
vt 0.821059 0.039904
vt 0.111194 0.214915
vt 0.433838 0.530497
vt 0.417599 0.575554
vt 0.263211 0.617039
vt 0.283641 0.468536
vt 0.821059 0.007494
vt 0.183598 0.398998
vt 0.777491 0.025197
vt 0.501175 0.587576
vt 0.501175 0.619986
vt 0.422052 0.594927
vt 0.457607 0.515147
vt 0.521680 0.579219
vt 0.501175 0.497444
vt 0.544743 0.602282
vn -0.376447 0.000000 0.926438
vn -0.000002 0.000000 1.000000
vn -0.134218 0.000000 0.990952
vn -0.376442 0.000000 0.926440
vn 0.376443 0.000000 0.926440
vn 0.376443 0.000000 0.926440
vn -0.376439 0.000000 0.926442
vn -0.134218 0.000000 0.990952
vn -0.000002 0.000000 1.000000
vn -0.376440 0.000000 0.926441
vn 0.376437 0.000000 0.926442
vn 0.376437 0.000000 0.926442
vn -0.376440 0.000000 -0.926441
vn -0.000002 0.000000 -1.000000
vn 0.134221 0.000000 -0.990951
vn -0.376440 0.000000 -0.926441
vn 0.376437 0.000000 -0.926442
vn 0.376446 0.000000 -0.926439
vn -0.376440 0.000000 -0.926441
vn 0.134221 0.000000 -0.990951
vn -0.000002 0.000000 -1.000000
vn -0.376440 0.000000 -0.926441
vn 0.376445 0.000000 -0.926439
vn 0.376436 0.000000 -0.926443
vn 1.000000 0.000000 0.000002
vn 0.926440 0.000000 -0.376443
vn 0.926440 0.000000 -0.376443
vn 0.990952 0.000000 0.134217
vn 0.926439 0.000000 0.376445
vn 0.926441 0.000000 0.376441
vn 0.990952 0.000000 0.134216
vn 0.926439 0.000000 -0.376446
vn 0.926439 0.000000 -0.376446
vn 1.000000 0.000000 -0.000001
vn 0.926441 0.000000 0.376440
vn 0.926439 0.000000 0.376445
vn -0.926440 0.000000 -0.376443
vn -1.000000 0.000000 0.000002
vn -0.990952 0.000000 -0.134218
vn -0.926440 0.000000 -0.376443
vn -0.926439 0.000000 0.376445
vn -0.926439 0.000000 0.376445
vn -0.926439 0.000000 -0.376445
vn -0.990952 0.000000 -0.134220
vn -1.000000 0.000000 -0.000001
vn -0.926438 0.000000 -0.376447
vn -0.926439 0.000000 0.376446
vn -0.926439 0.000000 0.376446
vn -0.363705 0.000000 -0.931514
vn -0.363705 0.000000 -0.931514
vn -0.363705 0.000000 -0.931514
vn -0.363705 0.000000 -0.931514
vn 0.931514 0.000000 -0.363706
vn 0.931514 0.000000 -0.363706
vn 0.931514 0.000000 -0.363706
vn 0.931514 0.000000 -0.363706
vn 0.363701 0.000000 0.931516
vn 0.363701 0.000000 0.931516
vn 0.363701 0.000000 0.931516
vn 0.363701 0.000000 0.931516
vn -0.931514 0.000000 0.363705
vn -0.931514 0.000000 0.363705
vn -0.931514 0.000000 0.363705
vn -0.931514 0.000000 0.363705
vn -0.329874 -0.941582 -0.067871
vn -0.329874 -0.941582 -0.067871
vn -0.243950 -0.969785 -0.002576
vn -0.243950 -0.969785 -0.002576
vn -0.926440 0.000000 0.376442
vn -0.926440 0.000000 0.376442
vn -0.878056 0.000000 0.478557
vn -0.878056 0.000000 0.478557
vn 0.323889 0.946050 -0.009237
vn 0.323889 0.946050 -0.009237
vn 0.240491 0.970028 -0.034786
vn 0.240491 0.970028 -0.034786
vn 0.965620 0.000000 0.259958
vn 0.965620 0.000000 0.259958
vn 0.997916 0.000000 0.064532
vn 0.997916 0.000000 0.064532
vn -0.259959 0.000000 0.965620
vn -0.259959 0.000000 0.965620
vn -0.064529 0.000000 0.997916
vn -0.064529 0.000000 0.997916
vn 0.067870 -0.941583 -0.329872
vn 0.067870 -0.941583 -0.329872
vn 0.002576 -0.969785 -0.243948
vn 0.002576 -0.969785 -0.243948
vn -0.376442 0.000000 -0.926440
vn -0.376442 0.000000 -0.926440
vn -0.478558 0.000000 -0.878056
vn -0.478558 0.000000 -0.878056
vn 0.009238 0.946051 0.323887
vn 0.009238 0.946051 0.323887
vn 0.034787 0.970028 0.240489
vn 0.034787 0.970028 0.240489
vn -0.323887 0.946051 0.009237
vn -0.323887 0.946051 0.009237
vn -0.240489 0.970028 0.034786
vn -0.240489 0.970028 0.034786
vn -0.965620 0.000000 -0.259960
vn -0.965620 0.000000 -0.259960
vn -0.997916 0.000000 -0.064532
vn -0.997916 0.000000 -0.064532
vn 0.329872 -0.941583 0.067871
vn 0.329872 -0.941583 0.067871
vn 0.243948 -0.969785 0.002576
vn 0.243948 -0.969785 0.002576
vn 0.926441 0.000000 -0.376441
vn 0.926441 0.000000 -0.376441
vn 0.878056 0.000000 -0.478557
vn 0.878056 0.000000 -0.478557
vn -0.009238 0.946051 -0.323886
vn -0.009238 0.946051 -0.323886
vn -0.034787 0.970028 -0.240489
vn -0.034787 0.970028 -0.240489
vn 0.259957 0.000000 -0.965620
vn 0.259957 0.000000 -0.965620
vn 0.064528 0.000000 -0.997916
vn 0.064528 0.000000 -0.997916
vn -0.067871 -0.941583 0.329871
vn -0.067871 -0.941583 0.329871
vn -0.002576 -0.969785 0.243947
vn -0.002576 -0.969785 0.243947
vn 0.376445 0.000000 0.926439
vn 0.376445 0.000000 0.926439
vn 0.478559 0.000000 0.878055
vn 0.478559 0.000000 0.878055
vn -0.117067 -0.991380 0.058826
vn -0.117067 -0.991380 0.058826
vn -0.818461 0.000000 0.574563
vn -0.818461 0.000000 0.574563
vn 0.116009 0.991268 -0.062690
vn 0.116009 0.991268 -0.062690
vn 0.991059 0.000000 -0.133426
vn 0.991059 0.000000 -0.133426
vn 0.133433 0.000000 0.991058
vn 0.133433 0.000000 0.991058
vn -0.058827 -0.991380 -0.117067
vn -0.058827 -0.991380 -0.117067
vn -0.574564 0.000000 -0.818460
vn -0.574564 0.000000 -0.818460
vn 0.062690 0.991268 0.116009
vn 0.062690 0.991268 0.116009
vn -0.116010 0.991268 0.062690
vn -0.116010 0.991268 0.062690
vn -0.991059 0.000000 0.133427
vn -0.991059 0.000000 0.133427
vn 0.117068 -0.991380 -0.058826
vn 0.117068 -0.991380 -0.058826
vn 0.818461 0.000000 -0.574563
vn 0.818461 0.000000 -0.574563
vn -0.062690 0.991268 -0.116009
vn -0.062690 0.991268 -0.116009
vn -0.133433 0.000000 -0.991058
vn -0.133433 0.000000 -0.991058
vn 0.058826 -0.991380 0.117067
vn 0.058826 -0.991380 0.117067
vn 0.574563 0.000000 0.818460
vn 0.574563 0.000000 0.818460
vn -0.078972 -0.995369 0.054814
vn -0.078972 -0.995369 0.054814
vn -0.932273 0.000000 0.361756
vn -0.932273 0.000000 0.361756
vn -0.932273 0.000000 0.361756
vn -0.932273 0.000000 0.361756
vn 0.076712 0.994917 -0.065230
vn 0.076712 0.994917 -0.065230
vn 0.403793 0.000000 -0.914850
vn 0.403793 0.000000 -0.914850
vn 0.403793 0.000000 -0.914850
vn 0.403793 0.000000 -0.914850
vn 0.914856 0.000000 0.403780
vn 0.914856 0.000000 0.403780
vn 0.914856 0.000000 0.403780
vn 0.914856 0.000000 0.403780
vn -0.054815 -0.995369 -0.078972
vn -0.054815 -0.995369 -0.078972
vn -0.361757 0.000000 -0.932272
vn -0.361757 0.000000 -0.932272
vn -0.361757 0.000000 -0.932272
vn -0.361757 0.000000 -0.932272
vn 0.065231 0.994917 0.076713
vn 0.065231 0.994917 0.076713
vn -0.076714 0.994917 0.065231
vn -0.076714 0.994917 0.065231
vn -0.403782 0.000000 0.914855
vn -0.403782 0.000000 0.914855
vn -0.403782 0.000000 0.914855
vn -0.403782 0.000000 0.914855
vn 0.078972 -0.995369 -0.054814
vn 0.078972 -0.995369 -0.054814
vn 0.932271 0.000000 -0.361761
vn 0.932271 0.000000 -0.361761
vn 0.932271 0.000000 -0.361761
vn 0.932271 0.000000 -0.361761
vn -0.065231 0.994917 -0.076713
vn -0.065231 0.994917 -0.076713
vn -0.914856 0.000000 -0.403782
vn -0.914856 0.000000 -0.403782
vn -0.914856 0.000000 -0.403782
vn -0.914856 0.000000 -0.403782
vn 0.054814 -0.995369 0.078972
vn 0.054814 -0.995369 0.078972
vn 0.361752 0.000000 0.932274
vn 0.361752 0.000000 0.932274
vn 0.361752 0.000000 0.932274
vn 0.361752 0.000000 0.932274
vn 0.000000 1.000000 -0.000000
vn 0.000000 1.000000 -0.000000
vn 0.000000 1.000000 -0.000000
vn 0.000000 1.000000 -0.000000
vn 0.000000 1.000000 0.000000
vn 0.000000 1.000000 0.000000
vn 0.000000 1.000000 0.000000
vn 0.000000 1.000000 0.000000
vn 0.000000 1.000000 0.000000
vn 0.000000 1.000000 0.000000
vn 0.000000 1.000000 0.000000
vn 0.000000 1.000000 0.000000
vn 0.000000 1.000000 0.000000
vn 0.000000 1.000000 0.000000
vn 0.000000 1.000000 0.000000
vn 0.000000 1.000000 0.000000
vn 0.000000 -1.000000 0.000000
vn 0.000000 -1.000000 0.000000
vn 0.000000 -1.000000 0.000000
vn 0.000000 -1.000000 0.000000
vn 0.000000 -1.000000 -0.000000
vn 0.000000 -1.000000 -0.000000
vn 0.000000 -1.000000 0.000000
vn 0.000000 -1.000000 0.000000
vn 0.000000 -1.000000 0.000000
vn 0.000000 -1.000000 0.000000
vn 0.000000 -1.000000 -0.000000
vn 0.000000 -1.000000 -0.000000
vn 0.000000 -1.000000 -0.000000
vn 0.000000 -1.000000 -0.000000
vn 0.000000 -1.000000 0.000000
vn 0.000000 -1.000000 0.000000
vn 0.926033 0.000000 -0.377441
vn 0.926033 0.000000 -0.377441
vn 0.926033 0.000000 -0.377441
vn 0.926033 0.000000 -0.377441
vn 0.377415 0.000000 0.926044
vn 0.377415 0.000000 0.926044
vn 0.377415 0.000000 0.926044
vn 0.377415 0.000000 0.926044
vn 0.926039 0.000000 0.377427
vn 0.926039 0.000000 0.377427
vn 0.926039 0.000000 0.377427
vn 0.926039 0.000000 0.377427
vn -0.377415 0.000000 0.926044
vn -0.377415 0.000000 0.926044
vn -0.377415 0.000000 0.926044
vn -0.377415 0.000000 0.926044
vn -0.926039 0.000000 0.377427
vn -0.926039 0.000000 0.377427
vn -0.926039 0.000000 0.377427
vn -0.926039 0.000000 0.377427
vn 0.377461 0.000000 -0.926025
vn 0.377461 0.000000 -0.926025
vn 0.377461 0.000000 -0.926025
vn 0.377461 0.000000 -0.926025
vn -0.926033 0.000000 -0.377441
vn -0.926033 0.000000 -0.377441
vn -0.926033 0.000000 -0.377441
vn -0.926033 0.000000 -0.377441
vn -0.377461 0.000000 -0.926025
vn -0.377461 0.000000 -0.926025
vn -0.377461 0.000000 -0.926025
vn -0.377461 0.000000 -0.926025
s 1
f 1/1/1 2/2/2 24/3/3 17/4/4
f 2/2/2 3/5/5 23/6/6 24/3/3
f 32/7/7 25/8/8 5/9/9 4/10/10
f 25/8/8 26/11/11 6/12/12 5/9/9
s 2
f 9/13/13 10/14/14 29/15/15 30/16/16
f 10/46/14 11/17/17 28/51/18 29/47/15
f 19/18/19 20/19/20 13/20/21 12/21/22
f 20/50/20 21/22/23 14/48/24 13/49/21
s 4
f 16/23/25 14/48/26 21/22/27 22/24/28
f 3/5/29 16/23/25 22/24/28 23/6/30
f 27/25/31 28/51/32 11/17/33 8/26/34
f 26/11/35 27/25/31 8/26/34 6/12/36
s 6
f 12/21/37 15/27/38 18/28/39 19/18/40
f 15/27/38 1/1/41 17/4/42 18/28/39
f 30/16/43 31/29/44 7/30/45 9/13/46
f 31/29/44 32/7/47 4/10/48 7/30/45
s off
f 66/55/49 65/56/50 67/57/51 68/58/52
s 2
f 21/22/23 20/50/20 29/47/15 28/51/18
s off
f 70/61/53 69/62/54 71/63/55 72/64/56
s 4
f 26/11/35 23/6/30 22/24/28 27/25/31
s off
f 74/67/57 73/68/58 75/69/59 76/70/60
s 6
f 31/29/44 30/16/43 19/18/40 18/28/39
s off
f 78/73/61 77/74/62 79/75/63 80/76/64
s 1
f 25/8/8 32/7/7 17/4/4 24/3/3
s 7
f 20/79/65 19/80/66 33/81/67 34/82/68
s 8
f 19/87/69 30/88/70 35/89/71 33/90/72
s 9
f 30/88/73 29/96/74 36/97/75 35/89/76
s 10
f 29/96/77 20/104/78 34/95/79 36/97/80
s 11
f 27/109/81 22/110/82 37/98/83 38/112/84
s 12
f 22/115/85 21/116/86 39/117/87 37/118/88
s 13
f 21/123/89 28/124/90 40/125/91 39/99/92
s 14
f 28/124/93 27/109/94 38/112/95 40/125/96
s 15
f 26/139/97 25/140/98 41/141/99 42/142/100
s 16
f 25/140/101 24/148/102 43/100/103 41/141/104
s 17
f 24/153/105 23/154/106 44/155/107 43/156/108
s 18
f 23/161/109 26/139/110 42/142/111 44/101/112
s 19
f 32/169/113 31/170/114 45/171/115 46/172/116
s 20
f 31/170/117 18/178/118 47/102/119 45/171/120
s 21
f 18/111/121 17/113/122 48/129/123 47/130/124
s 22
f 17/166/125 32/169/126 46/172/127 48/103/128
s 7
f 34/82/68 33/81/67 49/83/129 50/84/130
s 8
f 33/90/72 35/89/71 51/91/131 49/92/132
s 9
f 35/89/76 36/97/75 52/59/133 51/91/134
s 10
f 36/97/80 34/95/79 50/60/135 52/59/136
s 11
f 38/112/84 37/98/83 53/66/137 54/65/138
s 12
f 37/118/88 39/117/87 55/119/139 53/120/140
s 13
f 39/99/92 40/125/91 56/127/141 55/114/142
s 14
f 40/125/96 38/112/95 54/65/143 56/127/144
s 15
f 42/142/100 41/141/99 57/71/145 58/144/146
s 16
f 41/141/104 43/100/103 59/72/147 57/71/148
s 17
f 43/156/108 44/155/107 60/157/149 59/158/150
s 18
f 44/101/112 42/142/111 58/144/151 60/131/152
s 19
f 46/172/116 45/171/115 61/77/153 62/174/154
s 20
f 45/171/120 47/102/119 63/78/155 61/77/156
s 21
f 47/130/124 48/129/123 64/128/157 63/126/158
s 22
f 48/103/128 46/172/127 62/174/159 64/133/160
s 7
f 50/84/130 49/83/129 65/85/161 66/86/162
s off
f 49/92/163 51/91/164 67/57/165 65/56/166
s 9
f 51/91/134 52/59/133 68/58/167 67/57/168
s off
f 52/59/169 50/60/170 66/55/171 68/58/172
f 54/65/173 53/66/174 69/62/175 70/61/176
s 12
f 53/120/140 55/119/139 71/121/177 69/122/178
s off
f 55/114/179 56/127/180 72/64/181 71/63/182
s 14
f 56/127/144 54/65/143 70/61/183 72/64/184
s 15
f 58/144/146 57/71/145 73/68/185 74/67/186
s off
f 57/71/187 59/72/188 75/69/189 73/68/190
s 17
f 59/158/150 60/157/149 76/159/191 75/160/192
s off
f 60/131/193 58/144/194 74/67/195 76/70/196
s 19
f 62/174/154 61/77/153 77/74/197 78/73/198
s off
f 61/77/199 63/78/200 79/75/201 77/74/202
s 21
f 63/126/158 64/128/157 80/132/203 79/168/204
s off
f 64/133/205 62/174/206 78/73/207 80/76/208
s 23
f 4/179/209 5/181/210 82/105/211 81/93/212
f 7/108/213 4/179/209 81/93/212 83/94/214
f 5/181/210 6/106/215 84/107/216 82/105/211
f 6/106/215 8/151/217 85/134/218 84/107/216
f 10/177/219 9/149/220 87/164/221 86/176/222
f 9/149/220 7/108/213 83/94/214 87/164/221
f 8/151/217 11/182/223 88/180/224 85/134/218
f 11/182/223 10/177/219 86/176/222 88/180/224
s 24
f 12/175/225 13/173/226 90/167/227 89/165/228
f 15/152/229 12/175/225 89/165/228 91/150/230
f 13/173/226 14/163/231 92/162/232 90/167/227
f 14/163/231 16/147/233 93/146/234 92/162/232
f 2/136/235 1/145/236 95/143/237 94/135/238
f 1/145/236 15/152/229 91/150/230 95/143/237
f 16/147/233 3/138/239 96/137/240 93/146/234
f 3/138/239 2/136/235 94/135/238 96/137/240
s off
f 83/31/241 81/32/242 95/33/243 91/34/244
f 86/35/245 87/36/246 89/37/247 90/38/248
f 87/36/249 83/31/250 91/34/251 89/37/252
f 88/39/253 86/52/254 90/53/255 92/54/256
f 88/39/257 92/54/258 93/40/259 85/41/260
f 82/42/261 94/43/262 95/33/263 81/32/264
f 85/41/265 93/40/266 96/44/267 84/45/268
f 84/45/269 96/44/270 94/43/271 82/42/272
