# This file uses centimeters as units for non-parametric coordinates.

v -0.123138 -0.204065 0.123147
v 0.000008 -0.204065 0.173187
v 0.123154 -0.204065 0.123147
v -0.123138 -0.113742 0.123147
v 0.000008 -0.113742 0.173187
v 0.123154 -0.113742 0.123147
v -0.075409 0.204065 0.075414
v 0.000008 0.204065 0.106058
v 0.075417 0.204065 0.075414
v -0.106056 0.204065 -0.000001
v 0.000008 0.204065 -0.000001
v 0.106064 0.204065 -0.000001
v -0.075409 0.204065 -0.075414
v 0.000008 0.204065 -0.106058
v 0.075417 0.204065 -0.075414
v -0.123138 -0.113742 -0.123147
v 0.000008 -0.113742 -0.173187
v 0.123154 -0.113742 -0.123147
v -0.123138 -0.204065 -0.123147
v 0.000008 -0.204065 -0.173187
v 0.123154 -0.204065 -0.123147
v -0.173187 -0.204065 -0.000001
v 0.173187 -0.204065 -0.000001
v 0.173187 -0.113742 -0.000001
v -0.173187 -0.113742 -0.000001
v -0.095329 -0.204065 -0.095333
v 0.000008 -0.204065 -0.134070
v -0.134064 -0.204065 -0.000001
v 0.095337 -0.204065 -0.095333
v 0.134079 -0.204065 -0.000001
v 0.000008 -0.204065 0.134072
v -0.095329 -0.204065 0.095333
v 0.095337 -0.204065 0.095333
v -0.060165 0.141280 -0.060174
v 0.000008 0.141280 -0.084624
v 0.000008 0.141280 -0.000001
v -0.084625 0.141280 -0.000001
v 0.060181 0.141280 -0.060174
v 0.084625 0.141280 -0.000001
v 0.000008 0.141280 0.084625
v -0.060165 0.141280 0.060174
v 0.060181 0.141280 0.060174
vt 0.090632 0.618725
vt 0.102253 0.618725
vt 0.102253 0.629467
vt 0.090632 0.629467
vt 0.113873 0.618725
vt 0.113873 0.629467
vt 0.102253 0.667264
vt 0.090632 0.667264
vt 0.113873 0.667264
vt 0.079012 0.667264
vt 0.125494 0.667264
vt 0.055771 0.667264
vt 0.067391 0.667264
vt 0.055771 0.629467
vt 0.067391 0.629467
vt 0.137114 0.629467
vt 0.055771 0.618725
vt 0.067391 0.618725
vt 0.139015 0.611427
vt 0.148192 0.611427
vt 0.129838 0.611427
vt 0.111485 0.611427
vt 0.120662 0.611427
vt 0.125494 0.618725
vt 0.125494 0.629467
vt 0.079012 0.618725
vt 0.079012 0.629467
vt 0.148192 0.570355
vt 0.139015 0.570355
vt 0.129838 0.570355
vt 0.093131 0.570355
vt 0.120662 0.570355
vt 0.111485 0.570355
vt 0.102308 0.570355
vt 0.148735 0.667264
vt 0.137115 0.667264
vt 0.148735 0.629467
vt 0.148735 0.618725
vt 0.074778 0.611427
vt 0.083955 0.611427
vt 0.093131 0.611427
vt 0.102308 0.611427
vt 0.137114 0.618725
vt 0.074778 0.570355
vt 0.083955 0.570355
vt 0.047031 0.555359
vt 0.058561 0.550674
vt 0.058561 0.566888
vt 0.042346 0.566888
vt 0.070090 0.555359
vt 0.074775 0.566888
vt 0.058561 0.583102
vt 0.047031 0.578417
vt 0.070090 0.578417
vt 0.041716 0.592404
vt 0.050915 0.588666
vt 0.050915 0.601603
vt 0.037978 0.601603
vt 0.060115 0.592404
vt 0.063853 0.601603
vt 0.050915 0.614541
vt 0.041716 0.610802
vt 0.060115 0.610802
vt 0.038209 0.588897
vt 0.050915 0.583733
vt 0.050915 0.587770
vt 0.041079 0.591766
vt 0.063622 0.588897
vt 0.060752 0.591766
vt 0.033046 0.601603
vt 0.037082 0.601603
vt 0.068785 0.601603
vt 0.064749 0.601603
vt 0.038209 0.614309
vt 0.041079 0.611439
vt 0.063622 0.614309
vt 0.060752 0.611439
vt 0.050915 0.619473
vt 0.050915 0.615437
vn -0.376457 0.000000 0.926434
vn 0.000000 0.000000 1.000000
vn 0.000003 0.104056 0.994571
vn -0.374700 0.096474 0.922113
vn 0.376457 0.000000 0.926434
vn 0.374706 0.096477 0.922110
vn 0.000006 0.206672 0.978410
vn -0.369447 0.192047 0.909190
vn 0.369459 0.192053 0.909184
vn 0.000000 1.000000 -0.000000
vn 0.000000 1.000000 -0.000000
vn 0.000000 1.000000 0.000000
vn 0.000000 1.000000 -0.000000
vn 0.000000 1.000000 0.000000
vn 0.000000 1.000000 0.000000
vn 0.000000 1.000000 0.000000
vn 0.000000 1.000000 0.000000
vn 0.000000 1.000000 0.000000
vn -0.369448 0.192041 -0.909191
vn 0.000006 0.206669 -0.978411
vn 0.000003 0.104054 -0.994572
vn -0.374700 0.096470 -0.922114
vn 0.369459 0.192053 -0.909184
vn 0.374706 0.096477 -0.922110
vn 0.000000 0.000000 -1.000000
vn -0.376457 0.000000 -0.926434
vn 0.376457 0.000000 -0.926434
vn 0.000000 -1.000000 0.000000
vn 0.000000 -1.000000 0.000000
vn 0.000000 -1.000000 0.000000
vn 0.000000 -1.000000 0.000000
vn 0.000000 -1.000000 0.000000
vn 0.000000 -1.000000 0.000000
vn 0.000000 -1.000000 -0.000000
vn 0.000000 -1.000000 -0.000000
vn 0.000000 -1.000000 0.000000
vn 1.000000 0.000000 -0.000004
vn 0.926452 0.000000 -0.376414
vn 0.922125 0.096469 -0.374673
vn 0.994573 0.104046 -0.000004
vn 0.926455 0.000000 0.376407
vn 0.922128 0.096464 0.374666
vn 0.909196 0.192039 -0.369437
vn 0.978414 0.206653 -0.000003
vn 0.909201 0.192029 0.369430
vn -0.926412 0.000000 -0.376512
vn -1.000000 0.000000 -0.000004
vn -0.994571 0.104059 -0.000003
vn -0.922091 0.096480 -0.374752
vn -0.926414 0.000000 0.376505
vn -0.922095 0.096472 0.374745
vn -0.978409 0.206678 -0.000003
vn -0.909168 0.192060 -0.369495
vn -0.909174 0.192044 0.369489
vn 0.000000 -1.000000 0.000000
vn 0.000000 -1.000000 0.000000
vn 0.000000 -1.000000 0.000000
vn 0.000000 -1.000000 0.000000
vn 0.000000 -1.000000 0.000000
vn 0.000000 -1.000000 0.000000
vn 0.000000 -1.000000 0.000000
vn 0.000000 -1.000000 0.000000
vn 0.000000 -1.000000 0.000000
vn 0.000000 -1.000000 0.000000
vn 0.000000 -1.000000 0.000000
vn 0.000000 -1.000000 0.000000
vn 0.000000 -1.000000 -0.000000
vn 0.000000 -1.000000 -0.000000
vn 0.000000 -1.000000 -0.000000
vn 0.000000 -1.000000 -0.000000
vn 0.000000 -1.000000 -0.000000
vn 0.000000 -1.000000 -0.000000
vn 0.000000 -1.000000 -0.000000
vn 0.000000 -1.000000 -0.000000
vn 0.000000 -1.000000 0.000000
vn 0.000000 -1.000000 0.000000
vn 0.000000 -1.000000 0.000000
vn 0.000000 -1.000000 0.000000
vn 0.000000 -1.000000 0.000000
vn 0.000000 -1.000000 0.000000
vn 0.000000 -1.000000 0.000000
vn 0.000000 -1.000000 0.000000
vn 0.000000 -1.000000 0.000000
vn 0.000000 -1.000000 0.000000
vn 0.000000 -1.000000 0.000000
vn 0.000000 -1.000000 0.000000
vn 0.373161 -0.131498 0.918400
vn 0.373161 -0.131498 0.918400
vn 0.373161 -0.131498 0.918400
vn 0.373161 -0.131498 0.918400
vn 0.918381 -0.131498 0.373209
vn 0.918381 -0.131498 0.373209
vn 0.918381 -0.131498 0.373209
vn 0.918381 -0.131498 0.373209
vn -0.373177 -0.131487 0.918395
vn -0.373177 -0.131487 0.918395
vn -0.373177 -0.131487 0.918395
vn -0.373177 -0.131487 0.918395
vn -0.918396 -0.131500 0.373170
vn -0.918396 -0.131500 0.373170
vn -0.918396 -0.131500 0.373170
vn -0.918396 -0.131500 0.373170
vn 0.373183 -0.131488 -0.918393
vn 0.373183 -0.131488 -0.918393
vn 0.373183 -0.131488 -0.918393
vn 0.373183 -0.131488 -0.918393
vn 0.918383 -0.131511 -0.373200
vn 0.918383 -0.131511 -0.373200
vn 0.918383 -0.131511 -0.373200
vn 0.918383 -0.131511 -0.373200
vn -0.918400 -0.131497 -0.373162
vn -0.918400 -0.131497 -0.373162
vn -0.918400 -0.131497 -0.373162
vn -0.918400 -0.131497 -0.373162
vn -0.373198 -0.131486 -0.918387
vn -0.373198 -0.131486 -0.918387
vn -0.373198 -0.131486 -0.918387
vn -0.373198 -0.131486 -0.918387
s 1
f 1/1/1 2/2/2 5/3/3 4/4/4
f 2/2/2 3/5/5 6/6/6 5/3/3
f 4/4/4 5/3/3 8/7/7 7/8/8
f 5/3/3 6/6/6 9/9/9 8/7/7
s 2
f 7/46/10 8/47/11 11/48/12 10/49/13
f 8/47/11 9/50/14 12/51/15 11/48/12
f 10/49/13 11/48/12 14/52/16 13/53/17
f 11/48/12 12/51/15 15/54/18 14/52/16
s 3
f 13/13/19 14/12/20 17/14/21 16/15/22
f 14/35/20 15/36/23 18/16/24 17/37/21
f 16/15/22 17/14/21 20/17/25 19/18/26
f 17/37/21 18/16/24 21/43/27 20/38/25
s 4
f 34/55/28 35/56/29 36/57/30 37/58/31
f 35/56/29 38/59/32 39/60/33 36/57/30
f 37/58/31 36/57/30 40/61/34 41/62/35
f 36/57/30 39/60/33 42/63/36 40/61/34
s 5
f 23/24/37 21/43/38 18/16/39 24/25/40
f 3/5/41 23/24/37 24/25/40 6/6/42
f 24/25/40 18/16/39 15/36/43 12/11/44
f 6/6/42 24/25/40 12/11/44 9/9/45
s 6
f 19/18/46 22/26/47 25/27/48 16/15/49
f 22/26/47 1/1/50 4/4/51 25/27/48
f 16/15/49 25/27/48 10/10/52 13/13/53
f 25/27/48 4/4/51 7/8/54 10/10/52
s off
f 19/64/55 20/65/56 27/66/57 26/67/58
f 22/70/59 19/64/60 26/67/61 28/71/62
f 20/65/63 21/68/64 29/69/65 27/66/66
f 21/68/67 23/72/68 30/73/69 29/69/70
f 2/78/71 1/74/72 32/75/73 31/79/74
f 1/74/75 22/70/76 28/71/77 32/75/78
f 23/72/79 3/76/80 33/77/81 30/73/82
f 3/76/83 2/78/84 31/79/85 33/77/86
f 26/29/87 27/28/88 35/20/89 34/19/90
f 28/30/91 26/29/92 34/19/93 37/21/94
f 27/44/95 29/45/96 38/40/97 35/39/98
f 29/45/99 30/31/100 39/41/101 38/40/102
f 31/33/103 32/32/104 41/23/105 40/22/106
f 32/32/107 28/30/108 37/21/109 41/23/110
f 30/31/111 33/34/112 42/42/113 39/41/114
f 33/34/115 31/33/116 40/22/117 42/42/118
