# This file uses centimeters as units for non-parametric coordinates.

v -1.715908 -0.383696 2.673998
v -0.503727 -0.383696 3.301322
v 1.715908 -0.383696 2.673998
v -1.715908 -0.073693 2.673998
v -0.503727 -0.073693 3.301322
v 1.715908 -0.073693 2.673998
v -1.715908 -0.073693 -0.313662
v -0.503727 0.383696 -0.313662
v 1.715908 1.125927 -0.313662
v -1.715908 -0.073693 -3.301322
v 0.000000 -0.073693 -3.301322
v 1.715908 0.603149 -2.939799
v -1.715908 -0.383696 -3.301322
v 0.000000 -0.383696 -3.301322
v 1.715908 0.293146 -2.939799
v -1.715908 -0.383696 -0.313662
v -0.503727 0.073693 -0.313662
v 1.715908 0.815924 -0.313662
v -1.026234 -0.815924 -0.313662
v -1.026234 -0.663848 -1.971416
v -1.026234 -0.973852 -1.971416
v -1.026234 -1.125927 -0.313662
v -1.026234 -0.383696 2.673998
v -1.026234 -0.073693 2.673998
vt 0.467901 0.136473
vt 0.467901 0.145081
vt 0.448749 0.145081
vt 0.448749 0.136473
vt 0.482410 0.136473
vt 0.482410 0.145081
vt 0.544045 0.145081
vt 0.544045 0.136473
vt 0.394054 0.163103
vt 0.413205 0.163103
vt 0.413205 0.246065
vt 0.394054 0.246065
vt 0.427714 0.145683
vt 0.427714 0.246065
vt 0.413205 0.292098
vt 0.394054 0.329027
vt 0.489350 0.163103
vt 0.489350 0.246065
vt 0.441702 0.329027
vt 0.489350 0.318989
vt 0.437267 0.349391
vt 0.437267 0.358000
vt 0.400337 0.341614
vt 0.400337 0.333006
vt 0.513412 0.322817
vt 0.465764 0.341612
vt 0.465764 0.333004
vt 0.513412 0.314209
vt 0.387209 0.157633
vt 0.378600 0.157633
vt 0.571768 0.368207
vt 0.524120 0.358168
vt 0.524120 0.285245
vt 0.585755 0.285245
vt 0.524120 0.202283
vt 0.585756 0.184863
vt 0.600265 0.285245
vt 0.600265 0.331278
vt 0.600265 0.202283
vt 0.619416 0.368207
vt 0.619416 0.285245
vt 0.619416 0.202283
vt 0.504248 0.235260
vt 0.518765 0.308184
vt 0.510156 0.308184
vt 0.495640 0.235260
vt 0.528951 0.152298
vt 0.537559 0.152298
vt 0.378600 0.240596
vt 0.387209 0.240596
vt 0.387209 0.323558
vt 0.378600 0.323558
vn -0.424268 0.000000 0.905537
vn -0.424268 0.000000 0.905537
vn 0.000000 0.000000 1.000000
vn 0.000000 0.000000 1.000000
vn 0.271971 0.000000 0.962305
vn -0.295933 0.000000 0.955209
vn -0.295933 0.000000 0.955209
vn 0.271971 0.000000 0.962305
vn 0.471044 0.875382 -0.108736
vn -0.175185 0.980641 -0.087486
vn -0.133410 0.987639 -0.082284
vn 0.582893 0.811418 -0.042861
vn -0.469653 0.875400 0.114462
vn -0.126740 0.962101 0.241450
vn -0.228584 0.973173 0.026132
vn -0.532835 0.845766 -0.027682
vn -0.083883 0.993576 -0.075964
vn 0.682535 0.730461 0.023913
vn -0.317431 0.928914 -0.190671
vn -0.581449 0.796636 -0.165194
vn 0.089287 0.000000 -0.996006
vn 0.089287 0.000000 -0.996006
vn 0.887729 0.000000 -0.460367
vn 0.887729 0.000000 -0.460367
vn 0.206162 0.000000 -0.978518
vn -0.345679 0.000000 -0.938353
vn -0.345679 0.000000 -0.938353
vn 0.206162 0.000000 -0.978518
vn -0.682535 -0.730462 -0.023913
vn 0.083883 -0.993576 0.075964
vn 0.133409 -0.987639 0.082284
vn -0.582893 -0.811418 0.042861
vn 0.581449 -0.796636 0.165194
vn 0.317432 -0.928914 0.190671
vn 0.228584 -0.973173 -0.026132
vn 0.532835 -0.845767 0.027682
vn 0.175185 -0.980641 0.087486
vn -0.471045 -0.875382 0.108736
vn 0.126740 -0.962101 -0.241450
vn 0.469652 -0.875400 -0.114462
vn 1.000000 0.000000 0.000000
vn 1.000000 0.000000 0.000000
vn 1.000000 0.000000 0.000000
vn 1.000000 0.000000 0.000000
vn 1.000000 0.000000 0.000000
vn 1.000000 0.000000 0.000000
vn -1.000000 0.000000 0.000000
vn -1.000000 0.000000 0.000000
vn -1.000000 0.000000 0.000000
vn -1.000000 0.000000 0.000000
vn -1.000000 0.000000 0.000000
vn -1.000000 0.000000 0.000000
s 1
f 23/1/1 24/2/2 4/3/3 1/4/4
f 6/7/5 5/6/6 2/5/7 3/8/8
s 2
f 4/9/9 24/10/10 19/11/11 7/12/12
f 5/13/13 6/17/14 9/18/15 8/14/16
f 7/12/12 19/11/11 20/15/17 10/16/18
f 8/14/16 9/18/15 12/20/19 11/19/20
s 4
f 20/21/21 21/22/22 13/23/23 10/24/24
f 15/25/25 14/26/26 11/27/27 12/28/28
s 5
f 13/40/29 21/38/30 22/37/31 16/41/32
f 14/31/33 15/32/34 18/33/35 17/34/36
f 16/41/32 22/37/31 23/39/37 1/42/38
f 17/34/36 18/33/35 3/35/39 2/36/40
s 7
f 18/43/41 15/44/42 12/45/43 9/46/44
f 6/47/45 3/48/46 18/43/41 9/46/44
s 8
f 16/49/47 7/50/48 10/51/49 13/52/50
f 1/30/51 4/29/52 7/50/48 16/49/47
s 2
f 19/11/11 8/14/16 11/19/20 20/15/17
s 4
f 11/27/27 14/26/26 21/22/22 20/21/21
s 5
f 22/37/31 21/38/30 14/31/33 17/34/36
f 23/39/37 22/37/31 17/34/36 2/36/40
s 1
f 2/5/7 5/6/6 24/2/2 23/1/1
s 2
f 19/11/11 24/10/10 5/13/13 8/14/16
