# This file uses centimeters as units for non-parametric coordinates.

v -1.093178 -0.453822 1.093177
v 0.000000 -0.453822 1.537372
v 1.093178 -0.453822 1.093177
v -1.093178 0.214008 1.093177
v 0.000000 0.214008 1.537372
v 1.093178 0.214008 1.093177
v -0.219999 0.453822 0.219998
v 0.000000 0.453822 0.309388
v 0.219999 0.453822 0.219998
v -0.309391 0.453822 0.000001
v 0.000000 0.453822 0.000001
v 0.309391 0.453822 0.000001
v -0.219999 0.453822 -0.219995
v 0.000000 0.453822 -0.309384
v 0.219999 0.453822 -0.219995
v -1.093178 0.214008 -1.093177
v 0.000000 0.214008 -1.537370
v 1.093178 0.214008 -1.093177
v -1.093178 -0.453822 -1.093177
v 0.000000 -0.453822 -1.537370
v 1.093178 -0.453822 -1.093177
v -1.537373 -0.453822 0.000001
v 1.537371 -0.453822 0.000001
v 1.537371 0.214008 0.000001
v -1.537373 0.214008 0.000001
v -1.180500 0.214008 1.180499
v 0.000000 0.214008 1.661553
v 0.000000 0.453822 1.661553
v -1.180500 0.453822 1.180499
v 1.180498 0.214008 1.180499
v 1.180498 0.453822 1.180499
v -1.180500 0.453822 -1.180497
v 0.000000 0.453822 -1.661553
v 0.000000 0.214008 -1.661553
v -1.180500 0.214008 -1.180497
v 1.180498 0.453822 -1.180497
v 1.180498 0.214008 -1.180497
v 1.661560 0.214008 0.000001
v 1.661560 0.453822 0.000001
v -1.661560 0.214008 0.000001
v -1.661560 0.453822 0.000001
v -0.166897 -0.453822 -0.166898
v 0.000000 -0.453822 -0.234582
v -0.234587 -0.453822 0.000001
v 0.166895 -0.453822 -0.166898
v 0.234587 -0.453822 0.000001
v 0.000000 -0.453822 0.234586
v -0.166897 -0.453822 0.166900
v 0.166895 -0.453822 0.166900
v 0.000000 -0.453822 0.578429
v 0.411419 -0.453822 0.411418
v 0.578432 -0.453822 0.000001
v 0.411419 -0.453822 -0.411416
v 0.000000 -0.453822 -0.578427
v -0.411421 -0.453822 -0.411416
v -0.578432 -0.453822 0.000001
v -0.411421 -0.453822 0.411418
v 0.000000 -0.453822 1.298598
v 0.923420 -0.453822 0.923423
v 1.298599 -0.453822 0.000001
v 0.923420 -0.453822 -0.923421
v 0.000000 -0.453822 -1.298596
v -0.923420 -0.453822 -0.923421
v -1.298599 -0.453822 0.000001
v -0.923420 -0.453822 0.923423
v -0.686014 0.453822 0.000001
v -0.487642 0.453822 0.487643
v 0.000000 0.453822 0.686015
v 0.487640 0.453822 0.487643
v 0.686014 0.453822 0.000001
v 0.487640 0.453822 -0.487641
v 0.000000 0.453822 -0.686013
v -0.487642 0.453822 -0.487641
v -1.056372 0.453822 -1.056363
v -1.486807 0.453822 0.000001
v -1.056372 0.453822 1.056365
v 0.000000 0.453822 1.486800
v 1.056372 0.453822 1.056365
v 1.486807 0.453822 0.000001
v 1.056372 0.453822 -1.056363
v 0.000000 0.453822 -1.486798
v -0.563814 0.032515 -0.563813
v -0.793352 0.032515 0.000001
v -0.563814 0.032515 0.563815
v 0.000000 0.032515 0.793349
v 0.563812 0.032515 0.563815
v 0.793352 0.032515 0.000001
v 0.563812 0.032515 -0.563813
v 0.000000 0.032515 -0.793347
v -0.744095 0.032515 -0.744094
v -1.047155 0.032515 0.000001
v -0.744095 0.032515 0.744094
v 0.000000 0.032515 1.047151
v 0.744093 0.032515 0.744094
v 1.047155 0.032515 0.000001
v 0.744093 0.032515 -0.744094
v 0.000000 0.032515 -1.047147
v -0.341318 0.453822 -0.341317
v -0.480108 0.453822 0.000001
v -0.341318 0.453822 0.341319
v 0.000000 0.453822 0.480109
v 0.341318 0.453822 0.341319
v 0.480108 0.453822 0.000001
v 0.341318 0.453822 -0.341317
v 0.000000 0.453822 -0.480107
v -0.219999 0.189516 0.219998
v 0.000000 0.189516 0.309388
v -0.341318 0.189516 0.341319
v 0.000000 0.189516 0.480109
v 0.219999 0.189516 0.219998
v 0.341318 0.189516 0.341319
v -0.219999 0.189516 -0.219995
v 0.000000 0.189516 -0.309384
v 0.000000 0.189516 -0.480107
v -0.341318 0.189516 -0.341317
v 0.219999 0.189516 -0.219995
v 0.341318 0.189516 -0.341317
v 0.309391 0.189516 0.000001
v 0.480108 0.189516 0.000001
v -0.309391 0.189516 0.000001
v -0.480108 0.189516 0.000001
v -0.166897 0.238397 -0.166898
v 0.000000 0.238397 -0.234582
v 0.000000 0.238397 0.000001
v -0.234587 0.238397 0.000001
v 0.166895 0.238397 -0.166898
v 0.234587 0.238397 0.000001
v 0.000000 0.238397 0.234586
v -0.166897 0.238397 0.166900
v 0.166895 0.238397 0.166900
v -0.678349 -0.106201 0.000001
v -0.482454 -0.106201 0.482453
v 0.000000 -0.106201 0.678346
v 0.482454 -0.106201 0.482453
v 0.678347 -0.106201 0.000001
v 0.482454 -0.106201 -0.482450
v 0.000000 -0.106201 -0.678344
v -0.482454 -0.106201 -0.482450
vt 0.380450 0.594441
vt 0.500450 0.594441
vt 0.500450 0.662501
vt 0.380450 0.662501
vt 0.620449 0.594441
vt 0.620449 0.662501
vt 0.380068 0.673392
vt 0.500068 0.673392
vt 0.500068 0.697832
vt 0.380068 0.697832
vt 0.620067 0.673392
vt 0.620067 0.697832
vt 0.471394 0.989532
vt 0.503571 0.989532
vt 0.439218 0.989532
vt 0.535748 0.989532
vt 0.567924 0.989532
vt 0.374866 0.989532
vt 0.407042 0.989532
vt 0.140070 0.697832
vt 0.020071 0.697832
vt 0.020071 0.673392
vt 0.140070 0.673392
vt 0.860065 0.697832
vt 0.860065 0.673392
vt 0.140452 0.662501
vt 0.020452 0.662501
vt 0.020452 0.594441
vt 0.140452 0.594441
vt 0.860447 0.662501
vt 0.573478 0.388030
vt 0.597579 0.388030
vt 0.549377 0.388030
vt 0.452973 0.388030
vt 0.501175 0.388030
vt 0.525276 0.388030
vt 0.477075 0.388030
vt 0.740448 0.594441
vt 0.740448 0.662501
vt 0.740066 0.673392
vt 0.740066 0.697832
vt 0.260451 0.594441
vt 0.260451 0.662501
vt 0.260069 0.673392
vt 0.260069 0.697832
vt 0.503571 0.967878
vt 0.471394 0.967878
vt 0.551396 0.926852
vt 0.505087 0.926852
vt 0.535748 0.967878
vt 0.458778 0.926852
vt 0.407042 0.967878
vt 0.374866 0.967878
vt 0.690323 0.926852
vt 0.644014 0.926852
vt 0.600100 0.967878
vt 0.366161 0.926852
vt 0.567924 0.967878
vt 0.412469 0.926852
vt 0.439218 0.967878
vt 0.597705 0.926852
vt 0.038982 0.566297
vt 0.154943 0.566297
vt 0.270905 0.566297
vt 0.734750 0.566297
vt 0.386866 0.566297
vt 0.502828 0.566297
vt 0.618789 0.566297
vt 0.618789 0.411139
vt 0.502828 0.411139
vt 0.501175 0.316547
vt 0.477075 0.316547
vt 0.734750 0.411139
vt 0.452973 0.316547
vt 0.850711 0.411139
vt 0.038982 0.411139
vt 0.597579 0.316547
vt 0.154943 0.411139
vt 0.573478 0.316547
vt 0.270905 0.411139
vt 0.549377 0.316547
vt 0.386866 0.411139
vt 0.525276 0.316547
vt 0.502828 0.468112
vt 0.618789 0.468112
vt 0.734750 0.468112
vt 0.038982 0.468112
vt 0.154943 0.468112
vt 0.270905 0.468112
vt 0.386866 0.468112
vt 0.381891 0.910593
vt 0.261891 0.910593
vt 0.261891 0.828152
vt 0.381891 0.828152
vt 0.501890 0.910593
vt 0.501890 0.828152
vt 0.621889 0.910593
vt 0.621889 0.828152
vt 0.741889 0.910593
vt 0.741889 0.828152
vt 0.861888 0.910593
vt 0.021893 0.910593
vt 0.021893 0.828152
vt 0.141892 0.910593
vt 0.141892 0.828152
vt 0.261891 0.724257
vt 0.141893 0.724257
vt 0.381890 0.724257
vt 0.501890 0.724257
vt 0.621890 0.724257
vt 0.741889 0.724257
vt 0.861887 0.724257
vt 0.021893 0.724257
vt 0.141892 0.787993
vt 0.261891 0.787993
vt 0.381891 0.787993
vt 0.501890 0.787993
vt 0.621889 0.787993
vt 0.741889 0.787993
vt 0.021893 0.787993
vt 0.597705 0.950635
vt 0.644014 0.950635
vt 0.551396 0.950635
vt 0.505087 0.950635
vt 0.458778 0.950635
vt 0.412469 0.950635
vt 0.366161 0.950635
vt 0.690323 0.950635
vt 0.632277 0.989532
vt 0.980447 0.594441
vt 0.404772 0.388030
vt 0.428873 0.388030
vt 0.632277 0.967878
vt 0.980447 0.662501
vt 0.980065 0.673392
vt 0.860447 0.594441
vt 0.850712 0.566297
vt 0.966673 0.566297
vt 0.404772 0.316547
vt 0.850711 0.468112
vt 0.966673 0.468112
vt 0.861888 0.828152
vt 0.981887 0.828152
vt 0.980065 0.697832
vt 0.861888 0.787993
vt 0.981887 0.787993
vt 0.981887 0.724257
vt 0.981887 0.910593
vt 0.600100 0.989532
vt 0.319852 0.950635
vt 0.319852 0.926852
vt 0.428873 0.316547
vt 0.966673 0.411139
vt 0.677382 0.191244
vt 0.703288 0.180718
vt 0.703288 0.217150
vt 0.666855 0.217150
vt 0.729194 0.191244
vt 0.739721 0.217150
vt 0.703288 0.253582
vt 0.677382 0.243056
vt 0.729194 0.243056
vt 0.118089 0.186419
vt 0.137742 0.178449
vt 0.137742 0.206073
vt 0.110118 0.206073
vt 0.157396 0.186419
vt 0.165366 0.206073
vt 0.137742 0.233696
vt 0.118089 0.225726
vt 0.157396 0.225726
vt 0.106515 0.334007
vt 0.235244 0.386314
vt 0.235244 0.400937
vt 0.096232 0.344290
vt 0.363972 0.334007
vt 0.374255 0.344290
vt 0.054208 0.205279
vt 0.039584 0.205279
vt 0.416279 0.205279
vt 0.430903 0.205279
vt 0.106515 0.076550
vt 0.096232 0.066267
vt 0.363972 0.076550
vt 0.374255 0.066267
vt 0.235244 0.024243
vt 0.235244 0.009620
vt 0.854527 0.180718
vt 0.828620 0.191244
vt 0.814334 0.176958
vt 0.854527 0.160614
vt 0.818094 0.217150
vt 0.797991 0.217150
vt 0.880433 0.191244
vt 0.894719 0.176958
vt 0.828620 0.243056
vt 0.814334 0.257343
vt 0.890960 0.217150
vt 0.911062 0.217150
vt 0.854527 0.253582
vt 0.854527 0.273686
vt 0.880433 0.243056
vt 0.894719 0.257343
vt 0.113477 0.083694
vt 0.235709 0.034027
vt 0.235709 0.060725
vt 0.132458 0.102675
vt 0.357940 0.083694
vt 0.338959 0.102675
vt 0.063810 0.205925
vt 0.090509 0.205925
vt 0.407607 0.205925
vt 0.380909 0.205925
vt 0.113477 0.328157
vt 0.132458 0.309176
vt 0.357940 0.328157
vt 0.338959 0.309176
vt 0.235709 0.377823
vt 0.235709 0.351125
vt 0.312547 0.256390
vt 0.264100 0.276057
vt 0.264100 0.235567
vt 0.283753 0.227597
vt 0.215652 0.256390
vt 0.244446 0.227597
vt 0.332214 0.207943
vt 0.291723 0.207943
vt 0.195986 0.207943
vt 0.236476 0.207943
vt 0.312547 0.159496
vt 0.283753 0.188290
vt 0.215652 0.159496
vt 0.244446 0.188290
vt 0.264100 0.139829
vt 0.264100 0.180319
vt 0.593804 0.217150
vt 0.644491 0.341544
vt 0.629874 0.356161
vt 0.573226 0.217150
vt 0.768885 0.392230
vt 0.768306 0.409219
vt 0.644491 0.092756
vt 0.629874 0.078139
vt 0.893280 0.341544
vt 0.907897 0.356161
vt 0.768885 0.042070
vt 0.768885 0.021492
vt 0.943967 0.217150
vt 0.964545 0.217150
vt 0.893280 0.092756
vt 0.907897 0.078139
vt 0.648574 0.217150
vt 0.664918 0.257343
vt 0.647687 0.274573
vt 0.624327 0.217150
vt 0.705110 0.273686
vt 0.705110 0.297933
vt 0.664918 0.176958
vt 0.647687 0.159727
vt 0.745302 0.257343
vt 0.762533 0.274573
vt 0.705110 0.160614
vt 0.705110 0.136368
vt 0.761646 0.217150
vt 0.785893 0.217150
vt 0.745302 0.176958
vt 0.762533 0.159727
vn -0.376443 0.000000 0.926440
vn 0.000000 0.000000 1.000000
vn 0.000000 0.000000 1.000000
vn -0.376443 0.000000 0.926440
vn 0.376443 0.000000 0.926440
vn 0.376443 0.000000 0.926440
vn -0.377370 0.000000 0.926063
vn 0.000000 0.000000 1.000000
vn 0.000000 0.000000 1.000000
vn -0.377370 0.000000 0.926063
vn 0.377371 0.000000 0.926062
vn 0.377371 0.000000 0.926062
vn 0.000000 1.000000 -0.000000
vn 0.000000 1.000000 -0.000000
vn 0.000000 1.000000 -0.000000
vn 0.000000 1.000000 0.000000
vn 0.000000 1.000000 -0.000000
vn 0.000000 1.000000 -0.000000
vn 0.000000 1.000000 0.000000
vn 0.000000 1.000000 0.000000
vn 0.000000 1.000000 0.000000
vn -0.377372 0.000000 -0.926062
vn 0.000000 0.000000 -1.000000
vn 0.000000 0.000000 -1.000000
vn -0.377372 0.000000 -0.926062
vn 0.377372 0.000000 -0.926062
vn 0.377372 0.000000 -0.926062
vn -0.376443 0.000000 -0.926440
vn 0.000000 0.000000 -1.000000
vn 0.000000 0.000000 -1.000000
vn -0.376443 0.000000 -0.926440
vn 0.376443 0.000000 -0.926440
vn 0.376443 0.000000 -0.926440
vn 0.000000 -1.000000 0.000000
vn 0.000000 -1.000000 0.000000
vn 0.000000 -1.000000 0.000000
vn -0.000000 -1.000000 0.000000
vn 0.000000 -1.000000 0.000000
vn 0.000000 -1.000000 0.000000
vn 0.000000 -1.000000 0.000000
vn -0.000000 -1.000000 0.000000
vn 0.000000 -1.000000 0.000000
vn 1.000000 0.000000 0.000000
vn 0.926440 0.000000 -0.376442
vn 0.926440 0.000000 -0.376442
vn 1.000000 0.000000 0.000000
vn 0.926440 0.000000 0.376442
vn 0.926440 0.000000 0.376442
vn 1.000000 0.000000 0.000000
vn 0.926060 0.000000 -0.377376
vn 0.926060 0.000000 -0.377376
vn 1.000000 0.000000 0.000000
vn 0.926060 0.000000 0.377377
vn 0.926060 0.000000 0.377377
vn -0.926440 0.000000 -0.376444
vn -1.000000 0.000000 0.000000
vn -1.000000 0.000000 0.000000
vn -0.926440 0.000000 -0.376444
vn -0.926440 0.000000 0.376444
vn -0.926440 0.000000 0.376444
vn -0.926061 0.000000 -0.377375
vn -1.000000 0.000000 0.000000
vn -1.000000 0.000000 0.000000
vn -0.926061 0.000000 -0.377375
vn -0.926060 0.000000 0.377375
vn -0.926060 0.000000 0.377375
vn 0.000000 -1.000000 0.000000
vn 0.000000 -1.000000 0.000000
vn 0.000000 -1.000000 0.000000
vn 0.000000 -1.000000 0.000000
vn 0.000000 1.000000 0.000000
vn -0.000000 1.000000 -0.000000
vn -0.000000 1.000000 -0.000000
vn 0.000000 1.000000 0.000000
vn 0.000000 -1.000000 -0.000000
vn 0.000000 -1.000000 -0.000000
vn 0.000000 1.000000 -0.000000
vn 0.000000 1.000000 -0.000000
vn -0.000000 1.000000 0.000000
vn -0.000000 1.000000 0.000000
vn -0.000000 1.000000 0.000000
vn -0.000000 1.000000 0.000000
vn 0.000000 -1.000000 -0.000000
vn 0.000000 -1.000000 0.000000
vn 0.000000 -1.000000 0.000000
vn 0.000000 -1.000000 -0.000000
vn 0.000000 1.000000 0.000000
vn 0.000000 1.000000 0.000000
vn 0.000000 -1.000000 -0.000000
vn 0.000000 -1.000000 -0.000000
vn 0.000000 -1.000000 -0.000000
vn 0.000000 -1.000000 -0.000000
vn 0.000000 1.000000 0.000000
vn 0.000000 1.000000 0.000000
vn 0.000000 -1.000000 -0.000000
vn 0.000000 -1.000000 -0.000000
vn -0.000000 1.000000 -0.000000
vn -0.000000 1.000000 -0.000000
vn 0.000000 -1.000000 -0.000000
vn 0.000000 -1.000000 0.000000
vn 0.000000 -0.968186 0.250230
vn 0.175999 -0.968529 0.175999
vn 0.000000 -1.000000 -0.000000
vn 0.250230 -0.968187 -0.000000
vn 0.000000 -1.000000 0.000000
vn -0.175999 -0.968529 0.175999
vn 0.000000 -1.000000 -0.000000
vn -0.250230 -0.968187 -0.000000
vn 0.000000 -1.000000 0.000000
vn 0.000000 -1.000000 0.000000
vn 0.175999 -0.968529 -0.176000
vn 0.000000 -0.968187 -0.250230
vn 0.000000 -1.000000 -0.000000
vn -0.175999 -0.968529 -0.175999
vn 0.408585 -0.816159 0.408587
vn 0.000000 -0.814564 0.580073
vn 0.000000 -1.000000 -0.000000
vn 0.000000 -1.000000 -0.000000
vn 0.580072 -0.814566 0.000000
vn 0.000000 -1.000000 0.000000
vn 0.408587 -0.816158 -0.408587
vn 0.000000 -1.000000 0.000000
vn 0.000000 -0.814564 -0.580073
vn 0.000000 -1.000000 0.000000
vn -0.408587 -0.816157 -0.408588
vn 0.000000 -1.000000 -0.000000
vn -0.580073 -0.814564 -0.000001
vn 0.000000 -1.000000 0.000000
vn -0.408586 -0.816158 0.408588
vn 0.000000 -1.000000 0.000000
vn 0.000000 -0.936761 0.349969
vn 0.246162 -0.937447 0.246165
vn 0.349967 -0.936762 0.000000
vn 0.246164 -0.937447 -0.246164
vn 0.000000 -0.936761 -0.349969
vn -0.246165 -0.937446 -0.246165
vn -0.349969 -0.936761 -0.000001
vn -0.246163 -0.937447 0.246164
vn -0.416722 0.807889 0.416724
vn -0.591310 0.806444 0.000000
vn -0.591310 0.806444 -0.000000
vn -0.416722 0.807889 0.416724
vn 0.000000 0.806442 0.591313
vn 0.000000 0.806442 0.591313
vn 0.416722 0.807888 0.416725
vn 0.416722 0.807888 0.416725
vn 0.591310 0.806445 0.000000
vn 0.591310 0.806445 0.000000
vn 0.416723 0.807888 -0.416724
vn 0.416723 0.807888 -0.416724
vn 0.000000 0.806443 -0.591312
vn 0.000000 0.806443 -0.591312
vn -0.416723 0.807888 -0.416723
vn -0.416723 0.807888 -0.416723
vn 0.365724 0.930723 -0.000000
vn 0.257524 0.931322 0.257526
vn 0.000000 1.000000 0.000000
vn 0.000000 1.000000 0.000000
vn 0.257524 0.931323 -0.257526
vn 0.000000 1.000000 0.000000
vn -0.000000 0.930722 -0.365726
vn 0.000000 1.000000 0.000000
vn -0.257524 0.931323 -0.257526
vn 0.000000 1.000000 0.000000
vn -0.365723 0.930724 -0.000000
vn 0.000000 1.000000 -0.000000
vn -0.257524 0.931323 0.257526
vn 0.000000 1.000000 -0.000000
vn 0.000000 0.930722 0.365727
vn 0.000000 1.000000 0.000000
vn 0.257524 0.931323 0.257526
vn 0.365724 0.930724 -0.000000
vn 0.257524 0.931323 -0.257526
vn -0.000000 0.930722 -0.365727
vn -0.257524 0.931323 -0.257526
vn -0.365723 0.930724 -0.000000
vn -0.257524 0.931323 0.257526
vn 0.000000 0.930722 0.365727
vn 0.000000 1.000000 0.000000
vn 0.000000 1.000000 -0.000000
vn 0.000000 1.000000 0.000000
vn 0.000000 1.000000 0.000000
vn 0.000000 1.000000 -0.000000
vn 0.000000 1.000000 -0.000000
vn 0.000000 1.000000 0.000000
vn 0.000000 1.000000 -0.000000
vn -0.376433 0.000000 0.926444
vn -0.376433 0.000000 0.926444
vn -0.376433 0.000000 0.926444
vn -0.376433 0.000000 0.926444
vn 0.376680 0.000000 -0.926344
vn 0.376680 0.000000 -0.926344
vn 0.376680 0.000000 -0.926344
vn 0.376680 0.000000 -0.926344
vn 0.376433 0.000000 0.926444
vn 0.376433 0.000000 0.926444
vn 0.376433 0.000000 0.926444
vn 0.376433 0.000000 0.926444
vn -0.376680 0.000000 -0.926344
vn -0.376680 0.000000 -0.926344
vn -0.376680 0.000000 -0.926344
vn -0.376680 0.000000 -0.926344
vn -0.376427 0.000000 -0.926447
vn -0.376427 0.000000 -0.926447
vn -0.376427 0.000000 -0.926447
vn -0.376427 0.000000 -0.926447
vn 0.376680 0.000000 0.926344
vn 0.376680 0.000000 0.926344
vn 0.376680 0.000000 0.926344
vn 0.376680 0.000000 0.926344
vn 0.376433 0.000000 -0.926444
vn 0.376433 0.000000 -0.926444
vn 0.376433 0.000000 -0.926444
vn 0.376433 0.000000 -0.926444
vn -0.376680 0.000000 0.926344
vn -0.376680 0.000000 0.926344
vn -0.376680 0.000000 0.926344
vn -0.376680 0.000000 0.926344
vn 0.926439 0.000000 -0.376444
vn 0.926439 0.000000 -0.376444
vn 0.926439 0.000000 -0.376444
vn 0.926439 0.000000 -0.376444
vn -0.926344 0.000000 0.376679
vn -0.926344 0.000000 0.376679
vn -0.926344 0.000000 0.376679
vn -0.926344 0.000000 0.376679
vn 0.926440 0.000000 0.376442
vn 0.926440 0.000000 0.376442
vn 0.926440 0.000000 0.376442
vn 0.926440 0.000000 0.376442
vn -0.926344 0.000000 -0.376679
vn -0.926344 0.000000 -0.376679
vn -0.926344 0.000000 -0.376679
vn -0.926344 0.000000 -0.376679
vn -0.926440 0.000000 -0.376442
vn -0.926440 0.000000 -0.376442
vn -0.926440 0.000000 -0.376442
vn -0.926440 0.000000 -0.376442
vn 0.926344 0.000000 0.376679
vn 0.926344 0.000000 0.376679
vn 0.926344 0.000000 0.376679
vn 0.926344 0.000000 0.376679
vn -0.926440 0.000000 0.376442
vn -0.926440 0.000000 0.376442
vn -0.926440 0.000000 0.376442
vn -0.926440 0.000000 0.376442
vn 0.926344 0.000000 -0.376679
vn 0.926344 0.000000 -0.376679
vn 0.926344 0.000000 -0.376679
vn 0.926344 0.000000 -0.376679
vn 0.375815 0.000000 0.926695
vn 0.375815 0.000000 0.926695
vn 0.375815 0.000000 0.926695
vn 0.375815 0.000000 0.926695
vn 0.926686 0.000000 0.375836
vn 0.926686 0.000000 0.375836
vn 0.926686 0.000000 0.375836
vn 0.926686 0.000000 0.375836
vn -0.375832 0.000000 0.926688
vn -0.375832 0.000000 0.926688
vn -0.375832 0.000000 0.926688
vn -0.375832 0.000000 0.926688
vn -0.926681 0.000000 0.375850
vn -0.926681 0.000000 0.375850
vn -0.926681 0.000000 0.375850
vn -0.926681 0.000000 0.375850
vn 0.375828 0.000000 -0.926689
vn 0.375828 0.000000 -0.926689
vn 0.375828 0.000000 -0.926689
vn 0.375828 0.000000 -0.926689
vn 0.926684 0.000000 -0.375841
vn 0.926684 0.000000 -0.375841
vn 0.926684 0.000000 -0.375841
vn 0.926684 0.000000 -0.375841
vn -0.926681 0.000000 -0.375850
vn -0.926681 0.000000 -0.375850
vn -0.926681 0.000000 -0.375850
vn -0.926681 0.000000 -0.375850
vn -0.375832 0.000000 -0.926688
vn -0.375832 0.000000 -0.926688
vn -0.375832 0.000000 -0.926688
vn -0.375832 0.000000 -0.926688
s 1
f 1/1/1 2/2/2 5/3/3 4/4/4
f 2/2/2 3/5/5 6/6/6 5/3/3
s 2
f 26/7/7 27/8/8 28/9/9 29/10/10
f 27/8/8 30/11/11 31/12/12 28/9/9
s 3
f 7/154/13 8/155/14 11/156/15 10/157/16
f 8/155/14 9/158/17 12/159/18 11/156/15
f 10/157/16 11/156/15 14/160/19 13/161/20
f 11/156/15 12/159/18 15/162/21 14/160/19
s 4
f 32/20/22 33/21/23 34/22/24 35/23/25
f 33/144/23 36/24/26 37/25/27 34/135/24
s 5
f 16/26/28 17/27/29 20/28/30 19/29/31
f 17/134/29 18/30/32 21/136/33 20/130/30
s 6
f 122/163/34 123/164/35 124/165/36 125/166/37
f 123/164/35 126/167/38 127/168/39 124/165/36
f 125/166/37 124/165/36 128/169/40 129/170/41
f 124/165/36 127/168/39 130/171/42 128/169/40
s 7
f 23/38/43 21/136/44 18/30/45 24/39/46
f 3/5/47 23/38/43 24/39/46 6/6/48
s 8
f 38/40/49 37/25/50 36/24/51 39/41/52
f 30/11/53 38/40/49 39/41/52 31/12/54
s 9
f 19/29/55 22/42/56 25/43/57 16/26/58
f 22/42/56 1/1/59 4/4/60 25/43/57
s 10
f 35/23/61 40/44/62 41/45/63 32/20/64
f 40/44/62 26/7/65 29/10/66 41/45/63
s 11
f 4/172/67 5/173/68 27/174/69 26/175/70
s 12
f 107/188/71 106/189/72 108/190/73 109/191/74
s 11
f 5/173/68 6/176/75 30/177/76 27/174/69
s 12
f 110/194/77 107/188/71 109/191/74 111/195/78
f 112/196/79 113/200/80 114/201/81 115/197/82
s 11
f 17/186/83 16/182/84 35/183/85 34/187/86
s 12
f 113/200/80 116/202/87 117/203/88 114/201/81
s 11
f 18/184/89 17/186/83 34/187/86 37/185/90
f 24/180/91 18/184/89 37/185/90 38/181/92
s 12
f 116/202/87 118/198/93 119/199/94 117/203/88
s 11
f 6/176/75 24/180/91 38/181/92 30/177/76
s 12
f 118/198/93 110/194/77 111/195/78 119/199/94
s 11
f 16/182/84 25/178/95 40/179/96 35/183/85
s 12
f 120/192/97 112/196/79 115/197/82 121/193/98
s 11
f 25/178/95 4/172/67 26/175/70 40/179/96
s 12
f 106/189/72 120/192/97 121/193/98 108/190/73
s 15
f 19/204/99 20/205/100 62/206/101 63/207/102
f 22/210/103 19/204/99 63/207/102 64/211/104
f 20/205/100 21/208/105 61/209/106 62/206/101
f 21/208/105 23/212/107 60/213/108 61/209/106
f 2/218/109 1/214/110 65/215/111 58/219/112
f 1/214/110 22/210/103 64/211/104 65/215/111
f 23/212/107 3/216/113 59/217/114 60/213/108
f 3/216/113 2/218/109 58/219/112 59/217/114
f 51/220/115 50/221/116 47/222/117 49/223/118
f 52/226/119 51/220/115 49/223/118 46/227/120
f 53/230/121 52/226/119 46/227/120 45/231/122
f 54/234/123 53/230/121 45/231/122 43/235/124
f 55/232/125 54/234/123 43/235/124 42/233/126
f 56/228/127 55/232/125 42/233/126 44/229/128
f 57/224/129 56/228/127 44/229/128 48/225/130
f 50/221/116 57/224/129 48/225/130 47/222/117
f 59/68/114 58/67/112 133/84/131 134/85/132
f 60/65/108 59/68/114 134/85/132 135/86/133
f 61/137/106 60/65/108 135/86/133 136/140/134
f 62/138/101 61/137/106 136/140/134 137/141/135
f 63/63/102 62/62/101 137/87/135 138/88/136
f 64/64/104 63/63/102 138/88/136 131/89/137
f 65/66/111 64/64/104 131/89/137 132/90/138
f 58/67/112 65/66/111 132/90/138 133/84/131
s 17
f 67/91/139 66/92/140 83/93/141 84/94/142
f 68/95/143 67/91/139 84/94/142 85/96/144
f 69/97/145 68/95/143 85/96/144 86/98/146
f 70/99/147 69/97/145 86/98/146 87/100/148
f 71/101/149 70/99/147 87/100/148 88/142/150
f 72/148/151 71/101/149 88/142/150 89/143/152
f 73/104/153 72/102/151 89/103/152 82/105/154
f 66/92/140 73/104/153 82/105/154 83/93/141
f 75/236/155 74/237/156 32/238/157 41/239/158
f 76/242/159 75/236/155 41/239/158 29/243/160
f 77/246/161 76/242/159 29/243/160 28/247/162
f 78/250/163 77/246/161 28/247/162 31/251/164
f 79/248/165 78/250/163 31/251/164 39/249/166
f 80/244/167 79/248/165 39/249/166 36/245/168
f 81/240/169 80/244/167 36/245/168 33/241/170
f 74/237/156 81/240/169 33/241/170 32/238/157
f 83/93/141 82/105/154 90/114/171 91/115/172
f 84/94/142 83/93/141 91/115/172 92/116/173
f 85/96/144 84/94/142 92/116/173 93/117/174
f 86/98/146 85/96/144 93/117/174 94/118/175
f 87/100/148 86/98/146 94/118/175 95/119/176
f 88/142/150 87/100/148 95/119/176 96/145/177
f 89/143/152 88/142/150 96/145/177 97/146/178
f 82/105/154 89/103/152 97/120/178 90/114/171
f 91/115/172 90/114/171 74/107/156 75/106/155
f 92/116/173 91/115/172 75/106/155 76/108/159
f 93/117/174 92/116/173 76/108/159 77/109/161
f 94/118/175 93/117/174 77/109/161 78/110/163
f 95/119/176 94/118/175 78/110/163 79/111/165
f 96/145/177 95/119/176 79/111/165 80/112/167
f 97/146/178 96/145/177 80/112/167 81/147/169
f 90/114/171 97/120/178 81/113/169 74/107/156
f 99/252/179 98/253/180 73/254/153 66/255/140
f 100/258/181 99/252/179 66/255/140 67/259/139
f 101/262/182 100/258/181 67/259/139 68/263/143
f 102/266/183 101/262/182 68/263/143 69/267/145
f 103/264/184 102/266/183 69/267/145 70/265/147
f 104/260/185 103/264/184 70/265/147 71/261/149
f 105/256/186 104/260/185 71/261/149 72/257/151
f 98/253/180 105/256/186 72/257/151 73/254/153
s off
f 8/14/187 7/13/188 106/47/189 107/46/190
f 100/123/191 101/124/192 109/49/193 108/48/194
f 9/16/195 8/14/196 107/46/197 110/50/198
f 101/124/199 102/125/200 111/51/201 109/49/202
f 13/19/203 14/18/204 113/53/205 112/52/206
f 105/128/207 98/122/208 115/55/209 114/54/210
f 14/129/211 15/149/212 116/56/213 113/133/214
f 104/127/215 105/150/216 114/151/217 117/57/218
f 15/149/219 12/17/220 118/58/221 116/56/222
f 103/126/223 104/127/224 117/57/225 119/59/226
f 12/17/227 9/16/228 110/50/229 118/58/230
f 102/125/231 103/126/232 119/59/233 111/51/234
f 10/15/235 13/19/236 112/52/237 120/60/238
f 98/122/239 99/121/240 121/61/241 115/55/242
f 7/13/243 10/15/244 120/60/245 106/47/246
f 99/121/247 100/123/248 108/48/249 121/61/250
f 42/79/251 43/77/252 123/32/253 122/31/254
f 44/81/255 42/79/256 122/31/257 125/33/258
f 43/139/259 45/152/260 126/132/261 123/131/262
f 45/152/263 46/74/264 127/34/265 126/132/266
f 47/71/267 48/83/268 129/36/269 128/35/270
f 48/83/271 44/81/272 125/33/273 129/36/274
f 46/74/275 49/72/276 130/37/277 127/34/278
f 49/72/279 47/71/280 128/35/281 130/37/282
s 15
f 132/90/138 131/89/137 56/80/127 57/82/129
f 133/84/131 132/90/138 57/82/129 50/70/116
f 134/85/132 133/84/131 50/70/116 51/69/115
f 135/86/133 134/85/132 51/69/115 52/73/119
f 136/140/134 135/86/133 52/73/119 53/75/121
f 137/141/135 136/140/134 53/75/121 54/153/123
f 138/88/136 137/87/135 54/76/123 55/78/125
f 131/89/137 138/88/136 55/78/125 56/80/127
