# This file uses centimeters as units for non-parametric coordinates.

v -1.940966 -0.983391 3.435266
v 0.000002 -0.036958 3.435266
v 1.940966 0.462504 3.435266
v -1.940966 -0.673388 3.435266
v 0.000002 0.273046 3.435266
v 1.940966 0.772507 3.435266
v -1.940966 0.983391 0.447607
v 0.000002 0.273046 0.447607
v 1.940966 0.273046 0.447607
v -1.940966 0.983391 -2.540052
v 0.000002 0.273046 -2.540052
v 1.940966 0.273046 -2.540052
v -1.940966 0.673388 -2.540052
v 0.000002 -0.036958 -2.540052
v 1.940966 -0.036958 -2.540052
v -1.940966 0.673388 0.447607
v 0.000002 -0.036958 0.447607
v 1.940966 -0.036958 0.447607
v 1.232950 0.843823 3.435266
v 0.877348 0.843823 0.447607
v 0.649218 0.843823 -3.435266
v 0.649218 0.533820 -3.435266
v 0.877348 0.533820 0.447607
v 1.232950 0.533820 3.435266
vt 0.421234 0.708707
vt 0.427250 0.714723
vt 0.371219 0.734022
vt 0.365203 0.728006
vt 0.456236 0.695857
vt 0.462252 0.701873
vt 0.474607 0.686750
vt 0.468592 0.680734
vt 0.369839 0.738503
vt 0.423105 0.738503
vt 0.423105 0.820494
vt 0.369839 0.820494
vt 0.456941 0.738503
vt 0.447182 0.820494
vt 0.423105 0.902485
vt 0.369839 0.902485
vt 0.476371 0.738503
vt 0.476371 0.820494
vt 0.440922 0.927053
vt 0.476371 0.902485
vt 0.442960 0.932596
vt 0.442960 0.941103
vt 0.389693 0.921609
vt 0.389693 0.913102
vt 0.460776 0.925439
vt 0.460776 0.916932
vt 0.496226 0.941103
vt 0.496226 0.932596
vt 0.610619 0.878645
vt 0.557353 0.878645
vt 0.557353 0.796654
vt 0.610619 0.796654
vt 0.539536 0.903213
vt 0.533275 0.796654
vt 0.557353 0.714663
vt 0.610619 0.714663
vt 0.504086 0.878645
vt 0.504086 0.796654
vt 0.523516 0.714663
vt 0.504086 0.714663
vt 0.480878 0.823290
vt 0.480878 0.741298
vt 0.489386 0.741299
vt 0.489386 0.823290
vt 0.503092 0.905281
vt 0.494585 0.905281
vt 0.343749 0.864027
vt 0.335242 0.864027
vt 0.335242 0.782036
vt 0.343749 0.782036
vt 0.389217 0.946018
vt 0.380709 0.946018
vn -0.000003 0.000000 1.000000
vn -0.000003 0.000000 1.000000
vn -0.000003 0.000000 1.000000
vn -0.000003 0.000000 1.000000
vn -0.000001 0.000000 1.000000
vn -0.000001 0.000000 1.000000
vn -0.058506 0.961993 0.266732
vn -0.275360 0.949232 0.152106
vn -0.212199 0.973487 0.085412
vn 0.146940 0.979551 0.137437
vn -0.074955 0.996444 -0.038478
vn -0.081360 0.996514 -0.018430
vn -0.140489 0.990020 0.011138
vn 0.343682 0.939086 0.000000
vn -0.088139 0.996104 0.002927
vn -0.454380 0.000000 -0.890808
vn -0.454380 0.000000 -0.890808
vn -0.000003 0.000000 -1.000000
vn -0.000003 0.000000 -1.000000
vn -0.167863 0.000000 -0.985810
vn -0.167863 0.000000 -0.985810
vn -0.343682 -0.939086 0.000000
vn 0.140488 -0.990020 -0.011138
vn 0.212199 -0.973487 -0.085412
vn -0.146940 -0.979551 -0.137437
vn 0.088140 -0.996104 -0.002927
vn 0.081360 -0.996514 0.018430
vn 0.275360 -0.949232 -0.152106
vn 0.058506 -0.961993 -0.266732
vn 0.074955 -0.996444 0.038478
vn 1.000000 0.000000 0.000000
vn 1.000000 0.000000 0.000000
vn 1.000000 0.000000 0.000000
vn 1.000000 0.000000 0.000000
vn 1.000000 0.000000 0.000000
vn 1.000000 0.000000 0.000000
vn -1.000000 0.000000 0.000000
vn -1.000000 0.000000 0.000000
vn -1.000000 0.000000 0.000000
vn -1.000000 0.000000 0.000000
vn -1.000000 0.000000 0.000000
vn -1.000000 0.000000 0.000000
vn 0.339088 0.935596 -0.098384
vn 0.390755 0.918751 -0.056640
vn 0.440587 0.897591 -0.014629
vn 0.569606 0.000000 -0.821918
vn 0.569606 0.000000 -0.821918
vn -0.440586 -0.897591 0.014629
vn -0.390754 -0.918751 0.056640
vn -0.339088 -0.935596 0.098384
vn 0.000000 0.000000 1.000000
vn 0.000000 0.000000 1.000000
s 1
f 2/1/1 5/2/2 4/3/3 1/4/4
f 24/5/5 19/6/6 5/2/2 2/1/1
s 2
f 4/9/7 5/10/8 8/11/9 7/12/10
f 5/10/8 19/13/11 20/14/12 8/11/9
f 7/12/10 8/11/9 11/15/13 10/16/14
f 8/11/9 20/14/12 21/19/15 11/15/13
s 3
f 11/21/16 14/22/17 13/23/18 10/24/19
f 22/25/20 14/22/17 11/21/16 21/26/21
s 4
f 13/29/22 14/30/23 17/31/24 16/32/25
f 14/30/23 22/33/26 23/34/27 17/31/24
f 16/32/25 17/31/24 2/35/28 1/36/29
f 17/31/24 23/34/27 24/39/30 2/35/28
s 5
f 18/41/31 15/42/32 12/43/33 9/44/34
f 6/45/35 3/46/36 18/41/31 9/44/34
s 6
f 16/47/37 7/48/38 10/49/39 13/50/40
f 1/51/41 4/52/42 7/48/38 16/47/37
s 2
f 19/13/11 6/17/43 9/18/44 20/14/12
f 21/19/15 20/14/12 9/18/44 12/20/45
s 3
f 15/27/46 22/25/20 21/26/21 12/28/47
s 4
f 23/34/27 22/33/26 15/37/48 18/38/49
f 24/39/30 23/34/27 18/38/49 3/40/50
s 1
f 6/7/51 19/6/6 24/5/5 3/8/52
