# This file uses centimeters as units for non-parametric coordinates.

v -0.051464 -0.071383 0.051458
v -0.000004 -0.071798 0.072787
v 0.051464 -0.071383 0.051458
v -0.072552 0.000000 0.072555
v -0.000004 0.000000 0.102036
v 0.072552 0.000000 0.072555
v -0.051464 0.071383 0.051458
v -0.000004 0.071798 0.072787
v 0.051464 0.071383 0.051458
v -0.072788 0.071798 0.000000
v -0.000004 0.100648 0.000000
v 0.072788 0.071798 0.000000
v -0.051464 0.071383 -0.051458
v -0.000004 0.071798 -0.072787
v 0.051464 0.071383 -0.051458
v -0.072552 0.000000 -0.072555
v -0.000004 0.000000 -0.102036
v 0.072552 0.000000 -0.072555
v -0.051464 -0.071383 -0.051458
v -0.000004 -0.071798 -0.072787
v 0.051464 -0.071383 -0.051458
v -0.072788 -0.071798 0.000000
v -0.000004 -0.100648 0.000000
v 0.072788 -0.071798 0.000000
v 0.102032 0.000000 0.000000
v -0.102032 0.000000 0.000000
vt 0.885873 0.674887
vt 0.895417 0.674887
vt 0.904961 0.674887
vt 0.885873 0.684431
vt 0.895417 0.684431
vt 0.904961 0.684431
vt 0.885873 0.693975
vt 0.895417 0.693975
vt 0.904961 0.693975
vt 0.885873 0.703519
vt 0.895417 0.703519
vt 0.904961 0.703519
vt 0.885873 0.713063
vt 0.895417 0.713063
vt 0.904961 0.713063
vt 0.885873 0.722607
vt 0.895417 0.722607
vt 0.904961 0.722607
vt 0.885873 0.732152
vt 0.895417 0.732152
vt 0.904961 0.732152
vt 0.885873 0.741696
vt 0.895417 0.741696
vt 0.904961 0.741696
vt 0.885873 0.751240
vt 0.895417 0.751240
vt 0.904961 0.751240
vt 0.924050 0.674887
vt 0.914505 0.674887
vt 0.924050 0.684431
vt 0.914505 0.684431
vt 0.924050 0.693975
vt 0.914505 0.693975
vt 0.866785 0.674887
vt 0.876329 0.674887
vt 0.866785 0.684431
vt 0.876329 0.684431
vt 0.866785 0.693975
vt 0.876329 0.693975
vn -0.355301 -0.356184 0.864230
vn -0.000022 -0.381058 0.924551
vn -0.000023 0.000006 1.000000
vn -0.380239 0.000011 0.924888
vn 0.355260 -0.356212 0.864236
vn 0.380199 0.000000 0.924905
vn -0.000021 0.381069 0.924547
vn -0.355298 0.356204 0.864223
vn 0.355260 0.356212 0.864236
vn -0.263816 0.927796 0.263810
vn -0.000015 0.961873 0.273497
vn -0.000016 1.000000 0.000000
vn -0.273505 0.961871 0.000000
vn 0.263787 0.927805 0.263807
vn 0.273475 0.961879 0.000000
vn -0.000015 0.961873 -0.273497
vn -0.263817 0.927796 -0.263810
vn 0.263787 0.927805 -0.263807
vn -0.355291 0.356185 -0.864234
vn -0.000022 0.381058 -0.924551
vn -0.000023 -0.000006 -1.000000
vn -0.380228 -0.000011 -0.924893
vn 0.355250 0.356213 -0.864239
vn 0.380188 0.000000 -0.924909
vn -0.000021 -0.381069 -0.924547
vn -0.355288 -0.356206 -0.864227
vn 0.355250 -0.356213 -0.864239
vn -0.263818 -0.927795 -0.263810
vn -0.000016 -0.961873 -0.273497
vn -0.000017 -1.000000 0.000000
vn -0.273507 -0.961870 0.000000
vn 0.263787 -0.927805 -0.263807
vn 0.273475 -0.961879 -0.000000
vn -0.000015 -0.961873 0.273497
vn -0.263817 -0.927796 0.263810
vn 0.263787 -0.927805 0.263807
vn 0.924597 -0.380948 0.000003
vn 0.864277 -0.356118 -0.355255
vn 0.924913 -0.000022 -0.380179
vn 1.000000 -0.000012 0.000002
vn 0.864291 -0.356078 0.355261
vn 0.924913 0.000000 0.380179
vn 0.864291 0.356078 -0.355261
vn 0.924605 0.380927 0.000000
vn 0.864291 0.356078 0.355261
vn -0.864255 -0.356179 -0.355246
vn -0.924557 -0.381043 -0.000002
vn -1.000000 0.000000 -0.000002
vn -0.924913 0.000000 -0.380179
vn -0.864248 -0.356199 0.355243
vn -0.924913 0.000000 0.380179
vn -0.924557 0.381043 -0.000002
vn -0.864255 0.356179 -0.355246
vn -0.864248 0.356199 0.355243
s 1
f 1/1/1 2/2/2 5/5/3 4/4/4
f 2/2/2 3/3/5 6/6/6 5/5/3
f 4/4/4 5/5/3 8/8/7 7/7/8
f 5/5/3 6/6/6 9/9/9 8/8/7
s 2
f 7/7/10 8/8/11 11/11/12 10/10/13
f 8/8/11 9/9/14 12/12/15 11/11/12
f 10/10/13 11/11/12 14/14/16 13/13/17
f 11/11/12 12/12/15 15/15/18 14/14/16
s 3
f 13/13/19 14/14/20 17/17/21 16/16/22
f 14/14/20 15/15/23 18/18/24 17/17/21
f 16/16/22 17/17/21 20/20/25 19/19/26
f 17/17/21 18/18/24 21/21/27 20/20/25
s 4
f 19/19/28 20/20/29 23/23/30 22/22/31
f 20/20/29 21/21/32 24/24/33 23/23/30
f 22/22/31 23/23/30 2/26/34 1/25/35
f 23/23/30 24/24/33 3/27/36 2/26/34
s 5
f 24/29/37 21/28/38 18/30/39 25/31/40
f 3/3/41 24/29/37 25/31/40 6/6/42
f 25/31/40 18/30/39 15/32/43 12/33/44
f 6/6/42 25/31/40 12/33/44 9/9/45
s 6
f 19/34/46 22/35/47 26/37/48 16/36/49
f 22/35/47 1/1/50 4/4/51 26/37/48
f 16/36/49 26/37/48 10/39/52 13/38/53
f 26/37/48 4/4/51 7/7/54 10/39/52
