# This file uses centimeters as units for non-parametric coordinates.

v -2.208208 -0.701333 3.897393
v -0.781397 -0.602580 2.084189
v 2.208208 -0.253847 3.179405
v -2.208208 -0.391330 3.897393
v -0.781397 -0.292577 2.084189
v 2.208208 0.056156 3.179405
v -2.208208 0.056156 -0.358994
v -0.781397 0.056156 -0.358994
v 2.208208 0.056156 -0.358994
v -2.208208 1.064310 -3.897393
v 0.000002 0.056156 -3.897393
v 2.208208 -0.754307 -3.897393
v -2.208208 0.754307 -3.897393
v 0.000002 -0.253847 -3.897393
v 2.208208 -1.064310 -3.897393
v -2.208208 -0.253847 -0.358994
v -0.781397 -0.253847 -0.358994
v 2.208208 -0.253847 -0.358994
vt 0.765236 0.089730
vt 0.680929 0.079895
vt 0.680929 0.071153
vt 0.765236 0.080988
vt 0.640693 0.077111
vt 0.640693 0.068369
vt 0.837417 0.078445
vt 0.877653 0.129577
vt 0.877653 0.198475
vt 0.837417 0.198475
vt 0.961960 0.098692
vt 0.961960 0.198475
vt 0.899689 0.298258
vt 0.837417 0.298258
vt 0.961960 0.298258
vt 0.377432 0.099470
vt 0.377432 0.108212
vt 0.315160 0.079782
vt 0.315160 0.071040
vt 0.439703 0.131067
vt 0.439703 0.122325
vt 0.790865 0.292589
vt 0.728593 0.292589
vt 0.750629 0.192806
vt 0.790865 0.192806
vt 0.666322 0.292589
vt 0.666322 0.192806
vt 0.750629 0.123908
vt 0.790865 0.072776
vt 0.666322 0.093023
vt 0.805746 0.185408
vt 0.828601 0.285191
vt 0.819859 0.285191
vt 0.797004 0.185408
vt 0.797004 0.085625
vt 0.805746 0.085625
vt 0.638516 0.244373
vt 0.647258 0.244373
vt 0.675688 0.344156
vt 0.666946 0.344156
vt 0.625897 0.124343
vt 0.634639 0.124343
vn 0.272960 0.000000 0.962026
vn 0.272960 0.000000 0.962026
vn 0.785865 0.000000 0.618398
vn 0.785865 0.000000 0.618398
vn -0.343985 0.000000 0.938975
vn -0.343985 0.000000 0.938975
vn 0.040590 0.992193 0.117918
vn -0.014094 0.996006 0.088163
vn 0.098465 0.993208 0.061989
vn 0.153133 0.977925 0.142173
vn -0.068723 0.995945 0.058065
vn 0.042708 0.998907 -0.018994
vn 0.210628 0.976948 0.034759
vn 0.263615 0.950496 0.164514
vn 0.153355 0.983526 -0.095704
vn -0.000001 0.000000 -1.000000
vn -0.000001 0.000000 -1.000000
vn 0.000000 0.000000 -1.000000
vn 0.000000 0.000000 -1.000000
vn -0.000001 0.000000 -1.000000
vn -0.000001 0.000000 -1.000000
vn -0.263615 -0.950496 -0.164514
vn -0.210628 -0.976948 -0.034759
vn -0.098465 -0.993208 -0.061989
vn -0.153133 -0.977925 -0.142173
vn -0.153355 -0.983526 0.095704
vn -0.042708 -0.998907 0.018994
vn 0.014094 -0.996006 -0.088163
vn -0.040590 -0.992193 -0.117918
vn 0.068724 -0.995945 -0.058065
vn 1.000000 0.000000 0.000000
vn 1.000000 0.000000 0.000000
vn 1.000000 0.000000 0.000000
vn 1.000000 0.000000 0.000000
vn 1.000000 0.000000 0.000000
vn 1.000000 0.000000 0.000000
vn -1.000000 0.000000 0.000000
vn -1.000000 0.000000 0.000000
vn -1.000000 0.000000 0.000000
vn -1.000000 0.000000 0.000000
vn -1.000000 0.000000 0.000000
vn -1.000000 0.000000 0.000000
s 1
f 2/3/1 5/2/2 4/5/3 1/6/4
f 6/1/5 5/2/2 2/3/1 3/4/6
s 2
f 4/7/7 5/8/8 8/9/9 7/10/10
f 5/8/8 6/11/11 9/12/12 8/9/9
f 7/10/10 8/9/9 11/13/13 10/14/14
f 8/9/9 9/12/12 12/15/15 11/13/13
s 3
f 11/16/16 14/17/17 13/18/18 10/19/19
f 15/20/20 14/17/17 11/16/16 12/21/21
s 4
f 13/22/22 14/23/23 17/24/24 16/25/25
f 14/23/23 15/26/26 18/27/27 17/24/24
f 16/25/25 17/24/24 2/28/28 1/29/29
f 17/24/24 18/27/27 3/30/30 2/28/28
s 5
f 18/31/31 15/32/32 12/33/33 9/34/34
f 6/35/35 3/36/36 18/31/31 9/34/34
s 6
f 16/37/37 7/38/38 10/39/39 13/40/40
f 1/41/41 4/42/42 7/38/38 16/37/37
