# This file uses centimeters as units for non-parametric coordinates.

v -1.940965 -8.616173 1.753245
v -0.338057 -8.113784 2.592505
v 1.940965 -8.299368 1.753245
v -1.940965 -6.470199 1.753245
v 0.000000 -6.470199 2.541923
v 1.334917 -6.470199 1.753245
v -1.940965 4.952219 1.753245
v 0.000000 5.979061 2.242553
v 1.940965 4.952219 1.753245
v -2.729645 4.618775 -0.187718
v 2.729645 4.952219 -0.187718
v -1.940965 4.952219 -2.128684
v 0.000000 5.325111 -2.637115
v 1.940965 4.952219 -2.128684
v -1.819163 -6.588879 -2.534612
v 0.000000 -6.470199 -2.917357
v 1.548136 -5.716513 -1.967881
v -1.940965 -8.921916 -2.128684
v 0.000000 -8.299368 -2.917357
v 1.905591 -7.948252 -1.841357
v -2.729645 -9.057535 -0.187718
v 2.729645 -7.683610 -0.187718
v 2.729645 -6.470199 -0.187718
v -2.245781 -6.565355 -0.561757
v -0.630689 4.952219 0.431884
v 0.000000 4.987624 0.662072
v -0.886371 4.952219 -0.187718
v 0.630689 4.952219 0.431884
v 0.886371 4.952219 -0.187718
v 0.000000 4.952219 -1.074094
v -0.630689 4.952219 -0.818414
v 0.630689 4.952219 -0.818414
v -0.630689 -7.932951 -0.818414
v 0.000000 -7.929691 -1.074094
v 0.000000 -7.606471 -0.187718
v -0.886371 -7.929691 -0.187718
v 0.630689 -7.932951 -0.818414
v 0.886371 -7.929691 -0.187718
v 0.000000 -7.929691 0.698657
v -0.630689 -7.932951 0.442977
v 0.630689 -7.932951 0.442977
v -0.630689 6.487570 0.121505
v 0.000000 6.487570 0.266128
v -0.886371 6.487570 -0.317655
v 0.630689 6.487570 0.121966
v 0.886371 6.487570 -0.304706
v 0.000000 6.487570 -1.034516
v -0.630689 6.487570 -0.818824
v 0.630689 6.487570 -0.809073
v -0.052940 7.841490 0.456370
v 0.398760 7.406753 0.521972
v -0.235676 8.021127 0.072953
v 0.851068 6.954992 0.266873
v 1.034455 6.769487 -0.202722
v 0.400019 7.409419 -0.661273
v -0.052288 7.857699 -0.383567
v 0.851719 6.950413 -0.618373
v 1.269449 8.703688 0.470939
v 1.269449 7.900461 0.718871
v 1.269434 9.057535 -0.112115
v 1.269449 7.178235 0.425605
v 1.269449 6.898280 -0.128800
v 1.269449 7.907836 -0.668090
v 1.269449 8.707561 -0.556516
v 1.269449 7.173714 -0.565728
v 1.269449 8.624225 0.395190
v 1.269449 7.934120 0.602294
v 1.269434 8.923096 -0.077903
v 1.269449 7.305068 0.367942
v 1.269449 7.061170 -0.081573
v 1.269449 7.942573 -0.517438
v 1.269449 8.629477 -0.434592
v 1.269449 7.301981 -0.430020
v 0.024967 7.788239 0.370692
v 0.399516 7.414278 0.406676
v -0.125916 7.942493 0.073510
v 0.774553 7.023814 0.186843
v 0.925954 6.862664 -0.192348
v 0.400537 7.417613 -0.529611
v 0.025456 7.804049 -0.296924
v 0.775130 7.018846 -0.509528
v -0.532110 6.487605 0.000979
v -0.000711 6.487570 0.119788
v -0.000015 6.487570 -0.448117
v -0.746180 6.487619 -0.350022
v 0.531369 6.487537 0.001483
v 0.746180 6.487523 -0.340188
v 0.000726 6.487570 -0.920106
v -0.531443 6.487605 -0.748229
v 0.532199 6.487537 -0.741818
v -1.587968 -8.220078 1.899360
v -0.636246 -7.812057 2.438201
v -0.380743 -6.794807 2.399966
v -1.583135 -6.828901 1.898635
v -0.953631 -7.742191 0.349442
v 0.271249 -7.728590 0.847407
v 0.271704 -6.807402 0.847339
v -0.953631 -6.807402 0.349442
v -1.637975 2.021892 1.731372
v -1.847536 1.583850 -0.290689
v -1.837947 1.695685 -1.943633
v -0.500080 1.875838 -3.483451
v 1.149855 2.470639 -2.128684
v 1.689030 2.064878 -0.577889
v 1.259161 1.875838 1.753245
v 0.000000 2.212062 2.337832
v -0.998239 -1.919190 1.934253
v -1.184285 -2.288495 -0.172732
v -0.975350 -2.515208 -2.743484
v -0.596402 -0.681621 -3.394950
v 0.351909 -1.587767 -1.574761
v 1.598204 -2.311919 -0.187718
v 1.329719 -3.523209 1.785853
v 0.399924 -3.222293 3.483451
vt 0.769921 0.011512
vt 0.869718 0.011512
vt 0.869718 0.097636
vt 0.769921 0.097636
vt 0.670124 0.097636
vt 0.769921 0.635446
vt 0.670124 0.635446
vt 0.869718 0.635446
vt 0.736659 0.983918
vt 0.769062 0.967454
vt 0.704212 0.988034
vt 0.801501 0.935982
vt 0.574389 0.920803
vt 0.639270 0.967454
vt 0.606849 0.935982
vt 0.470530 0.635446
vt 0.370733 0.635446
vt 0.370733 0.097636
vt 0.470530 0.097636
vt 0.270936 0.635446
vt 0.270936 0.097636
vt 0.370733 0.011512
vt 0.470530 0.011512
vt 0.969515 0.011512
vt 0.171139 0.097636
vt 0.171139 0.635446
vt 0.570327 0.011512
vt 0.570327 0.097636
vt 0.670124 0.011512
vt 0.570327 0.635446
vt 0.902861 0.643429
vt 0.870436 0.643429
vt 0.838012 0.643429
vt 0.935285 0.643429
vt 0.708279 0.643429
vt 0.806722 0.643429
vt 0.773162 0.643429
vt 0.740738 0.643429
vt 0.902861 0.714410
vt 0.870436 0.714410
vt 0.838012 0.714410
vt 0.935285 0.714410
vt 0.708279 0.714409
vt 0.806722 0.714410
vt 0.773162 0.714410
vt 0.740738 0.714409
vt 0.902861 0.774923
vt 0.870436 0.786098
vt 0.838012 0.789823
vt 0.935285 0.757230
vt 0.708279 0.746055
vt 0.806722 0.786098
vt 0.773162 0.774923
vt 0.740738 0.757230
vt 0.902861 0.834782
vt 0.870436 0.853407
vt 0.838012 0.863650
vt 0.935285 0.802189
vt 0.708278 0.781701
vt 0.806722 0.853407
vt 0.773162 0.834782
vt 0.740737 0.802189
vt 0.769062 0.845509
vt 0.736659 0.829044
vt 0.801501 0.876981
vt 0.574389 0.892161
vt 0.671697 0.829044
vt 0.639270 0.845509
vt 0.606848 0.876982
vt 0.769062 0.912842
vt 0.736659 0.914559
vt 0.704212 0.914989
vt 0.801501 0.909559
vt 0.574389 0.907976
vt 0.639270 0.912842
vt 0.606848 0.909559
vt 0.752439 0.027388
vt 0.687441 0.027388
vt 0.752439 0.081759
vt 0.687441 0.081759
vt 0.671698 0.983918
vt 0.171139 0.011512
vt 0.969515 0.635446
vt 0.969515 0.097636
vt 0.270936 0.011512
vt 0.967676 0.643429
vt 0.967676 0.714410
vt 0.032765 0.644843
vt 0.967676 0.781702
vt 0.967676 0.746055
vt 0.103674 0.698541
vt 0.103674 0.644843
vt 0.704212 0.824927
vt 0.671698 0.914559
vt 0.833879 0.892161
vt 0.833879 0.920803
vt 0.833879 0.907976
vt 0.162916 0.644843
vt 0.162916 0.698541
vt 0.032766 0.698541
vt 0.634805 0.685446
vt 0.647425 0.680350
vt 0.647441 0.698071
vt 0.629721 0.698088
vt 0.660060 0.685437
vt 0.665161 0.698054
vt 0.647459 0.715792
vt 0.634821 0.710715
vt 0.660080 0.710687
vt 0.469261 0.741400
vt 0.498589 0.729510
vt 0.498589 0.770728
vt 0.457371 0.770728
vt 0.408331 0.680470
vt 0.498589 0.643796
vt 0.527916 0.741400
vt 0.539806 0.770728
vt 0.498589 0.811946
vt 0.469261 0.800056
vt 0.371656 0.770728
vt 0.588847 0.680470
vt 0.625521 0.770728
vt 0.527916 0.800056
vt 0.498589 0.897660
vt 0.408331 0.860986
vt 0.588847 0.860986
vt 0.178259 0.768980
vt 0.268517 0.732306
vt 0.268517 0.818020
vt 0.239189 0.829910
vt 0.358775 0.768980
vt 0.297845 0.829910
vt 0.141584 0.859238
vt 0.227299 0.859238
vt 0.395449 0.859238
vt 0.309734 0.859238
vt 0.178259 0.949495
vt 0.239189 0.888566
vt 0.358775 0.949495
vt 0.297845 0.888566
vt 0.268517 0.986170
vt 0.268517 0.900456
vt 0.617662 0.728561
vt 0.605762 0.699254
vt 0.612280 0.699247
vt 0.622258 0.723960
vt 0.617641 0.669909
vt 0.622241 0.674503
vt 0.647019 0.740430
vt 0.647013 0.733912
vt 0.646940 0.657997
vt 0.646946 0.664515
vt 0.676338 0.728521
vt 0.671735 0.723926
vt 0.676276 0.669865
vt 0.671683 0.674466
vt 0.688197 0.699174
vt 0.681678 0.699180
vt 0.102543 0.567083
vt 0.164047 0.567083
vt 0.102542 0.776301
vt 0.164046 0.776302
vt 0.233825 0.644843
vt 0.233825 0.698541
vt 0.670124 0.490598
vt 0.570327 0.490598
vt 0.470530 0.490598
vt 0.370733 0.490598
vt 0.270936 0.490598
vt 0.969515 0.490598
vt 0.171139 0.490598
vt 0.869718 0.490598
vt 0.769921 0.490598
vt 0.670124 0.293423
vt 0.570327 0.293423
vt 0.470530 0.293423
vt 0.370733 0.293423
vt 0.270936 0.293423
vt 0.969515 0.293423
vt 0.171139 0.293423
vt 0.869718 0.293423
vt 0.769921 0.293423
vn -0.376527 0.000127 0.926405
vn -0.376527 0.000127 0.926405
vn -0.376527 0.000127 0.926405
vn -0.376527 0.000127 0.926405
vn 0.412220 0.045065 0.909969
vn 0.412220 0.045065 0.909969
vn 0.580744 -0.054882 0.812234
vn -0.052987 0.002834 0.998591
vn -0.448395 0.000068 0.893836
vn 0.103582 -0.003063 0.994616
vn -0.571627 0.019017 0.820293
vn 0.732902 -0.023803 0.679917
vn 0.000066 1.000000 0.000002
vn 0.000064 1.000000 0.000001
vn 0.000064 1.000000 0.000001
vn 0.000066 1.000000 0.000001
vn 0.000062 1.000000 0.000000
vn 0.000062 1.000000 0.000000
vn 0.000064 1.000000 0.000000
vn 0.000066 1.000000 -0.000000
vn 0.000062 1.000000 0.000000
vn -0.599382 -0.039372 -0.799494
vn 0.116341 -0.039038 -0.992442
vn 0.166854 0.001714 -0.985980
vn -0.333609 -0.069847 -0.940121
vn 0.756024 -0.017970 -0.654298
vn 0.629743 0.073723 -0.773297
vn 0.120224 -0.036935 -0.992059
vn -0.281050 -0.085004 -0.955921
vn 0.501705 0.017215 -0.864868
vn 0.360026 -0.906191 0.221809
vn 0.097209 -0.968180 0.230605
vn -0.000000 -1.000000 -0.000000
vn 0.378155 -0.925282 0.029187
vn -0.031482 -0.986790 0.158919
vn -0.087425 -0.995482 -0.037038
vn 0.040937 -0.980991 -0.189687
vn 0.336392 -0.931673 -0.137207
vn -0.102841 -0.974630 -0.198797
vn 0.990285 0.138979 0.004613
vn 0.865694 0.071627 -0.495422
vn 0.847246 0.163988 -0.505255
vn 0.982955 0.182453 -0.022578
vn 0.847406 0.168794 0.503401
vn 0.872060 0.155167 0.464150
vn 0.837380 0.054397 -0.543909
vn 0.988355 0.070913 -0.134633
vn 0.952219 0.073953 0.296328
vn -0.953114 0.072130 -0.293890
vn -0.994551 0.099338 -0.031615
vn -0.986420 0.161215 -0.031396
vn -0.963750 0.148415 -0.221719
vn -0.965132 0.119468 0.232913
vn -0.972745 0.168060 0.159760
vn -0.999671 0.025289 0.004407
vn -0.994896 0.021211 -0.098654
vn -0.993836 0.029081 0.106979
vn -0.194685 0.949318 -0.246765
vn 0.000000 0.905397 -0.424566
vn 0.000000 0.905397 -0.424566
vn -0.194685 0.949318 -0.246765
vn -0.135474 0.990781 -0.000089
vn -0.135474 0.990781 -0.000089
vn 0.127614 0.968835 -0.212307
vn 0.127614 0.968835 -0.212307
vn 0.000000 1.000000 0.000000
vn 0.000000 1.000000 0.000000
vn 0.000000 0.985442 0.170014
vn -0.113622 0.986070 0.121476
vn -0.113622 0.986070 0.121476
vn 0.000000 0.985442 0.170014
vn 0.046208 0.995305 0.085046
vn 0.046208 0.995305 0.085046
vn 0.416770 -0.884457 0.209853
vn 0.191654 -0.958993 0.208810
vn 0.495695 -0.866616 0.057123
vn 0.075065 -0.990689 0.113584
vn 0.074940 -0.994563 -0.072313
vn 0.081199 -0.988387 -0.128442
vn 0.380845 -0.920917 -0.082879
vn -0.031547 -0.984088 -0.174860
vn -0.283624 0.217340 0.933981
vn -0.283624 0.217340 0.933981
vn -0.268410 0.037148 0.962588
vn -0.268410 0.037148 0.962588
vn -0.898727 0.062242 0.434069
vn -0.898727 0.062242 0.434069
vn -0.871679 0.147409 0.467382
vn -0.871679 0.147409 0.467382
vn 0.283315 0.217226 0.934101
vn 0.283315 0.217226 0.934101
vn 0.248006 -0.069606 0.966255
vn 0.248006 -0.069606 0.966255
vn 0.896766 0.060933 0.438289
vn 0.896766 0.060933 0.438289
vn 0.850212 -0.234805 0.471175
vn 0.850212 -0.234805 0.471175
vn -0.350025 0.011947 -0.936664
vn -0.350025 0.011947 -0.936664
vn -0.297635 0.215852 -0.929958
vn -0.297635 0.215852 -0.929958
vn -0.911172 -0.017474 -0.411655
vn -0.911172 -0.017474 -0.411655
vn -0.871354 0.224624 -0.436218
vn -0.871354 0.224624 -0.436218
vn 0.911651 -0.014398 -0.410714
vn 0.911651 -0.014398 -0.410714
vn 0.890170 -0.130610 -0.436507
vn 0.890170 -0.130610 -0.436507
vn 0.356343 0.014883 -0.934237
vn 0.356343 0.014883 -0.934237
vn 0.342387 0.122335 -0.931561
vn 0.342387 0.122335 -0.931561
vn -0.224566 0.013872 0.974360
vn -0.224566 0.013872 0.974360
vn -0.684911 0.509000 0.521360
vn -0.684911 0.509000 0.521360
vn 0.090411 -0.391085 0.915903
vn 0.090411 -0.391085 0.915903
vn 0.533480 -0.704737 0.467701
vn 0.533480 -0.704737 0.467701
vn -0.223815 0.316565 -0.921788
vn -0.223815 0.316565 -0.921788
vn -0.661559 0.580672 -0.474510
vn -0.661559 0.580672 -0.474510
vn 0.703601 -0.507969 -0.496904
vn 0.703601 -0.507969 -0.496904
vn 0.209030 0.071329 -0.975304
vn 0.209030 0.071329 -0.975304
vn -0.199175 0.171679 0.964809
vn -0.199175 0.171679 0.964809
vn -0.464068 0.735450 0.493714
vn -0.464068 0.735450 0.493714
vn -0.011983 -0.426961 0.904190
vn -0.011983 -0.426961 0.904190
vn 0.300131 -0.847003 0.438757
vn 0.300131 -0.847003 0.438757
vn -0.213259 0.219654 -0.951984
vn -0.213259 0.219654 -0.951984
vn -0.523661 0.689933 -0.499771
vn -0.523661 0.689933 -0.499771
vn 0.485395 -0.723277 -0.491184
vn 0.485395 -0.723277 -0.491184
vn 0.085029 -0.088635 -0.992428
vn 0.085029 -0.088635 -0.992428
vn 1.000000 0.000002 -0.000012
vn 1.000000 0.000000 0.000000
vn 1.000000 0.000000 0.000000
vn 1.000000 0.000002 -0.000012
vn 1.000000 0.000010 -0.000001
vn 1.000000 0.000010 -0.000001
vn 1.000000 0.000000 0.000000
vn 1.000000 0.000000 0.000000
vn 1.000000 0.000000 0.000000
vn 1.000000 0.000000 0.000000
vn 1.000000 -0.000000 0.000000
vn 1.000000 0.000009 0.000012
vn 1.000000 0.000009 0.000012
vn 1.000000 -0.000000 0.000000
vn 1.000000 0.000000 0.000000
vn 1.000000 0.000000 0.000000
vn 0.197996 -0.151545 -0.968417
vn 0.197996 -0.151545 -0.968417
vn 0.220706 0.014170 -0.975237
vn 0.220706 0.014170 -0.975237
vn 0.469280 -0.717874 -0.514231
vn 0.469280 -0.717874 -0.514231
vn 0.684523 -0.486527 -0.542881
vn 0.684523 -0.486527 -0.542881
vn 0.010897 0.410256 -0.911906
vn 0.010897 0.410256 -0.911906
vn 0.010897 0.410256 -0.911906
vn 0.010897 0.410256 -0.911906
vn -0.313497 0.829286 -0.462606
vn -0.313497 0.829286 -0.462606
vn -0.313497 0.829286 -0.462606
vn -0.313497 0.829286 -0.462606
vn 0.193540 -0.213846 0.957503
vn 0.193540 -0.213846 0.957503
vn 0.193540 -0.213846 0.957503
vn 0.193540 -0.213846 0.957503
vn 0.522211 -0.680988 0.513373
vn 0.522211 -0.680988 0.513373
vn 0.522211 -0.680988 0.513373
vn 0.522211 -0.680988 0.513373
vn -0.510999 0.682355 0.522754
vn -0.510999 0.682355 0.522754
vn -0.715889 0.461533 0.523919
vn -0.715889 0.461533 0.523919
vn -0.105119 0.064752 0.992349
vn -0.105119 0.064752 0.992349
vn -0.105119 0.064752 0.992349
vn -0.105119 0.064752 0.992349
vn 0.237232 0.179487 -0.954728
vn 0.237232 0.179487 -0.954728
vn 0.830854 -0.206200 -0.516879
vn 0.830854 -0.206200 -0.516879
vn -0.179000 0.372645 -0.910546
vn -0.179000 0.372645 -0.910546
vn -0.179000 0.372645 -0.910546
vn -0.179000 0.372645 -0.910546
vn -0.717108 0.507448 -0.477758
vn -0.717108 0.507448 -0.477758
vn -0.717108 0.507448 -0.477758
vn -0.717108 0.507448 -0.477758
vn 0.213599 -0.421256 0.881430
vn 0.213599 -0.421256 0.881430
vn 0.213599 -0.421256 0.881430
vn 0.213599 -0.421256 0.881430
vn 0.763508 -0.465587 0.447531
vn 0.763508 -0.465587 0.447531
vn 0.763508 -0.465587 0.447531
vn 0.763508 -0.465587 0.447531
vn -0.855816 0.198830 0.477541
vn -0.855816 0.198830 0.477541
vn -0.311897 -0.253099 0.915784
vn -0.311897 -0.253099 0.915784
vn -0.311897 -0.253099 0.915784
vn -0.311897 -0.253099 0.915784
vn -0.434420 0.024668 0.900372
vn -0.444784 0.084238 0.891668
vn -0.444784 0.084238 0.891668
vn -0.434420 0.024668 0.900372
vn -0.390656 0.068614 0.917976
vn -0.379624 0.009045 0.925097
vn -0.219958 0.973276 0.065977
vn -0.219958 0.973276 0.065977
vn -0.219958 0.973276 0.065977
vn -0.219958 0.973276 0.065977
vn -0.891403 0.109012 -0.439906
vn -0.891403 0.109012 -0.439906
vn -0.891403 0.109012 -0.439906
vn -0.891403 0.109012 -0.439906
vn 0.013011 -0.999912 0.002506
vn 0.013011 -0.999912 0.002506
vn 0.013011 -0.999912 0.002506
vn 0.013011 -0.999912 0.002506
vn 0.926063 -0.001806 0.377365
vn 0.926063 -0.001806 0.377365
vn 0.926063 -0.001806 0.377365
vn 0.926063 -0.001806 0.377365
vn -0.984131 -0.174731 0.030911
vn -0.963750 -0.176106 0.200429
vn -0.941951 -0.192886 0.274816
vn -0.983595 -0.179050 0.021960
vn -0.975789 -0.168249 -0.139744
vn -0.960458 -0.153421 -0.232343
vn -0.540127 0.114206 -0.833799
vn -0.046857 0.081514 -0.995570
vn -0.034361 -0.014938 -0.999298
vn -0.668446 0.046852 -0.742284
vn 0.459091 0.026768 -0.887986
vn 0.622141 -0.070149 -0.779756
vn 0.972343 -0.188914 -0.137335
vn 0.858997 -0.213594 -0.465298
vn 0.887334 -0.275881 -0.369497
vn 0.953660 -0.294400 -0.062134
vn 0.967677 -0.141069 0.209049
vn 0.925371 -0.283709 0.251393
vn 0.054888 0.041150 0.997644
vn 0.540218 0.045148 0.840313
vn 0.311279 -0.017783 0.950152
vn 0.010157 -0.010754 0.999891
vn -0.433304 0.026907 0.900846
vn -0.291911 -0.002723 0.956442
s off
f 95/92/1 96/98/2 97/99/3 98/91/4
s 1
f 2/1/5 3/2/6 6/3/7 5/4/8
f 4/5/9 5/4/8 114/182/10 107/174/11
f 5/4/8 6/3/7 113/181/12 114/182/10
s 3
f 82/101/13 83/102/14 84/103/15 85/104/16
f 83/102/14 86/105/17 87/106/18 84/103/15
f 85/104/16 84/103/15 88/107/19 89/108/20
f 84/103/15 87/106/18 90/109/21 88/107/19
s 4
f 109/176/22 110/177/23 16/18/24 15/19/25
f 110/177/23 111/178/26 17/21/27 16/18/24
f 15/19/25 16/18/24 19/22/28 18/23/29
f 16/18/24 17/21/27 20/85/30 19/22/28
s 5
f 33/110/31 34/111/32 35/112/33 36/113/34
f 34/111/32 37/116/35 38/117/36 35/112/33
f 36/113/34 35/112/33 39/118/37 40/119/38
f 35/112/33 38/117/36 41/123/39 39/118/37
s 6
f 22/82/40 20/85/41 17/21/42 23/25/43
f 3/2/44 22/24/40 23/84/43 6/3/45
f 23/25/43 17/21/42 111/178/46 112/180/47
f 6/3/45 23/84/43 112/179/47 113/181/48
s 7
f 18/23/49 21/27/50 24/28/51 15/19/52
f 21/27/50 1/29/53 4/5/54 24/28/51
f 15/19/52 24/28/51 108/175/55 109/176/56
f 24/28/51 4/5/54 107/174/57 108/175/55
s 8
f 7/127/58 8/128/59 26/129/60 25/130/61
f 10/133/62 7/127/58 25/130/61 27/134/63
f 8/128/59 9/131/64 28/132/65 26/129/60
f 9/131/64 11/135/66 29/136/67 28/132/65
f 13/141/68 12/137/69 31/138/70 30/142/71
f 12/137/69 10/133/62 27/134/63 31/138/70
f 11/135/66 14/139/72 32/140/73 29/136/67
f 14/139/72 13/141/68 30/142/71 32/140/73
s 5
f 18/114/74 19/115/75 34/111/32 33/110/31
f 21/120/76 18/114/74 33/110/31 36/113/34
f 19/115/75 20/121/77 37/116/35 34/111/32
f 20/121/77 22/122/78 38/117/36 37/116/35
f 2/124/79 1/125/80 40/119/38 39/118/37
f 1/125/80 21/120/76 36/113/34 40/119/38
f 22/122/78 3/126/81 41/123/39 38/117/36
f 3/126/81 2/124/79 39/118/37 41/123/39
s 9
f 25/32/82 26/31/83 43/39/84 42/40/85
s 10
f 27/33/86 25/32/87 42/40/88 44/41/89
s 11
f 26/31/90 28/34/91 45/42/92 43/39/93
s 12
f 28/34/94 29/86/95 46/87/96 45/42/97
s 13
f 30/37/98 31/36/99 48/44/100 47/45/101
s 14
f 31/36/102 27/33/103 44/41/104 48/44/105
s 15
f 29/35/106 32/38/107 49/46/108 46/43/109
s 16
f 32/38/110 30/37/111 47/45/112 49/46/113
s 9
f 42/40/85 43/39/84 51/47/114 50/48/115
s 10
f 44/41/89 42/40/88 50/48/116 52/49/117
s 11
f 43/39/93 45/42/92 53/50/118 51/47/119
s 12
f 45/42/97 46/87/96 54/90/120 53/50/121
s 13
f 47/45/101 48/44/100 56/52/122 55/53/123
s 14
f 48/44/105 44/41/104 52/49/124 56/52/125
s 15
f 46/43/109 49/46/108 57/54/126 54/51/127
s 16
f 49/46/113 47/45/112 55/53/128 57/54/129
s 9
f 50/48/115 51/47/114 59/55/130 58/56/131
s 10
f 52/49/117 50/48/116 58/56/132 60/57/133
s 11
f 51/47/119 53/50/118 61/58/134 59/55/135
s 12
f 53/50/121 54/90/120 62/89/136 61/58/137
s 13
f 55/53/123 56/52/122 64/60/138 63/61/139
s 14
f 56/52/125 52/49/124 60/57/140 64/60/141
s 15
f 54/51/127 57/54/126 65/62/142 62/59/143
s 16
f 57/54/129 55/53/128 63/61/144 65/62/145
s 17
f 58/143/146 59/144/147 67/145/148 66/146/149
f 60/149/150 58/143/146 66/146/149 68/150/151
f 59/144/147 61/147/152 69/148/153 67/145/148
f 61/147/152 62/151/154 70/152/155 69/148/153
f 63/157/156 64/153/157 72/154/158 71/158/159
f 64/153/157 60/149/150 68/150/151 72/154/158
f 62/151/154 65/155/160 73/156/161 70/152/155
f 65/155/160 63/157/156 71/158/159 73/156/161
s 18
f 66/64/162 67/63/163 75/70/164 74/71/165
s 19
f 68/93/166 66/64/167 74/71/168 76/72/169
s off
f 67/63/170 69/65/171 77/73/172 75/70/173
f 69/65/174 70/95/175 78/97/176 77/73/177
f 71/68/178 72/67/179 80/94/180 79/75/181
f 72/67/182 68/93/183 76/72/184 80/94/185
s 20
f 70/66/186 73/69/187 81/76/188 78/74/189
s off
f 73/69/190 71/68/191 79/75/192 81/76/193
s 18
f 74/71/165 75/70/164 83/10/194 82/9/195
s 19
f 76/72/169 74/71/168 82/9/196 85/11/197
s off
f 75/70/198 77/73/199 86/12/200 83/10/201
f 77/73/202 78/97/203 87/96/204 86/12/205
f 79/75/206 80/94/207 89/81/208 88/14/209
f 80/94/210 76/72/211 85/11/212 89/81/213
s 20
f 78/74/189 81/76/188 90/15/214 87/13/215
s off
f 81/76/216 79/75/217 88/14/218 90/15/219
s 1
f 1/29/220 2/1/221 92/77/222 91/78/223
f 2/1/221 5/4/8 93/79/224 92/77/222
f 5/4/8 4/5/9 94/80/225 93/79/224
f 4/5/9 1/29/220 91/78/223 94/80/225
s off
f 91/159/226 92/160/227 96/98/228 95/92/229
f 92/163/230 93/164/231 97/99/232 96/98/233
f 93/162/234 94/161/235 98/91/236 97/99/237
f 94/100/238 91/88/239 95/92/240 98/91/241
s 7
f 100/166/242 99/165/243 7/7/244 10/30/245
f 101/167/246 100/166/242 10/30/245 12/16/247
s 4
f 12/16/248 13/17/249 102/168/250 101/167/251
f 13/17/249 14/20/252 103/169/253 102/168/250
s 6
f 104/171/254 103/169/255 14/20/256 11/26/257
f 105/172/258 104/170/254 11/83/257 9/8/259
s 1
f 106/173/260 105/172/261 9/8/262 8/6/263
f 99/165/264 106/173/260 8/6/263 7/7/265
s 7
f 108/175/55 107/174/57 99/165/243 100/166/242
f 109/176/56 108/175/55 100/166/242 101/167/246
s 4
f 101/167/251 102/168/250 110/177/23 109/176/22
f 102/168/250 103/169/253 111/178/26 110/177/23
s 6
f 112/180/47 111/178/46 103/169/255 104/171/254
f 113/181/48 112/179/47 104/170/254 105/172/258
s 1
f 114/182/10 113/181/12 105/172/261 106/173/260
f 107/174/11 114/182/10 106/173/260 99/165/264
