# This file uses centimeters as units for non-parametric coordinates.

v -0.153224 -16.911966 1.194083
v 0.153224 -16.911966 1.194083
v -0.153224 16.911966 1.194083
v 0.153224 16.911966 1.194083
v -0.153224 16.911966 -1.194081
v 0.153224 16.911966 -1.194081
v -0.153224 -16.911966 -1.194081
v 0.153224 -16.911966 -1.194081
v -0.153224 -16.911966 1.505115
v 0.153224 -16.911966 1.505115
v 0.153224 16.911966 1.505115
v -0.153224 16.911966 1.505115
v -0.153224 16.911966 -1.505112
v 0.153224 16.911966 -1.505112
v 0.153224 -16.911966 -1.505112
v -0.153224 -16.911966 -1.505112
v 1.179753 -16.911966 1.194083
v 1.179753 16.911966 1.194083
v 1.179753 16.911966 1.505115
v 1.179753 -16.911966 1.505115
v -1.179753 -16.911966 1.194083
v -1.179753 16.911966 1.194083
v -1.179753 -16.911966 1.505115
v -1.179753 16.911966 1.505115
v 1.179753 16.911966 -1.194081
v 1.179753 -16.911966 -1.194081
v 1.179753 -16.911966 -1.505112
v 1.179753 16.911966 -1.505112
v -1.179753 16.911966 -1.194081
v -1.179753 -16.911966 -1.194081
v -1.179753 16.911966 -1.505112
v -1.179753 -16.911966 -1.505112
vt 0.910736 0.004730
vt 0.919732 0.004730
vt 0.919732 0.997704
vt 0.910736 0.997704
vt 0.949868 0.004730
vt 0.949868 0.997704
vt 0.880600 0.997704
vt 0.880600 0.004730
vt 0.349978 0.878782
vt 0.358975 0.878782
vt 0.358975 0.948892
vt 0.349978 0.948892
vt 0.349978 0.869651
vt 0.358975 0.869651
vt 0.358975 0.958022
vt 0.349978 0.958022
vt 0.319842 0.878782
vt 0.319842 0.869651
vt 0.389111 0.869651
vt 0.389111 0.878782
vt 0.389111 0.948892
vt 0.389111 0.958022
vt 0.319842 0.958022
vt 0.319842 0.948892
vt 0.609624 0.004730
vt 0.618620 0.004730
vt 0.618620 0.997704
vt 0.609624 0.997704
vt 0.648756 0.004730
vt 0.648756 0.997704
vt 0.579488 0.997704
vt 0.579488 0.004730
vt 0.328482 0.048270
vt 0.337479 0.048270
vt 0.337479 0.118380
vt 0.328482 0.118380
vt 0.328482 0.039139
vt 0.337479 0.039139
vt 0.337479 0.127511
vt 0.328482 0.127511
vt 0.298346 0.048270
vt 0.298346 0.039139
vt 0.367615 0.039139
vt 0.367615 0.048270
vt 0.367615 0.118380
vt 0.367615 0.127511
vt 0.298346 0.127511
vt 0.298346 0.118380
vt 0.424727 0.004730
vt 0.494836 0.004730
vt 0.494836 0.997704
vt 0.424727 0.997704
vt 0.735688 0.004730
vt 0.805798 0.004730
vt 0.805798 0.997704
vt 0.735688 0.997704
vt 0.958999 0.004730
vt 0.958999 0.997704
vt 0.570357 0.997704
vt 0.570357 0.004730
vt 0.871469 0.997704
vt 0.871469 0.004730
vt 0.540221 0.004730
vt 0.540221 0.997704
vt 0.657887 0.004730
vt 0.657887 0.997704
vt 0.841332 0.004730
vt 0.841332 0.997704
vt 0.989135 0.997704
vt 0.989135 0.004730
vt 0.688023 0.997704
vt 0.688023 0.004730
vn 0.000000 0.000000 1.000000
vn 0.000000 0.000000 1.000000
vn 0.000000 0.000000 1.000000
vn 0.000000 0.000000 1.000000
vn 0.000000 1.000000 0.000000
vn 0.000000 1.000000 0.000000
vn 0.000000 1.000000 0.000000
vn 0.000000 1.000000 0.000000
vn 0.000000 0.000000 -1.000000
vn 0.000000 0.000000 -1.000000
vn 0.000000 0.000000 -1.000000
vn 0.000000 0.000000 -1.000000
vn 0.000000 -1.000000 0.000000
vn 0.000000 -1.000000 0.000000
vn 0.000000 -1.000000 0.000000
vn 0.000000 -1.000000 0.000000
vn 1.000000 0.000000 0.000000
vn 1.000000 0.000000 0.000000
vn 1.000000 0.000000 0.000000
vn 1.000000 0.000000 0.000000
vn -1.000000 0.000000 0.000000
vn -1.000000 0.000000 0.000000
vn -1.000000 0.000000 0.000000
vn -1.000000 0.000000 0.000000
vn 0.000000 -1.000000 0.000000
vn 0.000000 -1.000000 0.000000
vn 1.000000 0.000000 0.000000
vn 1.000000 0.000000 0.000000
vn 1.000000 0.000000 0.000000
vn 1.000000 0.000000 0.000000
vn 0.000000 1.000000 0.000000
vn 0.000000 1.000000 0.000000
vn -1.000000 0.000000 0.000000
vn -1.000000 0.000000 0.000000
vn -1.000000 0.000000 0.000000
vn -1.000000 0.000000 0.000000
vn 0.000000 1.000000 0.000000
vn 0.000000 1.000000 0.000000
vn 1.000000 0.000000 0.000000
vn 1.000000 0.000000 0.000000
vn 1.000000 0.000000 0.000000
vn 1.000000 0.000000 0.000000
vn 0.000000 -1.000000 0.000000
vn 0.000000 -1.000000 0.000000
vn -1.000000 0.000000 0.000000
vn -1.000000 0.000000 0.000000
vn -1.000000 0.000000 0.000000
vn -1.000000 0.000000 0.000000
vn 0.000000 0.000000 -1.000000
vn 0.000000 0.000000 -1.000000
vn 0.000000 0.000000 -1.000000
vn 0.000000 0.000000 -1.000000
vn 0.000000 1.000000 0.000000
vn 0.000000 1.000000 0.000000
vn 0.000000 0.000000 1.000000
vn 0.000000 0.000000 1.000000
vn 0.000000 -1.000000 0.000000
vn 0.000000 -1.000000 0.000000
vn 0.000000 0.000000 -1.000000
vn 0.000000 0.000000 -1.000000
vn 0.000000 0.000000 -1.000000
vn 0.000000 0.000000 -1.000000
vn 0.000000 -1.000000 0.000000
vn 0.000000 -1.000000 0.000000
vn 0.000000 0.000000 1.000000
vn 0.000000 0.000000 1.000000
vn 0.000000 1.000000 0.000000
vn 0.000000 1.000000 0.000000
vn 0.000000 0.000000 1.000000
vn 0.000000 0.000000 1.000000
vn 0.000000 0.000000 1.000000
vn 0.000000 0.000000 1.000000
vn 0.000000 -1.000000 0.000000
vn 0.000000 -1.000000 0.000000
vn 0.000000 0.000000 -1.000000
vn 0.000000 0.000000 -1.000000
vn 0.000000 1.000000 0.000000
vn 0.000000 1.000000 0.000000
vn 0.000000 0.000000 1.000000
vn 0.000000 0.000000 1.000000
vn 0.000000 0.000000 1.000000
vn 0.000000 0.000000 1.000000
vn 0.000000 1.000000 0.000000
vn 0.000000 1.000000 0.000000
vn 0.000000 0.000000 -1.000000
vn 0.000000 0.000000 -1.000000
vn 0.000000 -1.000000 0.000000
vn 0.000000 -1.000000 0.000000
s 1
f 9/1/1 10/2/2 11/3/3 12/4/4
s 2
f 3/9/5 4/10/6 6/11/7 5/12/8
s 3
f 13/25/9 14/26/10 15/27/11 16/28/12
s 4
f 7/33/13 8/34/14 2/35/15 1/36/16
s off
f 2/49/17 8/50/18 6/51/19 4/52/20
f 7/53/21 1/54/22 3/55/23 5/56/24
s 4
f 1/36/16 2/35/15 10/39/25 9/40/26
s off
f 17/57/27 18/58/28 19/6/29 20/5/30
s 2
f 4/10/6 3/9/5 12/13/31 11/14/32
s off
f 22/61/33 21/62/34 23/8/35 24/7/36
s 2
f 5/12/8 6/11/7 14/15/37 13/16/38
s off
f 25/65/39 26/66/40 27/30/41 28/29/42
s 4
f 8/34/14 7/33/13 16/37/43 15/38/44
s off
f 30/59/45 29/60/46 31/32/47 32/31/48
f 2/70/49 4/69/50 18/58/51 17/57/52
s 2
f 4/10/6 11/14/32 19/19/53 18/20/54
s 1
f 11/3/3 10/2/2 20/5/55 19/6/56
s 4
f 10/39/25 2/35/15 17/45/57 20/46/58
s off
f 3/68/59 1/67/60 21/62/61 22/61/62
s 4
f 1/36/16 9/40/26 23/47/63 21/48/64
s 1
f 9/1/1 12/4/4 24/7/65 23/8/66
s 2
f 12/13/31 3/9/5 22/17/67 24/18/68
s off
f 6/72/69 8/71/70 26/66/71 25/65/72
s 4
f 8/34/14 15/38/44 27/43/73 26/44/74
s 3
f 15/27/11 14/26/10 28/29/75 27/30/76
s 2
f 14/15/37 6/11/7 25/21/77 28/22/78
s off
f 7/64/79 5/63/80 29/60/81 30/59/82
s 2
f 5/12/8 13/16/38 31/23/83 29/24/84
s 3
f 13/25/9 16/28/12 32/31/85 31/32/86
s 4
f 16/37/43 7/33/13 30/41/87 32/42/88
