# This file uses centimeters as units for non-parametric coordinates.

v -1.338648 -1.881824 0.016846
v -0.000000 0.000000 0.016846
v -0.550342 -1.170094 0.016846
v 0.243113 -0.466690 0.016846
v 0.318670 -0.614483 0.016846
v 1.231055 -0.227896 0.016846
v 2.199807 -0.000065 0.016846
v -0.221746 -0.708162 0.016846
v -0.503751 -0.708155 0.016846
v 0.707050 -0.227880 0.016846
v 0.869136 -0.000027 0.016846
v -0.221746 -0.708162 -0.016845
v 0.243113 -0.466690 -0.016845
v -0.503751 -0.708155 -0.016845
v -0.000000 0.000000 -0.016845
v 0.318670 -0.614483 -0.016845
v 0.707050 -0.227880 -0.016845
v 1.231055 -0.227896 -0.016845
v 0.869136 -0.000027 -0.016845
v 2.199807 -0.000065 -0.016845
v -0.550342 -1.170094 -0.016845
v -1.338648 -1.881824 -0.016845
vt 0.400070 0.632298
vt 0.274763 0.510401
vt 0.184649 0.483265
vt 0.277472 0.758031
vt 0.214217 0.331171
vt 0.438435 0.592343
vt 0.030811 0.027878
vt 0.555202 0.841663
vt 0.525334 0.753255
vt 0.692780 0.803678
vt 0.980416 0.969709
vt 0.400031 0.632481
vt 0.277409 0.758137
vt 0.184538 0.483179
vt 0.274726 0.510584
vt 0.525299 0.753439
vt 0.555166 0.841847
vt 0.030993 0.028385
vt 0.214708 0.331494
vt 0.438426 0.592215
vt 0.692976 0.803766
vt 0.980322 0.969723
vt 0.022241 0.038992
vt 0.173901 0.486816
vt 0.446252 0.584202
vt 0.698367 0.793991
vt 0.274192 0.768981
vt 0.224546 0.325800
vt 0.551924 0.852613
vt 0.987976 0.961159
vt 0.266730 0.761658
vt 0.041605 0.024181
vt 0.975047 0.979315
vn -0.000001 0.000000 -1.000000
vn -0.000001 0.000000 -1.000000
vn -0.000001 0.000000 -1.000000
vn -0.000001 0.000000 -1.000000
vn 0.000002 0.000000 -1.000000
vn 0.000001 0.000000 -1.000000
vn 0.000001 0.000000 -1.000000
vn 0.000001 0.000000 -1.000000
vn 0.000001 0.000000 -1.000000
vn 0.000001 0.000000 -1.000000
vn -0.000001 0.000000 -1.000000
vn 0.000000 0.000000 -1.000000
vn -0.000001 0.000000 -1.000000
vn -0.000001 0.000000 -1.000000
vn 0.000000 0.000000 -1.000000
vn 0.000000 0.000000 -1.000000
vn 0.000000 0.000000 1.000000
vn 0.000000 0.000000 1.000000
vn 0.000000 0.000000 1.000000
vn -0.000000 0.000000 1.000000
vn 0.000000 0.000000 1.000000
vn -0.000000 0.000000 1.000000
vn 0.000000 0.000000 1.000000
vn 0.000000 0.000000 1.000000
vn -0.000000 0.000000 1.000000
vn -0.000000 0.000000 1.000000
vn -0.000001 0.000000 1.000000
vn 0.000000 0.000000 1.000000
vn -0.000001 0.000000 1.000000
vn -0.000001 0.000000 1.000000
vn 0.000000 0.000000 1.000000
vn 0.000000 0.000000 1.000000
vn -0.814859 0.579660 0.000000
vn -0.814859 0.579660 0.000000
vn -0.814859 0.579660 0.000000
vn -0.814859 0.579660 0.000000
vn 0.310653 -0.950523 0.000000
vn 0.466050 -0.884758 0.000000
vn 0.466050 -0.884758 0.000000
vn 0.310653 -0.950523 0.000000
vn 0.000030 1.000000 0.000000
vn 0.000029 1.000000 0.000000
vn 0.000029 1.000000 0.000000
vn 0.000030 1.000000 0.000000
vn 0.228935 -0.973442 0.000000
vn 0.228935 -0.973442 0.000000
vn 0.606483 -0.795096 0.000000
vn 0.606483 -0.795096 0.000000
vn 0.670137 -0.742238 0.000000
vn 0.670137 -0.742238 0.000000
vn -0.814858 0.579660 0.000000
vn -0.814858 0.579660 0.000000
vn 0.000031 1.000000 0.000000
vn 0.000031 1.000000 0.000000
s 1
f 13/1/1 12/2/2 14/3/3 15/4/4
s 2
f 16/6/5 13/1/6 17/9/7 18/10/8
f 19/8/9 20/11/10 18/10/8 17/9/7
s 1
f 21/5/11 12/2/2 13/1/1 16/6/12
f 12/2/2 21/5/11 22/7/13 14/3/14
s 2
f 15/4/15 19/8/16 17/9/7 13/1/6
s 3
f 4/12/17 2/13/18 9/14/19 8/15/20
s 4
f 5/20/21 6/21/22 10/16/23 4/12/24
f 11/17/25 10/16/23 6/21/22 7/22/26
s 3
f 3/19/27 5/20/28 4/12/17 8/15/20
f 8/15/20 9/14/29 1/18/30 3/19/27
s 4
f 2/13/31 4/12/24 10/16/23 11/17/32
s 5
f 9/14/33 2/13/34 15/31/35 14/24/36
s 6
f 6/21/37 5/20/38 16/25/39 18/26/40
s 7
f 11/17/41 7/22/42 20/33/43 19/29/44
s 6
f 7/22/45 6/21/37 18/26/40 20/30/46
f 5/20/38 3/19/47 21/28/48 16/25/39
f 3/19/47 1/18/49 22/32/50 21/28/48
s 5
f 1/18/51 9/14/33 14/24/36 22/23/52
s 7
f 2/13/53 11/17/41 19/29/44 15/27/54
