# This file uses centimeters as units for non-parametric coordinates.

v -1.265717 -1.609907 1.175961
v -0.206287 -1.883476 0.440632
v -0.230713 -1.848606 1.196594
v -0.970276 0.341315 2.391224
v 0.133064 0.144447 0.918339
v 0.437309 -0.457804 1.805672
v -0.415699 1.554333 1.102036
v -0.118393 1.960138 0.565590
v 0.497349 1.488803 1.272125
v -0.985905 1.800526 0.497719
v -0.110359 1.936962 0.245243
v 1.257458 1.297798 0.130951
v -1.313896 0.512617 -0.870525
v -0.042778 1.120531 -0.948547
v 0.957699 0.477350 -0.985767
v -1.770298 -0.685342 -1.364685
v -0.581383 -0.519198 -2.391224
v 1.463608 -0.564180 -1.796062
v -1.265717 -1.609907 -0.914059
v -0.220703 -1.618319 -1.347206
v 0.824307 -1.609907 -0.914059
v -1.698868 -1.618319 0.130951
v -0.087028 -1.960138 -0.173454
v 1.257458 -1.618319 0.130951
v 2.122452 -0.635000 0.232727
v -2.122452 0.043684 0.789360
vt 0.380831 0.373003
vt 0.341582 0.631750
vt 0.362701 0.177198
vt 0.511132 0.216498
vt 0.377515 0.542125
vt 0.394342 0.646697
vt 0.410471 0.051212
vt 0.441713 0.101431
vt 0.690181 0.282126
vt 0.750824 0.311207
vt 0.746957 0.430597
vt 0.647986 0.463915
vt 0.758799 0.240159
vt 0.761820 0.289019
vt 0.701074 0.611626
vt 0.576442 0.544349
vt 0.528877 0.367561
vt 0.240884 0.977781
vt 0.374300 0.754298
vt 0.856819 0.355032
vt 0.824157 0.470424
vt 0.157773 0.696541
vt 0.661997 0.216812
vt 0.854836 0.259851
vt 0.990808 0.468308
vt 0.863293 0.581106
vt 0.610392 0.659672
vt 0.212005 0.757314
vt 0.480611 0.562827
vt 0.481735 0.658211
vt 0.438306 0.567104
vt 0.542101 0.809661
vt 0.447457 0.730337
vt 0.287125 0.549081
vt 0.305489 0.323166
vt 0.420190 0.489247
vt 0.168231 0.918252
vt 0.276791 0.644101
vt 0.366513 0.865571
vt 0.021752 0.712409
vt 0.278551 0.594024
vt 0.084719 0.772340
vn 0.615054 -0.389743 0.685427
vn -0.337110 -0.184701 0.923170
vn -0.186315 0.063968 0.980405
vn 0.741650 -0.083686 0.665546
vn -0.950418 0.205998 0.232961
vn -0.907764 0.147607 0.392654
vn -0.043716 0.273146 0.960979
vn 0.786596 0.231585 0.572395
vn -0.837213 0.084680 0.540281
vn -0.195843 0.919497 0.340839
vn 0.140663 0.960095 0.241725
vn 0.084277 0.975554 -0.202957
vn -0.307167 0.942396 -0.132435
vn 0.459627 0.880962 0.112467
vn 0.440094 0.865328 -0.239843
vn 0.010667 0.793819 -0.608060
vn -0.345722 0.742036 -0.574333
vn 0.365659 0.741746 -0.562234
vn -0.476843 0.603434 -0.639131
vn -0.109320 0.659202 -0.743977
vn -0.129159 -0.034617 -0.991020
vn -0.552777 -0.029376 -0.832811
vn 0.274511 0.616634 -0.737839
vn 0.327944 -0.032690 -0.944132
vn -0.081547 -0.691350 -0.717903
vn -0.383429 -0.649151 -0.656952
vn 0.228216 -0.666746 -0.709484
vn -0.176690 -0.968277 -0.176691
vn 0.013441 -0.981023 -0.193425
vn 0.008396 -0.998726 -0.049760
vn -0.185769 -0.981537 -0.045552
vn 0.203080 -0.957871 -0.203080
vn 0.202805 -0.977833 -0.052081
vn 0.003170 -0.995465 0.095077
vn -0.191605 -0.977664 0.086382
vn 0.197824 -0.975110 0.100127
vn 0.714207 -0.668027 0.208924
vn 0.719938 -0.638425 -0.272221
vn 0.919699 -0.107161 -0.377717
vn 0.962584 -0.159456 0.219103
vn 0.542488 -0.542374 0.641512
vn 0.700613 -0.157360 0.695974
vn 0.812947 0.459817 -0.357330
vn 0.896613 0.414186 0.156635
vn 0.735286 0.255382 0.627801
vn -0.933562 -0.322423 -0.156542
vn -0.924736 -0.329111 0.191180
vn -0.975105 0.141480 0.170745
vn -0.968358 0.081068 -0.236029
vn -0.803986 -0.295966 0.515763
vn -0.808815 0.178695 0.560256
vn -0.799694 0.590229 0.110086
vn -0.838210 0.470751 -0.275313
vn -0.629795 0.612738 0.477399
s 1
f 1/1/1 2/35/2 5/3/3 4/4/4
f 2/41/2 3/38/5 6/28/6 5/22/3
f 4/4/4 5/3/3 8/7/7 7/8/8
f 5/22/3 6/28/6 9/42/9 8/40/7
s 2
f 7/13/10 8/14/11 11/10/12 10/9/13
f 8/14/11 9/24/14 12/20/15 11/10/12
f 10/9/13 11/10/12 14/11/16 13/12/17
f 11/10/12 12/20/15 15/21/18 14/11/16
s 3
f 13/12/19 14/11/20 17/15/21 16/16/22
f 14/11/20 15/21/23 18/26/24 17/15/21
f 16/16/22 17/27/21 20/30/25 19/29/26
f 17/27/21 18/32/24 21/33/27 20/30/25
s 4
f 19/31/28 20/30/29 23/6/30 22/5/31
f 20/30/29 21/33/32 24/19/33 23/6/30
f 22/5/31 23/6/30 2/2/34 1/34/35
f 23/6/30 24/19/33 3/38/36 2/2/34
s 5
f 24/19/37 21/33/38 18/32/39 25/39/40
f 3/38/41 24/19/37 25/39/40 6/28/42
f 25/25/40 18/26/39 15/21/43 12/20/44
f 6/28/42 25/39/40 12/18/44 9/37/45
s 6
f 19/29/46 22/36/47 26/17/48 16/16/49
f 22/36/47 1/1/50 4/4/51 26/17/48
f 16/16/49 26/17/48 10/9/52 13/12/53
f 26/17/48 4/4/51 7/23/54 10/9/52
