# This file uses centimeters as units for non-parametric coordinates.

v 2.892003 -0.562348 10.366453
v 3.183821 -0.562348 10.366453
v 2.892003 0.383293 10.366453
v 3.183821 0.383293 10.366453
v 2.892003 0.383293 0.000004
v 3.183821 0.383293 0.000004
v 2.892003 0.383293 -10.366452
v 3.183821 0.383293 -10.366452
v 2.892003 -0.562348 -10.366452
v 3.183821 -0.562348 -10.366452
v 2.892003 -0.562348 0.000004
v 3.183821 -0.562348 0.000004
v 2.892003 0.723389 10.366453
v 2.892003 0.723389 0.000004
v 3.183821 0.723389 10.366453
v 3.183821 0.723389 0.000004
v 2.892003 0.723389 -10.366452
v 3.183821 0.723389 -10.366452
v 2.785278 0.417500 10.366453
v 2.785278 0.417500 0.000004
v 2.785278 0.689183 10.366453
v 2.785278 0.689183 0.000004
v 2.785278 0.417500 -10.366452
v 2.785278 0.689183 -10.366452
v 3.290545 0.417500 10.366453
v 3.290545 0.417500 0.000004
v 3.290545 0.689183 0.000004
v 3.290545 0.689183 10.366453
v 3.290545 0.417500 -10.366452
v 3.290545 0.689183 -10.366452
v 2.892003 -0.723389 -10.366452
v 2.892003 -0.723389 0.000004
v 3.183821 -0.723389 -10.366452
v 3.183821 -0.723389 0.000004
v 2.892003 -0.723389 10.366453
v 3.183821 -0.723389 10.366453
v 2.644705 -0.562348 -10.366452
v 2.644705 -0.562348 0.000004
v 2.644705 -0.723389 -10.366452
v 2.644705 -0.723389 0.000004
v 2.644705 -0.562348 10.366453
v 2.644705 -0.723389 10.366453
v 3.431120 -0.562348 -10.366452
v 3.431120 -0.562348 0.000004
v 3.431120 -0.723389 0.000004
v 3.431120 -0.723389 -10.366452
v 3.431120 -0.562348 10.366453
v 3.431120 -0.723389 10.366453
v -3.183821 -0.562348 10.366453
v -2.892004 -0.562348 10.366453
v -3.183821 0.383293 10.366453
v -2.892004 0.383293 10.366453
v -3.183821 0.383293 0.000004
v -2.892004 0.383293 0.000004
v -3.183821 0.383293 -10.366452
v -2.892004 0.383293 -10.366452
v -3.183821 -0.562348 -10.366452
v -2.892004 -0.562348 -10.366452
v -3.183821 -0.562348 0.000004
v -2.892004 -0.562348 0.000004
v -3.183821 0.723389 10.366453
v -3.183821 0.723389 0.000004
v -2.892004 0.723389 10.366453
v -2.892004 0.723389 0.000004
v -3.183821 0.723389 -10.366452
v -2.892004 0.723389 -10.366452
v -3.290546 0.417500 10.366453
v -3.290546 0.417500 0.000004
v -3.290546 0.689183 10.366453
v -3.290546 0.689183 0.000004
v -3.290546 0.417500 -10.366452
v -3.290546 0.689183 -10.366452
v -2.785278 0.417500 10.366453
v -2.785278 0.417500 0.000004
v -2.785278 0.689183 0.000004
v -2.785278 0.689183 10.366453
v -2.785278 0.417500 -10.366452
v -2.785278 0.689183 -10.366452
v -3.183821 -0.723389 -10.366452
v -3.183821 -0.723389 0.000004
v -2.892004 -0.723389 -10.366452
v -2.892004 -0.723389 0.000004
v -3.183821 -0.723389 10.366453
v -2.892004 -0.723389 10.366453
v -3.431120 -0.562348 -10.366452
v -3.431120 -0.562348 0.000004
v -3.431120 -0.723389 -10.366452
v -3.431120 -0.723389 0.000004
v -3.431120 -0.562348 10.366453
v -3.431120 -0.723389 10.366453
v -2.644704 -0.562348 -10.366452
v -2.644704 -0.562348 0.000004
v -2.644704 -0.723389 0.000004
v -2.644704 -0.723389 -10.366452
v -2.644704 -0.562348 10.366453
v -2.644704 -0.723389 10.366453
vt 0.459847 0.190352
vt 0.459847 0.145195
vt 0.473782 0.190352
vt 0.473782 0.145195
vt 0.459847 0.206593
vt 0.459847 0.137504
vt 0.473782 0.206593
vt 0.473782 0.137504
vt 0.454751 0.204960
vt 0.454751 0.191986
vt 0.448038 0.145195
vt 0.448038 0.137504
vt 0.478879 0.191986
vt 0.478879 0.204960
vt 0.485592 0.137504
vt 0.485592 0.145195
vt 0.004280 0.325544
vt 0.499316 0.325544
vt 0.004280 0.311609
vt 0.499316 0.311609
vt 0.994351 0.325545
vt 0.499316 0.330641
vt 0.004280 0.330641
vt 0.004280 0.306512
vt 0.499316 0.306513
vt 0.994351 0.311609
vt 0.994351 0.330641
vt 0.994351 0.306513
vt 0.552099 0.145458
vt 0.552099 0.190616
vt 0.538164 0.145458
vt 0.538164 0.190615
vt 0.552099 0.137767
vt 0.552099 0.206856
vt 0.538164 0.137767
vt 0.538164 0.206856
vt 0.563909 0.137767
vt 0.563909 0.145458
vt 0.557196 0.192249
vt 0.557196 0.205223
vt 0.526354 0.145458
vt 0.526354 0.137767
vt 0.533067 0.205223
vt 0.533067 0.192249
vt 0.994614 0.078465
vt 0.499578 0.078465
vt 0.994614 0.092400
vt 0.499578 0.092400
vt 0.004543 0.078465
vt 0.499579 0.066656
vt 0.994614 0.066655
vt 0.994614 0.104210
vt 0.499578 0.104210
vt 0.004543 0.092400
vt 0.004543 0.066655
vt 0.004543 0.104210
vt 0.499316 0.243284
vt 0.994351 0.243284
vt 0.994351 0.288442
vt 0.499316 0.288442
vt 0.004280 0.288442
vt 0.004280 0.243284
vt 0.499316 0.393869
vt 0.499316 0.348711
vt 0.994351 0.348711
vt 0.994351 0.393869
vt 0.004280 0.393869
vt 0.004280 0.348711
vt 0.499316 0.343615
vt 0.004280 0.343615
vt 0.004280 0.231475
vt 0.004280 0.413368
vt 0.994351 0.343615
vt 0.994351 0.231475
vt 0.004280 0.293538
vt 0.499316 0.293539
vt 0.499316 0.231475
vt 0.004280 0.405678
vt 0.994351 0.293538
vt 0.499316 0.413369
vt 0.004280 0.223784
vt 0.994351 0.405678
vt 0.499316 0.223785
vt 0.994351 0.413369
vt 0.994351 0.223785
vt 0.499316 0.405678
vt 0.459847 0.749795
vt 0.459847 0.704638
vt 0.473782 0.704638
vt 0.473782 0.749795
vt 0.499316 0.884988
vt 0.004280 0.884987
vt 0.004280 0.871052
vt 0.499316 0.871052
vt 0.994351 0.884988
vt 0.994351 0.871052
vt 0.552099 0.704901
vt 0.552099 0.750059
vt 0.538164 0.750059
vt 0.538164 0.704901
vt 0.499578 0.637908
vt 0.994614 0.637908
vt 0.994614 0.651844
vt 0.499578 0.651843
vt 0.004543 0.637908
vt 0.004543 0.651844
vt 0.499316 0.802727
vt 0.994351 0.802728
vt 0.994351 0.847885
vt 0.499316 0.847885
vt 0.004280 0.847885
vt 0.004280 0.802727
vt 0.499316 0.953312
vt 0.499316 0.908154
vt 0.994351 0.908154
vt 0.994351 0.953312
vt 0.004280 0.953312
vt 0.004280 0.908154
vt 0.459847 0.766036
vt 0.473782 0.766036
vt 0.499316 0.903058
vt 0.004280 0.903058
vt 0.004280 0.890084
vt 0.499316 0.890084
vt 0.004280 0.852982
vt 0.499316 0.852982
vt 0.499316 0.865956
vt 0.004280 0.865955
vt 0.994351 0.903058
vt 0.994351 0.890084
vt 0.994351 0.852982
vt 0.994351 0.865956
vt 0.552099 0.766299
vt 0.538164 0.766299
vt 0.454751 0.764403
vt 0.454751 0.751429
vt 0.557196 0.751692
vt 0.557196 0.764666
vt 0.478879 0.751429
vt 0.478879 0.764403
vt 0.533067 0.764666
vt 0.533067 0.751692
vt 0.552099 0.697211
vt 0.538164 0.697211
vt 0.499316 0.965122
vt 0.994351 0.965122
vt 0.994351 0.972812
vt 0.499316 0.972812
vt 0.994351 0.790918
vt 0.499316 0.790918
vt 0.499316 0.783228
vt 0.994351 0.783228
vt 0.004280 0.965122
vt 0.004280 0.972812
vt 0.004280 0.790918
vt 0.004280 0.783227
vt 0.459847 0.696947
vt 0.473782 0.696947
vt 0.563909 0.697211
vt 0.563909 0.704901
vt 0.499579 0.626099
vt 0.994614 0.626099
vt 0.004543 0.626099
vt 0.448038 0.704638
vt 0.448038 0.696947
vt 0.994614 0.663653
vt 0.499578 0.663653
vt 0.526354 0.704901
vt 0.526354 0.697211
vt 0.485592 0.696947
vt 0.485592 0.704638
vt 0.004543 0.663653
vn -0.000004 0.000000 1.000000
vn 0.000000 0.000000 1.000000
vn 0.000000 0.000000 1.000000
vn 0.000002 0.000000 1.000000
vn -0.154460 0.987999 0.000000
vn -0.154460 0.987999 0.000000
vn 0.154460 0.987999 0.000000
vn 0.154460 0.987999 0.000000
vn -0.154460 0.987999 0.000000
vn 0.154460 0.987999 0.000000
vn 0.000000 0.000000 -1.000000
vn -0.000004 0.000000 -1.000000
vn -0.000002 0.000000 -1.000000
vn 0.000000 0.000000 -1.000000
vn 0.000000 -1.000000 0.000000
vn 0.000000 -1.000000 0.000000
vn 0.000000 -1.000000 0.000000
vn 0.000000 -1.000000 0.000000
vn 0.000000 -1.000000 0.000000
vn 0.000000 -1.000000 0.000000
vn 1.000000 0.000000 0.000000
vn 1.000000 0.000000 0.000000
vn 1.000000 0.000000 0.000000
vn 1.000000 0.000000 0.000000
vn 1.000000 0.000000 0.000000
vn 1.000000 0.000000 0.000000
vn -1.000000 0.000000 0.000000
vn -1.000000 0.000000 0.000000
vn -1.000000 0.000000 0.000000
vn -1.000000 0.000000 0.000000
vn -1.000000 0.000000 0.000000
vn -1.000000 0.000000 0.000000
vn -0.000006 0.000000 1.000000
vn 0.000004 0.000000 1.000000
vn -1.000000 0.000000 0.000000
vn -1.000000 0.000000 0.000000
vn -1.000000 0.000000 0.000000
vn -1.000000 0.000000 0.000000
vn 1.000000 0.000000 0.000000
vn 1.000000 0.000000 0.000000
vn 1.000000 0.000000 0.000000
vn 1.000000 0.000000 0.000000
vn -1.000000 0.000000 0.000000
vn -1.000000 0.000000 0.000000
vn 1.000000 0.000000 0.000000
vn 1.000000 0.000000 0.000000
vn -0.000005 0.000000 -1.000000
vn -0.000004 0.000000 -1.000000
vn -0.305217 -0.952283 0.000000
vn -0.305217 -0.952283 0.000000
vn -0.305217 -0.952283 0.000000
vn -0.305217 -0.952283 0.000000
vn -0.000013 0.000000 1.000000
vn -0.000013 0.000000 1.000000
vn -0.305213 0.952284 0.000000
vn -0.305213 0.952284 0.000000
vn -0.305217 -0.952283 0.000000
vn -0.305217 -0.952283 0.000000
vn -0.305213 0.952284 0.000000
vn -0.000011 0.000000 -1.000000
vn -0.000011 0.000000 -1.000000
vn 0.305217 -0.952283 0.000000
vn 0.305217 -0.952283 0.000000
vn 0.305217 -0.952283 0.000000
vn 0.305217 -0.952283 0.000000
vn 0.305213 0.952284 0.000000
vn 0.305213 0.952284 0.000000
vn 0.000007 0.000000 1.000000
vn 0.000007 0.000000 1.000000
vn 0.305217 -0.952283 0.000000
vn 0.305217 -0.952283 0.000000
vn -0.000007 0.000000 -1.000000
vn -0.000007 0.000000 -1.000000
vn 0.305213 0.952284 0.000000
vn 0.000000 0.000000 -1.000000
vn 0.000000 0.000000 -1.000000
vn -1.000000 0.000000 0.000000
vn -1.000000 0.000000 0.000000
vn -1.000000 0.000000 0.000000
vn -1.000000 0.000000 0.000000
vn 1.000000 0.000000 0.000000
vn 1.000000 0.000000 0.000000
vn 1.000000 0.000000 0.000000
vn 1.000000 0.000000 0.000000
vn -1.000000 0.000000 0.000000
vn -1.000000 0.000000 0.000000
vn 1.000000 0.000000 0.000000
vn 1.000000 0.000000 0.000000
vn 0.000000 0.000000 1.000000
vn 0.000000 0.000000 1.000000
vn 0.000000 1.000000 0.000000
vn 0.000000 1.000000 0.000000
vn 0.000000 1.000000 0.000000
vn 0.000000 1.000000 0.000000
vn 0.000000 0.000000 -1.000000
vn 0.000000 0.000000 -1.000000
vn 0.000000 -1.000000 0.000000
vn 0.000000 -1.000000 0.000000
vn 0.000000 1.000000 0.000000
vn 0.000000 1.000000 0.000000
vn 0.000000 -1.000000 0.000000
vn 0.000000 0.000000 1.000000
vn 0.000000 0.000000 1.000000
vn 0.000000 1.000000 0.000000
vn 0.000000 1.000000 0.000000
vn 0.000000 1.000000 0.000000
vn 0.000000 1.000000 0.000000
vn 0.000000 -1.000000 0.000000
vn 0.000000 -1.000000 0.000000
vn 0.000000 0.000000 -1.000000
vn 0.000000 0.000000 -1.000000
vn 0.000000 1.000000 0.000000
vn 0.000000 1.000000 0.000000
vn 0.000000 0.000000 1.000000
vn 0.000000 0.000000 1.000000
vn 0.000000 -1.000000 0.000000
vn -0.000004 0.000000 1.000000
vn 0.000000 0.000000 1.000000
vn 0.000000 0.000000 1.000000
vn 0.000002 0.000000 1.000000
vn -0.154459 0.987999 0.000000
vn -0.154459 0.987999 0.000000
vn 0.154459 0.987999 0.000000
vn 0.154459 0.987999 0.000000
vn -0.154459 0.987999 0.000000
vn 0.154459 0.987999 0.000000
vn 0.000000 0.000000 -1.000000
vn -0.000004 0.000000 -1.000000
vn -0.000002 0.000000 -1.000000
vn 0.000000 0.000000 -1.000000
vn 0.000000 -1.000000 0.000000
vn 0.000000 -1.000000 0.000000
vn 0.000000 -1.000000 0.000000
vn 0.000000 -1.000000 0.000000
vn 0.000000 -1.000000 0.000000
vn 0.000000 -1.000000 0.000000
vn 1.000000 0.000000 0.000000
vn 1.000000 0.000000 0.000000
vn 1.000000 0.000000 0.000000
vn 1.000000 0.000000 0.000000
vn 1.000000 0.000000 0.000000
vn 1.000000 0.000000 0.000000
vn -1.000000 0.000000 0.000000
vn -1.000000 0.000000 0.000000
vn -1.000000 0.000000 0.000000
vn -1.000000 0.000000 0.000000
vn -1.000000 0.000000 0.000000
vn -1.000000 0.000000 0.000000
vn -0.000006 0.000000 1.000000
vn 0.000004 0.000000 1.000000
vn -1.000000 0.000000 0.000000
vn -1.000000 0.000000 0.000000
vn -1.000000 0.000000 0.000000
vn -1.000000 0.000000 0.000000
vn 1.000000 0.000000 0.000000
vn 1.000000 0.000000 0.000000
vn 1.000000 0.000000 0.000000
vn 1.000000 0.000000 0.000000
vn -1.000000 0.000000 0.000000
vn -1.000000 0.000000 0.000000
vn 1.000000 0.000000 0.000000
vn 1.000000 0.000000 0.000000
vn -0.000005 0.000000 -1.000000
vn -0.000004 0.000000 -1.000000
vn -0.305215 -0.952283 0.000000
vn -0.305215 -0.952283 0.000000
vn -0.305215 -0.952283 0.000000
vn -0.305215 -0.952283 0.000000
vn -0.000013 0.000000 1.000000
vn -0.000013 0.000000 1.000000
vn -0.305212 0.952285 0.000000
vn -0.305212 0.952285 0.000000
vn -0.305216 -0.952283 0.000000
vn -0.305216 -0.952283 0.000000
vn -0.305212 0.952285 0.000000
vn -0.000011 0.000000 -1.000000
vn -0.000011 0.000000 -1.000000
vn 0.305215 -0.952283 0.000000
vn 0.305215 -0.952283 0.000000
vn 0.305215 -0.952283 0.000000
vn 0.305215 -0.952283 0.000000
vn 0.305212 0.952285 0.000000
vn 0.305212 0.952285 0.000000
vn 0.000007 0.000000 1.000000
vn 0.000007 0.000000 1.000000
vn 0.305216 -0.952283 0.000000
vn 0.305216 -0.952283 0.000000
vn -0.000007 0.000000 -1.000000
vn -0.000007 0.000000 -1.000000
vn 0.305212 0.952285 0.000000
vn 0.000000 0.000000 -1.000000
vn 0.000000 0.000000 -1.000000
vn -1.000000 0.000000 0.000000
vn -1.000000 0.000000 0.000000
vn -1.000000 0.000000 0.000000
vn -1.000000 0.000000 0.000000
vn 1.000000 0.000000 0.000000
vn 1.000000 0.000000 0.000000
vn 1.000000 0.000000 0.000000
vn 1.000000 0.000000 0.000000
vn -1.000000 0.000000 0.000000
vn -1.000000 0.000000 0.000000
vn 1.000000 0.000000 0.000000
vn 1.000000 0.000000 0.000000
vn 0.000000 0.000000 1.000000
vn 0.000000 0.000000 1.000000
vn 0.000000 1.000000 0.000000
vn 0.000000 1.000000 0.000000
vn 0.000000 1.000000 0.000000
vn 0.000000 1.000000 0.000000
vn 0.000000 0.000000 -1.000000
vn 0.000000 0.000000 -1.000000
vn 0.000000 -1.000000 0.000000
vn 0.000000 -1.000000 0.000000
vn 0.000000 1.000000 0.000000
vn 0.000000 1.000000 0.000000
vn 0.000000 -1.000000 0.000000
vn 0.000000 0.000000 1.000000
vn 0.000000 0.000000 1.000000
vn 0.000000 1.000000 0.000000
vn 0.000000 1.000000 0.000000
vn 0.000000 1.000000 0.000000
vn 0.000000 1.000000 0.000000
vn 0.000000 -1.000000 0.000000
vn 0.000000 -1.000000 0.000000
vn 0.000000 0.000000 -1.000000
vn 0.000000 0.000000 -1.000000
vn 0.000000 1.000000 0.000000
vn 0.000000 1.000000 0.000000
vn 0.000000 0.000000 1.000000
vn 0.000000 0.000000 1.000000
vn 0.000000 -1.000000 0.000000
s 1
f 3/1/1 1/2/2 2/4/3 4/3/4
s 2
f 14/18/5 13/17/6 15/19/7 16/20/8
f 17/21/9 14/18/5 16/20/8 18/26/10
s 3
f 9/29/11 7/30/12 8/32/13 10/31/14
s 4
f 32/46/15 31/45/16 33/47/17 34/48/18
f 35/49/19 32/46/15 34/48/18 36/54/20
s 5
f 12/57/21 10/58/22 8/59/23 6/60/24
f 4/61/25 2/62/26 12/57/21 6/60/24
s 6
f 11/63/27 5/64/28 7/65/29 9/66/30
f 1/67/31 3/68/32 5/64/28 11/63/27
s 1
f 13/5/33 3/1/1 4/3/4 15/7/34
s 7
f 20/69/35 19/70/36 21/23/37 22/22/38
s 8
f 25/75/39 26/76/40 27/25/41 28/24/42
s 7
f 23/73/43 20/69/35 22/22/38 24/27/44
s 8
f 26/76/40 29/79/45 30/28/46 27/25/41
s 3
f 17/34/47 18/36/48 8/32/13 7/30/12
s 9
f 5/64/49 3/68/50 19/70/51 20/69/52
s 1
f 3/1/1 13/5/33 21/9/53 19/10/54
s 2
f 13/17/6 14/18/5 22/22/55 21/23/56
s 9
f 7/65/57 5/64/49 20/69/52 23/73/58
s 2
f 14/18/5 17/21/9 24/27/59 22/22/55
s 3
f 17/34/47 7/30/12 23/39/60 24/40/61
s 10
f 4/61/62 6/60/63 26/76/64 25/75/65
s 2
f 16/20/8 15/19/7 28/24/66 27/25/67
s 1
f 15/7/34 4/3/4 25/13/68 28/14/69
s 10
f 6/60/63 8/59/70 29/79/71 26/76/64
s 3
f 8/32/13 18/36/48 30/43/72 29/44/73
s 2
f 18/26/10 16/20/8 27/25/67 30/28/74
s 3
f 31/33/75 9/29/11 10/31/14 33/35/76
s 11
f 38/86/77 37/82/78 39/84/79 40/80/80
s 12
f 43/74/81 44/77/82 45/83/83 46/85/84
s 11
f 41/78/85 38/86/77 40/80/80 42/72/86
s 12
f 44/77/82 47/71/87 48/81/88 45/83/83
s 1
f 35/6/89 36/8/90 2/4/3 1/2/2
s 13
f 11/63/91 9/66/92 37/82/93 38/86/94
s 3
f 9/29/11 31/33/75 39/37/95 37/38/96
s 4
f 31/45/16 32/46/15 40/50/97 39/51/98
s 13
f 1/67/99 11/63/91 38/86/94 41/78/100
s 4
f 32/46/15 35/49/19 42/55/101 40/50/97
s 1
f 35/6/89 1/2/2 41/11/102 42/12/103
s 14
f 10/58/104 12/57/105 44/77/106 43/74/107
s 4
f 34/48/18 33/47/17 46/52/108 45/53/109
s 3
f 33/35/76 10/31/14 43/41/110 46/42/111
s 14
f 12/57/105 2/62/112 47/71/113 44/77/106
s 1
f 2/4/3 36/8/90 48/15/114 47/16/115
s 4
f 36/54/20 34/48/18 45/53/109 48/56/116
s 15
f 51/87/117 49/88/118 50/89/119 52/90/120
s 16
f 62/91/121 61/92/122 63/93/123 64/94/124
f 65/95/125 62/91/121 64/94/124 66/96/126
s 17
f 57/97/127 55/98/128 56/99/129 58/100/130
s 18
f 80/101/131 79/102/132 81/103/133 82/104/134
f 83/105/135 80/101/131 82/104/134 84/106/136
s 19
f 60/107/137 58/108/138 56/109/139 54/110/140
f 52/111/141 50/112/142 60/107/137 54/110/140
s 20
f 59/113/143 53/114/144 55/115/145 57/116/146
f 49/117/147 51/118/148 53/114/144 59/113/143
s 15
f 61/119/149 51/87/117 52/90/120 63/120/150
s 21
f 68/121/151 67/122/152 69/123/153 70/124/154
s 22
f 73/125/155 74/126/156 75/127/157 76/128/158
s 21
f 71/129/159 68/121/151 70/124/154 72/130/160
s 22
f 74/126/156 77/131/161 78/132/162 75/127/157
s 17
f 65/133/163 66/134/164 56/99/129 55/98/128
s 23
f 53/114/165 51/118/166 67/122/167 68/121/168
s 15
f 51/87/117 61/119/149 69/135/169 67/136/170
s 16
f 61/92/122 62/91/121 70/124/171 69/123/172
s 23
f 55/115/173 53/114/165 68/121/168 71/129/174
s 16
f 62/91/121 65/95/125 72/130/175 70/124/171
s 17
f 65/133/163 55/98/128 71/137/176 72/138/177
s 24
f 52/111/178 54/110/179 74/126/180 73/125/181
s 16
f 64/94/124 63/93/123 76/128/182 75/127/183
s 15
f 63/120/150 52/90/120 73/139/184 76/140/185
s 24
f 54/110/179 56/109/186 77/131/187 74/126/180
s 17
f 56/99/129 66/134/164 78/141/188 77/142/189
s 16
f 66/96/126 64/94/124 75/127/183 78/132/190
s 17
f 79/143/191 57/97/127 58/100/130 81/144/192
s 25
f 86/145/193 85/146/194 87/147/195 88/148/196
s 26
f 91/149/197 92/150/198 93/151/199 94/152/200
s 25
f 89/153/201 86/145/193 88/148/196 90/154/202
s 26
f 92/150/198 95/155/203 96/156/204 93/151/199
s 15
f 83/157/205 84/158/206 50/89/119 49/88/118
s 27
f 59/113/207 57/116/208 85/146/209 86/145/210
s 17
f 57/97/127 79/143/191 87/159/211 85/160/212
s 18
f 79/102/132 80/101/131 88/161/213 87/162/214
s 27
f 49/117/215 59/113/207 86/145/210 89/153/216
s 18
f 80/101/131 83/105/135 90/163/217 88/161/213
s 15
f 83/157/205 49/88/118 89/164/218 90/165/219
s 28
f 58/108/220 60/107/221 92/150/222 91/149/223
s 18
f 82/104/134 81/103/133 94/166/224 93/167/225
s 17
f 81/144/192 58/100/130 91/168/226 94/169/227
s 28
f 60/107/221 50/112/228 95/155/229 92/150/222
s 15
f 50/89/119 84/158/206 96/170/230 95/171/231
s 18
f 84/106/136 82/104/134 93/167/225 96/172/232
