# This file uses centimeters as units for non-parametric coordinates.

v -7.728020 19.635499 0.688979
v -7.728024 21.634961 0.688979
v -7.728020 19.635499 -1.310479
v -7.728024 21.634961 -1.310479
v -5.897152 21.634961 0.688979
v -5.897152 21.634961 -1.310479
v -5.897148 19.635501 -1.310479
v -5.897148 19.635501 0.688979
v -14.407547 -21.634963 0.688979
v -14.407547 -21.634963 -1.310479
v -12.399132 -21.634963 -1.310479
v -12.399132 -21.634963 0.688979
v -9.020218 11.651452 0.688979
v -7.155014 11.651452 0.688979
v -7.155014 11.651452 -1.310479
v -9.020218 11.651452 -1.310479
v -9.300835 9.917546 0.688979
v -7.428154 9.917546 0.688979
v -7.428154 9.917546 -1.310479
v -9.300835 9.917546 -1.310479
v -10.741386 1.016843 0.688979
v -8.830425 1.016843 0.688979
v -8.830425 1.016843 -1.310479
v -10.741386 1.016843 -1.310479
v -11.066589 -0.992324 0.688979
v -9.146957 -0.992324 0.688979
v -9.146957 -0.992324 -1.310479
v -11.066589 -0.992324 -1.310479
v -9.020218 11.651452 1.310485
v -7.155014 11.651452 1.310485
v -9.300835 9.917546 1.310485
v -7.428154 9.917546 1.310485
v -10.741386 1.016843 1.310485
v -8.830425 1.016843 1.310485
v -11.066589 -0.992324 1.310485
v -9.146957 -0.992324 1.310485
v 7.728022 19.635499 0.688979
v 5.897150 19.635499 0.688979
v 5.897148 21.634961 0.688979
v 7.728020 21.634961 0.688979
v 7.728020 21.634961 -1.310479
v 7.728022 19.635499 -1.310479
v 5.897150 19.635499 -1.310479
v 5.897148 21.634961 -1.310479
v 14.407547 -21.634961 0.688979
v 14.407547 -21.634961 -1.310479
v 12.399132 -21.634961 -1.310479
v 12.399132 -21.634961 0.688979
v 9.020222 11.651452 -1.310479
v 9.020222 11.651452 0.688979
v 7.155012 11.651452 -1.310479
v 7.155012 11.651452 0.688979
v 7.155012 11.651452 1.310485
v 9.020222 11.651452 1.310485
v 9.300840 9.917546 1.310485
v 7.428158 9.917546 1.310485
v 7.428158 9.917546 0.688979
v 7.428158 9.917546 -1.310479
v 9.300840 9.917546 -1.310479
v 9.300840 9.917546 0.688979
v 10.741386 1.016842 0.688979
v 8.830433 1.016842 0.688979
v 8.830433 1.016842 -1.310479
v 10.741386 1.016842 -1.310479
v 8.830433 1.016842 1.310485
v 10.741386 1.016842 1.310485
v 11.066593 -0.992323 1.310485
v 9.146957 -0.992323 1.310485
v 9.146957 -0.992323 0.688979
v 9.146957 -0.992323 -1.310479
v 11.066593 -0.992323 -1.310479
v 11.066593 -0.992323 0.688979
vt 0.640360 0.928971
vt 0.325286 0.994061
vt 0.687647 0.885671
vt 0.687647 0.928971
vt 0.281712 0.796626
vt 0.325286 0.804073
vt 0.640359 0.606735
vt 0.687647 0.606736
vt 0.208126 0.988481
vt 0.687647 0.563435
vt 0.165353 0.804650
vt 0.208928 0.797203
vt 0.546382 0.928972
vt 0.415356 0.988879
vt 0.462653 0.986689
vt 0.546980 0.976259
vt 0.416153 0.798829
vt 0.732416 0.317151
vt 0.416326 0.757555
vt 0.463617 0.756861
vt 0.417215 0.545686
vt 0.874608 0.036776
vt 0.775376 0.325089
vt 0.734632 0.331682
vt 0.417416 0.497860
vt 0.464700 0.498845
vt 0.419478 0.006489
vt 0.466748 0.010650
vt 0.924015 0.043668
vt 0.876804 0.051310
vt 0.593072 0.885671
vt 0.921514 0.581556
vt 0.594267 0.976258
vt 0.545785 0.885671
vt 0.372574 0.805754
vt 0.938867 0.567095
vt 0.545785 0.606735
vt 0.118066 0.996319
vt 0.372573 0.764494
vt 0.640360 0.563435
vt 0.546382 0.563435
vt 0.592475 0.563436
vt 0.372574 0.552694
vt 0.938867 0.521695
vt 0.074486 0.799406
vt 0.118066 0.806331
vt 0.372574 0.504884
vt 0.775376 0.764976
vt 0.074313 0.758132
vt 0.118066 0.765071
vt 0.372574 0.013674
vt 0.165353 0.994638
vt 0.073424 0.546263
vt 0.118066 0.553271
vt 0.073223 0.498437
vt 0.118066 0.505461
vt 0.071162 0.007066
vt 0.118066 0.014251
vt 0.592475 0.928971
vt 0.498498 0.928971
vt 0.498498 0.885671
vt 0.075283 0.989456
vt 0.498497 0.606735
vt 0.537366 0.020486
vt 0.489867 0.020486
vt 0.498497 0.563435
vt 0.568404 0.061591
vt 0.568404 0.014304
vt 0.615903 0.014304
vt 0.615903 0.061591
vt 0.640360 0.885671
vt 0.372574 0.995741
vt 0.593072 0.606735
vt 0.282514 0.987904
vt 0.986383 0.096529
vt 0.023892 0.011227
vt 0.986384 0.514209
vt 0.772896 0.779464
vt 0.325286 0.764297
vt 0.026139 0.546938
vt 0.325286 0.552497
vt 0.831213 0.714248
vt 0.325286 0.507135
vt 0.831213 0.375816
vt 0.325286 0.015925
vt 0.734632 0.758382
vt 0.734500 0.375816
vt 0.772896 0.310600
vt 0.463445 0.797868
vt 0.775507 0.369356
vt 0.775507 0.720708
vt 0.734500 0.714248
vt 0.921514 0.029183
vt 0.464500 0.546361
vt 0.546981 0.516147
vt 0.281537 0.758054
vt 0.280643 0.544815
vt 0.027987 0.987267
vt 0.876651 0.096529
vt 0.027022 0.757438
vt 0.732416 0.772914
vt 0.924168 0.089043
vt 0.924169 0.521695
vt 0.876652 0.514209
vt 0.924016 0.567070
vt 0.876804 0.559428
vt 0.027194 0.798445
vt 0.280440 0.501575
vt 0.278366 0.007028
vt 0.594268 0.516149
vt 0.719801 0.375816
vt 0.719801 0.331704
vt 0.210200 0.502152
vt 0.212274 0.007605
vt 0.165353 0.016502
vt 0.719802 0.714248
vt 0.165353 0.507712
vt 0.719802 0.758361
vt 0.790206 0.325067
vt 0.790206 0.369356
vt 0.209103 0.758631
vt 0.209997 0.545392
vt 0.790206 0.720708
vt 0.165353 0.553075
vt 0.790206 0.764997
vt 0.165353 0.764875
vt 0.861953 0.096529
vt 0.861953 0.051335
vt 0.489867 0.067773
vt 0.025940 0.499422
vt 0.537366 0.067774
vt 0.861953 0.514209
vt 0.874608 0.573962
vt 0.861953 0.559404
vt 0.938867 0.043643
vt 0.938867 0.089043
vn 0.000000 0.000000 1.000000
vn 0.000000 0.000000 1.000000
vn 0.000000 0.000000 1.000000
vn 0.000000 0.000000 1.000000
vn -1.000000 -0.000002 0.000000
vn -0.996784 0.080141 0.000000
vn -0.996784 0.080141 0.000000
vn -1.000000 -0.000002 0.000000
vn -0.000001 0.000000 -1.000000
vn -0.000001 0.000000 -1.000000
vn -0.000002 0.000000 -1.000000
vn -0.000001 0.000000 -1.000000
vn 0.000000 1.000000 0.000000
vn 0.000000 1.000000 0.000000
vn 0.000000 1.000000 0.000000
vn 0.000000 1.000000 0.000000
vn 0.000000 -1.000000 0.000000
vn 0.000000 -1.000000 0.000000
vn 0.000000 -1.000000 0.000000
vn 0.000000 -1.000000 0.000000
vn -0.000000 -1.000000 0.000000
vn -0.000000 -1.000000 0.000000
vn -0.000000 -1.000000 0.000000
vn -0.000000 -1.000000 0.000000
vn 0.000000 0.000000 1.000000
vn 0.000000 0.000000 1.000000
vn -0.987155 0.159765 0.000000
vn -0.987155 0.159764 0.000000
vn 0.000000 0.000000 -1.000000
vn 0.000000 0.000000 -1.000000
vn 0.987816 -0.155628 0.000000
vn 0.987816 -0.155628 0.000000
vn 0.987817 -0.155618 0.000000
vn 0.987817 -0.155618 0.000000
vn 0.000000 0.000000 1.000000
vn 0.000000 0.000000 1.000000
vn 0.000000 0.000000 1.000000
vn 0.000000 0.000000 1.000000
vn 0.000000 0.000000 1.000000
vn 0.000000 0.000000 1.000000
vn 0.987817 -0.155617 0.000000
vn 0.987817 -0.155617 0.000000
vn 0.000000 0.000000 -1.000000
vn 0.000000 0.000000 -1.000000
vn -0.987155 0.159765 0.000000
vn -0.987155 0.159764 0.000000
vn 0.000000 0.000000 1.000000
vn 0.000000 0.000000 1.000000
vn 0.000000 0.000000 1.000000
vn 0.000000 0.000000 1.000000
vn 0.987816 -0.155625 0.000000
vn 0.987816 -0.155625 0.000000
vn 0.000000 0.000000 -1.000000
vn 0.000000 0.000000 -1.000000
vn -0.987154 0.159774 0.000000
vn -0.987153 0.159776 0.000000
vn 0.000000 0.000000 1.000000
vn 0.000000 0.000000 1.000000
vn 0.000000 0.000000 1.000000
vn 0.000000 0.000000 1.000000
vn 0.987816 -0.155625 0.000000
vn 0.987816 -0.155625 0.000000
vn 0.000000 0.000000 -1.000000
vn 0.000000 0.000000 -1.000000
vn -0.987154 0.159775 0.000000
vn -0.987153 0.159777 0.000000
vn 0.000000 0.000000 1.000000
vn 0.000000 0.000000 1.000000
vn 0.000000 0.000000 1.000000
vn 0.000000 0.000000 1.000000
vn 0.987816 -0.155627 0.000000
vn 0.987816 -0.155627 0.000000
vn 0.000000 0.000000 -1.000000
vn 0.000000 0.000000 -1.000000
vn -0.987155 0.159769 0.000000
vn -0.987155 0.159769 0.000000
vn 0.000000 1.000000 0.000000
vn 0.000000 1.000000 0.000000
vn 0.000000 1.000000 0.000000
vn 0.000000 1.000000 0.000000
vn -0.987156 0.159762 0.000000
vn -0.987156 0.159762 0.000000
vn 0.000000 -1.000000 0.000000
vn 0.000000 -1.000000 0.000000
vn 0.000000 -1.000000 0.000000
vn 0.000000 -1.000000 0.000000
vn 0.000000 1.000000 0.000000
vn 0.000000 1.000000 0.000000
vn 0.000000 1.000000 0.000000
vn 0.000000 1.000000 0.000000
vn -0.987153 0.159781 0.000000
vn -0.987153 0.159781 0.000000
vn 0.000000 -1.000000 0.000000
vn 0.000000 -1.000000 0.000000
vn 0.000000 -1.000000 0.000000
vn 0.000000 -1.000000 0.000000
vn 0.000000 0.000000 -1.000000
vn 0.000000 0.000000 -1.000000
vn 0.000000 0.000000 -1.000000
vn 0.000000 0.000000 -1.000000
vn 0.000000 -1.000000 0.000000
vn 0.000000 -1.000000 0.000000
vn 0.000000 -1.000000 0.000000
vn 0.000000 -1.000000 0.000000
vn -0.000000 0.000000 -1.000000
vn -0.000000 0.000000 -1.000000
vn -0.000000 0.000000 -1.000000
vn -0.000000 0.000000 -1.000000
vn 0.000000 -1.000000 0.000000
vn 0.000000 -1.000000 0.000000
vn 0.000000 -1.000000 0.000000
vn 0.000000 -1.000000 0.000000
vn 0.000000 0.000000 1.000000
vn 0.000000 0.000000 1.000000
vn 1.000000 0.000001 0.000000
vn 1.000000 0.000001 0.000000
vn 0.996783 0.080143 0.000000
vn 0.996783 0.080143 0.000000
vn 0.000000 0.000000 -1.000000
vn 0.000000 0.000000 -1.000000
vn 0.000000 0.000000 -1.000000
vn 0.000000 0.000000 -1.000000
vn 0.000000 1.000000 0.000000
vn 0.000000 1.000000 0.000000
vn 0.000000 1.000000 0.000000
vn 0.000000 1.000000 0.000000
vn 0.000000 -1.000000 0.000000
vn 0.000000 -1.000000 0.000000
vn 0.000000 -1.000000 0.000000
vn 0.000000 -1.000000 0.000000
vn 0.987155 0.159765 0.000000
vn 0.987155 0.159766 0.000000
vn 0.000000 0.000000 -1.000000
vn 0.000000 0.000000 -1.000000
vn -0.987816 -0.155628 0.000000
vn -0.987817 -0.155620 0.000000
vn -0.987817 -0.155620 0.000000
vn -0.987816 -0.155628 0.000000
vn 0.000000 0.000000 1.000000
vn 0.000000 0.000000 1.000000
vn 0.000000 0.000000 1.000000
vn 0.000000 0.000000 1.000000
vn 0.000000 0.000000 1.000000
vn 0.000000 0.000000 1.000000
vn -0.987817 -0.155620 0.000000
vn -0.987817 -0.155620 0.000000
vn 0.000000 0.000000 -1.000000
vn 0.000000 0.000000 -1.000000
vn 0.987155 0.159765 0.000000
vn 0.987155 0.159765 0.000000
vn 0.000000 0.000000 1.000000
vn 0.000000 0.000000 1.000000
vn 0.000000 0.000000 1.000000
vn 0.000000 0.000000 1.000000
vn -0.987816 -0.155624 0.000000
vn -0.987816 -0.155624 0.000000
vn 0.000000 0.000000 -1.000000
vn 0.000000 0.000000 -1.000000
vn 0.987153 0.159777 0.000000
vn 0.987154 0.159775 0.000000
vn 0.000000 0.000000 1.000000
vn 0.000000 0.000000 1.000000
vn 0.000000 0.000000 1.000000
vn 0.000000 0.000000 1.000000
vn -0.987816 -0.155624 0.000000
vn -0.987816 -0.155624 0.000000
vn 0.000000 0.000000 -1.000000
vn 0.000000 0.000000 -1.000000
vn 0.987153 0.159778 0.000000
vn 0.987153 0.159775 0.000000
vn 0.000000 0.000000 1.000000
vn 0.000000 0.000000 1.000000
vn 0.000000 0.000000 1.000000
vn 0.000000 0.000000 1.000000
vn -0.987816 -0.155627 0.000000
vn -0.987816 -0.155627 0.000000
vn 0.000000 0.000000 -1.000000
vn 0.000000 0.000000 -1.000000
vn 0.987155 0.159768 0.000000
vn 0.987155 0.159768 0.000000
vn 0.000000 1.000000 0.000000
vn 0.000000 1.000000 0.000000
vn 0.000000 1.000000 0.000000
vn 0.000000 1.000000 0.000000
vn 0.987155 0.159764 0.000000
vn 0.987155 0.159764 0.000000
vn 0.000000 -1.000000 0.000000
vn 0.000000 -1.000000 0.000000
vn 0.000000 -1.000000 0.000000
vn 0.000000 -1.000000 0.000000
vn 0.000000 1.000000 0.000000
vn 0.000000 1.000000 0.000000
vn 0.000000 1.000000 0.000000
vn 0.000000 1.000000 0.000000
vn 0.987152 0.159783 0.000000
vn 0.987152 0.159783 0.000000
vn 0.000000 -1.000000 0.000000
vn 0.000000 -1.000000 0.000000
vn 0.000000 -1.000000 0.000000
vn 0.000000 -1.000000 0.000000
vn 0.000000 1.000000 0.000000
vn 0.000000 1.000000 0.000000
vn 0.000000 1.000000 0.000000
vn 0.000000 1.000000 0.000000
vn 0.000000 0.000000 1.000000
vn 0.000000 0.000000 1.000000
vn 0.000000 0.000000 1.000000
vn 0.000000 0.000000 1.000000
vn 0.000000 1.000000 0.000000
vn 0.000000 1.000000 0.000000
vn 0.000000 1.000000 0.000000
vn 0.000000 1.000000 0.000000
vn 0.000000 0.000000 1.000000
vn 0.000000 0.000000 1.000000
vn 0.000000 0.000000 1.000000
vn 0.000000 0.000000 1.000000
s 1
f 1/1/1 8/71/2 5/3/3 2/4/4
s 2
f 4/13/5 3/59/6 1/33/7 2/16/8
s 3
f 7/31/9 3/59/10 4/13/11 6/34/12
s 4
f 4/13/13 2/60/14 5/61/15 6/34/16
s off
f 9/67/17 10/68/18 11/69/19 12/70/20
f 8/71/21 7/31/22 43/73/23 38/7/24
s 1
f 5/3/3 8/71/2 38/7/25 39/8/26
s 2
f 1/15/7 3/14/6 16/17/27 13/89/28
s 3
f 3/14/10 7/72/9 15/35/29 16/17/30
s 5
f 7/72/31 8/2/32 14/6/33 15/35/34
s 1
f 8/2/2 1/74/1 13/5/35 14/6/36
s off
f 30/87/37 29/24/38 31/23/39 32/90/40
s 5
f 15/35/34 14/6/33 18/79/41 19/39/42
s 3
f 16/17/30 15/35/29 19/39/43 20/19/44
s 2
f 13/89/28 16/17/27 20/19/45 17/20/46
s off
f 18/79/47 17/96/48 21/97/49 22/81/50
s 5
f 19/39/42 18/79/41 22/81/51 23/43/52
s 3
f 20/19/44 19/39/43 23/43/53 24/21/54
s 2
f 17/20/46 20/19/45 24/21/55 21/94/56
s off
f 34/99/57 33/30/58 35/29/59 36/102/60
s 5
f 23/43/52 22/81/51 26/83/61 27/47/62
s 3
f 24/21/54 23/43/53 27/47/63 28/25/64
s 2
f 21/94/56 24/21/55 28/25/65 25/26/66
s off
f 26/83/67 25/108/68 9/109/69 12/85/70
s 5
f 27/47/62 26/83/61 12/85/71 11/51/72
s 3
f 28/25/64 27/47/63 11/51/73 10/27/74
s 2
f 25/26/66 28/25/65 10/27/75 9/28/76
s off
f 14/111/77 13/112/78 29/24/79 30/87/80
s 2
f 13/18/28 17/88/46 31/23/81 29/24/82
s off
f 17/119/83 18/120/84 32/90/85 31/23/86
f 22/127/87 21/128/88 33/30/89 34/99/90
s 2
f 21/22/56 25/93/66 35/29/91 33/30/92
s off
f 25/135/93 26/136/94 36/102/95 35/29/96
f 18/120/97 14/84/98 52/82/99 57/123/100
f 32/90/101 18/120/102 57/123/103 56/91/104
f 26/136/105 22/75/106 62/77/107 69/44/108
f 36/102/109 26/136/110 69/44/111 68/103/112
s 1
f 37/40/113 40/10/114 39/8/26 38/7/25
s 6
f 41/41/115 40/95/116 37/110/117 42/42/118
s 3
f 43/73/119 44/37/120 41/41/121 42/42/122
s 4
f 41/41/123 44/37/124 39/63/125 40/66/126
s off
f 45/131/127 48/129/128 47/65/129 46/64/130
s 4
f 5/61/15 39/63/125 44/37/124 6/34/16
s 3
f 6/34/12 44/37/120 43/73/119 7/31/9
s 6
f 37/98/117 50/107/131 49/45/132 42/62/118
s 3
f 42/62/122 49/45/133 51/46/134 43/38/119
s 7
f 43/38/135 51/46/136 52/11/137 38/52/138
s 1
f 38/52/25 52/11/139 50/12/140 37/9/113
s off
f 53/92/141 56/91/142 55/48/143 54/86/144
s 7
f 51/46/136 58/50/145 57/126/146 52/11/137
s 3
f 49/45/133 59/49/147 58/50/148 51/46/134
s 6
f 50/107/131 60/100/149 59/49/150 49/45/132
s off
f 57/126/151 62/124/152 61/122/153 60/121/154
s 7
f 58/50/145 63/54/155 62/124/156 57/126/146
s 3
f 59/49/147 64/53/157 63/54/158 58/50/148
s 6
f 60/100/149 61/80/159 64/53/160 59/49/150
s off
f 65/104/161 68/103/162 67/105/163 66/106/164
s 7
f 63/54/155 70/56/165 69/117/166 62/124/156
s 3
f 64/53/157 71/55/167 70/56/168 63/54/158
s 6
f 61/80/159 72/130/169 71/55/170 64/53/160
s off
f 69/117/171 48/115/172 45/114/173 72/113/174
s 7
f 70/56/165 47/58/175 48/115/176 69/117/166
s 3
f 71/55/167 46/57/177 47/58/178 70/56/168
s 6
f 72/130/169 45/76/179 46/57/180 71/55/170
s off
f 52/116/181 53/92/182 54/86/183 50/118/184
s 6
f 50/101/131 54/86/185 55/48/186 60/78/149
s off
f 60/125/187 55/48/188 56/91/189 57/123/190
f 62/132/191 65/104/192 66/106/193 61/134/194
s 6
f 61/133/159 66/106/195 67/105/196 72/32/169
s off
f 72/36/197 67/105/198 68/103/199 69/44/200
f 30/87/201 53/92/202 52/116/203 14/111/204
f 32/90/205 56/91/206 53/92/207 30/87/208
f 34/99/209 65/104/210 62/132/211 22/127/212
f 36/102/213 68/103/214 65/104/215 34/99/216
