# This file uses centimeters as units for non-parametric coordinates.

mtllib props_foundry_rail_thick_plain_1.mtl
v 11.967876 -1.633459 0.940628
v 14.390102 -1.633459 0.940628
v 11.967876 0.970810 0.940628
v 14.390102 0.970810 0.940628
v 11.967876 0.970810 -0.940620
v 14.390102 0.970810 -0.940620
v 11.967876 -1.633459 -0.940620
v 14.390102 -1.633459 -0.940620
v 12.339703 1.073510 0.651852
v 14.018280 1.073510 0.651852
v 12.339703 1.073510 -0.651844
v 14.018280 1.073510 -0.651844
v 12.339703 -1.736159 -0.651844
v 14.018280 -1.736159 -0.651844
v 12.339703 -1.736159 0.651852
v 14.018280 -1.736159 0.651852
v 12.339703 6.169885 0.651852
v 14.018280 6.169887 0.651852
v 12.339703 6.169885 -0.651844
v 14.018280 6.169887 -0.651844
v 12.339703 -8.592356 -0.883610
v 14.018280 -8.592358 -0.883610
v 12.339703 -8.592356 0.883617
v 14.018280 -8.592358 0.883617
v 11.970802 6.256363 0.938354
v 14.387165 6.256365 0.938354
v 11.970802 6.256363 -0.938347
v 14.387165 6.256365 -0.938347
v 11.970802 8.592356 0.938354
v 14.387165 8.592358 0.938354
v 11.970802 8.592356 -0.938347
v 14.387165 8.592358 -0.938347
v 14.485811 -1.237614 0.348003
v 14.485811 0.574965 0.348003
v 14.485811 -1.237614 -0.347996
v 14.485811 0.574965 -0.347996
v 11.872173 -1.237614 0.348003
v 11.872173 0.574965 0.348003
v 11.872173 0.574965 -0.347996
v 11.872173 -1.237614 -0.347996
v 14.482643 6.611432 0.347160
v 14.482643 8.237291 0.347160
v 14.482643 6.611432 -0.347157
v 14.482643 8.237291 -0.347157
v 11.875332 8.237288 0.347168
v 11.875332 8.237288 -0.347153
v 11.875332 6.611430 -0.347153
v 11.875332 6.611430 0.347168
v -11.967884 -1.633459 -0.940620
v -14.390110 -1.633459 -0.940620
v -11.967884 0.970810 -0.940620
v -14.390110 0.970810 -0.940620
v -11.967884 0.970810 0.940628
v -14.390110 0.970810 0.940628
v -11.967884 -1.633459 0.940628
v -14.390110 -1.633459 0.940628
v -12.339710 1.073510 -0.651844
v -14.018288 1.073510 -0.651844
v -12.339710 1.073510 0.651852
v -14.018288 1.073510 0.651852
v -12.339710 -1.736159 0.651852
v -14.018288 -1.736159 0.651852
v -12.339710 -1.736159 -0.651844
v -14.018288 -1.736159 -0.651844
v -12.339710 6.169885 -0.651844
v -14.018288 6.169887 -0.651844
v -12.339710 6.169885 0.651852
v -14.018288 6.169887 0.651852
v -12.339710 -8.592356 0.883617
v -14.018288 -8.592358 0.883617
v -12.339710 -8.592356 -0.883610
v -14.018288 -8.592358 -0.883610
v -11.970810 6.256363 -0.938347
v -14.387173 6.256365 -0.938347
v -11.970810 6.256363 0.938354
v -14.387173 6.256365 0.938354
v -11.970810 8.592356 -0.938347
v -14.387173 8.592358 -0.938347
v -11.970810 8.592356 0.938354
v -14.387173 8.592358 0.938354
v -14.485813 -1.237614 -0.347996
v -14.485813 0.574965 -0.347996
v -14.485813 -1.237614 0.348003
v -14.485813 0.574965 0.348003
v -11.872181 -1.237614 -0.347996
v -11.872181 0.574965 -0.347996
v -11.872181 0.574965 0.348003
v -11.872181 -1.237614 0.348003
v -14.482651 6.611432 -0.347153
v -14.482651 8.237291 -0.347153
v -14.482651 6.611432 0.347164
v -14.482651 8.237291 0.347164
v -11.875340 8.237288 -0.347160
v -11.875340 8.237288 0.347160
v -11.875340 6.611430 0.347160
v -11.875340 6.611430 -0.347160
vt 0.117116 0.227485
vt 0.196157 0.227485
vt 0.196158 0.312467
vt 0.117116 0.312467
vt 0.197218 0.496043
vt 0.197220 0.557284
vt 0.118370 0.557286
vt 0.118367 0.496046
vt 0.117116 0.081115
vt 0.196157 0.081114
vt 0.196157 0.166097
vt 0.117116 0.166096
vt 0.384110 0.242172
vt 0.326444 0.242172
vt 0.326443 0.187398
vt 0.384110 0.187397
vt 0.104198 0.208146
vt 0.045051 0.208145
vt 0.045052 0.185433
vt 0.104199 0.185435
vt 0.110055 0.982697
vt 0.032134 0.227483
vt 0.032135 0.166094
vt 0.885081 0.982697
vt 0.184024 0.218062
vt 0.885081 0.929642
vt 0.110055 0.929643
vt 0.129249 0.218062
vt 0.184024 0.175520
vt 0.887788 0.760014
vt 0.636047 0.458279
vt 0.129249 0.175520
vt 0.184024 0.071691
vt 0.112968 0.678155
vt 0.887788 0.678155
vt 0.129249 0.071692
vt 0.184023 0.029149
vt 0.196157 0.019726
vt 0.117115 0.019727
vt 0.129249 0.029150
vt 0.425943 0.643865
vt 0.425943 0.477562
vt 0.480718 0.477562
vt 0.480718 0.643865
vt 0.286087 0.643867
vt 0.286082 0.477564
vt 0.328624 0.477562
vt 0.328628 0.643866
vt 0.383402 0.643865
vt 0.383401 0.477562
vt 0.880086 0.421463
vt 0.868048 0.412114
vt 0.880087 0.635158
vt 0.944727 0.539640
vt 0.813274 0.412114
vt 0.801236 0.421463
vt 0.112968 0.655443
vt 0.334005 0.465838
vt 0.279261 0.467689
vt 0.271701 0.244023
vt 0.944727 0.516983
vt 0.891672 0.516983
vt 0.236818 0.470593
vt 0.214164 0.247885
vt 0.956314 0.497692
vt 0.112968 0.737302
vt 0.376549 0.465838
vt 0.112969 0.819161
vt 0.887788 0.819161
vt 0.438852 0.244055
vt 0.431294 0.467657
vt 0.956313 0.558932
vt 0.197212 0.358576
vt 0.185175 0.367925
vt 0.130400 0.367927
vt 0.118362 0.358579
vt 0.197215 0.419816
vt 0.185177 0.410467
vt 0.130402 0.410469
vt 0.118365 0.419819
vt 0.698351 0.236463
vt 0.197222 0.633511
vt 0.118372 0.633514
vt 0.887788 0.737302
vt 0.106783 0.537995
vt 0.053728 0.537998
vt 0.053727 0.515341
vt 0.106782 0.515338
vt 0.531199 0.236495
vt 0.042142 0.557290
vt 0.042140 0.496049
vt 0.538758 0.460097
vt 0.736595 0.516982
vt 0.725008 0.497691
vt 0.789649 0.516982
vt 0.789649 0.539639
vt 0.281139 0.227485
vt 0.885081 0.906985
vt 0.209075 0.208146
vt 0.268222 0.208147
vt 0.110055 0.906986
vt 0.209075 0.185435
vt 0.281139 0.166096
vt 0.268222 0.185435
vt 0.736595 0.539639
vt 0.725008 0.558931
vt 0.208805 0.515335
vt 0.208805 0.537992
vt 0.273446 0.496043
vt 0.261860 0.515335
vt 0.273446 0.557284
vt 0.261860 0.537992
vt 0.887788 0.655443
vt 0.110055 0.853931
vt 0.885081 0.853931
vt 0.112969 0.760014
vt 0.593502 0.458279
vt 0.110055 0.831274
vt 0.885081 0.831274
vt 0.755888 0.240326
vt 0.881074 0.163491
vt 0.802033 0.163491
vt 0.802032 0.078509
vt 0.881074 0.078509
vt 0.801236 0.558931
vt 0.801236 0.497691
vt 0.880086 0.497691
vt 0.880086 0.558931
vt 0.881074 0.309861
vt 0.802033 0.309861
vt 0.802033 0.224880
vt 0.881074 0.224879
vt 0.643608 0.234613
vt 0.585941 0.234612
vt 0.585942 0.179837
vt 0.643609 0.179838
vt 0.893991 0.182829
vt 0.953139 0.182829
vt 0.953139 0.205541
vt 0.893991 0.205541
vt 0.690790 0.460129
vt 0.966056 0.163491
vt 0.966056 0.224879
vt 0.733234 0.463034
vt 0.814166 0.172914
vt 0.729968 0.205541
vt 0.717051 0.224880
vt 0.868941 0.172914
vt 0.814166 0.215456
vt 0.789116 0.205541
vt 0.729968 0.182830
vt 0.868941 0.215456
vt 0.814166 0.026544
vt 0.802033 0.017121
vt 0.881074 0.017121
vt 0.868941 0.026544
vt 0.814166 0.069086
vt 0.789115 0.182829
vt 0.717051 0.163491
vt 0.868941 0.069086
vt 0.610558 0.634314
vt 0.610558 0.468011
vt 0.665332 0.468010
vt 0.665333 0.634314
vt 0.891672 0.539639
vt 0.801237 0.635159
vt 0.707874 0.468010
vt 0.707875 0.634314
vt 0.568016 0.634314
vt 0.568015 0.468011
vt 0.880086 0.360223
vt 0.868049 0.369572
vt 0.513241 0.634314
vt 0.513241 0.468011
vt 0.813274 0.369572
vt 0.801236 0.360223
vn 0.000000 0.000000 1.000000
vn 0.000000 0.000000 1.000000
vn 0.000000 0.000000 1.000000
vn 0.000000 0.000000 1.000000
vn -0.000001 1.000000 0.000000
vn -0.000001 1.000000 0.000000
vn -0.000001 1.000000 0.000000
vn -0.000001 1.000000 0.000000
vn 0.000000 0.000000 -1.000000
vn 0.000000 0.000000 -1.000000
vn 0.000000 0.000000 -1.000000
vn 0.000000 0.000000 -1.000000
vn -0.000001 -1.000000 0.000000
vn -0.000001 -1.000000 0.000000
vn -0.000001 -1.000000 0.000000
vn -0.000001 -1.000000 0.000000
vn 0.995427 0.079055 0.053631
vn 0.995427 -0.079055 0.053631
vn 0.995427 -0.079055 -0.053631
vn 0.995427 0.079055 -0.053631
vn -0.136283 0.975708 0.171523
vn -0.136283 0.975708 0.171523
vn 0.136284 0.975708 0.171523
vn 0.136284 0.975708 0.171523
vn 0.136284 0.975708 -0.171523
vn 0.136284 0.975708 -0.171523
vn -0.136283 0.975708 -0.171523
vn -0.136283 0.975708 -0.171523
vn -0.136283 -0.975709 -0.171522
vn -0.136283 -0.975709 -0.171522
vn 0.136284 -0.975708 -0.171522
vn 0.136284 -0.975708 -0.171522
vn 0.136284 -0.975708 0.171523
vn 0.136284 -0.975708 0.171523
vn -0.136283 -0.975709 0.171523
vn -0.136283 -0.975709 0.171523
vn -0.000000 0.000000 1.000000
vn -0.000000 0.000000 1.000000
vn -0.000000 0.000000 1.000000
vn -0.000000 0.000000 1.000000
vn 1.000000 0.000000 0.000000
vn 1.000000 0.000000 0.000000
vn 1.000000 0.000000 0.000000
vn 1.000000 0.000000 0.000000
vn -1.000000 0.000000 0.000000
vn -1.000000 0.000000 0.000000
vn -1.000000 0.000000 0.000000
vn -1.000000 0.000000 0.000000
vn -0.000000 0.000000 -1.000000
vn -0.000000 0.000000 -1.000000
vn -0.000000 0.000000 -1.000000
vn -0.000000 0.000000 -1.000000
vn -0.000000 0.033785 -0.999429
vn -0.000000 0.033785 -0.999429
vn -0.000000 0.033785 -0.999429
vn -0.000000 0.033785 -0.999429
vn 1.000000 0.000000 0.000000
vn 1.000000 0.000000 0.000000
vn 1.000000 0.000000 0.000000
vn 1.000000 0.000000 0.000000
vn -1.000000 0.000000 0.000000
vn -1.000000 0.000000 0.000000
vn -1.000000 0.000000 0.000000
vn -1.000000 0.000000 0.000000
vn 0.000000 0.033785 0.999429
vn 0.000000 0.033785 0.999429
vn 0.000000 0.033785 0.999429
vn 0.000000 0.033785 0.999429
vn 0.000001 -0.957341 0.288962
vn 0.000001 -0.957341 0.288962
vn 0.000001 -0.957341 0.288962
vn 0.000001 -0.957341 0.288962
vn 0.228244 -0.973604 0.000000
vn 0.228244 -0.973604 0.000000
vn 0.228244 -0.973604 0.000000
vn 0.228244 -0.973604 0.000000
vn -0.228233 -0.973607 0.000000
vn -0.228233 -0.973607 0.000000
vn -0.228233 -0.973607 0.000000
vn -0.228233 -0.973607 0.000000
vn 0.000001 -0.957341 -0.288962
vn 0.000001 -0.957341 -0.288962
vn 0.000001 -0.957341 -0.288962
vn 0.000001 -0.957341 -0.288962
vn 0.000000 0.000000 1.000000
vn 0.000000 0.000000 1.000000
vn 0.000000 0.000000 1.000000
vn 0.000000 0.000000 1.000000
vn 0.994718 0.087475 0.053707
vn 0.994718 -0.087474 0.053707
vn 0.994718 -0.087474 -0.053708
vn 0.994718 0.087475 -0.053708
vn 0.000000 0.000000 -1.000000
vn 0.000000 0.000000 -1.000000
vn 0.000000 0.000000 -1.000000
vn 0.000000 0.000000 -1.000000
vn 0.989657 0.118713 0.080535
vn 0.989657 -0.118713 0.080535
vn 0.989657 -0.118713 -0.080535
vn 0.989657 0.118713 -0.080535
vn -0.989658 -0.118706 0.080531
vn -0.989658 0.118706 0.080531
vn -0.989658 0.118706 0.080531
vn -0.989658 -0.118706 0.080531
vn -0.989658 0.118706 -0.080531
vn -0.989658 0.118706 -0.080531
vn -0.989658 -0.118706 -0.080531
vn -0.989658 -0.118706 -0.080531
vn 0.988045 0.131380 0.080664
vn 0.988045 -0.131379 0.080664
vn 0.988045 -0.131379 -0.080664
vn 0.988045 0.131380 -0.080664
vn -0.988047 0.131369 0.080658
vn -0.988047 0.131369 -0.080657
vn -0.988047 0.131369 -0.080657
vn -0.988047 0.131369 0.080658
vn -0.988047 -0.131369 -0.080657
vn -0.988047 -0.131369 -0.080657
vn -0.988047 -0.131369 0.080658
vn -0.988047 -0.131369 0.080658
vn 0.000000 0.000000 -1.000000
vn 0.000000 0.000000 -1.000000
vn 0.000000 0.000000 -1.000000
vn 0.000000 0.000000 -1.000000
vn 0.000000 -1.000000 0.000000
vn 0.000000 -1.000000 0.000000
vn 0.000000 -1.000000 0.000000
vn 0.000000 -1.000000 0.000000
vn 0.000000 0.000000 -1.000000
vn 0.000000 0.000000 -1.000000
vn 0.000000 0.000000 -1.000000
vn 0.000000 0.000000 -1.000000
vn 0.000001 1.000000 0.000000
vn 0.000001 1.000000 0.000000
vn 0.000001 1.000000 0.000000
vn 0.000001 1.000000 0.000000
vn 0.000000 0.000000 1.000000
vn 0.000000 0.000000 1.000000
vn 0.000000 0.000000 1.000000
vn 0.000000 0.000000 1.000000
vn 0.000001 -1.000000 0.000000
vn 0.000001 -1.000000 0.000000
vn 0.000001 -1.000000 0.000000
vn 0.000001 -1.000000 0.000000
vn -0.995427 0.079050 -0.053628
vn -0.995427 -0.079050 -0.053628
vn -0.995427 -0.079050 0.053628
vn -0.995427 0.079050 0.053628
vn 0.136283 0.975708 -0.171523
vn 0.136283 0.975708 -0.171523
vn -0.136284 0.975708 -0.171523
vn -0.136284 0.975708 -0.171523
vn -0.136284 0.975708 0.171523
vn -0.136284 0.975708 0.171523
vn 0.136283 0.975708 0.171523
vn 0.136283 0.975708 0.171523
vn 0.136283 -0.975709 0.171522
vn 0.136283 -0.975709 0.171522
vn -0.136284 -0.975708 0.171522
vn -0.136284 -0.975708 0.171522
vn -0.136284 -0.975708 -0.171523
vn -0.136284 -0.975708 -0.171523
vn 0.136283 -0.975708 -0.171523
vn 0.136283 -0.975708 -0.171523
vn 0.000000 0.000000 -1.000000
vn 0.000000 0.000000 -1.000000
vn 0.000000 0.000000 -1.000000
vn 0.000000 0.000000 -1.000000
vn -1.000000 0.000000 0.000000
vn -1.000000 0.000000 0.000000
vn -1.000000 0.000000 0.000000
vn -1.000000 0.000000 0.000000
vn 1.000000 0.000000 0.000000
vn 1.000000 0.000000 0.000000
vn 1.000000 0.000000 0.000000
vn 1.000000 0.000000 0.000000
vn 0.000000 0.000000 1.000000
vn 0.000000 0.000000 1.000000
vn 0.000000 0.000000 1.000000
vn 0.000000 0.000000 1.000000
vn -0.000000 0.033785 0.999429
vn -0.000000 0.033785 0.999429
vn -0.000000 0.033785 0.999429
vn -0.000000 0.033785 0.999429
vn -1.000000 0.000000 0.000000
vn -1.000000 0.000000 0.000000
vn -1.000000 0.000000 0.000000
vn -1.000000 0.000000 0.000000
vn 1.000000 -0.000000 0.000000
vn 1.000000 -0.000000 0.000000
vn 1.000000 -0.000000 0.000000
vn 1.000000 -0.000000 0.000000
vn 0.000000 0.033785 -0.999429
vn 0.000000 0.033785 -0.999429
vn 0.000000 0.033785 -0.999429
vn 0.000000 0.033785 -0.999429
vn -0.000001 -0.957341 -0.288962
vn -0.000001 -0.957341 -0.288962
vn -0.000001 -0.957341 -0.288962
vn -0.000001 -0.957341 -0.288962
vn -0.228243 -0.973604 0.000000
vn -0.228243 -0.973604 0.000000
vn -0.228243 -0.973604 0.000000
vn -0.228243 -0.973604 0.000000
vn 0.228233 -0.973607 0.000000
vn 0.228233 -0.973607 0.000000
vn 0.228233 -0.973607 0.000000
vn 0.228233 -0.973607 0.000000
vn -0.000001 -0.957341 0.288962
vn -0.000001 -0.957341 0.288962
vn -0.000001 -0.957341 0.288962
vn -0.000001 -0.957341 0.288962
vn -0.000000 0.000000 -1.000000
vn -0.000000 0.000000 -1.000000
vn -0.000000 0.000000 -1.000000
vn -0.000000 0.000000 -1.000000
vn -0.994718 0.087475 -0.053707
vn -0.994718 -0.087474 -0.053707
vn -0.994718 -0.087474 0.053708
vn -0.994718 0.087475 0.053708
vn -0.000000 0.000000 1.000000
vn -0.000000 0.000000 1.000000
vn -0.000000 0.000000 1.000000
vn -0.000000 0.000000 1.000000
vn -0.989658 0.118706 -0.080531
vn -0.989658 -0.118706 -0.080531
vn -0.989658 -0.118706 0.080531
vn -0.989658 0.118706 0.080531
vn 0.989658 -0.118706 -0.080531
vn 0.989658 0.118706 -0.080531
vn 0.989658 0.118706 -0.080531
vn 0.989658 -0.118706 -0.080531
vn 0.989658 0.118706 0.080531
vn 0.989658 0.118706 0.080531
vn 0.989658 -0.118706 0.080531
vn 0.989658 -0.118706 0.080531
vn -0.988045 0.131380 -0.080664
vn -0.988045 -0.131378 -0.080664
vn -0.988045 -0.131378 0.080664
vn -0.988045 0.131380 0.080664
vn 0.988047 0.131370 -0.080658
vn 0.988047 0.131370 0.080657
vn 0.988047 0.131370 0.080657
vn 0.988047 0.131370 -0.080658
vn 0.988047 -0.131370 0.080657
vn 0.988047 -0.131370 0.080657
vn 0.988047 -0.131370 -0.080658
vn 0.988047 -0.131370 -0.080658
vn 0.000000 0.000000 -1.000000
vn 0.000000 0.000000 -1.000000
vn 0.000000 0.000000 -1.000000
vn 0.000000 0.000000 -1.000000
vn 0.000000 1.000000 0.000000
vn 0.000000 1.000000 0.000000
vn 0.000000 1.000000 0.000000
vn 0.000000 1.000000 0.000000
vn 0.000000 0.000000 1.000000
vn 0.000000 0.000000 1.000000
vn 0.000000 0.000000 1.000000
vn 0.000000 0.000000 1.000000
vn 0.000000 -1.000000 0.000000
vn 0.000000 -1.000000 0.000000
vn 0.000000 -1.000000 0.000000
vn 0.000000 -1.000000 0.000000
vn 0.000000 1.000000 0.000000
vn 0.000000 1.000000 0.000000
vn 0.000000 1.000000 0.000000
vn 0.000000 1.000000 0.000000
vn -0.000000 0.000000 1.000000
vn -0.000000 0.000000 1.000000
vn -0.000000 0.000000 1.000000
vn -0.000000 0.000000 1.000000
usemtl lambert4SG
f 4/1/1 3/2/2 1/3/3 2/4/4
f 31/5/5 29/6/6 30/7/7 32/8/8
f 8/9/9 7/10/10 5/11/11 6/12/12
f 23/13/13 21/14/14 22/15/15 24/16/16
f 34/17/17 33/18/18 35/19/19 36/20/20
f 9/25/21 3/2/22 4/1/23 10/28/24
f 10/28/24 4/1/23 6/12/25 12/32/26
f 11/29/27 5/11/28 3/2/22 9/25/21
f 12/32/26 6/12/25 5/11/28 11/29/27
f 13/33/29 7/10/30 8/9/31 14/36/32
f 14/36/32 8/9/31 2/39/33 16/40/34
f 15/37/35 1/38/36 7/10/30 13/33/29
f 16/40/34 2/39/33 1/38/36 15/37/35
f 17/41/37 9/42/38 10/43/39 18/44/40
f 18/45/41 10/46/42 12/47/43 20/48/44
f 19/49/45 11/50/46 9/42/47 17/41/48
f 20/48/49 12/47/50 11/50/51 19/49/52
f 21/14/53 13/58/54 14/59/55 22/60/56
f 22/60/57 14/59/58 16/63/59 24/64/60
f 21/14/61 23/13/62 15/67/63 13/58/64
f 23/13/65 24/70/66 16/71/67 15/67/68
f 25/73/69 17/74/70 18/75/71 26/76/72
f 26/76/73 18/75/74 20/79/75 28/80/76
f 27/77/77 19/78/78 17/74/79 25/73/80
f 28/80/81 20/79/82 19/78/83 27/77/84
f 29/6/85 25/82/86 26/83/87 30/7/88
f 42/85/89 41/86/90 43/87/91 44/88/92
f 31/5/93 32/8/94 28/80/95 27/77/96
f 4/1/97 2/22/98 33/18/18 34/17/17
f 2/22/98 8/23/99 35/19/19 33/18/18
f 8/23/99 6/12/100 36/20/20 35/19/19
f 6/12/100 4/1/97 34/17/17 36/20/20
f 1/97/101 3/2/102 38/99/103 37/100/104
f 3/2/102 5/11/105 39/102/106 38/99/103
f 5/11/105 7/103/107 40/104/108 39/102/106
f 7/103/107 1/97/101 37/100/104 40/104/108
f 30/7/109 26/90/110 41/86/90 42/85/89
f 26/90/110 28/91/111 43/87/91 41/86/90
f 28/91/111 32/8/112 44/88/92 43/87/91
f 32/8/112 30/7/109 42/85/89 44/88/92
f 29/6/113 31/5/114 46/107/115 45/108/116
f 31/5/114 27/109/117 47/110/118 46/107/115
f 27/109/117 25/111/119 48/112/120 47/110/118
f 25/111/119 29/6/113 45/108/116 48/112/120
f 46/101/121 47/114/122 96/115/123 93/98/124
f 47/114/125 48/118/126 95/119/127 96/115/128
f 52/121/129 51/122/130 49/123/131 50/124/132
f 79/125/133 77/126/134 78/127/135 80/128/136
f 56/129/137 55/130/138 53/131/139 54/132/140
f 71/133/141 69/134/142 70/135/143 72/136/144
f 82/137/145 81/138/146 83/139/147 84/140/148
f 57/145/149 51/122/150 52/121/151 58/148/152
f 58/148/152 52/121/151 54/132/153 60/152/154
f 59/149/155 53/131/156 51/122/150 57/145/149
f 60/152/154 54/132/153 53/131/156 59/149/155
f 61/153/157 55/154/158 56/155/159 62/156/160
f 62/156/160 56/155/159 50/124/161 64/160/162
f 63/157/163 49/123/164 55/154/158 61/153/157
f 64/160/162 50/124/161 49/123/164 63/157/163
f 65/161/165 57/162/166 58/163/167 66/164/168
f 66/164/169 58/163/170 60/167/171 68/168/172
f 67/169/173 59/170/174 57/162/175 65/161/176
f 68/173/177 60/174/178 59/170/179 67/169/180
f 69/134/181 61/117/182 62/92/183 70/89/184
f 70/120/185 62/144/186 64/141/187 72/81/188
f 69/134/189 71/133/190 63/31/191 61/117/192
f 71/133/193 72/81/194 64/141/195 63/31/196
f 73/56/197 65/55/198 66/52/199 74/51/200
f 74/51/201 66/52/202 68/172/203 76/171/204
f 75/176/205 67/175/206 65/55/207 73/56/208
f 76/171/209 68/172/210 67/175/211 75/176/212
f 77/126/213 73/56/214 74/51/215 78/127/216
f 90/62/217 89/61/218 91/54/219 92/165/220
f 79/125/221 80/128/222 76/53/223 75/166/224
f 52/121/225 50/142/226 81/138/146 82/137/145
f 50/142/226 56/143/227 83/139/147 81/138/146
f 56/143/227 54/132/228 84/140/148 83/139/147
f 54/132/228 52/121/225 82/137/145 84/140/148
f 49/159/229 51/122/230 86/158/231 85/151/232
f 51/122/230 53/131/233 87/150/234 86/158/231
f 53/131/233 55/147/235 88/146/236 87/150/234
f 55/147/235 49/159/229 85/151/232 88/146/236
f 78/127/237 74/65/238 89/61/218 90/62/217
f 74/65/238 76/72/239 91/54/219 89/61/218
f 76/72/239 80/128/240 92/165/220 91/54/219
f 80/128/240 78/127/237 90/62/217 92/165/220
f 77/126/241 79/125/242 94/96/243 93/95/244
f 79/125/242 75/106/245 95/105/246 94/96/243
f 75/106/245 73/94/247 96/93/248 95/105/246
f 73/94/247 77/126/241 93/95/244 96/93/248
f 40/34/249 85/35/250 86/84/251 39/66/252
f 39/66/253 86/84/254 87/30/255 38/116/256
f 38/116/257 87/30/258 88/69/259 37/68/260
f 37/57/261 88/113/262 85/35/263 40/34/264
f 46/101/265 93/98/266 94/26/267 45/27/268
f 45/27/269 94/26/270 95/24/271 48/21/272
