# This file uses centimeters as units for non-parametric coordinates.

mtllib props_foundry_chute_open_flattip_1.mtl
v -1.250326 -3.018554 -15.522009
v 1.243357 -3.001729 -15.522009
v 3.018554 -1.250326 -15.522009
v -1.250326 -3.018554 15.521997
v 1.243357 -3.001729 15.521997
v 3.018554 -1.250326 15.521997
v -3.001730 -1.243358 15.521997
v 3.001730 0.154079 15.521997
v -3.018554 0.161048 15.521997
v -3.018554 0.161048 -15.522009
v -3.001730 -1.243358 -15.522009
v 3.001730 0.154079 -15.522009
v -1.045597 -2.524297 15.521997
v 1.038840 -2.507981 15.521997
v -2.507982 -1.038840 15.521997
v 2.524297 -1.045599 15.521997
v 2.507982 0.161048 15.521997
v -2.524297 0.161048 15.521997
v -2.524297 0.161048 -15.522009
v -2.507982 -1.038840 -15.522009
v 2.507982 0.161048 -15.522009
v 1.038840 -2.507981 -15.522009
v -1.045597 -2.524297 -15.522009
v 2.524297 -1.045599 -15.522009
vt 0.286529 0.004647
vt 0.286619 0.995543
vt 0.206377 0.995543
vt 0.206287 0.004647
vt 0.366488 0.995543
vt 0.366453 0.004647
vt 0.411425 0.004647
vt 0.411418 0.995543
vt 0.126406 0.004647
vt 0.126442 0.995543
vt 0.081283 0.995543
vt 0.081290 0.004647
vt 0.741385 0.995543
vt 0.804761 0.995543
vt 0.867846 0.995543
vt 0.678364 0.995543
vt 0.641930 0.995543
vt 0.904270 0.995543
vt 0.904263 0.004647
vt 0.867879 0.004647
vt 0.804846 0.004647
vt 0.741470 0.004647
vt 0.678397 0.004647
vt 0.641922 0.004647
vt 0.478701 0.837287
vt 0.558117 0.838346
vt 0.551499 0.854029
vt 0.485117 0.853072
vt 0.614287 0.894499
vt 0.598503 0.900916
vt 0.422548 0.893457
vt 0.438231 0.900073
vt 0.613456 0.939224
vt 0.597729 0.939342
vt 0.421718 0.938181
vt 0.437459 0.938284
vt 0.612800 0.252766
vt 0.613040 0.297497
vt 0.597300 0.297393
vt 0.597032 0.259175
vt 0.557392 0.195861
vt 0.550770 0.211558
vt 0.477970 0.195872
vt 0.484380 0.211640
vt 0.421064 0.251279
vt 0.436763 0.257903
vt 0.421306 0.296010
vt 0.437030 0.296336
vt 0.627485 0.995543
vt 0.627478 0.004647
vt 0.918815 0.995543
vt 0.918807 0.004647
vn 0.382683 -0.923880 0.000000
vn 0.382683 -0.923880 0.000000
vn 0.006747 -0.999977 0.000000
vn 0.006747 -0.999977 0.000000
vn 0.702320 -0.711861 0.000000
vn 0.702320 -0.711861 0.000000
vn 0.999928 0.011979 0.000000
vn 0.999928 0.011979 0.000000
vn 0.999928 0.011979 0.000000
vn 0.999928 0.011979 0.000000
vn -0.922875 -0.385099 0.000000
vn -0.922875 -0.385099 0.000000
vn -0.999928 -0.011979 0.000000
vn -0.999928 -0.011979 0.000000
vn -0.711861 -0.702320 0.000000
vn -0.711861 -0.702320 0.000000
vn -0.000000 0.000000 1.000000
vn 0.000000 0.000000 1.000000
vn 0.000000 0.000000 1.000000
vn -0.000000 0.000000 1.000000
vn 0.000001 0.000000 1.000000
vn 0.000001 0.000000 1.000000
vn 0.000001 0.000000 1.000000
vn 0.000001 0.000000 1.000000
vn 0.000000 0.000000 1.000000
vn 0.000000 0.000000 1.000000
vn 0.000003 0.000000 1.000000
vn 0.000003 0.000000 1.000000
vn 0.000000 0.000000 -1.000000
vn 0.000001 0.000000 -1.000000
vn 0.000001 0.000000 -1.000000
vn 0.000000 0.000000 -1.000000
vn -0.000000 0.000000 -1.000000
vn 0.000000 0.000000 -1.000000
vn 0.000000 0.000000 -1.000000
vn -0.000000 0.000000 -1.000000
vn 0.000001 0.000000 -1.000000
vn -0.000000 0.000000 -1.000000
vn -0.000000 0.000000 -1.000000
vn 0.000001 0.000000 -1.000000
vn 0.712620 0.701551 0.000000
vn 0.712620 0.701551 0.000000
vn 0.712620 0.701551 0.000000
vn 0.712620 0.701551 0.000000
vn 0.999908 0.013596 0.000000
vn 0.999908 0.013596 0.000000
vn 0.999908 0.013596 0.000000
vn 0.999908 0.013596 0.000000
vn -0.007827 0.999969 0.000000
vn -0.007827 0.999969 0.000000
vn -0.007827 0.999969 0.000000
vn -0.007827 0.999969 0.000000
vn -0.999909 -0.013520 0.000000
vn -0.999909 -0.013520 0.000000
vn -0.999909 -0.013520 0.000000
vn -0.999909 -0.013520 0.000000
vn -0.701550 0.712620 0.000000
vn -0.701550 0.712620 0.000000
vn -0.701550 0.712620 0.000000
vn -0.701550 0.712620 0.000000
vn 0.014113 0.999900 0.000000
vn 0.014113 0.999900 0.000000
vn 0.014113 0.999900 0.000000
vn 0.014113 0.999900 0.000000
vn -0.000001 1.000000 0.000000
vn -0.000001 1.000000 0.000000
vn -0.000001 1.000000 0.000000
vn -0.000001 1.000000 0.000000
usemtl lambert3SG
f 2/1/1 5/2/2 4/3/3 1/4/4
f 6/5/5 5/2/2 2/1/1 3/6/6
f 6/5/7 3/6/8 12/7/9 8/8/10
f 11/9/11 7/10/12 9/11/13 10/12/14
f 1/4/15 4/3/16 7/10/12 11/9/11
f 4/25/17 5/26/18 14/27/19 13/28/20
f 7/31/21 4/25/17 13/28/20 15/32/22
f 5/26/18 6/29/23 16/30/24 14/27/19
f 6/29/23 8/33/25 17/34/26 16/30/24
f 9/35/27 7/31/21 15/32/22 18/36/28
f 11/37/29 10/38/30 19/39/31 20/40/32
f 2/43/33 1/41/34 23/42/35 22/44/36
f 1/41/34 11/37/29 20/40/32 23/42/35
f 12/47/37 3/45/38 24/46/39 21/48/40
f 3/45/38 2/43/33 22/44/36 24/46/39
f 15/15/41 13/14/42 23/21/43 20/20/44
f 18/18/45 15/15/46 20/20/47 19/19/48
f 14/13/49 22/22/50 23/21/51 13/14/52
f 21/24/53 24/23/54 16/16/55 17/17/56
f 16/16/57 24/23/58 22/22/59 14/13/60
f 8/49/61 12/50/62 21/24/63 17/17/64
f 10/52/65 9/51/66 18/18/67 19/19/68
